<svg xmlns="http://www.w3.org/2000/svg" data-name="Layer 1"
  viewBox="166.79 274.452 2666.415 1951.094" width="550" height="550">
  <path fill="#f5f5f7"
    d="M2533.66 1845.43c62.39 95.63 45.2 192.61 24.56 250.31q-2.64 7.34-5.27 13.76H470.61c-3.53-4.27-7.29-8.85-11.19-13.76-84.25-105.88-243.86-358.93-134.29-651.94 144.84-387.33 669.94-141.13 894.06-429.51S1516 292.5 2052.25 372.92c506.18 75.9 619.88 549.87 503.38 853.08s-119.78 469.46-21.97 619.43Z"
    class="colorf5f5f7 svgShape"></path>
  <path fill="#f5f5f7"
    d="M2634.25 1375.23c65.66 3.74-24.42 157.38 54.7 256.71s-64.28 188.36-145.88 77.09 4.34-338.71 91.18-333.8Z"
    class="colorf5f5f7 svgShape"></path>
  <path fill="#7394bc"
    d="m634.36 1700.9-99 394.84h37.03l74.58-365.14-12.61-29.7zM761.51 1700.9l-77.56 394.84h37.03l53.15-365.14-12.62-29.7zM1124.07 1700.9l99 394.84h-37.03l-74.58-365.14 12.61-29.7zM996.92 1700.9l77.56 394.84h-37.03L984.3 1730.6l12.62-29.7z"
    class="color7394bc svgShape"></path>
  <path fill="#cedbee"
    d="M647.11 1478.12s-6.52-148.28 12-182.27 379.27-44 414.05 4.91 6.52 236 6.52 236l-420.62 22.86Z"
    class="colorcedbee svgShape"></path>
  <path fill="#92b1dd"
    d="M1090.78 1405a3 3 0 0 1-3-3c0-50-5.72-83.47-17.12-99.5-11-15.52-61.63-26.72-138.81-30.75-67.68-3.53-147.73-.93-204 6.62a3 3 0 0 1-.8-5.94c105.66-14.19 320.45-12.78 348.45 26.59 12.13 17.06 18.27 51.71 18.23 103a3 3 0 0 1-2.95 2.98ZM1161.37 1486.45c-26.08-40.57-123.16-39.12-130.41 29s14.49 175.32-14.49 207.2-282.54 40.57-334.71 23.19-55.06 7.24-7.24 29 415.85 27.53 470.91-20.29 44.2-224.14 15.94-268.1Z"
    class="color92b1dd svgShape"></path>
  <path fill="#f5f5f7"
    d="m1024.3 1387.79.45-.41c12.52-12.52 16.9-28.43 9.79-35.54s-23-2.73-35.54 9.79c-.6.61-1.18 1.24-1.75 1.86-31.46-20-73.37-25.48-119.39-25.48-56.45 0-106.72 8.22-139.11 41.42-12.42-12.11-27.9-16.23-34.9-9.23s-2.72 23 9.8 35.54a57.08 57.08 0 0 0 4.26 3.83c-10.83 22.43-16.9 51.54-16.9 89.2 0 136.13 79.19 139.32 176.89 139.32s176.89-3.19 176.89-139.32c-.04-51.26-11.27-86.7-30.49-110.98Z"
    class="colorf5f5f7 svgShape"></path>
  <path fill="#f5f5f7"
    d="M877.85 1639.16c-52.08 0-94.4-1.38-125.6-18.74-35.73-19.89-52.36-58.54-52.36-121.65 0-35.74 5.6-65.64 16.64-88.9a58.004 58.004 0 0 1-3.69-3.37c-12.92-12.92-17.32-29.54-9.8-37.06 7.3-7.3 22.83-3.55 35.68 8.49 28.18-28.34 71.16-41 139.13-41 53.83 0 91.75 8 119.21 25.17.38-.42.77-.83 1.18-1.23 12.92-12.92 29.54-17.31 37-9.8 3.72 3.72 4.7 9.68 2.74 16.78-1.88 6.8-6.24 13.9-12.3 20 20.24 26 30.08 62.31 30.08 110.88 0 63.11-16.64 101.76-52.36 121.65-31.15 17.4-73.47 18.78-125.55 18.78Zm-164.8-271.28a11.62 11.62 0 0 0-8.49 3.08c-6.68 6.68-2.29 21.94 9.79 34a53.27 53.27 0 0 0 4.19 3.76l.65.54-.37.76c-11.14 23.07-16.79 52.92-16.79 88.73 0 62.25 16.29 100.31 51.26 119.77 30.76 17.12 72.8 18.48 124.56 18.48s93.8-1.36 124.56-18.48c35-19.46 51.25-57.52 51.25-119.77 0-48.54-9.88-84.62-30.21-110.31l-.59-.76 1.12-1.08c5.92-5.93 10.18-12.79 12-19.33 1.75-6.32 1-11.54-2.18-14.7-6.69-6.68-22-2.28-34 9.8-.6.6-1.16 1.21-1.72 1.82l-.6.67-.76-.49c-27.16-17.27-64.92-25.31-118.82-25.31-68 0-110.61 12.68-138.34 41.1l-.75.77-.77-.75c-8.14-7.86-17.67-12.3-25-12.3Z"
    class="colorf5f5f7 svgShape"></path>
  <path fill="#cedbee" d="M832.08 1438.45s5.94 72.41 110.39 74.19c0 0-110.99 24.92-110.39-74.19Z"
    class="colorcedbee svgShape"></path>
  <path fill="#cedbee"
    d="M865.91 1443.79s14.24 46.3 70 39.77c.03 0-68.22 21.36-70-39.77ZM1068.76 1600c34.77 25.19 38 150.88 22.82 162.83s-334.73 37-372.73-7.61-21.73-110.71-19.56-136.32 328.03-48.9 369.47-18.9Z"
    class="colorcedbee svgShape"></path>
  <path fill="#7394bc"
    d="M1093.79 1653.85a3 3 0 0 1-2.92-2.33c-5.7-24.93-14-41.9-23.87-49.08-22.3-16.16-136-16.36-231.56-8.35a3 3 0 0 1-.5-6c80.17-6.72 209.06-9.74 235.58 9.47 14 10.17 22 34.22 26.2 52.6a3.11 3.11 0 0 1-2.93 3.69Z"
    class="color7394bc svgShape"></path>
  <path fill="#92b1dd"
    d="M612 1486.45c26.08-40.57 123.16-39.12 130.41 29s-14.53 175.3 14.47 207.18 282.55 40.57 334.71 23.19 55.06 7.24 7.24 29-415.83 27.5-470.89-20.31-44.23-224.1-15.94-268.06Z"
    class="color92b1dd svgShape"></path>
  <path fill="#7394bc"
    d="M899.6 1795c-114.12 0-242.33-9.68-274.31-37.46-45.68-39.67-46.93-163.44-30.33-233.83a4 4 0 0 1 7.86 1.49 3.38 3.38 0 0 1-.08.34c-8.5 36.06-11.62 84-8.14 125 4.12 48.54 16.88 84.39 35.93 100.94 40.3 35 266.56 41.75 398.53 30.87a4 4 0 0 1 .66 8c-35.02 2.87-81.29 4.65-130.12 4.65Z"
    class="color7394bc svgShape"></path>
  <path fill="#aec6d3"
    d="M2304.34 996.44s45.53-92.63 133.85-101.62c0 0-65.66 61-79.73 101.62s-54.12 0-54.12 0Z"
    class="coloraec6d3 svgShape"></path>
  <path fill="#aec6d3" d="M2339.71 822.75s-19.55 91.63 0 173.69H2269s8.18-141.8 70.71-173.69Z"
    class="coloraec6d3 svgShape"></path>
  <path fill="#cedbee"
    d="M2283.31 808.84s4 119.59 64.21 198.53l-64.21 32.83s-57.95-170.39 0-231.36Z"
    class="colorcedbee svgShape"></path>
  <path fill="#aec6d3"
    d="M2170.19 908.94s57.26 2.37 110.06 58.09c50.49 53.27 18.4 89.74 18.4 89.74l-13.8-20.07s-68.7-87.21-114.66-127.76Z"
    class="coloraec6d3 svgShape"></path>
  <path fill="#cedbee"
    d="M2177.52 859.84s54.72 17 91.45 84.41c35.11 64.46-5.28 91.45-5.28 91.45l-8.2-22.94s-43.97-101.92-77.97-152.92Z"
    class="colorcedbee svgShape"></path>
  <path fill="#dfe9f4" d="M2316.45 997s-27.55-101.41-95-131.89c0 0 42.21 70.77 53.35 147.64Z"
    class="colordfe9f4 svgShape"></path>
  <path fill="#dfe9f4"
    d="M2290.46 991.74s4.69-84.81 104.74-131.9c0 0-39.86 53.74-43 141.28s-61.74-9.38-61.74-9.38Z"
    class="colordfe9f4 svgShape"></path>
  <path fill="#fccd89"
    d="M2387.39 1146.5h-168.84s-42.34-50.84-26.9-92.23c11-29.55 34.53-19.84 42.9-52.28a101.69 101.69 0 0 0 2.77-19.64h131.3c2.72 48.89 25.48 41.16 39.81 60.82a45.77 45.77 0 0 1 5.82 11.1c15.48 41.39-26.86 92.23-26.86 92.23Z"
    class="colorfccd89 svgShape"></path>
  <path fill="#f28c70"
    d="M2204.11 1126.94a3 3 0 0 1-2.61-1.51c-10.93-19.12-22-47.16-12.66-72.21 5.63-15.07 14.86-20.79 23-25.83 4.27-2.65 8.3-5.15 11.81-8.82a3 3 0 0 1 4.45 4l-.11.11c-4 4.23-8.59 7-13 9.78-8 5-15.64 9.68-20.54 22.83-8.54 22.87 1.94 49.13 12.24 67.13a3 3 0 0 1-1.11 4.1 3.09 3.09 0 0 1-1.49.39ZM2408.43 1043.17C2328.66 993 2234.55 1002 2234.55 1002a101.69 101.69 0 0 0 2.77-19.64h131.3c2.72 48.88 25.48 41.15 39.81 60.81Z"
    class="colorf28c70 svgShape"></path>
  <rect width="314.21" height="32.05" x="2145.86" y="1127.02" fill="#92b1dd" rx="5.86"
    class="color92b1dd svgShape"></rect>
  <path fill="#7394bc"
    d="M2454.21 1162.07h-251.48a3 3 0 0 1 0-6h251.48a2.87 2.87 0 0 0 2.87-2.86v-10.32a3 3 0 0 1 6 0v10.32a8.87 8.87 0 0 1-8.87 8.86Z"
    class="color7394bc svgShape"></path>
  <path fill="#92b1dd" d="M1854.46 365.84h17.39v302.25h-17.39z" class="color92b1dd svgShape"></path>
  <path fill="#cedbee"
    d="M1863.16 603.84a101.08 101.08 0 0 0-101.07 101.06h202.13a101.06 101.06 0 0 0-101.06-101.06Z"
    class="colorcedbee svgShape"></path>
  <path fill="#7394bc"
    d="M1967.22 707.9H1809.5a3 3 0 0 1 0-6h151.68c-1.22-41.1-27.44-77-66-90a3 3 0 0 1 1.92-5.68c42 14.11 70.14 53.79 70.14 98.71Z"
    class="color7394bc svgShape"></path>
  <path fill="#aec6d3" d="M887.27 437.25h418.1v345.81h-418.1z" class="coloraec6d3 svgShape"></path>
  <path fill="#dfe9f4" d="M928 470.94h336.64v278.43H928z" class="colordfe9f4 svgShape"></path>
  <path fill="#cedbee" d="m1264.64 470.94 40.73-33.69v345.81l-40.73-33.69V470.94z"
    class="colorcedbee svgShape"></path>
  <path fill="#7394bc" d="M1309.36 787.06h-282.43a4 4 0 0 1 0-8h274.46l1-291.82a4 4 0 0 1 8 0Z"
    class="color7394bc svgShape"></path>
  <path fill="#cedbee" d="M887.27 437.25 928 470.94v278.43l-40.73 33.69V437.25z"
    class="colorcedbee svgShape"></path>
  <path fill="#ffffff"
    d="M1013.51 728.19a327.74 327.74 0 0 1 1.23-51c1.79-17 4.81-33.88 10.17-50.23a138.17 138.17 0 0 1 10.09-23.83 94.55 94.55 0 0 1 15.18-21.24c12.16-12.67 29.76-20.64 47.47-20.41 8.78-.1 17.71 1 26 4.27a61.26 61.26 0 0 1 22.1 14.5 79.71 79.71 0 0 1 14.79 21.64 127.8 127.8 0 0 1 8.51 24.47c4.15 16.74 5.51 33.91 5.75 51a315.32 315.32 0 0 1-3.86 50.89 359.09 359.09 0 0 0 1-50.81c-.42-8.45-1.15-16.87-2.33-25.22a189 189 0 0 0-4.93-24.7 133.61 133.61 0 0 0-8.69-23.39 74.81 74.81 0 0 0-14.14-20 57 57 0 0 0-20.21-13.07c-7.54-3-15.82-3.92-24-3.79-16.46-.28-32.22 6.86-43.72 18.48a89.44 89.44 0 0 0-14.65 19.87 143.36 143.36 0 0 0-10.23 22.84 260.82 260.82 0 0 0-11.61 49.15 375.56 375.56 0 0 0-3.92 50.58Z"
    class="colorfff svgShape"></path>
  <path fill="#ffffff"
    d="M1044.62 728.19c-1.38-22.57-.23-45.53 5.57-67.77 3-11 7.28-22.06 14.65-31.44a43.9 43.9 0 0 1 13.66-11.66 37.67 37.67 0 0 1 17.55-4.37 40.33 40.33 0 0 1 17.72 3.61 38.49 38.49 0 0 1 14 11.44 62 62 0 0 1 8.49 15.47 90.65 90.65 0 0 1 4.68 16.7 171.14 171.14 0 0 1 2.79 34.11 230.46 230.46 0 0 1-2.92 33.89 291.8 291.8 0 0 0 0-33.85 190.79 190.79 0 0 0-4.34-33.23c-2.54-10.76-6.36-21.4-13-29.74a33.67 33.67 0 0 0-12.11-9.75 34.9 34.9 0 0 0-15.24-3 32.07 32.07 0 0 0-15.06 3.6 39.94 39.94 0 0 0-12 10.09c-6.91 8.28-11.18 18.73-14.57 29.27a213.82 213.82 0 0 0-7 32.83 308.62 308.62 0 0 0-2.87 33.8Z"
    class="colorfff svgShape"></path>
  <path fill="#ffffff"
    d="M1069 728.19a141.64 141.64 0 0 1 1.35-39.7 63.2 63.2 0 0 1 6.58-19.36 27.22 27.22 0 0 1 7.11-8.25 18.68 18.68 0 0 1 21.7-.43 23.71 23.71 0 0 1 7.22 8.32 56.24 56.24 0 0 1 5.7 19.71 134.91 134.91 0 0 1-1.45 39.71c-.06-13.17-.62-26.33-3-39-1.28-6.27-2.89-12.56-6-17.75a19.32 19.32 0 0 0-5.66-6.37 13 13 0 0 0-7.67-2.16 12.86 12.86 0 0 0-7.59 2.48 23.15 23.15 0 0 0-5.76 6.51c-3.23 5.2-5.22 11.36-6.87 17.56-3.13 12.54-4.66 25.59-5.66 38.73ZM1102 495.32a39.39 39.39 0 0 1 4.49 12 57.64 57.64 0 0 1 1.23 12 56.9 56.9 0 0 1-1.22 12 38.55 38.55 0 0 1-4.5 12 39.05 39.05 0 0 1-4.5-12 57.56 57.56 0 0 1-1.22-12 59 59 0 0 1 1.24-12 39.36 39.36 0 0 1 4.48-12ZM1198 528.44a39.32 39.32 0 0 1-5.3 11.64 59 59 0 0 1-16.89 16.92 38.71 38.71 0 0 1-11.65 5.28 38.77 38.77 0 0 1 5.28-11.64 57.28 57.28 0 0 1 7.6-9.33 59.15 59.15 0 0 1 9.34-7.59 39.43 39.43 0 0 1 11.62-5.28ZM1229.3 601a39.3 39.3 0 0 1-8 9.92 58.36 58.36 0 0 1-9.7 7.13 57.18 57.18 0 0 1-10.94 5 38.9 38.9 0 0 1-12.6 2.18 39 39 0 0 1 8-9.94 59.1 59.1 0 0 1 20.66-12.1 39.39 39.39 0 0 1 12.58-2.19ZM1245.85 680.32A39.19 39.19 0 0 1 1234 685a58.39 58.39 0 0 1-12 1.43 57.56 57.56 0 0 1-12-1 38.94 38.94 0 0 1-12-4.31 39 39 0 0 1 11.89-4.69 57.68 57.68 0 0 1 12-1.41 58.82 58.82 0 0 1 12 1 39.77 39.77 0 0 1 11.96 4.3ZM993.08 528.44a39.66 39.66 0 0 0 5.29 11.64 58.81 58.81 0 0 0 7.59 9.34 57.71 57.71 0 0 0 9.33 7.6 38.77 38.77 0 0 0 11.64 5.28 38.52 38.52 0 0 0-5.28-11.64 56.26 56.26 0 0 0-7.6-9.33 57.72 57.72 0 0 0-9.34-7.59 39.26 39.26 0 0 0-11.63-5.3ZM961.79 601a39.18 39.18 0 0 0 8.06 9.92A58.56 58.56 0 0 0 990.48 623a39 39 0 0 0 12.61 2.18 38.79 38.79 0 0 0-8-9.94 59 59 0 0 0-20.65-12.1 39.21 39.21 0 0 0-12.65-2.14ZM945.2 680.32a39.39 39.39 0 0 0 11.9 4.68 59.9 59.9 0 0 0 24 .43 39.1 39.1 0 0 0 12-4.31 39 39 0 0 0-11.9-4.69 57.68 57.68 0 0 0-12-1.41 58.94 58.94 0 0 0-12 1 39.8 39.8 0 0 0-12 4.3Z"
    class="colorfff svgShape"></path>
  <path fill="#cedbee" d="m1520.85 930.08-.85 10.52c.33-6.53.85-10.52.85-10.52Z"
    class="colorcedbee svgShape"></path>
  <path fill="#7394bc"
    d="M2657.56 2116.37c0 11.36-3.09 20.49-6.88 20.49H332c-3.82 0-6.9-9.13-6.9-20.49s3.08-20.5 6.9-20.5h2318.68c3.79 0 6.88 9.19 6.88 20.5Z"
    class="color7394bc svgShape"></path>
  <path fill="#ffb2a8"
    d="m1458.1 1275.74-1.43 2.53-10 17.58-21.2-5.45c-7.13-67.34-.7-122.08 4.59-151.78 2.74-15.58 5.19-24.26 5.19-24.26l17.44-8.68 30.37 31c-26.59 91.25-24.96 139.06-24.96 139.06Z"
    class="colorffb2a8 svgShape"></path>
  <path fill="#f27c85"
    d="M1424.7 1271.92a2 2 0 0 1-2-1.86 557.73 557.73 0 0 1 2.81-108 2 2 0 0 1 2.23-1.74 2 2 0 0 1 1.74 2.23 553.14 553.14 0 0 0-2.79 107.17 2 2 0 0 1-1.85 2.14ZM1458.1 1275.74l-1.43 2.53c-5.87-23.36 8.19-83 7.41-101.6-.44-10.5 4.11-18-7.49-22.7-8.64-3.51-18.29-10.29-26.5-15.35 2.74-15.58 5.19-24.26 5.19-24.26l17.44-8.68 30.37 31c-26.62 91.25-24.99 139.06-24.99 139.06Z"
    class="colorf27c85 svgShape"></path>
  <path fill="#f5f5f7"
    d="m1518.41 1042.11-34.22 103.77a137.48 137.48 0 0 1-16.89-2.35c-29.09-5.88-41.8-18.84-41.8-18.84 22.29-128.77 62-170.74 62-170.74l5.4 15.41Z"
    class="colorf5f5f7 svgShape"></path>
  <path fill="#cedbee"
    d="m1518.41 1042.11-34.22 103.77a137.48 137.48 0 0 1-16.89-2.35c7-58.62 13.63-176.2 13.63-176.2l12 2Z"
    class="colorcedbee svgShape"></path>
  <path fill="#ffb2a8"
    d="M1782.13 1251.44c-1.63 8.77-2.78 13.89-2.78 13.89l-25.92-2.94s-.1-2.53-.3-6.92c-.12-3-.3-6.73-.51-11.14-.06-1-.11-2.15-.17-3.28-1.72-34-5.6-98.1-11-112.31-5.57-14.77-36.94-47.28-36.94-47.28l38.57-54.87 14.69 6.79.53.26s6 5.66 13 17c8.76 14.21 19.14 37.35 21.26 69.42 3.29 49.72-5.65 105.94-10.43 131.38Z"
    class="colorffb2a8 svgShape"></path>
  <path fill="#f27c85"
    d="M1783.14 1253.44h-.38a2 2 0 0 1-1.59-2.34c4.23-22.55 13.71-80.46 10.38-130.9a2 2 0 1 1 4-.26c3.35 50.89-6.19 109.19-10.45 131.9a2 2 0 0 1-1.96 1.6ZM1753.85 1240.68a11.2 11.2 0 0 1-1.2 3.65c-1 2.59-3.81 4.71-3.88 3.51a26.69 26.69 0 0 0 3.71-6.79c-1.72-34-5.6-98.1-11-112.31-5.57-14.77-36.94-47.28-36.94-47.28l38.57-54.87 14.69 6.79c2.37 2.83 7.1 5.16 10.7 12.91-2.64 9.53-9.7 23.23-19.6 39.93-12.86 21.69 4.42 21 3.47 35.49-1.37 20.54 4.68 52.8 1.48 118.97Z"
    class="colorf27c85 svgShape"></path>
  <path fill="#f5f5f7"
    d="M1767 1039.09s-6 20.1-28.2 40a131.5 131.5 0 0 1-26.13 18.11l-60.8-69.31-1.16-1.31 13.09-76.43 1.74-10.2 1.48-8.59s61.98 46.32 99.98 107.73Z"
    class="colorf5f5f7 svgShape"></path>
  <path fill="#cedbee"
    d="M1738.85 1079.1a131.5 131.5 0 0 1-26.13 18.11l-60.8-69.31c6.08-25 11.31-47.84 11.63-54 .39-7.44.39-16.46.3-23.71-.1-7.56-.3-13.22-.3-13.22l2 3 19.3 22.65s-5.85 113.95 54 116.48Z"
    class="colorcedbee svgShape"></path>
  <path fill="#273657"
    d="M1517.74 707.32s45.94-36 100.39 0 32 146.61 79.52 198.6c0 0-27.18 65.33-122.41 75.76s-143-19.92-143-19.92 17.35-46.26 2.57-133 24.46-132.36 82.93-121.44ZM1613.79 2035.61l-92.73 60.13h133.58s6.24-34.77-6.07-70.27Z"
    class="color273657 svgShape"></path>
  <path fill="#2c4fa0"
    d="M1651.09 2038.51c-5 9.78-28.61 4-36.58 2.6s-47.82-164.16-90.19-344.56c-25.36-107.89-32-248.42-33.33-344-.86-64.23.73-108.13.73-108.13l19.48-44h126.65a1435.74 1435.74 0 0 1 4.09 295.58c-10.63 119.49-32.51 194-32.51 194 15.28 32 25.65 72.76 32.58 115.09 17.7 108.23 12.73 226.39 9.08 233.42Z"
    class="color2c4fa0 svgShape"></path>
  <path fill="#273657"
    d="M1585.85 1950.6a3 3 0 0 1-2.9-2.24c-15.59-59.17-36.88-146-61.57-251.12-14.13-60.14-23.81-137.66-28.75-230.4a3 3 0 0 1 6-.32c4.92 92.39 14.55 169.55 28.6 229.35 24.68 105.06 46 191.84 61.54 251a3 3 0 0 1-2.13 3.67 2.55 2.55 0 0 1-.79.06ZM1647.64 1358.55q0-7.21-.17-14.52c0-1.37 0-2.74-.07-4.12q-.15-7.94-.4-16c0-1.39-.09-2.78-.14-4.17q-.24-7.46-.57-15c0-.85-.07-1.69-.11-2.53q-.36-8.39-.88-16.9c-.08-1.48-.17-3-.26-4.46q-.51-8.53-1.14-17.19c-.07-1-.16-2-.23-3q-.6-7.92-1.29-15.94l-.3-3.55q-.8-8.88-1.71-17.86l-.42-4c-.65-6.23-1.33-12.49-2.08-18.79H1511.2l-19.48 44s-2.07 64-1.21 128.26c21.35-.51 59.42 2.65 87.79 49.63 46.37 76.8 12.16 236.54 4.7 257.54-3.11 8.74 36.14 26.71 59 125.25-6.93-42.33-17.3-83.09-32.58-115.09 0 0 29.78-101.48 36.76-257.42 0-.61.06-1.22.08-1.83.23-5.19.43-10.42.61-15.72l.06-2.12q.24-7.24.38-14.63v-2.23c.1-5.13.17-10.32.22-15.54v-19.74a15.45 15.45 0 0 0 .11-2.33ZM1849.05 1989.54l-46.2 106.2h21.65l79.78-39.84s2.12-43.58-30.54-67.81Z"
    class="color273657 svgShape"></path>
  <path fill="#2c4fa0"
    d="M1883.45 1993.72c-4.36 8-31.21 14.49-37 9.41s-63.53-95-159-339.77c-49.72-127.51-77.82-233.06-93.53-307.41-16.19-76.71-19.19-120.18-19.19-120.18l27.35-20.64 76.62 14.87c95.64 153 80.44 431.72 80.44 431.72 30.56 33.28 56.24 86.86 76.19 141.37 33.43 91.5 50.84 185.64 48.12 190.63Z"
    class="color2c4fa0 svgShape"></path>
  <path fill="#273657"
    d="M1786.22 1896.25a3 3 0 0 1-2.7-1.69c-31-64-64.33-141.42-98.94-230.11-21.87-56.09-41.25-112.88-57.62-168.79a3 3 0 0 1 5.76-1.69c16.32 55.75 35.65 112.37 57.45 168.3 34.56 88.54 67.78 165.82 98.75 229.67a3 3 0 0 1-2.7 4.31ZM1835.26 1803.08c-49-123.92-79.36-117.28-85-130-9.64-21.5 8.87-101.12-23-245.36-21.27-96.37-133.4-71.8-133.4-71.8-16.19-76.71-19.19-120.18-19.19-120.18l27.35-20.64 76.62 14.86c95.64 153 80.44 431.72 80.44 431.72 30.55 33.32 56.23 86.89 76.18 141.4Z"
    class="color273657 svgShape"></path>
  <path fill="#f5f5f7"
    d="M1707 1234.7s-26 7.14-63.67 12.3c-5.62.8-11.47 1.5-17.56 2.17-6.49.71-13.24 1.31-20.14 1.82s-13.74.84-20.84 1c-3 .09-6.1.17-9.19.19h-5.29c-4.61 0-9.29-.09-14-.26-1.28 0-2.53-.06-3.66-.11l-1.82-.08c-8.83-.39-17.73-1.1-26.58-2.15a277.83 277.83 0 0 1-43.42-8.46s11.33-61.28 7.8-151.19c0-.94-.09-1.88-.13-2.83-.06-1.91-.15-3.79-.24-5.68-4.63-94.54-9.21-100.3-7.43-114.49 1-7.85 8.27-16 18.79-23.83a152.9 152.9 0 0 1 14.75-9.56c2.1-1.22 4.26-2.4 6.45-3.56 1.65-.9 3.39-1.76 5.08-2.62l.24-.12c2-1 4-2 6-2.92l.15-.06c3.08-1.46 6.21-2.85 9.34-4.18a263.73 263.73 0 0 1 40.08-13.68c7.18-1.69 16.25-1.13 25.93.86 1.4.28 2.79.58 4.2.92 1.65.39 3.33.84 5 1.31.3.06.6.15.9.24.92.25 1.86.53 2.83.83.6.17 1.22.37 1.8.56 3.56 1.11 7.07 2.33 10.56 3.69 2 .72 3.86 1.47 5.75 2.27 1.61.67 3.19 1.33 4.73 2 14.94 6.58 28 14.26 34.58 19.89 12.62 10.87 9.51 63.76 7.5 119-.22 5.51-.41 11.06-.56 16.57v.73a3.09 3.09 0 0 1 0 .43c-.71 24.88-.82 49.36 1.18 69.8 5 50.67 13.54 74.5 18 83.94a.06.06 0 0 0 0 .06c.8 1.63 1.44 2.83 1.91 3.64.11.22.24.39.32.56Z"
    class="colorf5f5f7 svgShape"></path>
  <path fill="#cedbee"
    d="M1575.63 1252.23h-5.29s-10.79-.11-17.62-.37l-1.82-.08c-8.83-.39-17.73-1.1-26.58-2.15l-3.47-174.31-4.2-91.69 3.36-42.78c-.92 22.89 1.59 76.07 41.8 99.26Z"
    class="colorcedbee svgShape"></path>
  <path fill="#6cc58d"
    d="M1736 1304.79s-3.07 1.93-8.6 4.88c-2.29 1.25-5 2.66-8.12 4.2a297.27 297.27 0 0 1-70.84 24.61s-10.84-33.63-22.66-89.31a1378.76 1378.76 0 0 1-27.78-207.92s19.71-4.89 24.43-130c5.49 1.71 11 3.75 16.3 6 1.6.67 3.18 1.33 4.74 2 2.34 1-18.12 107 42.06 138.84v.28a.48.48 0 0 0 0 .17c-.07 1.59-.39 7.29-.5 16.12v.73a3.09 3.09 0 0 1 0 .43v8.08c.12 31.93 3 89.07 19.22 145.66a.06.06 0 0 0 0 .06c.78 1.63 1.42 2.83 1.9 3.64.11.22.23.39.32.56.41.64.62.92.62.92s15.4 42.33 28.91 70.05Z"
    class="color6cc58d svgShape"></path>
  <path fill="#3e9a83"
    d="m1646.44 1342-.82-2.56c-.11-.34-11-34.41-22.75-89.61-7.74-36.53-18.23-95.79-24.29-170.66a3 3 0 1 1 6-.48c6 74.55 16.48 133.54 24.18 169.9 9.83 46.26 19.07 77.56 21.79 86.43a297.86 297.86 0 0 0 31.22-8.6 3 3 0 0 1 1.9 5.69 298.94 298.94 0 0 1-34.57 9.35Z"
    class="color3e9a83 svgShape"></path>
  <path fill="#6cc58d"
    d="M1553.2 1252.32c-.23 33.6-1 64.44-2.47 86.2 0 0-38 8.14-87.82-5.59 0 0 29.71-135.44 25.78-242.86a24.43 24.43 0 0 0-.11-2.83c-.07-1.91-.16-3.79-.25-5.68 0 0 19.77-42.08 11.36-138.32a152.9 152.9 0 0 1 14.75-9.56c2.11-1.22 4.26-2.4 6.45-3.56 0 0-11.33 84.19 29.84 112.63 0-.04 3.12 115.57 2.47 209.57Z"
    class="color6cc58d svgShape"></path>
  <path fill="#3e9a83"
    d="M1521.85 1343.87a226.18 226.18 0 0 1-59.73-8.09l-2.76-.76.63-2.8c.24-1.08 24.53-109.19 26.87-207.47a3 3 0 1 1 6 .14c-2.14 90-22.55 188.11-26.39 205.84a218.4 218.4 0 0 0 65.88 6.88 3 3 0 1 1 .31 6c-3.25.16-6.87.26-10.81.26ZM1736 1304.79s-3.07 1.93-8.6 4.88c-12.6-42.43-40.62-68.9-50.94-75.33-11.59-7.25 8.51-29 5.42-73.17-2.92-42 3-97.16 3.59-102.67-.07 1.59-.39 7.29-.5 16.12v.73a3.09 3.09 0 0 1 0 .43v8.08c.12 31.93 3 89.07 19.22 145.66a.06.06 0 0 0 0 .06c.78 1.63 1.42 2.83 1.9 3.64.11.22.23.39.32.56.41.64.62.92.62.92s15.46 42.37 28.97 70.09ZM1654 1057.41a5.55 5.55 0 0 0-6.21-4.7l-24.15 2.4a5.38 5.38 0 0 0-5 5.73v.08a5.57 5.57 0 0 0 6.2 4.7l24.15-2.4a5.38 5.38 0 0 0 5-5.72.28.28 0 0 0 .01-.09Z"
    class="color3e9a83 svgShape"></path>
  <path fill="#dfe9f4"
    d="M1611.91 908.32c-1.77 10-9 30.91-38.92 33.39-25.2 2.08-39.78-7.22-47-14.21l.24-.12c2-1 4-2 6-2.92l.15-.06c3.08-1.46 6.21-2.85 9.34-4.18a263.73 263.73 0 0 1 40.08-13.68c7.18-1.69 16.25-1.13 25.93.86 1.38.24 2.77.54 4.18.92Z"
    class="colordfe9f4 svgShape"></path>
  <path fill="#9b4b4b"
    d="M1419.63 1303.58s-42 51.74-293.42 732.75l30 8.58c251.39-681 293.41-732.75 293.41-732.75l-18.77-12.26Z"
    class="color9b4b4b svgShape"></path>
  <path fill="#f28c70"
    d="m1231.85 2066.42-2.62 9-5.83 20.28H967.54a70.26 70.26 0 0 1 70.24-70.28H1201a32.1 32.1 0 0 1 30.89 41Z"
    class="colorf28c70 svgShape"></path>
  <path fill="#c66161"
    d="M989.12 2049a3 3 0 0 1-2.12-5.13c14.06-14 31.63-21.45 50.82-21.45H1202a3 3 0 0 1 0 6h-164.15c-17.57 0-33.68 6.81-46.58 19.7a3 3 0 0 1-2.15.88Z"
    class="colorc66161 svgShape"></path>
  <path fill="#fccd89" d="m1229.19 2075.46-5.83 20.28H967.54a70.73 70.73 0 0 1 3-20.28Z"
    class="colorfccd89 svgShape"></path>
  <path fill="#c66161"
    d="M2164.69 1953.14c-.63-1.58-64.15-163.9-147.61-324-107-205.29-201.27-325.55-265.39-338.63-135.1-27.56-307.5 33.67-309.23 34.29l-10.89-30.25c7.39-2.66 182.7-64.89 326.55-35.54 43.63 8.9 92.12 49.88 148.24 125.28 42.83 57.54 89.71 135 139.33 230.19 84.18 161.51 148.21 325.12 148.85 326.71Z"
    class="colorc66161 svgShape"></path>
  <path fill="#9b4b4b"
    d="M2157.72 1854a3 3 0 0 1-2.76-1.81c-25.66-59.11-65.92-148.09-111.93-236.36-49.55-95.06-96.34-172.38-139.08-229.79-22.89-30.75-43.72-55-63.7-74.24a3 3 0 0 1 4-4.45l.12.12c20.22 19.44 41.28 44 64.37 75 42.92 57.68 89.88 135.26 139.58 230.6 46.09 88.43 86.41 177.56 112.12 236.75a3 3 0 0 1-1.55 4 2.84 2.84 0 0 1-1.17.18Z"
    class="color9b4b4b svgShape"></path>
  <path fill="#f28c70"
    d="M2337.2 1919.26v176.61h-258.12q0-8.7.86-17.38a176.44 176.44 0 0 1 174.12-159.17h1.63Z"
    class="colorf28c70 svgShape"></path>
  <path fill="#c66161" d="M2337.2 2078.49v17.38h-258.12q0-8.7.86-17.38Z"
    class="colorc66161 svgShape"></path>
  <path fill="#fccd89"
    d="M2097.32 2017.62h89.89a66.83 66.83 0 0 0 66.85-66.81v-31.49a176.57 176.57 0 0 0-156.74 98.3Z"
    class="colorfccd89 svgShape"></path>
  <path fill="#c66161"
    d="M2097.32 2020.62a3 3 0 0 1-3-3 3.05 3.05 0 0 1 .31-1.33 179.59 179.59 0 0 1 159.4-100h25.86a3 3 0 1 1 0 6h-25.83A172.85 172.85 0 0 0 2100 2019a3 3 0 0 1-2.68 1.62ZM2337.19 1903a29.9 29.9 0 0 0-29.89 29.88V2053h59.77v-120.15a29.88 29.88 0 0 0-29.88-29.88Z"
    class="colorc66161 svgShape"></path>
  <circle cx="2337.2" cy="2049.68" r="46.19" fill="#9b4b4b" class="color9b4b4b svgShape"></circle>
  <circle cx="2337.2" cy="2049.68" r="20.11" fill="#c66161" class="colorc66161 svgShape"></circle>
  <path fill="#9b4b4b"
    d="M2352.14 1936.11a14.94 14.94 0 0 0-14.94 14.94v18.48a14.94 14.94 0 1 0 29.87.77v-19.25a14.93 14.93 0 0 0-14.92-14.94Z"
    class="color9b4b4b svgShape"></path>
  <path fill="#ffb2a8"
    d="M1778.32 1299.51c-7.93 2.08-43.42-5.72-45.08-13.73s9.5-11.38 5.17-16.1-9.34-9.15.71-13.85a25.14 25.14 0 0 0 9.62-8 26.69 26.69 0 0 0 3.71-6.79l1.37-.37c2.74-.73 8.81-2.23 10-1.84 1.37.47 17.12 3.28 18.34 12.6a9.54 9.54 0 0 1-.1 3.11c-2.3 11.83 5.74 14.25 8.23 20.21s-4.06 22.69-11.97 24.76ZM1424.34 1290.11s-.82 4.76-6.52 10.87-.82 27.71 11.14 31.11c8.27 2.35 41.16-8.83 45.37-23.23s-3.56-19.79-8.42-23c-5.85-3.8-9-11.14-9-11.14l-16.43 1.23ZM1597 914.67a9.93 9.93 0 0 1-.4 1.2c-3.2 8.4-12.35 17.19-28.19 17.64-19.18.54-25.42-5.19-29.12-9.88-.15-.17-.27-.34-.4-.51s0 0 0-.07-.06-.26-.08-.39l-.11-1.43c3.13-1.42 6.24-2.72 9.28-3.92a207.58 207.58 0 0 1 25.68-8.62 40 40 0 0 1 11.12-1 76.8 76.8 0 0 1 11.32 1.41Z"
    class="colorffb2a8 svgShape"></path>
  <path fill="#ffb2a8"
    d="M1597 914.67a1.26 1.26 0 0 1-.4 1.2.75.75 0 0 1-.2.15c-4.65 2.9-30 17.51-56.77 7.8a1 1 0 0 1-.34-.19c-.15-.17-.27-.34-.4-.51s0 0 0-.07-.06-.26-.08-.39l-.11-1.43-.49-6-2.89-35.11 42.43-13.84 11.9 7.24 4.67 25.78 1.78 9.84Z"
    class="colorffb2a8 svgShape"></path>
  <path fill="#f27c85"
    d="M1594.18 899.32c-22.65 23.45-43.26 19.3-56.1 15.92l-2.89-35.11 42.43-13.84 11.9 7.24Z"
    class="colorf27c85 svgShape"></path>
  <path fill="#ffb2a8"
    d="M1468.85 771.55s-8.35 145.15 86.73 126.86c94.34-18.16 39-144.1 39-144.1l-80.73-17.25Z"
    class="colorffb2a8 svgShape"></path>
  <path fill="#f27c85"
    d="M1539.92 903c-30.6 0-52.64-18.89-64.24-55.44a3 3 0 0 1 5.61-2.14c0 .11.07.22.1.33 12.69 40 37.47 56.69 73.66 49.73 20.07-3.86 34.64-13.12 43.3-27.51a3 3 0 0 1 5.15 3.09c-9.59 15.92-25.5 26.12-47.32 30.31a85.31 85.31 0 0 1-16.26 1.63ZM1608.46 793.65c-4.71.69-3.86 14.86 1.36 17.24s-4.19 5.33-1.81 10.55 11.91 4.2 12.14-4.65-4.23-24.24-11.69-23.14Z"
    class="colorf27c85 svgShape"></path>
  <ellipse cx="1497.47" cy="820.72" fill="#273657" rx="6.5" ry="10.01"
    transform="rotate(-6.3 1497.467 820.74)" class="color273657 svgShape"></ellipse>
  <circle cx="1500.93" cy="814.08" r="3.39" fill="#ffffff" class="colorfff svgShape"></circle>
  <ellipse cx="1557.83" cy="813.87" fill="#273657" rx="6.5" ry="10.01"
    transform="rotate(-6.3 1557.809 813.854)" class="color273657 svgShape"></ellipse>
  <circle cx="1561.3" cy="807.22" r="3.39" fill="#ffffff" class="colorfff svgShape"></circle>
  <path fill="#f27c85"
    d="M1531.52 851.44h-.33c-4.4-.68-14.7-5-14.72-10.26 0-4.06 2.19-6.07 4.13-7.84a12.65 12.65 0 0 0 4.85-8.88c1.22-9.26-2.38-19.29-2.42-19.39a2.14 2.14 0 0 1 4-1.47c.16.45 4 11.12 2.64 21.42a16.83 16.83 0 0 1-6.21 11.48c-1.9 1.74-2.74 2.59-2.74 4.67.09 1.53 6.62 5.34 11.1 6a2.14 2.14 0 0 1-.33 4.26ZM1539 869.49h-.92a2.15 2.15 0 0 1-2.09-2.19 2.12 2.12 0 0 1 2.13-2.09h.06c17.65.41 19.11-12.2 19.17-12.73a2.14 2.14 0 0 1 4.26.45c0 .15-1.97 16.56-22.61 16.56Z"
    class="colorf27c85 svgShape"></path>
  <path fill="#273657"
    d="M1503.75 794.44c-.35-2.34-20.46-4.93-25.63 10.58 0 0 9-7.46 24-5.76 0 0 2.17-1.2 1.63-4.82ZM1542.93 788.56c0-2.36 19.53-7.86 26.89 6.73 0 0-10-6.07-24.57-2.2 0 0-2.33-.87-2.32-4.53Z"
    class="color273657 svgShape"></path>
  <path fill="#273657"
    d="M1514.28 756.73s-3.48 40.53-48.86 56.27v-46.59l48.86-33.28 83.64 18.45 12.82 39s-56.38 12.74-96.46-33.85Z"
    class="color273657 svgShape"></path>
  <path fill="#ffb2a8"
    d="M1599.74 791.52s17.43-15.21 24.69 12.93-18.93 25.79-22.43 20.95-2.26-33.88-2.26-33.88Z"
    class="colorffb2a8 svgShape"></path>
</svg>