<svg xmlns="http://www.w3.org/2000/svg" data-name="Layer 1"
  viewBox="207.276 350.717 2585.455 1798.566" width="550" height="550">
  <path fill="#f5f5f7"
    d="M2652 2029.15q-2 8-4 15.69H441.6q-6-7.69-11.52-15.68c-176.17-250-148.46-689.65 215.13-695.43 434.71-6.9 437.75-138.53 716.5-570.06s887.75-177.4 884.91 150.18c-1.75 201.22 26.55 338 69.57 437.26a570.05 570.05 0 0 0 37.46 72.3c1.84 3 3.72 6 5.6 9q3.6 5.61 7.26 11 4 5.91 8 11.61 10.53 14.71 21.47 28.12 3 3.69 6.05 7.3c5 6 10.1 11.76 15.21 17.39.74.83 1.48 1.63 2.22 2.42 4.55 5 9.14 9.79 13.73 14.51 5.2 5.34 10.42 10.51 15.64 15.58l3.16 3c.74.72 1.48 1.41 2.2 2.13s1.54 1.46 2.33 2.17c3.67 3.48 7.34 6.88 11 10.24s7.55 6.86 11.31 10.22l2 1.75a1.44 1.44 0 0 0 .27.22l4.48 4 1.95 1.7 1.1 1 2.24 2c1.1.94 2.17 1.9 3.27 2.84l1.84 1.61.27.23c1.79 1.54 3.58 3.11 5.37 4.66s3.3 2.84 4.93 4.26c.61.51 1.21 1 1.8 1.54l1.18 1 9.23 7.93q11.86 10.19 23.42 20.28 8 7 15.39 14.23c126.16 122.74 121.56 279.71 94.43 391.8Z"
    class="colorf5f5f7 svgShape"></path>
  <path fill="#f5f5f7"
    d="M1066.06 862.83c64.34 8.11 23.32 246.47-149.24 351.49-136.8 83.27-402.15 94.89-411.24 18.27s314.26-57.34 439.19-187.17c118.4-123 77.31-188.13 121.29-182.59ZM1125.84 830.74c-56.6-3.5 22.72-158.76-60.16-199.11-67.15-32.69-129.51-132.33-44.35-182.15 99.34-58.11 200.67 40.52 200.73 176.85s-59.84 206.67-96.22 204.41Z"
    class="colorf5f5f7 svgShape"></path>
  <path fill="#7394bc"
    d="M819.7 1825.65H526.84v-46.48c0-80.76 65.7-146.46 146.46-146.46s146.45 65.7 146.45 146.46Zm-279.46-13.44h266v-33c0-73.35-59.67-133-133-133s-133 59.66-133 133Z"
    class="color7394bc svgShape"></path>
  <path fill="#cedbee" d="M777.7 2037.04H568.8l-22.41-218.87h253.72l-22.41 218.87z"
    class="colorcedbee svgShape"></path>
  <path fill="#aec6d3" d="m551.52 1868.28 238.9 44.49 9.69-94.6H546.39l5.13 50.11z"
    class="coloraec6d3 svgShape"></path>
  <path fill="#92b1dd"
    d="M566.69 2020.52a4 4 0 0 1-4-3.59l-16.76-163.75a4 4 0 0 1 8-.81l16.77 163.75a4 4 0 0 1-3.58 4.38 2.1 2.1 0 0 1-.43.02Z"
    class="color92b1dd svgShape"></path>
  <rect width="279.46" height="28.02" x="533.52" y="1804.16" fill="#cedbee" rx="6.25"
    class="colorcedbee svgShape"></rect>
  <path fill="#92b1dd" d="M787.73 1836.18h-208a4 4 0 1 1 0-8h208a4 4 0 0 1 0 8Z"
    class="color92b1dd svgShape"></path>
  <path fill="#f28c70" d="m1916.81 1509.93-146.71 527.1h108.36l94.16-464.41-55.81-62.69z"
    class="colorf28c70 svgShape"></path>
  <path fill="#fccd89" d="M2279.06 2037.03h-400.6l38.35-527.1h208.84l153.41 527.1z"
    class="colorfccd89 svgShape"></path>
  <path fill="#c66161"
    d="M1884.51 1957.87h-.29a4 4 0 0 1-3.7-4.28l25.8-354.59a4 4 0 0 1 8 .58l-25.8 354.59a4 4 0 0 1-4.01 3.7Z"
    class="colorc66161 svgShape"></path>
  <path fill="#f28c70"
    d="M2264 1987.33a5 5 0 0 1-4.8-3.59l-137.33-468.81h-134.03a5 5 0 0 1 0-10h141.59l139.44 476a5 5 0 0 1-3.39 6.21 4.72 4.72 0 0 1-1.48.19Z"
    class="colorf28c70 svgShape"></path>
  <path fill="#f28c70" d="M2204.79 1933.08h-260.7l108-319.2 152.7 319.2z"
    class="colorf28c70 svgShape"></path>
  <path fill="#fccd89"
    d="M2060.29 1707.51a17.62 17.62 0 0 0-16.12 19l9.24 111.65a17.65 17.65 0 0 0 35.24-2.07c0-.28 0-.56-.07-.84l-9.25-111.65a17.63 17.63 0 0 0-19.04-16.09Z"
    class="colorfccd89 svgShape"></path>
  <circle cx="2075.24" cy="1887.98" r="17.64" fill="#fccd89" class="colorfccd89 svgShape"></circle>
  <path fill="#aec6d3"
    d="M2328.84 1168s66 20.45 77.9 165.86v145.41l-24.82 9.09s-42.74-115.44-53-194-.08-126.36-.08-126.36Z"
    class="coloraec6d3 svgShape"></path>
  <path fill="#7394bc"
    d="M2400.49 1477.72a1.13 1.13 0 0 1-1.11-.91l-45.54-243.87a1.13 1.13 0 0 1 .9-1.31 1.1 1.1 0 0 1 1.29.89l45.55 243.89a1.12 1.12 0 0 1-.9 1.3Z"
    class="color7394bc svgShape"></path>
  <path fill="#aec6d3"
    d="M2414 1152.08s55.2 65.89 39.53 193.12l-53.48 23.22-18.17-74.3s34.42-75.02 32.12-142.04Z"
    class="coloraec6d3 svgShape"></path>
  <path fill="#7394bc"
    d="M2413.65 1399.15h-.25a1.12 1.12 0 0 1-.85-1.34c24.28-110 12.61-202.61 12.49-203.54a1.12 1.12 0 0 1 2.2-.38s0 .07 0 .1c.12.92 11.84 93.87-12.52 204.3a1.11 1.11 0 0 1-1.07.86Z"
    class="color7394bc svgShape"></path>
  <path fill="#aec6d3"
    d="M2512.84 1421.19s65.92-49.86 108-132.77c0 0-5.68 119.28-45.44 188.58s-79.56 143.12-79.56 143.12l-15.91-44.3s20.45-135.19 21.59-138.6 11.32-16.03 11.32-16.03Z"
    class="coloraec6d3 svgShape"></path>
  <path fill="#7394bc"
    d="M2490.53 1599.28a.76.76 0 0 1-.3 0 1.12 1.12 0 0 1-.8-1.37c35.24-128.93 105.46-242.28 106.16-243.4a1.12 1.12 0 0 1 2 1.08l-.06.1c-.7 1.13-70.75 114.21-105.89 242.82a1.14 1.14 0 0 1-1.11.77Z"
    class="color7394bc svgShape"></path>
  <path fill="#cedbee"
    d="M2454 1477s-15-204.48 128.15-282.87c0 0-22 32.94-26.32 141.44s-96.37 295.93-96.37 295.93Z"
    class="colorcedbee svgShape"></path>
  <path fill="#7394bc"
    d="M2479.92 1576.94a1.12 1.12 0 0 1-1.12-1.12c0-176 51.08-296.51 51.59-297.71a1.11 1.11 0 0 1 1.47-.58 1.12 1.12 0 0 1 .59 1.47c-.51 1.19-51.41 121.33-51.41 296.82a1.12 1.12 0 0 1-1.12 1.12Z"
    class="color7394bc svgShape"></path>
  <path fill="#cedbee"
    d="M2498.63 1621.82s-.69-162.49 131.85-223.79c0-.03-27.33 132.51-131.85 223.79Z"
    class="colorcedbee svgShape"></path>
  <path fill="#7394bc"
    d="M2495.84 1621.24a.89.89 0 0 1-.43-.08 1.13 1.13 0 0 1-.61-1.46c45-109.1 88-160 88.42-160.53a1.12 1.12 0 0 1 1.7 1.46c-.42.5-43.21 51.19-88.05 159.92a1.11 1.11 0 0 1-1.03.69Z"
    class="color7394bc svgShape"></path>
  <path fill="#cedbee"
    d="M2308.38 1346.34s75 39.76 117 153.36-38.62 120.42-38.62 120.42l-21.22-29.53s-23.09-38.63-27.63-102.25-22.71-74.98-29.53-142Z"
    class="colorcedbee svgShape"></path>
  <path fill="#7394bc"
    d="M2381.91 1596.26a1.12 1.12 0 0 1-1.1-1.14c1.92-147.78-51.18-220.13-51.72-220.84a1.11 1.11 0 0 1 .22-1.57 1.13 1.13 0 0 1 1.57.22c.54.72 54.11 73.6 52.17 222.22a1.13 1.13 0 0 1-1.14 1.11Z"
    class="color7394bc svgShape"></path>
  <path fill="#cedbee"
    d="M2355 1219.1s77.1 20.5 88.62 154.5l14.93 241.76h-51.77s-49.67-44-33.6-150.87c19.27-128.38 5.66-180.63-18.18-245.39Z"
    class="colorcedbee svgShape"></path>
  <path fill="#7394bc"
    d="M2429.12 1644a1.12 1.12 0 0 1-.92-.48c-.58-.85-14.12-22.34-10.47-160.28 3.64-137.33-36.45-235-36.86-236a1.11 1.11 0 0 1 .6-1.46 1.12 1.12 0 0 1 1.47.6c.41 1 40.69 99.13 37 236.94-3.61 136.4 9.95 158.75 10.09 159a1.13 1.13 0 0 1-.32 1.55 1.11 1.11 0 0 1-.59.13Z"
    class="color7394bc svgShape"></path>
  <path fill="#dfe9f4"
    d="M2470.84 1588.31s-36.35-193.12 111.33-281.73c0 0-38.62 57.94-37.48 140.87s-57.9 147.68-57.9 147.68Z"
    class="colordfe9f4 svgShape"></path>
  <path fill="#7394bc"
    d="M2492 1612.91a1.09 1.09 0 0 1-1.11-1c-15.4-134 47.41-243 48-244.1a1.12 1.12 0 0 1 1.93 1.13c-.63 1.08-63.07 109.47-47.76 242.71a1.12 1.12 0 0 1-1 1.24Z"
    class="color7394bc svgShape"></path>
  <path fill="#dfe9f4"
    d="M2438.46 1588.88s-47.15-76.11-36.93-143.14 77.26-196 73.85-324.34c0 0 44.3 26.13 29.53 150s-40.69 146.07-22.72 255.61-14.77 86.34-14.77 86.34Z"
    class="colordfe9f4 svgShape"></path>
  <path fill="#7394bc"
    d="M2470.08 1599.28a1.11 1.11 0 0 1-1-.65c-.52-1.11-51.37-112-24.29-197.72 26.92-85.23 34-153.59 34-154.27a1.12 1.12 0 0 1 2.23.22c-.07.68-7.14 69.26-34.13 154.72-26.82 84.93 23.67 195 24.18 196.11a1.11 1.11 0 0 1-.54 1.48 1 1 0 0 1-.45.11Z"
    class="color7394bc svgShape"></path>
  <path fill="#92b1dd"
    d="m2563.99 1570.14-8.15 84.94-8.61 89.77-7.84 81.58-8.58 89.53-8.2 85.34-3.43 35.74h-119.42l-7.06-73.47-8.75-91.27-10.56-109.92-10.53-109.83-7.91-82.41h209.04z"
    class="color92b1dd svgShape"></path>
  <path fill="#7394bc"
    d="m2555.84 1655.08-8.61 89.78c-86.61-15.85-145.47-54.07-184.37-92.31l-7.91-82.41h44.48c34.79 33.7 85.14 67.1 156.41 84.94ZM2539.39 1826.42l-8.58 89.53c-60.69-4.84-109.09-22.2-146.86-43.66l-10.56-109.87c38.7 28.84 92.94 55.58 166 64ZM2522.61 2001.3l-3.43 35.74h-119.42l-7.05-73.47c34.66 18.15 77.58 32.63 129.9 37.73Z"
    class="color7394bc svgShape"></path>
  <path fill="#dfe9f4" d="M1683.31 648.44h754.2v454.42h-754.2z" class="colordfe9f4 svgShape"></path>
  <path fill="#f5f5f7"
    d="m2138.43 648.44-454.42 454.42h-.7V981.49l333.06-333.05h122.06zM2437.52 648.44v96.92l-357.5 357.5h-219.97l454.42-454.42h123.05z"
    class="colorf5f5f7 svgShape"></path>
  <path fill="#aec6d3"
    d="M1666.51 631.63v494.7h787.82v-494.7Zm754.21 230.55h-343.5V665.24h343.5Zm-377.11-196.94v196.94h-343.5V665.24Zm-343.5 230.54h343.5v196.94h-343.5Zm377.11 196.94V895.78h343.5v196.94Z"
    class="coloraec6d3 svgShape"></path>
  <path fill="#7394bc"
    d="M1700.11 869.68a7.5 7.5 0 0 1-7.5-7.5V657.74h351a7.5 7.5 0 1 1 0 15h-336v189.44a7.5 7.5 0 0 1-7.5 7.5ZM2461.84 1133.83h-645.33a7.5 7.5 0 0 1 0-15h630.33v-297.2a7.5 7.5 0 0 1 15 0Z"
    class="color7394bc svgShape"></path>
  <circle cx="717.62" cy="963.94" r="27.64" fill="#cedbee" class="colorcedbee svgShape"></circle>
  <path fill="#aec6d3" d="M707.39 510.71h20.45v390.68h-20.45z" class="coloraec6d3 svgShape"></path>
  <path fill="#92b1dd"
    d="M801.73 950.17 726 804.33a9.43 9.43 0 0 0-16.73 0l-75.76 145.84a9.41 9.41 0 0 0 8.36 13.77h151.49a9.44 9.44 0 0 0 8.37-13.77Z"
    class="color92b1dd svgShape"></path>
  <path fill="#7394bc"
    d="M793.36 967.94H672.84a4 4 0 0 1 0-8h120.52a5.43 5.43 0 0 0 4.82-7.93l-59-115.08a4 4 0 0 1 7.12-3.65l59 115.06a13.43 13.43 0 0 1-11.93 19.6Z"
    class="color7394bc svgShape"></path>
  <ellipse cx="717.62" cy="1048.55" fill="#cedbee" rx="4.17" ry="31.26" class="colorcedbee svgShape"></ellipse>
  <ellipse cx="757.82" cy="1029.72" fill="#cedbee" rx="4.17" ry="31.26"
    transform="rotate(-28.13 757.816 1029.714)" class="colorcedbee svgShape"></ellipse>
  <ellipse cx="780.84" cy="994.46" fill="#cedbee" rx="4.17" ry="31.26"
    transform="rotate(-53.99 780.846 994.464)" class="colorcedbee svgShape"></ellipse>
  <ellipse cx="675.35" cy="1029.54" fill="#cedbee" rx="31.26" ry="4.17"
    transform="rotate(-61.87 675.348 1029.55)" class="colorcedbee svgShape"></ellipse>
  <ellipse cx="652.32" cy="994.68" fill="#cedbee" rx="31.26" ry="4.17"
    transform="rotate(-36.01 652.312 994.678)" class="colorcedbee svgShape"></ellipse>
  <path fill="#273657"
    d="M1244.84 844.56s28.78-23.1 56.42-3 31.43 72.13 40.52 109 78 52 63.24 102.72-176.09 123.83-176.09 123.83-72 22.72-90.12-14.39 32.57-83-4.54-124-45.45-83.7-12.88-114.27 18.93-63.89 45.44-80.17c24.66-15.28 62.06-15.13 78.01.28ZM1289.36 1991l-68.73 46h106.78s6.25-25.56-2.84-46-35.21 0-35.21 0Z"
    class="color273657 svgShape"></path>
  <path fill="#2c4fa0"
    d="M1429.08 1348.24a453.61 453.61 0 0 1-2.53 46.76c-.36 3.56-.76 7.15-1.21 10.71-4.55 36.77-12.86 73.76-22.85 108.66-31 108.31-77.93 196.63-77.93 196.63 7.44 11.61 11.45 32.62 13.25 58.12 6 85.68-13.25 221.92-13.25 221.92h-35.19s-25-258.08-23.48-333.81c1-50.82 19.94-172.59 32.26-247.17 6-36.57 10.53-61.82 10.53-61.82a405.62 405.62 0 0 1 42.55-14.43c34.66-9.57 77.85-15.48 77.85 14.43Z"
    class="color2c4fa0 svgShape"></path>
  <path fill="#273657"
    d="M1277.1 1850.21a3 3 0 0 1-3-2.75c-8.07-95.36-11.85-159.38-11.22-190.29.56-28.7 7.09-82.66 19.94-165a3 3 0 0 1 5.93.93c-12.81 82-19.31 135.73-19.88 164.16-.6 30.27 3.27 95.85 11.21 189.67a3 3 0 0 1-2.74 3.24ZM1324.56 1711c7.44 11.61 11.45 32.62 13.25 58.12-13.07-54.24-43.25-94.53-44.43-96.12l20.41 14.14c51.13-103.06 58-182.15 57.69-219.48a132 132 0 0 1 37.15 24.11c-30.41 118.34-84.07 219.23-84.07 219.23ZM1582.22 1970.7l-49.38 66.3 100.65-35.68s-2.65-26.18-18-42.41-33.27 11.79-33.27 11.79Z"
    class="color273657 svgShape"></path>
  <path fill="#2c4fa0"
    d="m1620.27 1963.8-37.85 10.71s-111.58-265.79-179.93-460.09c-14.12-40.17-26.39-77.25-35.45-108.32-5.22-18-9.38-33.86-12.21-47.21a177.13 177.13 0 0 1-3.6-25c-5.83-90.78 89.75-59.64 127.57-43.87 9.25 3.86 15.06 6.79 15.06 6.79s10.89 17.83 21.91 58.55c.45 1.63.9 3.31 1.34 5 .54 2.13 1.1 4.31 1.64 6.55 13.42 54.84 25.56 144.55 16.76 278.27 0 0 10 13.78 24.62 53.81 5.69 15.73 12.12 35.52 18.89 60.1 1.7 6.18 3.43 12.65 5.17 19.47 11.81 45.97 24.36 106.44 36.08 185.24Z"
    class="color2c4fa0 svgShape"></path>
  <path fill="#273657"
    d="M1547.84 1892.67a3 3 0 0 1-2.77-1.84c-63.85-152.39-80.15-193.82-116.22-295.53a3 3 0 1 1 5.55-2.26 2.77 2.77 0 0 1 .1.26c36 101.57 52.31 143 116.11 295.21a3 3 0 0 1-1.61 3.93 3.08 3.08 0 0 1-1.16.23ZM1518.75 1366.84q-16.74 6-30 6c-9 0-16.72-2.06-23.21-6.16-17.08-10.8-18.76-31.57-18.8-32.46l3.34-.23 3.36-.24c0 .18 1.54 18.35 15.73 27.29 11.22 7 27.33 6.81 47.94-.77.54 2.15 1.1 4.33 1.64 6.57Z"
    class="color273657 svgShape"></path>
  <path fill="#273657"
    d="M1535.51 1645.11s10 13.78 24.62 53.81c-23.64-46.28-60.13-76.89-61.7-78.19l17.56 11.32c6.81-188-44.29-308.43-44.29-308.43v-22.2l7.1-11.52c9.25 3.86 15.06 6.79 15.06 6.79s58.3 95.46 41.65 348.42ZM1429.08 1519a168.21 168.21 0 0 0-17.29-19 171.73 171.73 0 0 0-19.59-15.69 250.52 250.52 0 0 0-21.61-13.16c-7.48-4.1-15.15-7.92-23.13-11.75 8.92.19 17.64 2.36 26 5.32a105.13 105.13 0 0 1 23.82 12.21 91.74 91.74 0 0 1 19.7 18.34 65.34 65.34 0 0 1 12.1 23.73Z"
    class="color273657 svgShape"></path>
  <path fill="#273657"
    d="M1515.77 1355.28c-25.86 19.11-57.74 31.59-89.22 39.72a462.69 462.69 0 0 1-59.51 11 536 536 0 0 1-68.89 4c6-36.57 10.53-61.82 10.53-61.82a405.62 405.62 0 0 1 42.55-14.43c-5.83-90.78 89.75-59.64 127.57-43.87 9.25 3.86 15.06 6.79 15.06 6.79s10.89 17.89 21.91 58.61Z"
    class="color273657 svgShape"></path>
  <path fill="#ffb2a8"
    d="m1291.07 1410-1.17.4-30.74 10.82s-27.71-48.73-39.45-79.4a528.49 528.49 0 0 1-24.36-84.83c-3.38-17.12-4.52-27.62-4.52-27.62s43.24-60.61 49.29 0 50.95 180.63 50.95 180.63Z"
    class="colorffb2a8 svgShape"></path>
  <path fill="#f27c85"
    d="M1260.17 1423.19a2 2 0 0 1-1.73-1c-.29-.49-28.93-49.23-40.6-79.71a449.31 449.31 0 0 1-17.65-58.11 2 2 0 0 1 3.89-.92 445.06 445.06 0 0 0 17.5 57.6c11.54 30.17 40 78.62 40.31 79.1a2 2 0 0 1-.71 2.74 2 2 0 0 1-1.01.3ZM1291.07 1410l-1.17.4c-21.15-34.66-45.93-149.49-68-149.62-12.46-.07-21.26-2-26.6-3.79-3.38-17.12-4.52-27.62-4.52-27.62s43.24-60.61 49.29 0 51 180.63 51 180.63Z"
    class="colorf27c85 svgShape"></path>
  <path fill="#6cc58d"
    d="M1257.55 1239.17c-7 4.68-15.57 7.35-24.38 8.72-23.19 3.65-47.76-1.53-47.76-1.53-10.78-75.55 5.49-130.64 5.49-130.64l20.83-2.64 7.91 6.65 35.25 29.67Z"
    class="color6cc58d svgShape"></path>
  <path fill="#3e9a83"
    d="M1257.55 1239.17c-7 4.68-15.57 7.35-24.38 8.72-26.34-45.71-39.7-117.43-39.7-117.43l26.17-10.73 35.25 29.67Z"
    class="color3e9a83 svgShape"></path>
  <path fill="#6cc58d"
    d="M1518.84 1307.33s-13.76 12.37-37.84 28.07c-40.09 26.15-108.76 61.48-190.13 64.33 0 0-15.15-122.69-48.47-173.44s-53-98.45-51.5-110.57c.82-6.59 18.57-26.66 37.1-44.3 15.52-14.81 31.59-27.91 38.65-29.91 13.62-3.89 29-6.4 43.75-8 25.84-2.71 49.7-2.49 58.86-1.52 1.82.2 4.15 3.09 6.9 8.06 19 34.48 58.19 169.23 91.93 208.91 38.63 45.51 50.75 58.37 50.75 58.37Z"
    class="color6cc58d svgShape"></path>
  <path fill="#3e9a83"
    d="m1288.2 1402.82-.31-2.75c-.11-.89-10.52-89.52-33.79-146.21a3 3 0 0 1 5.55-2.28c21.25 51.76 31.88 129.48 33.86 145 36.79-1.62 74.57-10 112.34-25.07a3 3 0 0 1 2.42 5.49l-.2.08c-39.35 15.65-78.75 24.26-117.1 25.6Z"
    class="color3e9a83 svgShape"></path>
  <path fill="#abdda8"
    d="M1288.22 1081.08c-35.46 17.12-60.22-9.66-60.22-9.66 3.29-3.13 6.61-6.2 9.86-9.09 12.07-10.78 23.23-19.25 28.79-20.82a242.36 242.36 0 0 1 33.34-6.7q5.23-.7 10.41-1.25c5.17-.56 9.6 32.17-22.18 47.52Z"
    class="colorabdda8 svgShape"></path>
  <path fill="#3e9a83"
    d="M1468.09 1249c-33.74-39.68-73-174.43-91.93-208.91s8.06 23.13 17.41 57.87c0 .09 6 49.5-30.33 65.44s-59.64 4-80.09 26.74-47.9 15.08-47.9 15.08 27.24 15.89 53.19-4.42 71.39-18 91.27-29.4c11.82-6.76 24-2 32 2.91 16.42 52.26 62 48.42-27.61 144.39-79.42 85.09-18.1 39.39-18.1 39.39s81.31-56 115-22.68c24.08-15.7 37.84-28.07 37.84-28.07s-12.12-12.87-50.75-58.34Z"
    class="color3e9a83 svgShape"></path>
  <path fill="#fccd89"
    d="M1050.48 1991.54c-5.17 16.59-21.18 32.87-42.1 45.55-26.8 16.23-61.67 26.55-92.18 24-28.62-2.38-48 1.88-60 6.44H646.28c5-13.74 20.93-23 40.17-30.46 26.81-10.32 60.12-17 79.62-26.83 36.22-18.28 83.74 15.58 101.86-33.19s34.7-57.82 34.7-57.82c.07-4.62.18-9.19.38-13.68a495.2 495.2 0 0 1 13.19-93.84l30.93-22.59 49.34-19.21 11-4.28 34 59.63c-10.63 95.79 25.61 112.95 9.01 166.28Z"
    class="colorfccd89 svgShape"></path>
  <path fill="#f28c70"
    d="M956.19 1904.35s-35.46-.91-53.56 14.91c.07-4.62.18-9.19.38-13.68a80 80 0 0 1 53.18-1.23Z"
    class="colorf28c70 svgShape"></path>
  <path fill="#f28c70"
    d="M1050.48 1991.54c-5.17 16.59-21.18 32.87-42.1 45.55-26.8 16.23-61.67 26.55-92.18 24-28.62-2.38-48 1.88-60 6.44h-10.36c36.89-56.1 77.57-3.78 112.28-30.47a50.68 50.68 0 0 0 7.1-6.72c37.71-42.9 66-24.37 71.3-74.09s-8.68-43.8-19.24-61.42 15.82-9.94 8.66-56.47-45.64-40.2-45.64-40.2l16.16-28.25 11-4.28 34 59.63c-10.62 95.79 25.62 112.95 9.02 166.28Z"
    class="colorf28c70 svgShape"></path>
  <path fill="#9b4b4b"
    d="M978.08 1756.93a11.2 11.2 0 0 1-7.65-19.16L1508.57 1204a11.2 11.2 0 0 1 15.78 15.91l-538.14 533.77a11.15 11.15 0 0 1-8.13 3.25Z"
    class="color9b4b4b svgShape"></path>
  <path fill="#c66161"
    d="M1044 1809.67c-1.41 10.32-3 17.18-3 17.18s-45.44-43.17-125.72-11.36c0 0 1.41-5.22 4.24-13.33 10.12-29 38.51-94.82 85.9-88.9 45.11 5.67 42.71 66.05 38.58 96.41Z"
    class="colorc66161 svgShape"></path>
  <path fill="#9b4b4b"
    d="M1044 1809.67c-1.41 10.32-3 17.18-3 17.18s-45.44-43.17-125.72-11.36c0 0 1.41-5.22 4.24-13.33 15.48-7.48 38.31-13.69 70-11.29a111.84 111.84 0 0 1 54.48 18.8Z"
    class="color9b4b4b svgShape"></path>
  <path fill="#ffb2a8"
    d="M1260.67 1414.78s-5.3 17.42 0 23.48 9.09 3.41 20.45 17 30.72-10.19 30.72-23.84-10.5-21.2-23.62-25.37-27.55 8.73-27.55 8.73ZM1479.45 1216.49s-9.84 10.25-13.25 18.2 15.15 11.74 14.77 26.13 71.38-3.45 25.85-44.33Z"
    class="colorffb2a8 svgShape"></path>
  <path fill="#ffb2a8"
    d="M1506.84 1216.5h-27.36l-.07-.79-7.57-86.77-.81-9.14 20.26-4.46 23-5.06s.16 1.18.27 4.14c.22 9.58-.02 37.35-7.72 102.08Z"
    class="colorffb2a8 svgShape"></path>
  <path fill="#ffb2a8"
    d="M1514.49 1114.42c-1.07 9.43-13 17.14-32.53 15.89a77.11 77.11 0 0 1-10.15-1.37c-10.28-2-22.11-6.32-35.15-13.6l-20.06-15.15s4.91-23.75 4.91-23.79 32.2-16.22 32.2-16.22 4.43 2.48 11 6.52c14 8.67 37.55 24.4 46.85 37.59a14.68 14.68 0 0 1 2.93 10.13Z"
    class="colorffb2a8 svgShape"></path>
  <path fill="#f27c85"
    d="M1510.51 1181.42h-.16a2 2 0 0 1-1.84-2.14l5-65c.31-2.86-1.77-6.21-3.62-8.82-5.62-8-17.55-18.43-33.58-29.43a2 2 0 1 1 2.22-3.32c11.61 8 27 19.72 34.59 30.42 2.39 3.38 4.78 7.39 4.33 11.5l-5 64.88a2 2 0 0 1-1.94 1.91Z"
    class="colorf27c85 svgShape"></path>
  <path fill="#f27c85"
    d="M1504.07 1115s-17.54-1-22.11 15.35a33.46 33.46 0 0 0-1 11.53c1.51 22.86.34 65.34 0 74.66v1.83l-1.12-1.83-.47-.79-7.57-86.77c-10.28-2-22.11-6.32-35.15-13.6l-20.06-15.15s4.91-23.75 4.91-23.79 32.2-16.22 32.2-16.22 4.43 2.48 11 6.52c.72 8.58 1.24 24.4-2.62 39.56-4.55 17.86 12 11.27 29.22 9.08a55.1 55.1 0 0 1 12.77-.38Z"
    class="colorf27c85 svgShape"></path>
  <path fill="#6cc58d"
    d="M1462 1058.54s-2.31 31.41-14.54 53.57a58.62 58.62 0 0 1-6.29 9.3s-15.06-2.2-34.58-5.29c-8.44-22.69-16.13-43.69-22.56-59-.72-1.68-1.41-3.3-2.08-4.82-5.36-12.3-9.73-19.94-12.73-20.25-.94-.09-2.06-.18-3.29-.27l.27-.41s50.4 7.48 95.8 27.17Z"
    class="color6cc58d svgShape"></path>
  <path fill="#3e9a83"
    d="M1447.5 1112.11a58.62 58.62 0 0 1-6.29 9.3s-15.06-2.2-34.58-5.29c-8.44-22.69-16.13-43.69-22.56-59 17.77 40.16 51.15 51.88 63.43 54.99Z"
    class="color3e9a83 svgShape"></path>
  <path fill="#ffb2a8"
    d="M1299.36 1050.14c-1.88 6.65-6.48 13.85-16.63 18.75-16.58 8-30.06 3.34-38-1.41a39.47 39.47 0 0 1-6.9-5.15c1.68-1.5 3.33-3 5-4.33 10.1-8.67 19-15.14 23.82-16.49a229.42 229.42 0 0 1 25.43-5.53c2.62-.43 5.26-.81 7.91-1.17a34.23 34.23 0 0 1-.63 15.33Z"
    class="colorffb2a8 svgShape"></path>
  <path fill="#ffb2a8"
    d="M1299.36 1050.14c-1.88 6.65-6.48 13.85-16.63 18.75-16.58 8-30.06 3.34-38-1.41l-1.93-9.48-.34-1.65-7.28-35.67 45.22-7.33 8 15.5 3.68 7.13Z"
    class="colorffb2a8 svgShape"></path>
  <path fill="#f27c85" d="M1288.4 1028.85c-6.32 11.83-20 28.71-45.91 27.5l-7.28-35.67 45.22-7.33Z"
    class="colorf27c85 svgShape"></path>
  <path fill="#ffb2a8"
    d="M1260.91 1033.6c-47 17.35-78-13.53-96.18-44a211.6 211.6 0 0 1-20.66-47.7s31.81-71.56 33.52-73.85 60.2-5.67 60.2-5.67l44.32 21a235.84 235.84 0 0 1 19 53.57c7.73 35.91 5.89 79.65-40.2 96.65Z"
    class="colorffb2a8 svgShape"></path>
  <path fill="#f27c85"
    d="M1234.63 1040.64c-22.49 0-42.69-11.59-60.29-34.67a2 2 0 0 1 3.07-2.56l.11.14c23.19 30.39 51 39.87 82.7 28.18 16-5.92 27.8-15.61 34.91-28.8a2 2 0 1 1 3.52 1.9c-7.58 14.07-20 24.39-37 30.65a77.58 77.58 0 0 1-27.02 5.16Z"
    class="colorf27c85 svgShape"></path>
  <path fill="#273657"
    d="M1273.93 932.36c.87.08-8-4-13.29-3.43s-10.6 1.38-11.74 3.45-2.15 4.7.9 4 15.93-4.79 24.13-4.02ZM1183.14 963.61c-.64.55 4-7.84 8.53-10.31s9.14-4.75 11.2-3.64 4.36 2.76 1.57 3.88-15.27 4.88-21.3 10.07Z"
    class="color273657 svgShape"></path>
  <ellipse cx="1261.62" cy="954.92" fill="#273657" rx="5.45" ry="8.39"
    transform="rotate(-9.99 1261.62 954.935)" class="color273657 svgShape"></ellipse>
  <circle cx="1264.18" cy="949.2" r="2.84" fill="#ffffff" class="colorfff svgShape"></circle>
  <ellipse cx="1207.05" cy="974.57" fill="#273657" rx="5.45" ry="8.39"
    transform="rotate(-24.47 1207.052 974.585)" class="color273657 svgShape"></ellipse>
  <circle cx="1207.61" cy="968.66" r="2.84" fill="#ffffff" class="colorfff svgShape"></circle>
  <path fill="#f27c85"
    d="M1240.44 988.42a14.44 14.44 0 0 1-5.85-1.08c-4.53-2-2.38-7.72-.66-12.28a30.89 30.89 0 0 0 1.48-4.51c.42-2.19-3-8.11-6.46-12.35a2.24 2.24 0 0 1 3.49-2.82c1.41 1.74 8.39 10.69 7.38 16a36 36 0 0 1-1.7 5.27c-.7 1.86-2.17 5.75-1.68 6.63 2.52 1.12 6.69.54 8.08.22a2.24 2.24 0 0 1 1 4.37 23.52 23.52 0 0 1-5.08.55ZM1243.09 1010a2.24 2.24 0 0 1 .59-4.44h.13c17 2.78 20.11-11 20.23-11.59a2.2 2.2 0 0 1 2.58-1.75h.07a2.25 2.25 0 0 1 1.74 2.64c-.04.14-4.03 18.56-25.34 15.14Z"
    class="colorf27c85 svgShape"></path>
  <path fill="#ffb2a8"
    d="M1294.38 927.18s21.72-20.6 26.5 9.39c4.67 29.25-14.78 41.74-20 25.84s-6.5-35.23-6.5-35.23Z"
    class="colorffb2a8 svgShape"></path>
  <path fill="#f27c85"
    d="M1313.56 958.82c1.14-4.81 4.47-20.83 1.45-26.7s-8.69-4.92-9.34 3.6 4.67 2.69 4.7 9.11-4.69 4.33-2.46 10.39 4.09 10.2 5.65 3.6Z"
    class="colorf27c85 svgShape"></path>
  <path fill="#ffb2a8"
    d="M1161.84 976.09s-29.92.79-12.1 25.38c17.39 24 40 19.06 32.4 4.15s-20.3-29.53-20.3-29.53Z"
    class="colorffb2a8 svgShape"></path>
  <path fill="#f27c85"
    d="M1170.64 1012c-4.2-2.59-17.89-11.56-19.9-17.85s2.67-9.63 9.15-4.06-1.4 5.2 3.11 9.76 6.39-.25 9.09 5.61 4.35 10.14-1.45 6.54Z"
    class="colorf27c85 svgShape"></path>
  <path fill="#273657"
    d="M1304.1 935c-2.51 3.25-2.64 6.43-8.38-3.4-8.26-14.14-17.06-48.88-46.15-46.51 0 0 4.33 35.37-23.58 45.58s-55 3.16-58.55 42.46c-.88 9.68-2.67 14.61-4.91 16.49a220.1 220.1 0 0 1-21.44-49.51s33-74.27 34.79-76.64 62.48-5.88 62.48-5.88l46 21.81a245 245 0 0 1 19.74 55.6Z"
    class="color273657 svgShape"></path>
  <path fill="#7394bc"
    d="M2675.21 2052.24c0 8.39-3.52 15.21-7.84 15.21h-19.46l-1791.69.06h-497.5c-4.35 0-7.84-6.78-7.84-15.21s3.49-15.22 7.84-15.22h649.66l1389.48-.06h269.51c4.32-.02 7.84 6.83 7.84 15.22Z"
    class="color7394bc svgShape"></path>
</svg>