<svg xmlns="http://www.w3.org/2000/svg" data-name="Layer 1"
  viewBox="180.044 273.343 2639.915 1953.325" width="550" height="550">
  <path fill="#f5f5f7"
    d="M2406.66 2115.87q-24 11.48-50.38 22H548.76c-7.74-6.9-15.6-14.24-23.49-22-114.38-112.49-236.73-314.9-111.09-612.8C593 1079.18 1034.79 1392.51 1369.74 1067s649.8-508.14 835-86.16c224 510.36 386.85 379.58 467.05 586.68 68.77 177.61 23.04 411.08-265.13 548.35Z"
    class="colorf5f5f7 svgShape"></path>
  <path fill="#92b1dd"
    d="M1229.19 1872.06H912.72v-4.65c0-78.87 64.16-143 143-143h30.4c78.87 0 143 64.16 143 143v4.65Zm-307.09-9.31h297.7c-2.46-71.59-61.47-129.08-133.65-129.08h-30.4c-72.18.01-131.19 57.49-133.65 129.08Z"
    class="color92b1dd svgShape"></path>
  <path fill="#92b1dd"
    d="m1213.49 1853.65-15.23 117.93-20.03 155.3-38.21-.06-66.01-.1-104.22.16-31.42-243.54-1.95-15.15-1.88-14.54h278.95z"
    class="color92b1dd svgShape"></path>
  <path fill="#7394bc"
    d="M969.78 2130.88a4 4 0 0 1-4-3.49l-25.77-199.76a4 4 0 1 1 7.94-1l25.76 199.76a4 4 0 0 1-3.45 4.48 4.53 4.53 0 0 1-.48.01ZM1213.49 1853.65l-15.23 117.93c-175-17.38-242-79.26-261.85-103.38l-1.88-14.55Z"
    class="color7394bc svgShape"></path>
  <path fill="#dfe9f4"
    d="M1219.17 1858.44c0 3.57-2.64 7-7.51 10.2l-.11.08c-19.37 12.64-73.52 21.76-137.27 21.76-43.17 0-81.95-4.19-108.49-10.81h-.15c-13-3.26-23-7.1-29.21-11.34-.2-.12-.4-.26-.59-.4-4.17-3-6.42-6.16-6.42-9.44 0-17.69 64.87-32 144.86-32s144.89 14.26 144.89 31.95Z"
    class="colordfe9f4 svgShape"></path>
  <path fill="#7394bc"
    d="M1214.05 1853.65c0 3-2.54 5.92-7.24 8.64-18.59 10.75-70.9 18.48-132.52 18.48-62.82 0-116-8-133.56-19.12-4-2.53-6.19-5.21-6.19-8 0-15 62.57-27.12 139.75-27.12s139.76 12.14 139.76 27.12Z"
    class="color7394bc svgShape"></path>
  <path fill="#aec6d3"
    d="M1206.81 1862.29c-18.59 10.75-70.9 18.48-132.52 18.48-62.82 0-116-8-133.56-19.12 18.59-10.75 70.9-18.48 132.52-18.48 62.8 0 115.94 8.03 133.56 19.12Z"
    class="coloraec6d3 svgShape"></path>
  <path fill="#7394bc"
    d="M1110.42 1745.75h-78.94a9.8 9.8 0 0 1-9.8-9.8v-10.8a9.8 9.8 0 0 1 9.8-9.8h78.94a9.8 9.8 0 0 1 9.8 9.8V1736a9.79 9.79 0 0 1-9.8 9.75ZM2025.72 1578.06l-102.73 548.81h133.14l71.28-431.7-101.69-117.11z"
    class="color7394bc svgShape"></path>
  <path fill="#aec6d3"
    d="M2394.73 2126.88h-106.19c-5.6-22.22-20.24-58-56.55-57.38-52.68.82-55 57.38-55 57.38h-120.86l-30.41-548.82 223.72-10.54Z"
    class="coloraec6d3 svgShape"></path>
  <path fill="#7394bc"
    d="M2362.22 2002.74a4 4 0 0 1-3.87-3l-112-428.08-139.47 6.6a4 4 0 0 1-.38-8l145.95-6.9 113.6 434.36a4 4 0 0 1-2.86 4.88 3.94 3.94 0 0 1-.97.14Z"
    class="color7394bc svgShape"></path>
  <path fill="#dfe9f4"
    d="M2167.09 1688c25.66-11.41 130.2 244.67 129.33 273.51s-166.9 55.93-178.26 43.69 25.33-306.76 48.93-317.2Z"
    class="colordfe9f4 svgShape"></path>
  <path fill="#7394bc"
    d="M2165.57 1780c-1.12-11.17 24.92-16.76 31.51-11.81s25.23 143.41 22.92 151.33-12.21 6.93-13.86 5-39.58-134.62-40.57-144.52Z"
    class="color7394bc svgShape"></path>
  <circle cx="2223.69" cy="1960.15" r="14.19" fill="#7394bc" class="color7394bc svgShape"></circle>
  <path fill="#dfe9f4"
    d="m2213.85 1593.6-143.33 11.76a7.79 7.79 0 0 0-5.8 12.18c11.13 16 37.54 42.87 86.8 36.53 49-6.31 65.15-34.45 70.39-50.33a7.78 7.78 0 0 0-8.06-10.14Z"
    class="colordfe9f4 svgShape"></path>
  <path fill="#cedbee"
    d="M555.21 1414.17a17.79 17.79 0 0 0-15.4-15.81l-12.8-1.67 13.67-8.92a17.86 17.86 0 0 0 7.69-18.62 312.85 312.85 0 0 0-11.44-41.24 17.78 17.78 0 0 0-27.17-8.32l-15.25 11.05 16.43-38.13c-.87-6.52-1.56-11.66-2.43-18.18-15.4-19.38-32.88-29.42-51.19-33.71a17.88 17.88 0 0 0-16.81 4.81l-24.1 24.41.65-8.58a17.8 17.8 0 0 0-21.49-18.75c-37.4 8-72.62 23.32-95.53 16.84 0 0 14.95 31.76 29.35 103.79v.2a17.75 17.75 0 0 0 24.61 12.57l23.1-10.15s-11.91 17.56-23 33.73a17.77 17.77 0 0 0-.26 19.79 227.17 227.17 0 0 0 17 22.65 17.82 17.82 0 0 0 23.92 3l37.41-26.72-19.81 44.2a17.82 17.82 0 0 0 6.49 22.18c17 11.16 35.52 19.72 54.8 24.35a17.81 17.81 0 0 0 18.81-7.18l15.2-22 2.12 15.32a17.71 17.71 0 0 0 21 15 125.35 125.35 0 0 0 26.15-8.59 531.74 531.74 0 0 0-1.72-87.32Z"
    class="colorcedbee svgShape"></path>
  <path fill="#aec6d3"
    d="M854.36 1103.16C831 1109.57 805.7 1114 780 1118.08a8.65 8.65 0 0 0-7.26 7.81l-1.93 22.47-13.28-21.36a8.67 8.67 0 0 0-8.75-4c-19.68 3.21-39.24 6.68-58 11.2a8.66 8.66 0 0 0-6.62 9.13l3.64 44.86-32.94-37.39a8.67 8.67 0 0 0-9.78-2.3c-28.17 11.47-52.46 27.72-69.7 52.4a8.67 8.67 0 0 0-.6 8.93l26 50.64-34.56-16.85a8.64 8.64 0 0 0-12.22 5.68v.11c-32.24 131.31 43.24 210.72 43.24 210.72 19.29-.71 51.07-11.82 85.91-32.64a8.69 8.69 0 0 0 4.17-8.57l-5-38.31 29.84 20.29a8.7 8.7 0 0 0 10.23-.35 390.51 390.51 0 0 0 59.5-57.3 8.68 8.68 0 0 0 .45-10.62L753 1291.32l49.37 13.73a8.68 8.68 0 0 0 9.78-3.92 286 286 0 0 0 22.85-48.31 8.62 8.62 0 0 0-1.36-8.29l-23.06-29.19 27.26 2.56a8.66 8.66 0 0 0 9.27-6.75c13.25-59.87 7.25-107.99 7.25-107.99Z"
    class="coloraec6d3 svgShape"></path>
  <path fill="#dfe9f4"
    d="m940.06 1460.12 20.12 9.67a14.67 14.67 0 0 0 18.3-4.7c33-46.5 44.92-90.09 44.92-90.09-61.31 7-74.38 2-151.77-18.09h-.17a14.63 14.63 0 0 0-18.18 13.21l-1.28 18.2-22.55-32.81a14.71 14.71 0 0 0-11.54-6.36 249.24 249.24 0 0 0-73.59 7.82 14.67 14.67 0 0 0-10.82 14.71l1.62 43.89-24.69-31.24a14.61 14.61 0 0 0-19.89-2.95c-13.27 9.45-24.26 21-32 34.83a167.17 167.17 0 0 0-10.72 23.34 14.54 14.54 0 0 0 2.52 14.33l26.06 31.41-24.13-3.85a14.7 14.7 0 0 0-16.91 12.93c-6 55.33 5 104.77 5 104.77 38.47 14.88 82.26 14.34 126.07 3.67a14.71 14.71 0 0 0 11.24-14.9l-1.67-38.67 26.64 31.76a14.67 14.67 0 0 0 16.87 4.14 435.51 435.51 0 0 0 58.25-29.92 14.65 14.65 0 0 0 6.48-16.3l-9.08-33.83 22.78 22.14a14.71 14.71 0 0 0 19.17 1.12q4.23-3.22 8.34-6.51a260.26 260.26 0 0 0 21.93-19.7 14.76 14.76 0 0 0 3.28-16Z"
    class="colordfe9f4 svgShape"></path>
  <path fill="#92b1dd"
    d="M926.25 1409.55c-10.48 2-20.93 4.34-31.25 7.14a470 470 0 0 0-60.78 20.71 484.53 484.53 0 0 0-57.67 28.7 468.5 468.5 0 0 0-53.28 36.58l-6.31 5.08c-2.1 1.7-4.24 3.35-6.23 5.18l-12.16 10.73c-2.07 1.75-3.93 3.71-5.89 5.57l-5.83 5.65-5.82 5.67-5.55 5.93c-15.1 15.57-28.55 32.65-41.35 50.18-19.11 27-33.42 50.61-46.17 78.23-5.88-61-3.56-122.91 8-183.29 3-15.7 6.57-31.32 10.85-46.75s9.12-30.71 14.58-45.78a602.45 602.45 0 0 1 39.83-87.55 609.45 609.45 0 0 1 53.29-80.35c10-12.66 20.41-24.94 31.42-36.71a392.59 392.59 0 0 1 34.91-33.47 391.82 391.82 0 0 0-36 32.43q-17.1 17.2-32.64 35.89a613 613 0 0 0-99 166.63q-9 22.68-16.19 46c-4.82 15.55-8.89 31.33-12.46 47.23q-4.42 19.9-7.53 40.07c-3.53-10.71-7.32-16.43-15.29-34.77a356.54 356.54 0 0 0-44.68-76.3 317.4 317.4 0 0 0-62.69-61.47 294.23 294.23 0 0 0-37.06-23.2c-12.91-6.68-26.26-12.63-40.22-16.55 13.65 4.84 26.48 11.63 38.79 19.08a291.34 291.34 0 0 1 34.9 25.24 308.94 308.94 0 0 1 56.85 63.7 342.82 342.82 0 0 1 37.89 76.02c7.8 21.87 19 59.94 25 88.36a683.5 683.5 0 0 0 .77 94.6c.24 4.08.63 8.15 1 12.21l1.17 12.2 1.48 12.16c.5 4.06 1 8.12 1.6 12.15 1.21 8.08 2.33 16.18 3.82 24.21l2.12 12.07 2.42 12a902.8 902.8 0 0 0 24.84 94.8l22-7.42a879.56 879.56 0 0 1-27-91.74l-2.71-11.65-2.42-11.71c-1.7-7.79-3-15.65-4.44-23.5-.47-2.47-.87-5-1.25-7.44 13.41-38.65 32.61-81.62 54.52-115.82 11.56-17.42 23.78-34.52 37.7-50.23l5.11-6 5.39-5.74 5.4-5.74c1.82-1.89 3.54-3.89 5.47-5.67l11.33-11c1.86-1.87 3.86-3.56 5.83-5.31l5.92-5.22a459.75 459.75 0 0 1 50.43-38.11 478.57 478.57 0 0 1 55.44-30.81 465.32 465.32 0 0 1 59.24-23.23c10.12-3.25 20.4-6 30.74-8.51a303.33 303.33 0 0 1 31.39-5.89 309 309 0 0 0-31.57 4.53Z"
    class="color92b1dd svgShape"></path>
  <path fill="#fccd89"
    d="m740.27 1813.42-16.37 163.01-14.64 145.72H490.84l-25.57-254.47-5.44-54.26h280.44z"
    class="colorfccd89 svgShape"></path>
  <path fill="#f28c70"
    d="M490.83 2126.15a4 4 0 0 1-4-3.6l-25.57-254.47a4 4 0 1 1 8-.8l25.57 254.47a4 4 0 0 1-3.58 4.38Z"
    class="colorf28c70 svgShape"></path>
  <path fill="#f28c70" d="m740.27 1813.42-12.91 128.56-262.09-74.3-5.44-54.26h280.44z"
    class="colorf28c70 svgShape"></path>
  <path fill="#fccd89"
    d="M741.29 1798.21H458.81a15.2 15.2 0 1 0 0 30.4h282.48a15.2 15.2 0 1 0 0-30.4Z"
    class="colorfccd89 svgShape"></path>
  <path fill="#c66161"
    d="M741.29 1832.62H459.81a4 4 0 1 1 0-8h281.48a11.36 11.36 0 0 0 11.49-11.2c0-6.49-4.41-11.2-10.49-11.2a4 4 0 0 1 0-8c10.54 0 18.49 8.25 18.49 19.2a19.36 19.36 0 0 1-19.49 19.2Z"
    class="colorc66161 svgShape"></path>
  <circle cx="2258.98" cy="986.84" r="25.82" fill="#dfe9f4" class="colordfe9f4 svgShape"></circle>
  <path fill="#dfe9f4" d="M2252.48 520.93h13V899.7h-13z" class="colordfe9f4 svgShape"></path>
  <path fill="#cedbee"
    d="M2334.8 969.2c0 30.12-151.64 30.12-151.64 0 0-47.91 34-86.75 75.82-86.75s75.82 38.84 75.82 86.75Z"
    class="colorcedbee svgShape"></path>
  <path fill="#7394bc"
    d="M2259.48 994.79c-20.25 0-39.15-2-53.23-5.75-17.31-4.55-26.09-11.23-26.09-19.84 0-23.84 8.33-46.33 23.47-63.34s35.17-26.41 56.35-26.41a3 3 0 0 1 0 6c-40.71 0-73.82 37.57-73.82 83.75 0 11 32.2 19.59 73.32 19.59s73.32-8.61 73.32-19.59a3 3 0 1 1 6 0c0 18.89-42.73 25.59-79.32 25.59Z"
    class="color7394bc svgShape"></path>
  <path fill="#cedbee"
    d="M2287.24 1068.46a4.07 4.07 0 0 1-3.89-2.89l-12-39.58a4.07 4.07 0 0 1 7.78-2.36l12 39.58a4.07 4.07 0 0 1-2.71 5.07 4.13 4.13 0 0 1-1.18.18ZM2230.54 1069.74a4.24 4.24 0 0 1-1.47-.27 4.07 4.07 0 0 1-2.32-5.26l15-38.73a4.07 4.07 0 0 1 7.58 2.94l-15 38.73a4.05 4.05 0 0 1-3.79 2.59ZM2339.88 1028.45a4.13 4.13 0 0 1-1.45-.27l-35-13.35a4.06 4.06 0 1 1 2.89-7.59l35 13.35a4.06 4.06 0 0 1-1.44 7.86ZM2188.38 1036.59a4.07 4.07 0 0 1-1.54-7.83l34.67-14.1a4.07 4.07 0 0 1 3.07 7.53l-34.67 14.1a4 4 0 0 1-1.53.3Z"
    class="colorcedbee svgShape"></path>
  <path fill="#aec6d3"
    d="M1818.48 376.18c-86.79 0-157.41 70.6-157.41 157.39S1731.69 691 1818.48 691s157.41-70.62 157.41-157.41-70.62-157.41-157.41-157.41Zm0 299.3c-78.25 0-141.9-63.66-141.9-141.9s63.66-141.89 141.9-141.89 141.9 63.66 141.9 141.89-63.65 141.9-141.9 141.9Z"
    class="coloraec6d3 svgShape"></path>
  <path fill="#7394bc"
    d="M1818.48 695a161.78 161.78 0 0 1-119.31-52.8 4 4 0 1 1 5.92-5.38A153.75 153.75 0 0 0 1818.48 687c84.59 0 153.41-68.82 153.41-153.41a4 4 0 1 1 8 0c0 88.98-72.41 161.41-161.41 161.41Z"
    class="color7394bc svgShape"></path>
  <path fill="#dfe9f4"
    d="M1960.38 533.58c0 78.25-63.66 141.9-141.9 141.9s-141.9-63.66-141.9-141.9 63.66-141.89 141.9-141.89 141.9 63.66 141.9 141.89Z"
    class="colordfe9f4 svgShape"></path>
  <path fill="#aec6d3"
    d="M1818.48 400.38a8.37 8.37 0 0 0-8.36 8.36v5.53a8.36 8.36 0 1 0 16.72 0v-5.53a8.37 8.37 0 0 0-8.36-8.36ZM1818.48 644.54a8.37 8.37 0 0 0-8.36 8.36v5.53a8.36 8.36 0 1 0 16.72 0v-5.53a8.37 8.37 0 0 0-8.36-8.36ZM1943.32 525.22h-5.53a8.36 8.36 0 1 0 0 16.72h5.53a8.36 8.36 0 1 0 0-16.72ZM1699.16 525.22h-5.53a8.36 8.36 0 0 0 0 16.72h5.53a8.36 8.36 0 0 0 0-16.72Z"
    class="coloraec6d3 svgShape"></path>
  <circle cx="1818.48" cy="533.58" r="11.27" fill="#aec6d3" class="coloraec6d3 svgShape"></circle>
  <path fill="#aec6d3"
    d="M1814.6 462.8h7.75v66.66h-7.75zM1828.5 462.8h-20.04l10.02-13.96 10.02 13.96zM1818.86 529.71h40.3v7.75h-40.3zM1859.16 543.61v-20.05l13.96 10.02-13.96 10.03zM646.06 362.13h425.96v512.02H646.06z"
    class="coloraec6d3 svgShape"></path>
  <path fill="#7394bc" d="M1077 879.15H757.06a5 5 0 0 1 0-10h310l1-307a5 5 0 0 1 5-5 5 5 0 0 1 5 5Z"
    class="color7394bc svgShape"></path>
  <path fill="#cedbee" d="M667.97 388.47h382.12V847.8H667.97z" class="colorcedbee svgShape"></path>
  <path fill="#f5f5f7" d="M703.58 431.28h310.91v373.73H703.58z" class="colorf5f5f7 svgShape"></path>
  <path fill="#dfe9f4" d="m703.58 431.28-35.61-42.81h382.13l-35.61 42.81H703.58z"
    class="colordfe9f4 svgShape"></path>
  <path fill="#cedbee" d="M1014.49 431.28V805l35.61 42.81V388.47l-35.61 42.81z"
    class="colorcedbee svgShape"></path>
  <circle cx="859.03" cy="618.68" r="89.16" fill="#cedbee" class="colorcedbee svgShape"></circle>
  <path fill="#cedbee"
    d="M859 476.05a3.9 3.9 0 0 0-3.9 3.9v36.76a3.9 3.9 0 0 0 7.8 0V480a3.89 3.89 0 0 0-3.9-3.95ZM859 716.75a3.9 3.9 0 0 0-3.9 3.9v36.76a3.9 3.9 0 0 0 7.8 0v-36.76a3.89 3.89 0 0 0-3.9-3.9ZM1001.66 618.68a3.9 3.9 0 0 0-3.9-3.9H961a3.9 3.9 0 1 0 0 7.8h36.76a3.9 3.9 0 0 0 3.9-3.9ZM761 618.68a3.9 3.9 0 0 0-3.9-3.9h-36.79a3.9 3.9 0 1 0 0 7.8h36.76a3.9 3.9 0 0 0 3.93-3.9Z"
    class="colorcedbee svgShape"></path>
  <path fill="#cedbee"
    d="M859 476.05a3.9 3.9 0 0 0-3.9 3.9v36.76a3.9 3.9 0 0 0 7.8 0V480a3.89 3.89 0 0 0-3.9-3.95ZM859 716.75a3.9 3.9 0 0 0-3.9 3.9v36.76a3.9 3.9 0 0 0 7.8 0v-36.76a3.89 3.89 0 0 0-3.9-3.9ZM1001.66 618.68a3.9 3.9 0 0 0-3.9-3.9H961a3.9 3.9 0 1 0 0 7.8h36.76a3.9 3.9 0 0 0 3.9-3.9ZM761 618.68a3.9 3.9 0 0 0-3.9-3.9h-36.79a3.9 3.9 0 1 0 0 7.8h36.76a3.9 3.9 0 0 0 3.93-3.9ZM758.18 517.83a3.91 3.91 0 0 0 0 5.52l26 26a3.9 3.9 0 1 0 5.52-5.52l-26-26a3.91 3.91 0 0 0-5.52 0ZM928.38 688a3.91 3.91 0 0 0 0 5.52l26 26a3.9 3.9 0 0 0 5.52-5.52l-26-26a3.91 3.91 0 0 0-5.52 0ZM959.89 517.83a3.91 3.91 0 0 0-5.52 0l-26 26a3.9 3.9 0 0 0 5.52 5.52l26-26a3.91 3.91 0 0 0 0-5.52ZM789.69 688a3.91 3.91 0 0 0-5.52 0l-26 26a3.9 3.9 0 0 0 5.52 5.52l26-26a3.89 3.89 0 0 0 0-5.52Z"
    class="colorcedbee svgShape"></path>
  <path fill="#cedbee"
    d="M758.18 517.83a3.91 3.91 0 0 0 0 5.52l26 26a3.9 3.9 0 1 0 5.52-5.52l-26-26a3.91 3.91 0 0 0-5.52 0ZM928.38 688a3.91 3.91 0 0 0 0 5.52l26 26a3.9 3.9 0 0 0 5.52-5.52l-26-26a3.91 3.91 0 0 0-5.52 0ZM959.89 517.83a3.91 3.91 0 0 0-5.52 0l-26 26a3.9 3.9 0 0 0 5.52 5.52l26-26a3.91 3.91 0 0 0 0-5.52ZM789.69 688a3.91 3.91 0 0 0-5.52 0l-26 26a3.9 3.9 0 0 0 5.52 5.52l26-26a3.89 3.89 0 0 0 0-5.52Z"
    class="colorcedbee svgShape"></path>
  <path fill="#dfe9f4" d="m703.58 805-35.61 42.81h382.13L1014.49 805H703.58z"
    class="colordfe9f4 svgShape"></path>
  <path fill="#7394bc"
    d="M2641.11 2126.88a11 11 0 0 1-11 11H385.34a11 11 0 1 1 0-22h2244.78a11 11 0 0 1 11 11Z"
    class="color7394bc svgShape"></path>
  <path fill="#ffb2a8" d="M1491.22 2036.47v34.72h38.48l2.58-42.26-41.06 7.54z"
    class="colorffb2a8 svgShape"></path>
  <path fill="#2c4fa0"
    d="m1608.18 1364.66-27 25.93s-1.71 92.47-20.64 157.11c-19.74 67.45-21.9 63.31-11.1 111.09 5.74 25.35 7.51 64.8 7 108.84-1.41 117.17-19.15 266.79-22 269.68-4 4-44.44 7.13-48.41 0s-42.89-376.4-44-415.55c-.62-23.18 4.71-114.7 9.16-185.45 3.07-48.68 5.71-87.52 5.71-87.52Z"
    class="color2c4fa0 svgShape"></path>
  <path fill="#273657"
    d="M1471.22 1915.61a3 3 0 0 1-3-2.66c-13.28-118-28.61-267.55-29.25-291.11-.47-17.32 2.89-71.95 6.37-126.42a3 3 0 0 1 6 .38c-3.47 54.34-6.82 108.81-6.36 125.88.64 23.41 16 172.73 29.21 290.59a3 3 0 0 1-2.65 3.32ZM1608.18 1364.66l-27 25.93s-1.71 92.47-20.64 157.11c-19.74 67.45-21.9 63.31-11.1 111.09 5.74 25.35 7.51 64.8 7 108.84-9.37-95.07-42.66-125.54-31.34-163.89 14.14-48 29.42-138.38 0-143.62-31-5.52-59.67-17.32-73.91-23.8 3.07-48.68 5.71-87.52 5.71-87.52ZM1491.22 2064.84s-72.41 27.83-73 42.1 116.45 8.74 118.23 7.14 5.72-38-6-48.36c.03-.01-16.45 6.61-39.23-.88Z"
    class="color273657 svgShape"></path>
  <path fill="#ffb2a8" d="m1663.28 2034.4-4.34 34.18 36.76.93-4.78-38.02-27.64 2.91z"
    class="colorffb2a8 svgShape"></path>
  <path fill="#2c4fa0"
    d="M1720.94 1711.7c-2.11 65.59-23.28 325.88-25.38 330.11s-33.87 8.45-37 0-46-288.86-28.56-354.44a149.59 149.59 0 0 0 5.44-39.06c0-3.8-.17-7.55-.48-11.29a181.25 181.25 0 0 0-4.36-26.27c-9.41-40.15-30.41-87.91-43.45-186.45-.65-5-1.29-10.08-1.89-15.18-5-42.15 29.93-89.92 29.93-89.92l22.22-5.3 74.06 73s2.08 20.86 3.47 51.19c1.75 38 2.4 90.79-3.47 136.09-10.63 81.45 11.58 71.92 9.47 137.52Z"
    class="color2c4fa0 svgShape"></path>
  <path fill="#273657"
    d="M1703.13 1974.58h-.24a3 3 0 0 1-2.75-3.23c6.54-80.35 16.37-215.31 17.8-259.74.91-28.15-2.54-42.25-5.88-55.87-4.45-18.22-8.66-35.42-2.62-82a3 3 0 1 1 6 .78c-5.9 45.43-1.82 62.11 2.5 79.76 3.43 14 7 28.52 6 57.5-1.43 44.52-11.27 179.62-17.82 260a3 3 0 0 1-2.99 2.8ZM1634.91 1637a181.25 181.25 0 0 0-4.36-26.27c-9.41-40.15-30.41-87.91-43.45-186.45-.65-5-1.29-10.08-1.89-15.18-5-42.15 29.93-89.92 29.93-89.92l22.22-5.3 74.06 73s2.08 20.86 3.47 51.19c-11.27 10.31-33.51 22.41-76.6 24.73-47.5 2.54-8.87 77.2-3.38 174.2ZM1659.61 2063.29s26.2 7.08 36.09-2.18c0 0 20 37.54 16.31 47.85s-62.49 7.19-64.85 2.67c-4.91-9.43 10.9-45.63 12.45-48.34Z"
    class="color273657 svgShape"></path>
  <path fill="#ffb2a8"
    d="M1272.09 1065.62s-24.18-9.63-35.77-1.38-4.32 70.76 41.28 37.15-5.51-35.77-5.51-35.77Z"
    class="colorffb2a8 svgShape"></path>
  <path fill="#dfe9f4"
    d="M1504.82 1011.57c-22.1 32.89-40.4 51.73-54.89 60.79-15.8 9.89-27.11 8.16-33.93.34-9.74-11.15-10.37-34.64-2-54.43 19.65-46.4 84.31-127.64 84.31-127.64a68.54 68.54 0 0 1 16.87 17.69c12.82 19 23.17 53.38-10.36 103.25Z"
    class="colordfe9f4 svgShape"></path>
  <path fill="#dfe9f4"
    d="M1449.93 1072.35c-30.8 31.12-171.16 36.7-177.44 33.17-1.07-.6-1.92-2-2.59-3.89-3.32-9.35-2.39-31.39-1.74-36.6.79-6.3 2.48-3.5 60.93-13.77 57.28-10.06 84.09-32.3 84.92-33s25.49 9.18 37.56 23.43c7.34 8.66 9.71 19.19-1.64 30.66Z"
    class="colordfe9f4 svgShape"></path>
  <path fill="#aec6d3"
    d="M1330.07 1054.26a3 3 0 0 1-.51-6c49.08-8.63 78.63-28.83 83-32 3.14-6.92 26.37-57.15 53-87.18a3 3 0 1 1 4.49 4c-27.37 30.92-52 85.82-52.28 86.37l-.28.62-.52.45c-.27.23-31.84 24.09-86.34 33.66a2.38 2.38 0 0 1-.56.08Z"
    class="coloraec6d3 svgShape"></path>
  <path fill="#aec6d3"
    d="M1504.82 1011.57c-22.1 32.89-40.4 51.73-54.89 60.79-30.8 31.12-171.16 36.7-177.44 33.17-1.07-.6-1.92-2-2.59-3.89 97.51-2 149.17-12.24 159.84-34.64 6.46-13.56 11.38-17.88 14.55-19 5.88-2 11.44-4.93 15.66-9.49 35.28-38.11 48.31-123 48.31-123l7-7.2c12.74 19.01 23.09 53.39-10.44 103.26Z"
    class="coloraec6d3 svgShape"></path>
  <path fill="#dfe9f4"
    d="M1722.14 1417.66s-121 61.86-280.35 0c0 0 16.25-177.69 44.55-275.18a330.53 330.53 0 0 0 10-49.34c11.48-88.23-4.37-184.61.23-199.12 2.42-7.63 15-14.34 31.66-19.66 6.56-2.09 13.75-4 21.23-5.6 3.71-.81 7.49-1.57 11.3-2.23a334.11 334.11 0 0 1 38.81-4.73c9.41-.56 23.42 1 38 3.6 4.75.85 9.55 1.83 14.3 2.88 6.09 1.36 12.08 2.87 17.65 4.43a163.78 163.78 0 0 1 22.78 7.94c16.11 7.44-6.37 106.76-6.22 200.47.05 25.17 1.72 49.9 6.22 72.37 22.84 114 29.84 264.17 29.84 264.17Z"
    class="colordfe9f4 svgShape"></path>
  <path fill="#f5f5f7"
    d="M1637.62 865.38c-2 7.86-9.83 25.43-40.19 25.23-24.13-.17-33.25-13.74-36.67-24.1a334.11 334.11 0 0 1 38.81-4.73c9.43-.55 23.43.95 38.05 3.6Z"
    class="colorf5f5f7 svgShape"></path>
  <path fill="#aec6d3"
    d="M1512.44 979.64s41.53 24.92 78.59 11.92c29.29-10.27 34.22 23.94 89.73 1 0 0-23.52 19.4-65.22 8.86s-60.35 16.58-103.1-21.78Z"
    class="coloraec6d3 svgShape"></path>
  <path fill="#6cc58d"
    d="M1722.14 1417.66s-4 2-11.55 5c-33.8 13.4-138.48 45.54-268.8-5 0 0 16.25-177.69 44.55-275.18a330.53 330.53 0 0 0 10-49.34c42.85-54.61 36.05-174.84 31.9-218.79l21.23-5.6c-1.24 35-3.78 121.15.57 140.06 2.36 10.22 78.23 14.42 90.82 3.94 10.16-8.47 11.09-107 11.07-144.48 6.09 1.36 12.08 2.87 17.65 4.43-2.57 29.59-7.16 103 3.57 162.73 3 16.73 7.2 32.38 13 45.68 0 25.17 1.72 49.9 6.22 72.37 22.77 114.01 29.77 264.18 29.77 264.18Z"
    class="color6cc58d svgShape"></path>
  <path fill="#3e9a83"
    d="M1582 1448.13c-47.6-.47-95.11-9.78-141.22-27.67l-2.12-.83.22-2.26c.17-1.78 17.6-179.09 45.66-275.73a3 3 0 0 1 5.76 1.68c-26.18 90.18-43.09 251.35-45.22 272.36 44.76 17.1 90.84 26 137 26.45a3 3 0 0 1 0 6Z"
    class="color3e9a83 svgShape"></path>
  <path fill="#abdda8"
    d="m1663.35 1152.77-1-67.59c-29-10.54-28.12-37.3-28.12-37.3l-34-3.1-34-3.1s-4 26.48-34.41 31.6l-13.19 66.3s25.45 15 70.94 21.86c46.04 1.43 73.78-8.67 73.78-8.67Z"
    class="colorabdda8 svgShape"></path>
  <path fill="#3e9a83"
    d="M1722.14 1417.66s-4 2-11.55 5c-.88-48.23-33-66.52-22.17-112 11.8-49.54-8.09-135.14-14.82-154s-82.57 50-41.54-21.31c16.32-28.35 38.33-87.63 41.09-100 3 16.73 7.2 32.38 13 45.68 0 25.17 1.72 49.9 6.22 72.37 22.77 114.09 29.77 264.26 29.77 264.26Z"
    opacity=".8" class="color3e9a83 svgShape"></path>
  <path fill="#9b4b4b"
    d="M1439.65 2101 1246.78 983.27c-1.43-8.31-8.17-13.72-15-12.1s-11.29 9.68-9.86 18l192.87 1117.71c1.43 8.31 8.17 13.72 15 12.1s11.3-9.69 9.86-17.98Z"
    class="color9b4b4b svgShape"></path>
  <path fill="#f28c70"
    d="M1047.59 938.07c1.52-24.36 300.31-92.64 315.05-78.51 7.07 6.77 35.64 128.42 24.63 137.27s-284.63 78-303.5 73.32-37.77-106.92-36.18-132.08Z"
    class="colorf28c70 svgShape"></path>
  <path fill="#c66161"
    d="M1065 1039.23a4 4 0 0 1-3.81-2.78c-11-34.57-18.65-82.22-17.62-98.63.3-4.87 5-11.48 37.64-23.5 20.22-7.45 48.55-16 81.93-24.71 64.76-16.92 136.13-31.31 173.55-35a4 4 0 1 1 .79 8c-36.38 3.6-106.22 17.64-169.83 34.14-88.35 22.93-114.54 37.28-116.1 41.71-.95 15.73 6.81 62.84 17.26 95.6a4 4 0 0 1-2.6 5 3.92 3.92 0 0 1-1.21.17Z"
    class="colorc66161 svgShape"></path>
  <path fill="#fccd89"
    d="M1065.29 943.83c1.37-19 269.22-72.07 282.44-61.08 6.33 5.27 32 99.9 22.08 106.79s-255.17 60.71-272.08 57-33.85-83.14-32.44-102.71Z"
    class="colorfccd89 svgShape"></path>
  <path fill="#f28c70"
    d="M1083 1006.58a2.24 2.24 0 0 1-.57-.08 2 2 0 0 1-1.43-2.5l20.44-69.66a2 2 0 0 1 3.9 1.14l-20.44 69.66a2 2 0 0 1-1.9 1.44ZM1118.21 1037.92a2.23 2.23 0 0 1-.56-.08 2 2 0 0 1-1.39-2.51l31.45-110.11a2 2 0 0 1 3.9 1.12l-31.45 110.11a2 2 0 0 1-1.95 1.47ZM1286.9 1007.58a2.23 2.23 0 0 1-.56-.08 2 2 0 0 1-1.34-2.5l31.45-110.11a2 2 0 0 1 3.9 1.12l-31.45 110.11a2 2 0 0 1-2 1.46ZM1181.12 1010.65a2 2 0 0 1-.54-.07 2 2 0 0 1-1.41-2.5l25.16-90.42a2 2 0 1 1 3.91 1.09l-25.16 90.42a2 2 0 0 1-1.96 1.48ZM1236.31 1006.58a1.75 1.75 0 0 1-.55-.08 2 2 0 0 1-1.4-2.5l27.64-98.2a2 2 0 1 1 3.9 1.1l-27.59 98.2a2 2 0 0 1-2 1.48ZM1328.86 989.71a2.22 2.22 0 0 1-.51-.06 2 2 0 0 1-1.46-2.47l16.51-64.39a2 2 0 1 1 3.93 1l-16.51 64.39a2 2 0 0 1-1.96 1.53Z"
    class="colorf28c70 svgShape"></path>
  <path fill="#ffb2a8"
    d="M1263.78 1084.39c1.68 15.8-8.61 29.85-23 31.39s-20.48-55.69-6.1-57.22 27.41 10.03 29.1 25.83Z"
    class="colorffb2a8 svgShape"></path>
  <path fill="#9b4b4b"
    d="M1522.14 727.85s-20.77 61.33 21.51 68.14-6.09-79.67-6.09-79.67ZM1695.49 736.76s9 84.5-56.88 85.1 20.19-85.1 20.19-85.1Z"
    class="color9b4b4b svgShape"></path>
  <path fill="#ffb2a8"
    d="M1625.17 863.4s-3.33 14.39-25.56 14.39c-21.54 0-25.56-13.41-25.56-13.41l1.78-24.69 1.71-23.77h43.51l2 23.57Z"
    class="colorffb2a8 svgShape"></path>
  <path fill="#f27c85" d="M1623.11 839.49c-19.65 28.16-38.58 11.23-47.26.2l1.71-23.77h43.51Z"
    class="colorf27c85 svgShape"></path>
  <path fill="#ffb2a8"
    d="M1671.9 713.7s11 122.66-75 120.56-59.23-120.56-59.23-120.56l56.61-37.22 64.51 10.52Z"
    class="colorffb2a8 svgShape"></path>
  <path fill="#f27c85"
    d="M1599.14 836.29h-2.24c-16.79-.41-30.57-5.25-41-14.38a2 2 0 1 1 2.64-3c9.66 8.49 22.58 13 38.41 13.38 26 .65 45.65-10.46 58.29-33a2 2 0 0 1 3.49 2c-13.01 23.21-33.07 35-59.59 35Z"
    class="colorf27c85 svgShape"></path>
  <ellipse cx="1628.54" cy="769.38" fill="#9b4b4b" rx="5.23" ry="7.57" class="color9b4b4b svgShape"></ellipse>
  <circle cx="1631.5" cy="763.98" r="2.26" fill="#ffffff" class="colorfff svgShape"></circle>
  <ellipse cx="1581.64" cy="768.58" fill="#9b4b4b" rx="5.23" ry="7.57" class="color9b4b4b svgShape"></ellipse>
  <circle cx="1583.5" cy="763.15" r="2.26" fill="#ffffff" class="colorfff svgShape"></circle>
  <path fill="#f27c85"
    d="M1609 796.69a20.28 20.28 0 0 1-4.37-.52 1.34 1.34 0 0 1-1-1.63 1.36 1.36 0 0 1 1.63-1c1.89.45 6.15.91 7.29-.57.64-.84.31-2.58-.94-4.91-5.92-11-3.65-23.91-3.55-24.46a1.35 1.35 0 0 1 2.66.48c0 .12-2.2 12.51 3.27 22.69 1.84 3.43 2.07 6.07.7 7.85s-3.56 2.07-5.69 2.07ZM1604.23 812c-7.19 0-13.11-4.34-13.2-4.41a1.35 1.35 0 0 1 1.62-2.16c.51.38 12.58 9.18 22.13-.92a1.35 1.35 0 1 1 2 1.86 16.73 16.73 0 0 1-12.55 5.63Z"
    class="colorf27c85 svgShape"></path>
  <path fill="#9b4b4b"
    d="M1585.26 747.47c.8-.05 2.52.4.85 3.86s-9.63-1.74-18 5.74c.02-.01.94-8.58 17.15-9.6ZM1623.43 747.47c-.8-.05-2.52.4-.85 3.86s9.63-1.74 18 5.74c-.02-.01-.94-8.58-17.15-9.6ZM1654.41 700.2s-1.56 20-23.18 18.48-49.12-5.7-70.47 18.08c-18.54 20.65-23.92 14.55-29.71 4.72s12.6-50.84 12.6-50.84l38.35-21.49s28.61-2.62 31.23-2.62 34.11 18.57 34.11 18.57Z"
    class="color9b4b4b svgShape"></path>
  <path fill="#9b4b4b" d="M1654 696.66s-16 49.14 18.34 57.59-18.34-57.59-18.34-57.59Z"
    class="color9b4b4b svgShape"></path>
  <path fill="#6cc58d"
    d="M1508.31 727.57c1.84-15.36 35.17-78.6 109.08-74.41s88.59 72.07 88.06 90.42-35 11.81-35 11.81 7.2-48.5-29.75-58.46-93.27-3.22-106.7 46.64c0-.01-27.26-2.9-25.69-16Z"
    class="color6cc58d svgShape"></path>
  <path fill="#3e9a83"
    d="M1706.45 746.58h-.09a3 3 0 0 1-2.91-3.09c.27-9.4-3.8-30.15-16.12-48.77-10.84-16.4-31.81-36.39-70.11-38.56-38.45-2.18-64.07 14.57-78.8 29-17.81 17.46-25.4 36.67-26.13 42.75a3 3 0 0 1-6-.72c1.07-8.93 10.43-29.2 27.89-46.32 15.6-15.29 42.7-33 83.34-30.72s63.17 23.7 74.78 41.23c13.09 19.79 17.4 42.1 17.11 52.27a3 3 0 0 1-2.96 2.93Z"
    class="color3e9a83 svgShape"></path>
  <path fill="#ffb2a8"
    d="M1670.58 743.56s10.32-5 14.45 6.57-3.54 36.56-17.69 25.55c-16.1-12.51 3.24-32.12 3.24-32.12Z"
    class="colorffb2a8 svgShape"></path>
  <path fill="#f27c85"
    d="M1669.3 749.8c2.52-4.42 12.06-5.24 13 3.93s-5 20.63-8.8 19.2-7.12-5-5.68-7.73 7.14-.1 1.9-5.33-1.47-8.23-.42-10.07Z"
    class="colorf27c85 svgShape"></path>
  <path fill="#ffb2a8"
    d="M1534 743.56s-10.32-5-14.45 6.57 3.54 36.56 17.69 25.55c16.11-12.51-3.24-32.12-3.24-32.12Z"
    class="colorffb2a8 svgShape"></path>
  <path fill="#f27c85"
    d="M1535.29 749.8c-2.52-4.42-12.06-5.24-13 3.93s5 20.63 8.8 19.2 7.12-5 5.68-7.73-7.14-.1-1.9-5.33 1.47-8.23.42-10.07Z"
    class="colorf27c85 svgShape"></path>
  <path fill="#273657"
    d="m1632.54 1180.85-14.12-12.85s1.48-7.51-1.66-9.26-30.79 21.06-37.08 28.39 2.49 14.55 8.39 10.48 20.84-17 20.84-17l3.54 3.93s-13.72 9.22-8.6 28.8a3.13 3.13 0 0 0 3.59 2.28 3.13 3.13 0 0 0 2.45-4c-1.25-4.35-2.16-7.43 8-15.6l12.27 19.61 30.22-11.35Z"
    class="color273657 svgShape"></path>
  <path fill="#fccd89"
    d="M1693.15 1243.06c.79 10.48-28.3 36.43-37.48 36.69-4 .11-10.51-4.56-17-10.53-8.3-7.64-16.59-17.4-19.68-22a7.51 7.51 0 0 1-1.07-3.16 22 22 0 0 1 0-5c1.77-19.8 18.73-34.79 38.61-34.79h3.91s6.93 6.13 14.41 13.75c6.16 6.25 12.67 13.49 16 19.15a15 15 0 0 1 2.3 5.89Z"
    class="colorfccd89 svgShape"></path>
  <path fill="#f28c70"
    d="M1690.84 1237.18c-12 13.3-34.1 24.49-52.18 32-8.3-7.64-16.59-17.4-19.68-22a7.51 7.51 0 0 1-1.07-3.16c30.28-5 47.53-16.65 56.89-26.07 6.2 6.33 12.67 13.57 16.04 19.23Z"
    class="colorf28c70 svgShape"></path>
  <path fill="#ffb2a8"
    d="M1636.26 1174.19s-23.85-.26-29.09 23.06 22.28 27.26 33.55 24.9 29.09-21 29.35-35.38-33.81-12.58-33.81-12.58Z"
    class="colorffb2a8 svgShape"></path>
  <path fill="#dfe9f4"
    d="M1746.79 987.24c-2 21.57-5 38.75-8.59 52.23-5.35 20.08-12.1 31.91-19.2 37.67-19.26 15.6-41.22-13.43-45.42-43.76-.16-1.05-.28-2.12-.39-3.18-4.88-50.15 13.15-152.4 13.15-152.4s19 3.41 35.81 20.48c15.4 15.59 29 42.64 24.64 88.96Z"
    class="colordfe9f4 svgShape"></path>
  <path fill="#dfe9f4"
    d="M1738.2 1039.46c-3.74 50.57-61.92 150.4-67.67 153.5a3.9 3.9 0 0 1-1.66.43c-8.23.54-30.33-14.72-34.87-18.45-4.88-4-1.61-4 21-58.83 16.73-40.64 18.7-70.25 18.61-82.74a63.24 63.24 0 0 0-.31-6.57s41.43-32.7 58.43-13.61c2.53 2.82 4.5 6.78 5.74 12.13a48.66 48.66 0 0 1 .73 14.14Z"
    class="colordfe9f4 svgShape"></path>
  <path fill="#aec6d3"
    d="M1746.79 987.24c-2 21.57-5 38.75-8.59 52.23-3.74 50.57-61.92 150.4-67.67 153.5a3.9 3.9 0 0 1-1.66.43c22.8-31.14 41.54-82.4 50.13-116.27 4-15.71 5.78-27.66 4.79-32.15-2.37-10.67 3.07-17.76 7.91-31.8a105.91 105.91 0 0 0 4.28-16.36c4.65-25.79-13.34-96.58-13.83-98.53 15.4 15.58 29 42.63 24.64 88.95Z"
    class="coloraec6d3 svgShape"></path>
  <path fill="#c66161"
    d="M1670.85 815.91s24.1-.85 37.1 9.91c17.81 14.73-6.7 44.08 25.28 59.28s47.7 46.65 26.21 83.87c-22.66 39.23-77.26 34.63-79.15 1-2.1-37.22-1-48.73-24.11-82.82-21-30.93-1-64.47-1-64.47Z"
    class="colorc66161 svgShape"></path>
  <path fill="#9b4b4b"
    d="M1760.44 971a2 2 0 0 1-1.73-3c9.13-15.82 11.65-31.63 7.26-45.71-4.56-14.67-16.5-27.22-33.6-35.35-19.45-9.25-19.25-23.69-19.06-36.43.13-9.35.25-17.43-6.64-23.12a2 2 0 0 1 2.55-3.08c8.36 6.91 8.22 16.75 8.09 26.26-.19 12.65-.36 24.61 16.78 32.75 18.12 8.62 30.8 22 35.7 37.78 4.73 15.17 2.09 32.08-7.62 48.9a2 2 0 0 1-1.73 1Z"
    class="color9b4b4b svgShape"></path>
  <path fill="#6cc58d"
    d="M1663.7 806.21s8.64-2.75 11.1 9.73c1.71 8.7-15.25 18.54-21.68 15.28s-6.12-11-6.12-11Z"
    class="color6cc58d svgShape"></path>
  <path fill="#9b4b4b"
    d="M1678.19 835.41s22 6.09 21.49 40.73 33.89 34.65 40.89 62.43c0 0 1-19.92-23.59-36.69s3.24-54.71-38.79-66.47Z"
    class="color9b4b4b svgShape"></path>
</svg>