<svg xmlns="http://www.w3.org/2000/svg" data-name="Layer 1"
  viewBox="218.962 108.475 2562.093 2283.05" width="550" height="550">
  <path fill="#f5f5f7"
    d="M382 1542.94c-185.33-125 225.81-670.43 471.82-598s-149.71 815.22-471.82 598Z"
    class="colorf5f5f7 svgShape"></path>
  <path fill="#f5f5f7"
    d="M2486.5 1732.19c86.87 201.15 8.7 398.5-127.59 536.86q-9.4 9.55-19.15 18.7H565.88q-7.5-8.8-15.14-18.7c-51.11-66.7-102.7-171.77-112.73-329.5-21-330.23 532-407.2 644.13-725.85s327.41-488.36 779.59-312c267 104.13 330.29-71.07 559.84 25.44 295.43 124.24-52.33 533.6 64.93 805.05Z"
    class="colorf5f5f7 svgShape"></path>
  <path fill="#f5f5f7"
    d="M2580.24 1632.74c98.74 85.67 105.54-252.63 47.66-282.09s-163.42 181.65-47.66 282.09Z"
    class="colorf5f5f7 svgShape"></path>
  <path fill="#dfe9f4"
    d="M2165.58 554.4v788.85H1532V554.94c0-174.67 142.11-316.8 316.8-316.8a315.22 315.22 0 0 1 193.59 66.21 319.29 319.29 0 0 1 83.14 96.46 315.13 315.13 0 0 1 40.05 153.59Z"
    class="colordfe9f4 svgShape"></path>
  <path fill="#f5f5f7"
    d="M2125.51 400.81 1532 994.34V814.73l510.39-510.38a319.29 319.29 0 0 1 83.12 96.46ZM2165.58 554.41V868.3l-474.95 474.95h-158.65v-155.27l633.6-633.57z"
    class="colorf5f5f7 svgShape"></path>
  <path fill="#92b1dd"
    d="M1861.73 212.52v-.27h-25.9v.27c-183 6.83-329.74 157.79-329.74 342.42v814.2h685.38v-814.2c0-184.63-146.76-335.59-329.74-342.42Zm-25.9 804.87H1532V646.26h303.85Zm0-779v382H1532v-65.45c0-170.33 135.15-309.69 303.85-316.48ZM1532 1043.24h303.85v300H1532Zm633.6 300h-303.87v-300h303.85Zm0-325.86h-303.87V646.26h303.85Zm-303.85-397V238.46c168.7 6.82 303.85 146.18 303.85 316.51v65.43Z"
    class="color92b1dd svgShape"></path>
  <path fill="#ffffff"
    d="M1694.87 346.53a72.48 72.48 0 0 1-72.48 72.47 72.5 72.5 0 0 1 72.48 72.45 72.48 72.48 0 0 1 72.49-72.45 72.47 72.47 0 0 1-72.49-72.47ZM2032.91 1120.69a68.63 68.63 0 0 1-68.63 68.63 68.63 68.63 0 0 1 68.63 68.62 68.62 68.62 0 0 1 68.62-68.62 68.63 68.63 0 0 1-68.62-68.63ZM2100.1 1100a28.6 28.6 0 0 1-28.6 28.6 28.6 28.6 0 0 1 28.6 28.6 28.59 28.59 0 0 1 28.58-28.6 28.59 28.59 0 0 1-28.58-28.6ZM2045.85 769.4a43.29 43.29 0 0 1-43.29 43.29 43.29 43.29 0 0 1 43.29 43.31 43.29 43.29 0 0 1 43.29-43.29 43.29 43.29 0 0 1-43.29-43.31ZM2063 462.3a21.65 21.65 0 0 1-21.61 21.7 21.64 21.64 0 0 1 21.61 21.59 21.64 21.64 0 0 1 21.66-21.59 21.65 21.65 0 0 1-21.66-21.7ZM1727.24 840.4a43.29 43.29 0 0 1-43.24 43.29 43.3 43.3 0 0 1 43.24 43.31 43.29 43.29 0 0 1 43.29-43.28 43.29 43.29 0 0 1-43.29-43.29Z"
    class="colorfff svgShape"></path>
  <path fill="#dfe9f4"
    d="M1248.9 554.4v788.85H615.31V554.94c0-174.67 142.11-316.8 316.79-316.8a315.1 315.1 0 0 1 193.59 66.21 319.15 319.15 0 0 1 83.14 96.46 315.13 315.13 0 0 1 40.07 153.59Z"
    class="colordfe9f4 svgShape"></path>
  <path fill="#f5f5f7"
    d="M1208.83 400.81 615.31 994.34V814.73l510.38-510.38a319.15 319.15 0 0 1 83.14 96.46ZM1248.9 554.41V868.3l-474.94 474.95H615.31v-155.27l633.59-633.57z"
    class="colorf5f5f7 svgShape"></path>
  <path fill="#92b1dd"
    d="M945.05 212.52v-.27h-25.89v.27c-183 6.83-329.75 157.79-329.75 342.42v814.2h685.39v-814.2c0-184.63-146.8-335.59-329.75-342.42Zm-25.89 804.87H615.31V646.26h303.85Zm0-779v382H615.31v-65.45c0-170.33 135.14-309.69 303.85-316.48Zm-303.85 804.89h303.85v300H615.31Zm633.59 300H945.05v-300h303.85Zm0-325.86H945.05V646.26h303.85Zm-303.85-397v-382c168.71 6.86 303.85 146.22 303.85 316.58v65.4Z"
    class="color92b1dd svgShape"></path>
  <path fill="#ffffff"
    d="M778.24 346.53A72.49 72.49 0 0 1 705.75 419a72.51 72.51 0 0 1 72.49 72.45A72.49 72.49 0 0 1 850.72 419a72.48 72.48 0 0 1-72.48-72.47ZM1116.24 1120.69a68.63 68.63 0 0 1-68.62 68.63 68.62 68.62 0 0 1 68.62 68.62 68.63 68.63 0 0 1 68.63-68.62 68.63 68.63 0 0 1-68.63-68.63ZM1183.42 1100a28.6 28.6 0 0 1-28.58 28.6 28.59 28.59 0 0 1 28.59 28.59 28.59 28.59 0 0 1 28.6-28.6 28.59 28.59 0 0 1-28.61-28.59ZM1129.17 769.4a43.29 43.29 0 0 1-43.29 43.29 43.29 43.29 0 0 1 43.29 43.31 43.29 43.29 0 0 1 43.29-43.29 43.29 43.29 0 0 1-43.29-43.29ZM1146.35 462.3a21.65 21.65 0 0 1-21.65 21.7 21.64 21.64 0 0 1 21.65 21.63A21.64 21.64 0 0 1 1168 484a21.64 21.64 0 0 1-21.64-21.64ZM810.52 840.4a43.3 43.3 0 0 1-43.28 43.29A43.3 43.3 0 0 1 810.53 927a43.29 43.29 0 0 1 43.29-43.28 43.28 43.28 0 0 1-43.3-43.28Z"
    class="colorfff svgShape"></path>
  <path fill="#7394bc"
    d="m929.16 1872.12 152.46-28.79s15.2 37.29-6.25 65.24-158.19 19.66-158.19 19.66Z"
    class="color7394bc svgShape"></path>
  <path fill="#92b1dd" d="M961 1690.46s22.18-23.23 43.71 0l-71.47 269.94-50-10.31Z"
    class="color92b1dd svgShape"></path>
  <path fill="#cedbee" d="M1017.44 1758.18s16.62-17.41 32.75 0l-53.51 202.22-37.5-7.72Z"
    class="colorcedbee svgShape"></path>
  <path fill="#aec6d3" d="M933.39 1228.85s14.79-27 34.5-8.93l-37.19 822.54-43 17.74Z"
    class="coloraec6d3 svgShape"></path>
  <path fill="#7394bc"
    d="M942.06 1810.08h-.13a3 3 0 0 1-2.87-3.12l25.77-585.73c-4.31-3.61-8.55-5.06-12.62-4.33-7.54 1.36-13.49 10.08-15.15 13.33a3 3 0 0 1-5.35-2.73c.3-.59 7.46-14.34 19.44-16.5 6.33-1.15 12.65 1.11 18.77 6.71l1 1L945 1807.26a3 3 0 0 1-2.94 2.82Z"
    class="color7394bc svgShape"></path>
  <path fill="#cedbee" d="M816.24 1134.76s10.73-27.4 35.3-11.76l83.38 941.57h-30.47Z"
    class="colorcedbee svgShape"></path>
  <path fill="#7394bc"
    d="m772.92 1950.09-9.75-105.27s17.7-22.18 37.53-11.32c25 13.7 45.88 8.34 45.88 8.34l7.15 98.31Z"
    class="color7394bc svgShape"></path>
  <path fill="#92b1dd" d="M711.63 1275.82s6.25-30.12 30.38-18.63l204.93 797.44-35.89 29.53Z"
    class="color92b1dd svgShape"></path>
  <path fill="#7394bc"
    d="M839.79 1795.72a3 3 0 0 1-2.91-2.28l-128.34-517.61.17-.71c.16-.66 4-16.16 15.53-21.65q9-4.26 20.06 1a3 3 0 0 1-2.3 5.53l-.24-.12c-5.64-2.68-10.65-3-14.88-1-7.77 3.7-11.3 14.23-12.11 17l128 516.14a3 3 0 0 1-2.19 3.63 3.18 3.18 0 0 1-.79.07Z"
    class="color7394bc svgShape"></path>
  <path fill="#92b1dd" d="m1104.12 1918.39-37.1 361.96H779.28l-37.1-361.96h361.94z"
    class="color92b1dd svgShape"></path>
  <path fill="#7394bc" d="m742.18 1918.39-7.51 21.17 347.8 190.02 21.65-211.19"
    class="color7394bc svgShape"></path>
  <path fill="#dfe9f4"
    d="M1111.63 1897.22h-377a21.17 21.17 0 0 0 0 42.34h377a21.17 21.17 0 0 0 0-42.34Z"
    class="colordfe9f4 svgShape"></path>
  <path fill="#7394bc"
    d="M714.51 1921.39a3 3 0 0 1-3-3c0-13.55 10.17-24.17 23.16-24.17h378a3 3 0 0 1 0 6h-378c-9.78 0-17.16 7.81-17.16 18.17a3 3 0 0 1-3 3Z"
    class="color7394bc svgShape"></path>
  <path fill="#cedbee"
    d="M923 1983.29c-12.12 20.57-114 193.51-126.09 214.76-4.51.59-15.74-.76-26.39-3.69-7.46-2.06-14.64-4.92-19-8.43-1.87-1.5-2.93-3-2.84-3.95.64-6.31 7.37-24.16 16-44.73l-2.73-26.66c-11.63 26.58-25.08 59.16-26.18 70.09-.74 7.61 3.86 18.24 30.06 25.83 2 .57 4 1.11 6.12 1.58a115 115 0 0 0 17.41 2.8c1.87.15 3.58.22 5.14.22 7.25 0 11.11-1.63 12.91-5.21 2.82-5.48 92.49-157.78 126.79-216Z"
    class="colorcedbee svgShape"></path>
  <circle cx="928.55" cy="1986.59" r="16.31" fill="#cedbee" class="colorcedbee svgShape"></circle>
  <path fill="#f28c70" d="M2146.73 2278.39h-503.71l140.68-486.13h238.35l124.68 486.13z"
    class="colorf28c70 svgShape"></path>
  <path fill="#fccd89" d="m1802.69 1792.26-11.28 38.98-129.4 447.15h-18.99l140.68-486.13h18.99z"
    class="colorfccd89 svgShape"></path>
  <path fill="#fccd89"
    d="M2146.73 2278.39v.02h-266.86v-.02l-88.46-447.15-7.71-38.98h238.35l124.68 486.13z"
    class="colorfccd89 svgShape"></path>
  <path fill="#f28c70"
    d="M2109.72 2135.39a4 4 0 0 1-3.87-3L2019 1796.26h-144.3a4 4 0 0 1 0-8h150.45l88.44 342.13a4 4 0 0 1-2.87 4.87 3.81 3.81 0 0 1-1 .13Z"
    class="colorf28c70 svgShape"></path>
  <path fill="#f5f5f7"
    d="M1931.7 1870.62c-36.07 4-57.91 259.79-45.75 284.79s182.29 10.05 181.67-19.95-89.72-270-135.92-264.84Z"
    class="colorf5f5f7 svgShape"></path>
  <path fill="#fccd89"
    d="m1990.38 2066.77-14.82-104.87a15.27 15.27 0 0 0-15-13.13l-19.42-.18a15.27 15.27 0 0 0-14.65 20l34.24 105a15.27 15.27 0 0 0 29.63-6.86Z"
    class="colorfccd89 svgShape"></path>
  <ellipse cx="1984.32" cy="2118.56" fill="#fccd89" rx="16.16" ry="19.81"
    transform="rotate(-14.86 1984.32 2118.572)" class="colorfccd89 svgShape"></ellipse>
  <path fill="#cedbee"
    d="M2289.45 2279.51c-.06.56-.1.84-.1.84h-147.19s-55.94-492.71-53.36-559.1c1.76-45.2 27-87 43-109q1.82-2.48 3.41-4.61c10.25-6.79 42.43-11.73 80.53-11.73s70.27 4.94 80.52 11.73c1.06 1.42 2.22 3 3.41 4.61 3.81 5.27 8.15 11.65 12.58 19 1.95 3.21 3.92 6.59 5.86 10.12 2.1 3.81 4.17 7.81 6.16 12 9.57 19.91 17.48 43.44 18.43 68 2.54 64.63-50.7 535.56-53.25 558.14Z"
    class="colorcedbee svgShape"></path>
  <path fill="#7394bc"
    d="M2143.15 2284.35a4 4 0 0 1-4-3.54c-2.32-20.13-56.94-493.78-54.37-559.72.81-20.85 6.79-43.15 17.77-66.26a4 4 0 1 1 7.23 3.43c-10.52 22.13-16.24 43.38-17 63.14-2.54 65.33 53.76 553.57 54.33 558.49a4 4 0 0 1-3.51 4.44Z"
    class="color7394bc svgShape"></path>
  <path fill="#92b1dd"
    d="M2342.72 1721.25c-.95-24.54-8.86-48.06-18.43-68-.51-1.07-1-2.13-1.56-3.19l-.45-.87c-.52-1-1.06-2.09-1.59-3.12-.19-.35-.37-.7-.55-1-.67-1.26-1.34-2.51-2-3.73a269.67 269.67 0 0 0-5.86-10.12c-13.34 4.12-31.15 7.28-51.43 9-3.23.28-6.54.51-9.9.7-5.72.34-11.62.56-17.63.66-7.05.11-13.94 0-20.61-.18-10.91-.38-21.21-1.18-30.64-2.37a188.36 188.36 0 0 1-31.9-6.4 81.62 81.62 0 0 1-7.78-2.76 50.73 50.73 0 0 1-6.33-3.09c-3.6-2.12-6.07-4.42-7.23-6.83l-.07.45c-.44 3.51 1.9 7.16 6.51 10.75a47 47 0 0 0 5.84 3.84 75.94 75.94 0 0 0 7.32 3.69 186.47 186.47 0 0 0 30.72 10.25c9.17 2.32 19.27 4.39 30 6.1 6.59 1 13.41 1.94 20.41 2.69q9 1 17.58 1.5c3.36.24 6.66.4 9.91.53 5.94.23 11.68.3 17.18.24 8.63 13.71 21.78 40.18 21.35 73.64-.54 41.86-30.8 426.86-40.29 546.76h34.05a5.39 5.39 0 0 1 .1-.84c2.56-22.62 55.8-493.55 53.28-558.3Z"
    class="color92b1dd svgShape"></path>
  <path fill="#7394bc"
    d="M2299.69 1612.22c0 2.67-3.29 5.19-9.11 7.42-1.34.52-2.86 1-4.49 1.5a142.75 142.75 0 0 1-19.49 4.11c-2.12.3-4.3.61-6.56.87-1.19.15-2.4.31-3.65.42q-4.92.54-10.23 1l-4.59.32-3.73.21-1.57.07c-1.78.1-3.58.15-5.42.21h-1.48c-1.87.06-3.75.11-5.66.13-.93 0-1.86 0-2.78.06h-5.2q-3.27 0-6.46-.06l-3.58-.06c-1 0-2 0-3-.09-1.17 0-2.33-.08-3.49-.12-8.73-.34-17-.94-24.49-1.76-6.23-.68-12-1.51-17.11-2.46-3-.59-5.81-1.19-8.37-1.84-2.25-.55-4.32-1.15-6.17-1.8a42.37 42.37 0 0 1-5-2 19.46 19.46 0 0 1-3.93-2.39c-1.53-1.23-2.33-2.5-2.33-3.82 0-1.61 1.2-3.15 3.42-4.62a.41.41 0 0 1 .13-.08 35.82 35.82 0 0 1 8.35-3.69c2.44-.8 5.23-1.56 8.3-2.26a197.6 197.6 0 0 1 20.38-3.35q5.49-.63 11.48-1.12c2.77-.23 5.59-.42 8.49-.59s5.59-.28 8.47-.37c3.46-.14 7-.21 10.6-.25h4.32c2.09 0 4.17 0 6.22.06 2.46 0 4.89.07 7.27.15 1.59 0 3.17.09 4.74.17l2.8.13h.17c1.06 0 2.09.1 3.11.17 5.36.32 10.51.74 15.36 1.25 5.23.53 10.14 1.19 14.65 1.93 1.23.21 2.42.42 3.59.65 2.54.45 4.91 1 7.13 1.47a65.27 65.27 0 0 1 13.18 4.42 24 24 0 0 1 2.31 1.31c2.23 1.55 3.42 3.09 3.42 4.7Z"
    class="color7394bc svgShape"></path>
  <path fill="#aec6d3"
    d="M2312.12 1459.46c.74 19.85-10.8 56-25.08 95.19-5.44 14.85-11.27 30.12-17 45.08q-1.11 2.93-2.22 5.82c-1.84 4.83-3.68 9.62-5.46 14.34l-2.35 6.21c-1.19.15-2.4.31-3.65.42q-4.92.54-10.23 1l-4.59.32-3.73.21-1.57.07c-1.78.1-3.58.15-5.42.21h-1.48c-1.87.06-3.75.11-5.66.13-.93 0-1.86 0-2.78.06h-5.2q-3.27 0-6.46-.06 0-3.27.12-6.65c.13-5.74.49-11.67 1.1-17.71.24-2.73.56-5.5.92-8.28s.78-5.67 1.26-8.53c.54-3.31 1.17-6.66 1.87-10 .38-1.81.77-3.63 1.19-5.47 3.26-14.11 6.31-26.28 9.21-37 17-63 27.92-76.55 35.77-145.49 6.17-54.5 41.58-96.85 35-115.15 1 2.35 16.39 40.8 16.39 88.25.09 49.03-1.83 46.14.05 97.03Z"
    class="coloraec6d3 svgShape"></path>
  <path fill="#7394bc"
    d="M2288 1558.67a3.74 3.74 0 0 1-1.37-.25 4 4 0 0 1-2.39-5.12c16.46-45.09 24.48-76.61 23.84-93.68-1.14-31.41-.86-42.43-.48-57.68.24-9.68.52-20.65.52-39.48a4 4 0 0 1 8 0c0 18.93-.28 30-.52 39.68-.38 15.11-.66 26 .48 57.19.67 18.11-7.51 50.65-24.32 96.71a4 4 0 0 1-3.76 2.63ZM2286.91 1373.64A373.14 373.14 0 0 0 2285 1417c0 7.27.63 14.34.76 21.74a112.06 112.06 0 0 1-2.25 21.92c-2.83 14.42-7.54 28.28-12.49 42-10.06 27.3-21.5 53.95-30.25 81.4q-2 6.17-3.81 12.41c-.77 2.69-1.51 5.4-2.23 8.11-1.76 6.72-3.34 13.49-4.66 20.27-.06.26-.12.55-.17.81-.14.72-.27 1.46-.4 2.18 0 .19-.08.4-.1.59-1.87.06-3.75.11-5.66.13-.93 0-1.86 0-2.78.06h-.12v-.08c.3-1.51.63-3 1-4.54.19-.84.38-1.65.59-2.49.2-1 .45-2 .7-3.06q1.23-5.2 2.67-10.35 1.65-6 3.5-12c1.14-3.68 2.33-7.31 3.58-10.93l1.2-3.43c9.66-27.58 21.84-54 32.56-80.81 5.29-13.44 10.31-27 13.43-41a108.24 108.24 0 0 0 2.79-21.2c0-7.1-.36-14.51-.17-21.74a376.18 376.18 0 0 1 3.1-43.46 335.34 335.34 0 0 1 8.09-42.74 337.64 337.64 0 0 0-6.97 42.85Z"
    class="color7394bc svgShape"></path>
  <path fill="#cedbee"
    d="M2438.83 1459.51c-.64 1.42-21.48 47.29-45.12 63.35-22.43 15.27-54.37 61-97.43 84.74-3 1.64-6.08 3.2-9.18 4.62a86.77 86.77 0 0 0-20.5 13c-2.12.3-4.3.61-6.56.87-1.19.15-2.4.31-3.65.42q-4.92.54-10.23 1l-4.59.32a217 217 0 0 1 45.47-73.14 201.19 201.19 0 0 1 45.2-35.64c79.7-46.11 74-25.97 106.59-59.54Z"
    class="colorcedbee svgShape"></path>
  <path fill="#7394bc"
    d="M2297.29 1611.6a4 4 0 0 1-1.94-7.51c25.41-14 46.75-36 65.58-55.33 11.94-12.28 22.25-22.89 31.53-29.21a4 4 0 0 1 4.5 6.62c-8.61 5.86-18.66 16.2-30.3 28.17-18.26 18.79-41 42.17-67.44 56.76a4 4 0 0 1-1.93.5Z"
    class="color7394bc svgShape"></path>
  <path fill="#92b1dd"
    d="M2403.32 1496c-9.65 5.4-18.91 11.42-28 17.73s-17.8 13-26.25 20.1a307.44 307.44 0 0 0-24.23 22.41c-3.88 3.88-7.48 8-11.16 12.11s-7.35 8.35-11.25 12.31c-7 7.33-14.34 14.32-21.67 21.23l-2.14 2c-5.55 5.25-11.08 10.52-16.26 16-2.06 2.16-4.07 4.38-6 6.63q-4.92.54-10.23 1c1.36-1.67 2.78-3.28 4.22-4.87 5.54-6.06 11.46-11.65 17.47-17.05 1.93-1.74 3.86-3.47 5.81-5.17l1-.87c8.32-7.3 16.58-14.55 24.44-22.22 4-3.77 7.73-7.79 11.53-11.75s7.68-8.09 11.75-11.86a310.55 310.55 0 0 1 25.23-21.73c8.75-6.8 17.81-13.22 27.09-19.22s18.81-11.78 28.65-16.78Z"
    class="color92b1dd svgShape"></path>
  <path fill="#cedbee"
    d="M2106.24 1362.94c.36.89.7 1.8 1 2.71-.51-1.25-.85-2.19-1-2.71ZM2236.24 1628.09c-1.78.1-3.58.15-5.42.21h-1.48c-1.87.06-3.75.11-5.66.13-.93 0-1.86 0-2.78.06h-5.2q-3.27 0-6.46-.06l-3.58-.06c-1 0-2 0-3-.09-.45-.74-.89-1.48-1.35-2.22q-3.15-5.28-6.42-10.72c-3.63-6-7.37-12.2-11.1-18.34-2.69-4.41-5.38-8.83-8.05-13.18-7.25-11.81-14.36-23.19-20.8-33.19-42.3-65.83-28.47-131.66-47.7-184.86 4.15 10.44 18.26 42.15 42 58.07 28.72 19.21 30.65 44.17 53.68 57.62 8.62 5 16.16 25.88 21.92 53.29 3.22 15.27 5.87 32.57 7.86 50.3.42 3.69.82 7.39 1.16 11.1.26 2.75.51 5.51.74 8.26.78 8.05 1.31 15.95 1.64 23.68Z"
    class="colorcedbee svgShape"></path>
  <path fill="#7394bc"
    d="M2230.85 1628.3h-1.48c-1.87.06-3.75.11-5.66.13l-1.12-5.74-.24-1.31-.72-3.67-.5-1.88-.79-3-2.56-9.83c-.41-1.64-.91-3.26-1.48-4.85l-.76-2.31-.83-2.5c-.6-2-1.31-4-2-6-1.63-4.33-3.49-8.6-5.23-12.9l-4.45-9.11c-.71-1.53-1.52-3-2.37-4.49l-2.48-4.43c-6.69-11.8-14.59-23-21.26-35.16-1.76-3-3.22-6.12-4.72-9.24-.72-1.58-1.53-3.11-2.19-4.7l-1.86-4.85-1.86-4.85c-.58-1.63-1-3.32-1.49-5-.93-3.31-2-6.64-2.83-9.94a213.54 213.54 0 0 0-13.73-38.41 177.07 177.07 0 0 0-9.83-18 120.36 120.36 0 0 0-12.18-16.49 118.58 118.58 0 0 1 12.67 16.17 182.12 182.12 0 0 1 10.4 17.75 215.59 215.59 0 0 1 15 38.38c1 3.32 2 6.5 3.06 9.74.54 1.61 1 3.26 1.6 4.83l2 4.7 2 4.68c.68 1.55 1.53 3 2.29 4.53 1.53 3 3 6 4.87 8.92 6.86 11.69 15.08 22.69 22.24 34.51l2.67 4.46c.89 1.47 1.78 3 2.56 4.5l4.83 9.23c.76 1.7 1.51 3.41 2.27 5.11a148.3 148.3 0 0 1 5.74 14.08l1.67 4.53.13.36c.59 1.63 1.21 3.25 1.65 4.92l2 6.82.93 3.17 1.44 5 1.15 5 .8 3.53Z"
    class="color7394bc svgShape"></path>
  <path fill="#dfe9f4"
    d="M2229.87 1628.34h-.48c-1.87.06-3.75.11-5.66.13-.93 0-1.86 0-2.78.06h-5.2q-3.27 0-6.46-.06l-3.58-.06c-1 0-2 0-3-.09-1.17 0-2.33-.08-3.49-.12-8.73-.34-17-.94-24.49-1.76-6.23-.68-12-1.51-17.11-2.46-8.07-2.82-16-5.53-23.51-8-10.91-3.58-20.8-6.61-28.58-8.65-40.35-10.55-64.35-80.66-98-111.39 1 .64 34.23 21.27 73.94 31.67 40.35 10.57 42.28 43.16 92.31 55.72.66.17 1.33.34 2 .53a78.5 78.5 0 0 1 25 12.22 94.92 94.92 0 0 1 9.68 8 112.51 112.51 0 0 1 10.64 11.72q1 1.23 1.92 2.49c2.38 3.16 4.52 6.32 6.42 9.39Z"
    class="colordfe9f4 svgShape"></path>
  <path fill="#7394bc"
    d="M2176.82 1587.92a3.85 3.85 0 0 1-1.12-.17l-1.07-.17c-.65-.1-1.27-.19-1.77-.32-27.47-6.89-41.06-20-53-31.5-10.43-10-20.28-19.5-38.29-24.22a4 4 0 0 1 2-7.74c20 5.25 31.1 15.9 41.81 26.2 11.82 11.37 24 23.12 49.46 29.51l1 .16a17.39 17.39 0 0 1 2.13.41 4 4 0 0 1-1.13 7.84Z"
    class="color7394bc svgShape"></path>
  <path fill="#aec6d3"
    d="M2221 1628.55h-5.2q-3.27 0-6.46-.06l-3.58-.06c-1.42-.81-2.86-1.59-4.32-2.31s-3.1-1.59-4.67-2.35a280.69 280.69 0 0 0-26.37-10.46c-8.83-3.08-17.81-6-26.64-9.52l-.51-.21c-8.94-3.62-18-8-25.25-14.87-3.64-3.62-6.31-7.3-9.7-10.71-1.61-1.74-3.26-3.44-5-5.09s-3.39-3.34-5.17-4.93a325.6 325.6 0 0 0-45.62-34.59 326.68 326.68 0 0 1 47.19 32.83c1.85 1.52 3.65 3.13 5.43 4.76s3.55 3.25 5.27 5c3.49 3.24 6.69 7.18 10 10.17 6.92 6.06 15.65 9.89 24.52 13 2.35.84 4.73 1.61 7.12 2.37 14.13 4.57 28.76 8.3 43 13.87 1.56.6 3.1 1.23 4.64 1.89 3.3 1.41 6.58 2.92 9.8 4.55a123.36 123.36 0 0 1 11.42 6.59.17.17 0 0 1 .1.13Z"
    class="coloraec6d3 svgShape"></path>
  <path fill="#ffb2a8"
    d="M1653.24 983.69v.12a17.09 17.09 0 0 1-2 4.47c-3.22 5-9.27 8.34-19.43 8.46-15.89.19-34.48-7.67-51-17.13a310.75 310.75 0 0 1-45-32l23-37.88 23.3-38.46s9.58 10.57 21 23.31l1.86 2.07c14.31 15.93 30.83 34.51 35.25 40.17a64.76 64.76 0 0 1 6.27 10.58c5.02 10.6 9.91 25.6 6.75 36.29Z"
    class="colorffb2a8 svgShape"></path>
  <path fill="#ffb2a8"
    d="M1653.24 983.69v.12q-1 2.4-2 4.47c-1 2.07-37-30.8-40.43-35.58a1.49 1.49 0 0 1-.2-.31c-1.75-3.49-10.07-40.69-10.07-40.69s1-6.52 2.56-17.07c6.54-43.52 23.35-155.37 23.7-157.11l33.56-2.65s15.88 191.47-7.12 248.82Z"
    class="colorffb2a8 svgShape"></path>
  <path fill="#f27c85"
    d="M1601.24 896.18a339.81 339.81 0 0 1-15.9 84.88 310.48 310.48 0 0 1-47.91-27.36l38.57-80.53 25.24 23.01Z"
    class="colorf27c85 svgShape"></path>
  <path fill="#f27c85"
    d="M1653.24 983.69v.12a17.09 17.09 0 0 1-2 4.47c-3.22 5-9.27 8.34-19.43 8.46-15.89.19-34.48-7.67-51-17.13a310.75 310.75 0 0 1-45-32l23-37.88c10.22 7.36 19.11 16.63 24.29 28.18 11.8 26.29 15.35 26.79 22.46 19.54 4.49-4.57 1-12.28 4.38-12.25 8.84.1 18.09 46.1 34.43 16.78 18.81-33.77 18-192.53 10-204.1-8.82-12.82-27.53-20.41-27.53-20.41l33.56-2.65s15.84 191.52-7.16 248.87Z"
    class="colorf27c85 svgShape"></path>
  <path fill="#ffb2a8"
    d="M1626.69 737.51s-18.09-29.18-12.83-42.6 13.16-1.4 20.58-9.45 19.68-24 38.35-11.65-5 59.89-11.82 68.21-34.28-4.51-34.28-4.51Z"
    class="colorffb2a8 svgShape"></path>
  <path fill="#273657"
    d="M1688 766.3a6.9 6.9 0 0 1-5.55-2.8l-75.07-101.22a6.91 6.91 0 0 1-.14-8l41.68-60.44a6.91 6.91 0 0 1 11.37 7.84l-38.87 56.38 72.12 97.26a6.9 6.9 0 0 1-5.54 11Z"
    class="color273657 svgShape"></path>
  <rect width="17.23" height="218.97" x="1645.86" y="488.18" fill="#9b4b4b" rx="6.37"
    transform="rotate(-86.99 1654.48 597.667)" class="color9b4b4b svgShape"></rect>
  <path fill="#6cc58d"
    d="M1596.41 884.34s-6.39 25.7-22.94 58.5a316.67 316.67 0 0 1-27.75 45.44l-52.51-70 26.62-102.35 4.23-16.26s2 1 5.45 3.09c.87.5 1.82 1.09 2.85 1.75 16.33 10.33 52.05 37.14 64.05 79.83Z"
    class="color6cc58d svgShape"></path>
  <path fill="#3e9a83"
    d="M1573.47 942.84a316.67 316.67 0 0 1-27.75 45.44l-52.51-70 26.62-102.35c5.18-7.08 9.34-12.71 9.68-13.16a5.59 5.59 0 0 1 2.83 1.78c4 3.83 11.15 15.91 15.13 53.81 3.88 36.85 13.41 62.84 26 84.48Z"
    class="color3e9a83 svgShape"></path>
  <path fill="#c66161"
    d="M1513.49 642.39c-19.84-29.76 5.83-56-22.76-90.45s-66.15-9.92-66.15-9.92-15.42-37.52-72.81-20.23c-96.87 29.17-83.48 94.11-78.12 147.89.11 1.11.21 2.23.3 3.34-12.24 40.44-39.71 93.31-100.71 107.38 0 0 66.28-6 99.67-73-6 36-30.65 71.27-103.17 92.2a167.18 167.18 0 0 0-25 9.3c-45.26 1.26-103.1 14.74-109.7 74.21.88-6.21 11.26-65.11 87.49-60.72-47.45 37.15-37.91 99.86-5.28 161.67 40.85 77.38 158.72 24.16 184.83-21.58s125.62-24.87 201.16-141 30.09-149.33 10.25-179.09Z"
    class="colorc66161 svgShape"></path>
  <path fill="#9b4b4b"
    d="M1502.24 824.54a2.94 2.94 0 0 1-1.63-.49 3 3 0 0 1-.88-4.15c55.27-85 46.29-122.63 30.21-148.27a3 3 0 0 1 5.08-3.19c17.09 27.25 26.85 66.94-30.26 154.73a3 3 0 0 1-2.52 1.37ZM1185.24 1026.46c-31.85 0-56.47-14.07-70.63-40.9-27.06-51.25-34.12-96.08-20.41-129.66a3 3 0 1 1 5.66 2 2.33 2.33 0 0 1-.11.28c-16.43 40.29 1.89 90 20.16 124.6 21.91 41.49 64.81 40 88.44 35.33a3 3 0 1 1 1.15 5.89 126 126 0 0 1-24.26 2.46ZM1271.42 640.84a3 3 0 0 1-3-2.77c-3.74-47.86 3.67-95.42 82.48-119.15a3 3 0 0 1 2 5.67l-.23.07c-78.48 23.64-81.53 70.69-78.23 113a3 3 0 0 1-2.76 3.22ZM1514.49 645.39a3 3 0 0 1-2.5-1.34c-9.54-14.31-9.34-28-9.15-41.25.24-16 .46-31-14.42-48.94-26.5-31.92-60.76-10.26-62.2-9.32a3 3 0 0 1-3.28-5c.4-.26 40.14-25.56 70.1 10.51 16.29 19.62 16 36.52 15.8 52.87-.19 12.89-.37 25.07 8.14 37.84a3 3 0 0 1-.84 4.16 3 3 0 0 1-1.65.5Z"
    class="color9b4b4b svgShape"></path>
  <path fill="#c66161" d="M1035.05 883.16a1.67 1.67 0 0 1-.07.53c.02-.18.02-.35.07-.53Z"
    class="colorc66161 svgShape"></path>
  <path fill="#9b4b4b"
    d="M1372.45 597.72s-56.66 42.63-41.21 114.84-44.78 63.22-61.63 123-77 98.88-33.26 136.55 258.4-153.58 261.59-201.79 16.46-147.81-47.29-172.58-78.2-.02-78.2-.02Z"
    class="color9b4b4b svgShape"></path>
  <path fill="#ffb2a8"
    d="M1600.43 1151.83s-44.71 56-55.62 58.35-133.45-8.16-133.45-8.16l-32.14.74a581.17 581.17 0 0 0-6.84-62.29c-2.64-15.79-6.28-32.42-11.2-47l110.88-61.91 106.18 10.56s3.19 7.32 7.13 19.75c6.38 19.91 14.7 52.95 15.06 89.96Z"
    class="colorffb2a8 svgShape"></path>
  <path fill="#f27c85"
    d="M1585.4 1061.87c-10.76 17.92-63.36 89.34-213 78.6-2.64-15.79-6.28-32.42-11.2-47l110.88-61.91 106.16 10.56s3.22 7.34 7.16 19.75Z"
    class="colorf27c85 svgShape"></path>
  <ellipse cx="1525.3" cy="1134.9" fill="#f27c85" rx="6.27" ry="9.92" class="colorf27c85 svgShape"></ellipse>
  <path fill="#6cc58d"
    d="M1587.6 1050.29c-37.87 52.77-111.07 65.93-165.89 67.67a413.21 413.21 0 0 1-69.87-3.49c-2.45-47.85-26.84-115.71-44.68-172.89-16.08-51.56-26.84-94.43-11.34-106 16.16-12.14 43.78-29.11 67.54-43.18 24.25-14.36 44.5-25.67 44.5-25.67s39.71 7.1 75.35 17.56c29 8.52 55.37 19.3 55.37 30.29 0 176.01 49.02 235.71 49.02 235.71Z"
    class="color6cc58d svgShape"></path>
  <path fill="#3e9a83"
    d="M1537.47 1095.34a3 3 0 0 1-1.38-5.67c19.82-10.17 35.89-23.41 47.8-39.38-3.25-4.66-11.74-18.19-20.7-43.67-10.23-29.11-23-80.12-26-157.83a3 3 0 1 1 6-.23c2.9 76.66 15.46 126.92 25.49 155.59 10.85 31 21.15 44.13 21.26 44.26l1.41 1.78-1.35 1.81c-12.58 17.54-29.81 32-51.21 43a3 3 0 0 1-1.32.34Z"
    class="color3e9a83 svgShape"></path>
  <path fill="#3e9a83"
    d="M1535.66 1078.65c-.78.85-26.17 27.71-97.71 31.16-20.23 1-22.91 4.13-16.24 8.15a413.21 413.21 0 0 1-69.87-3.49c-2.45-47.85-26.84-115.71-44.68-172.89l51.76-3.6s-16.83 78.46 22.48 100.64 7.11 35 37.22 53.69 88.47 4.15 117.04-13.66Z"
    class="color3e9a83 svgShape"></path>
  <path fill="#abdda8"
    d="M1456.89 825.92c-20.15 12.26-49 3.5-75.49-8.75-12.85-6-17.08-16-18-24.81 24.25-14.36 44.5-25.67 44.5-25.67s39.71 7.1 75.35 17.56c14.99 25.94-7.15 29.97-26.36 41.67Z"
    class="colorabdda8 svgShape"></path>
  <path fill="#ffb2a8"
    d="m1283.53 1106.19-.36.41-.62.69a.69.69 0 0 0-.11.13c-8.87 9.9-68.53 76.14-140.62 148.22 0 0-8 2.64-18.13-1.37-5.77-2.28-12.24-6.68-18.37-14.91l83.18-121.24 53.1-32.28 19.64 9.62 22.23 10.76Z"
    class="colorffb2a8 svgShape"></path>
  <path fill="#ffb2a8"
    d="M1329.68 984.12s-4.79 17-11.83 38.88c-5.64 17.52-12.74 38.18-20 55.64-3.17 7.68-6.4 14.74-9.54 20.66a37.62 37.62 0 0 1-4.77 6.89l-.36.41c-.19.23-.4.45-.62.69a.69.69 0 0 0-.11.13c-11.44 12.36-31.88 21.57-51 26-27.67 6.49-52.51 3-43-15.35 7.8-15 22.13-54.76 35.57-94.17 16.73-49 32.13-97.42 32.13-97.42Z"
    class="colorffb2a8 svgShape"></path>
  <path fill="#f27c85"
    d="M1129.17 1207.57a3 3 0 0 1-3-3 3 3 0 0 1 .55-1.72l60.16-86.24c7.12-13.78 18.86-48.23 31.29-84.69l3-8.89c16.53-48.4 33-96.92 33.12-97.41a3 3 0 1 1 5.75 1.71l-.07.21c-.16.49-16.59 49-33.13 97.43l-3 8.88c-12.55 36.84-24.4 71.63-31.72 85.7l-.2.34-60.28 86.39a3 3 0 0 1-2.47 1.29Z"
    class="colorf27c85 svgShape"></path>
  <path fill="#f27c85"
    d="M1329.68 984.12s-15.52 55.28-31.84 94.52c-46-11.66-65.94-39-73.82-54.64 16.73-49 32.13-97.42 32.13-97.42Z"
    class="colorf27c85 svgShape"></path>
  <path fill="#f27c85"
    d="M1317.85 1023c-5.64 17.52-12.74 38.18-20 55.64-3.17 7.68-6.4 14.74-9.54 20.66a37.62 37.62 0 0 1-4.77 6.89l-.36.41-.62.69a.69.69 0 0 0-.11.13c-8.87 9.9-68.53 76.14-140.62 148.22 0 0-8 2.64-18.13-1.37 4.37-3.73 9.37-7.85 15-12.41 76-61.13 88.71-85.84 95.87-103.38 3.32-8.13-13.81-6 11.68-23.47 6.11-4.2 11.37-10.77 15-19.63 11.89-28.64 11.2-74.9 11.2-74.9Z"
    class="colorf27c85 svgShape"></path>
  <path fill="#ffb2a8"
    d="M1143.6 1260.11c-1 11.94-5.79 28.1-18.46 35.42-10.94 6.32-40.71 1.74-40.71-14 0-7.75-3.6-10.94-7.21-13s-7.46-3-7.23-6.29c.44-6.57 35.28-22.85 35.28-22.85s35.62.08 37.81 8.84a40.81 40.81 0 0 1 .52 11.88Z"
    class="colorffb2a8 svgShape"></path>
  <path fill="#f27c85"
    d="M1143.6 1260.11c-1 11.94-5.79 28.1-18.46 35.42-10.94 6.32-40.71 1.74-40.71-14 0-7.75-3.6-10.94-7.21-13a17.81 17.81 0 0 0 6.78-5.85c15.56-21 37.64-17.08 50.33-6.56 3.79 3.16 6.85 4.14 9.27 3.99Z"
    class="colorf27c85 svgShape"></path>
  <path fill="#fccd89"
    d="m1215.29 1386.01-7.11 80.87-10.15 115.24h-158.12l-15.53-176.49-1.73-19.62h192.64z"
    class="colorfccd89 svgShape"></path>
  <path fill="#f28c70" d="m1215.29 1386.01-7.11 80.87-183.8-61.25-1.73-19.62h192.64z"
    class="colorf28c70 svgShape"></path>
  <path fill="#7394bc"
    d="M1217.84 1392.05H1020.1v-23.4a98.87 98.87 0 0 1 197.74 0Zm-185.6-12.05h173.56v-11.31a86.78 86.78 0 1 0-173.56 0Z"
    class="color7394bc svgShape"></path>
  <path fill="#fccd89"
    d="M1225.8 1377.36h-213.66a9.63 9.63 0 0 0 0 19.26h213.66a9.63 9.63 0 0 0 0-19.26Z"
    class="colorfccd89 svgShape"></path>
  <path fill="#f28c70"
    d="M1003.51 1390a3 3 0 0 1-3-3c0-7.31 4.89-12.63 11.63-12.63h164.66a3 3 0 0 1 0 6h-164.66c-3.89 0-5.63 3.33-5.63 6.63a3 3 0 0 1-3 3Z"
    class="colorf28c70 svgShape"></path>
  <path fill="#ffb2a8"
    d="M1138.68 1284.17c0 18.8-56.55 18.8-56.55 0s12.66-34 28.28-34 28.27 15.21 28.27 34Z"
    class="colorffb2a8 svgShape"></path>
  <path fill="#6cc58d"
    d="M1359.06 914.77c-.09 31.92-4 92.28-29.38 139.21-42.33 2.65-72-8.87-92.54-24-32.23-23.68-41.69-56.17-41.69-56.17S1222.3 954 1249.14 902s46.68-66.53 46.68-66.53 62.6 55.41 62.6 57.15c0 .07.67 8.52.64 22.15Z"
    class="color6cc58d svgShape"></path>
  <path fill="#3e9a83"
    d="M1359.06 914.77c-.09 31.92-4 92.28-29.38 139.21-42.33 2.65-72-8.87-92.54-24 58 25.22 72.11 12.74 40.12-3.07C1243.46 1010.2 1224 981 1224 981c54.25 52.53 90.48 21.53 105.66-3.16 15.72-25.45 28-45.53 29.4-63.07Z"
    class="color3e9a83 svgShape"></path>
  <path fill="#ffb2a8"
    d="m1534.76 2115.69-5.23 70.91-21.05 31.07-10.48-32.39-1.73-81.84 38.49 12.25z"
    class="colorffb2a8 svgShape"></path>
  <path fill="#2c4fa0"
    d="M1565.42 1717.18c-13.93 192.2-26.88 399.63-29.79 405.17-4.82 9.2-34.62 10.07-39.68 0-4.29-8.6-34.57-169.89-42.58-245.86-1.37-13-2.09-23.48-1.92-30.3.85-33.9 23.81-91.84 33.78-139.35a.61.61 0 0 1 0-.19 39.41 39.41 0 0 1 17.11-25 38.35 38.35 0 0 1 18.43-6.13l1.61-.12c21.3-1.81 39.74 13.11 42.67 33.23a38.25 38.25 0 0 1 .37 8.55Z"
    class="color2c4fa0 svgShape"></path>
  <path fill="#273657"
    d="M1498 2185.28s18.4 6.13 31.53 1.31c0 0 10.07 5.69 14.45 27.14s101.1 31.95 102.85 49.45-158.44 6.13-166.31 0 17.48-77.9 17.48-77.9Z"
    class="color273657 svgShape"></path>
  <path fill="#2c4fa0"
    d="M1601.24 1234.56v5.71c-.5 65.72-3.35 154.77-13.61 226.37-6.23 43.52-14 135.19-21.73 238.37a13 13 0 0 1-.78 3.59 13.45 13.45 0 0 1-2.29 4.1l-1.83 2.22a47.09 47.09 0 0 1-63.25 8.91 46.1 46.1 0 0 1-9.46-8.72 13.53 13.53 0 0 1-2.89-7.13c-.05-.38-.08-.76-.14-1.14 0-.22 0-.43-.08-.65-2.75-19.73-22.38-119.31-44.52-229.53-7.44-37-15.18-75.31-22.64-112.13-10.28-50.73-20-98.76-27.88-137.2q-.57-2.67-1.08-5.29c-6.17-30.15-11-53.93-13.85-67.72l-2.73-13.34a439.24 439.24 0 0 0 57.66 27.15c1.63.62 3.25 1.21 4.89 1.8 14.45 5.12 29.31 9 42 9.63 34.63 1.62 67.34-7.41 90.39-16.21q2.73-1 5.28-2.07a225.11 225.11 0 0 0 27.74-13.23s1.1 35.56.8 86.51Z"
    class="color2c4fa0 svgShape"></path>
  <path fill="#273657"
    d="M1546.13 1996.58h-.21a3 3 0 0 1-2.79-3.19l19.75-288.57 1-13c7.4-98.61 13.79-183.78 19.78-225.56 8.4-58.66 11.93-124.82 13.42-170a3 3 0 1 1 6 .2c-1.49 45.32-5 111.72-13.49 170.65-5.95 41.58-12.34 126.66-19.73 225.16l-1 13-19.74 288.55a3 3 0 0 1-2.99 2.76ZM1502.38 1681.62a160.32 160.32 0 0 1-1.14 22.76c-.94 6.85-.52 13.89-3.52 19.45-15.45 28.61-43.9 92.51-44.35 152.66-1.37-13-2.09-23.48-1.92-30.3.85-33.9 23.81-91.84 33.78-139.35 0-.22 0-.43-.08-.65-3.66-26.36-37.5-195.28-67.16-341.66l17.89-60.68 70.42-2s-12.07 81-25.49 139.42c-11.99 52.1 20.55 170.73 21.57 240.35ZM1601.24 1234.56v5.71a45.14 45.14 0 0 1-16.25-12c-15.71-18.16-17.92-47.08-17.55-64.91q2.73-1 5.28-2.07c-.48 16.83 1.12 46.14 16.21 63.6a40.22 40.22 0 0 0 12.31 9.67Z"
    class="color273657 svgShape"></path>
  <path fill="#2c4fa0"
    d="M1542.1 1182.58s-47.1 174.72-101.47 294.08l-3.27 7.09c-18.59 39.84-35.35 108-72.73 204.55a13.78 13.78 0 0 1-5.16 6.46l-2.4 1.6c-25.36 17-50.06 5.53-61-20.92a13.64 13.64 0 0 1-.69-7.66c.12-.61.23-1.19.31-1.78 1.21-7.63 2.25-20.53 3.15-37 4.74-86.42 6-271.15 9.85-310.46 3.75-37.8 19.74-61 35.29-85.67l3-4.75c12.43-20.11 24-41.9 28.24-73.82l52.17 21.22 4.85 2 25.84 10.52Z"
    class="color2c4fa0 svgShape"></path>
  <path fill="#273657"
    d="M1309.69 1321.54h-.3a3 3 0 0 1-2.69-3.28c3.74-37.79 18.36-61 33.84-85.57l1.69-2.68 2.16-3.46c12.9-20.87 24.81-42.14 28.82-72.63a3 3 0 0 1 6 .78c-4.17 31.68-16.41 53.55-29.67 75l-2.18 3.49-1.7 2.69c-15.08 24-29.34 46.58-32.94 83a3 3 0 0 1-3.03 2.66Z"
    class="color273657 svgShape"></path>
  <path fill="#273657"
    d="M1298.83 1629c4.74-86.42 6-271.15 9.85-310.46 0 0 8.49 190.41 21 293 6.22 51.07-7.26 36.18-30.85 17.46ZM1557.84 1266.15a234.26 234.26 0 0 1-26.47 23.39 330.28 330.28 0 0 1-29.1 20 293.24 293.24 0 0 1-31.17 16.69c-2.7 1.2-5.37 2.44-8.08 3.6l-8.25 3.22-4.14 1.53c-1.4.47-2.8.94-4.21 1.37-2.82.88-5.63 1.75-8.47 2.53 10.28-5.82 20.6-11.18 30.69-17s20.12-11.69 30-17.79 19.8-12.23 29.62-18.53ZM1435 1169.91c-.61 1.84-1.52 4.45-2.8 7.57-5.64 13.88-18.38 37.85-42.09 49.83-.58.29-1.15.57-1.74.84a66.39 66.39 0 0 1-28.67 6.29 82.26 82.26 0 0 1-15.73-1.57l3-4.75c14.33 2.43 27.45.9 39.22-4.65 1-.46 1.93-.93 2.87-1.45 21.21-11.34 33-33.59 38.32-46.5 1.28-3.11 2.19-5.67 2.76-7.41 1.6.62 3.22 1.21 4.86 1.8Z"
    class="color273657 svgShape"></path>
  <path fill="#ffb2a8"
    d="m1036.57 1581.97-66.63-24.77-23.98-28.89 34.02-1.03 79.09 21.14-22.5 33.55z"
    class="colorffb2a8 svgShape"></path>
  <path fill="#273657"
    d="M980 1527.27s-11 16-10 29.93c0 0-8.27 8.08-30.09 6.31s-78.71 94.64-93.42 85c-25-16.42 55.53-153.86 63.61-159.72s69.9 38.48 69.9 38.48Z"
    class="color273657 svgShape"></path>
  <path fill="#2c4fa0"
    d="M1369 1673.62q.18-.78.39-1.56c4.38-17-.87-33.78-12.62-41.24-32.53-20.66-69-56.28-94.1-65.08-34.52-12.1-210.66-24.94-219.7-22.5s-17.34 31.08-11.91 37.84c3.27 4.08 154.37 65.23 293.78 123.72 17.56 7.39 38.4-7.57 44.16-31.18Z"
    class="color2c4fa0 svgShape"></path>
  <path fill="#273657"
    d="M1334.3 1709.7a27.45 27.45 0 0 1-10.66-2.13c-43.44-18.23-88.72-37-128.67-53.65-27.89-11.59-54.23-22.53-77.16-32.12a3 3 0 1 1 2.14-5.6l.18.07c22.92 9.58 49.26 20.52 77.14 32.11 40 16.61 85.24 35.43 128.69 53.66 6.2 2.59 13.39 2.12 20.26-1.35 10-5.08 17.83-15.46 20.82-27.78l.09-.29 32.38-91.5a3 3 0 0 1 5.66 2l-32.33 91.34c-3.43 13.94-12.36 25.73-23.92 31.56a32.42 32.42 0 0 1-14.62 3.68Z"
    class="color273657 svgShape"></path>
  <path fill="#ffb2a8"
    d="M1470.3 794.1s-3.49 22.15-49.16 18.1c-39.54-3.49-44.47-27.64-44.47-27.64l8-14.23-4.22-87.09 12.36 8.36 54.19 36.58 20.8 58.74Z"
    class="colorffb2a8 svgShape"></path>
  <path fill="#f27c85" d="M1467.76 786.92c-70.15-2-86.36-82.81-86.36-82.81l11.41-12.51 54.19 36.58Z"
    class="colorf27c85 svgShape"></path>
  <path fill="#ffb2a8"
    d="M1486.06 743.92c-27.32 19.75-92.8-1.55-131.4-70.11a211.37 211.37 0 0 1-15.66-34.92s30.34-64.18 32.1-65.94 43.76-23.34 43.76-23.34l26.48 20.78 11.45 9s86.21 126.31 33.27 164.53Z"
    class="colorffb2a8 svgShape"></path>
  <path fill="#9b4b4b"
    d="M1434.46 649.74c6.26-4.09-27.64 2.14-23.31 22.38 0 0 1.57-8.2 23.31-22.38ZM1454.8 642.23c-6.69 2 18.2-18.51 30.09-3.21 0-.02-6.82-3.82-30.09 3.21Z"
    class="color9b4b4b svgShape"></path>
  <ellipse cx="1474.21" cy="661.56" fill="#9b4b4b" rx="6.32" ry="9.14"
    transform="rotate(-26.1 1474.2 661.564)" class="color9b4b4b svgShape"></ellipse>
  <circle cx="1473.25" cy="654.79" r="2.67" fill="#ffffff" class="colorfff svgShape"></circle>
  <ellipse cx="1430.37" cy="678.22" fill="#9b4b4b" rx="6.32" ry="9.14"
    transform="rotate(-26.1 1430.378 678.228)" class="color9b4b4b svgShape"></ellipse>
  <circle cx="1429.42" cy="671.43" r="2.67" fill="#ffffff" class="colorfff svgShape"></circle>
  <path fill="#f27c85"
    d="M1471.88 695.77a1.73 1.73 0 0 1-1.07-3.09c2.58-2 6-5.88 5.62-8-.22-1.16-1.79-1.86-3.07-2.25-14.73-4.45-18-16.9-18.18-17.42a1.73 1.73 0 0 1 3.35-.86c.12.45 3 11.1 15.83 15 3.2 1 5 2.61 5.47 4.91 1 5.07-6.08 10.76-6.89 11.4a1.69 1.69 0 0 1-1.06.31ZM1465.8 714.2a16.7 16.7 0 0 1-3.93-.47c-8.29-2-12.68-9.79-12.87-10.11a1.73 1.73 0 0 1 3-1.68c.08.13 3.91 6.81 10.69 8.44 4.17 1 8.67-.09 13.39-3.23A1.72 1.72 0 0 1 1478 710a22 22 0 0 1-12.2 4.2Z"
    class="colorf27c85 svgShape"></path>
  <path fill="#c66161"
    d="M1414.24 542s-51 5.25-55.86 11.09-26 50.77-28.85 63.6-12.15 33.57-12.15 33.57l37.24 23.53c1.38.06 2.81.09 4.26.09 55.5 0 73.87-41.69 79.77-74.2 7.93 10 22.78 22.39 47.37 21.68 40.89-1.14-71.78-79.36-71.78-79.36Z"
    class="colorc66161 svgShape"></path>
  <path fill="#ffb2a8"
    d="M1379 670.11s-26.55-20.72-43.47-7.59 6.71 40.83 16.63 43.18c24.53 5.84 32.09-5.54 34.72-12.25s-7.88-23.34-7.88-23.34Z"
    class="colorffb2a8 svgShape"></path>
  <path fill="#f27c85"
    d="M1362 671c13.39 7.47 2.78 10.75 6.31 14s8.08-.51 8.33 7.66-11.61 10.95-22.47 6.66-14.81-17.37-12.27-22.41c2.78-5.54 14.1-9.32 20.1-5.91Z"
    class="colorf27c85 svgShape"></path>
  <path fill="#7394bc"
    d="M2454.89 2278.39a9.36 9.36 0 0 1-9.34 9.36H513.49a9.35 9.35 0 0 1 0-18.7h1932.06a9.36 9.36 0 0 1 9.34 9.34Z"
    class="color7394bc svgShape"></path>
</svg>