<svg xmlns="http://www.w3.org/2000/svg" data-name="Layer 1"
  viewBox="180.445 292.506 2639.109 1915.02" width="550" height="550">
  <path fill="#f5f5f7"
    d="M2614.27 2097q-3.72 6-7.6 11.58H395.37c-1.93-3.73-3.93-7.59-5.95-11.58-67.65-133.67-175.38-413.71 31.85-536 277.28-163.58 612.8 175.79 1080.15-49.13s79.1-826 434.3-1050.25 818.56 36.18 625.2 476.91-76.7 436.28 58.3 622.47c111.36 153.59 72.41 412.22-4.95 536Z"
    class="colorf5f5f7 svgShape"></path>
  <path fill="#f5f5f7"
    d="M2568.18 1375.26c97.85 23.13 86.37-79.37 39.68-136.25-30.53-37.2 37.35-140.92 17.51-161.65s-70 14.28-113.22 104.15-8.15 178.57 56.03 193.75Z"
    class="colorf5f5f7 svgShape"></path>
  <path fill="#aec6d3" d="M601.39 662.75h1044.57v812.72H601.39z" class="coloraec6d3 svgShape"></path>
  <path fill="#7394bc"
    d="M1242.39 1481.47h-647l.29-237.44a6 6 0 0 1 6-6 6 6 0 0 1 6 6l-.27 225.42h635a6 6 0 0 1 0 12ZM1647 1011.47a6 6 0 0 1-6-6l-1-336.74H722.39a6 6 0 1 1 0-12h929.55l1 348.7a6 6 0 0 1-6 6Z"
    class="color7394bc svgShape"></path>
  <path fill="#dfe9f4" d="M669.17 715.49h909.02v707.25H669.17z" class="colordfe9f4 svgShape"></path>
  <path fill="#f5f5f7"
    d="m1024.12 715.49-354.95 354.96V925.81L879.5 715.49h144.62zM1578.18 1014.26v230.34l-178.14 178.15h-230.33l408.47-408.49zM1578.18 715.49v83.17l-624.07 624.09H669.17v-93.86l613.4-613.4h295.61z"
    class="colorf5f5f7 svgShape"></path>
  <path fill="#7394bc"
    d="M713.46 1630.87c-38.87 0-32.4 22.66-21.06 32.65s6.47 25.36 6.47 25.36H728s-4.85-15.38 6.48-25.36 17.85-32.65-21.02-32.65Z"
    class="color7394bc svgShape"></path>
  <rect width="61.55" height="41.58" x="682.68" y="1676.99" fill="#92b1dd" rx="11.34"
    class="color92b1dd svgShape"></rect>
  <path fill="#92b1dd"
    d="M783.91 1798.37c-7.37-47.48-37.86-36.15-20-63.13s8.41-41.55-50.47-43.7c-58.88 2.15-68.35 16.72-50.47 43.7s-12.62 15.65-20 63.13 70.45 47.49 70.45 47.49 77.85.04 70.49-47.49Z"
    class="color92b1dd svgShape"></path>
  <path fill="#92b1dd" d="M561.95 1664.24h18.8v158.64h-18.8z"
    transform="rotate(-20.71 571.361 1743.562)" class="color92b1dd svgShape"></path>
  <circle cx="548.09" cy="1685.04" r="31.3" fill="#7394bc" class="color7394bc svgShape"></circle>
  <path fill="#dfe9f4"
    d="M629.8 1611.3a45.84 45.84 0 0 1-25.22 41l-121.68 61.38a45.85 45.85 0 0 1-61.6-20.27l203.6-102.71a45.35 45.35 0 0 1 4.55 14.94 41.86 41.86 0 0 1 .35 5.66Z"
    class="colordfe9f4 svgShape"></path>
  <path fill="#aec6d3"
    d="M629.8 1611.3a45.84 45.84 0 0 1-25.22 41l-121.68 61.38a45.83 45.83 0 0 1-52.32-7.75l198.85-100.31a41.57 41.57 0 0 1 .37 5.68Z"
    class="coloraec6d3 svgShape"></path>
  <path fill="#cedbee" d="M871.37 2098.97h-265.6l-42.57-285.45h350.73l-42.56 285.45z"
    class="colorcedbee svgShape"></path>
  <path fill="#7394bc"
    d="M600.93 2069.78a4 4 0 0 1-4-3.42l-27.41-188.26a4 4 0 0 1 7.92-1.15l27.41 188.25a4 4 0 0 1-3.38 4.54 3.27 3.27 0 0 1-.54.04Z"
    class="color7394bc svgShape"></path>
  <path fill="#aec6d3" d="m570.45 1862.17 327.01 61.84 16.47-110.49H563.2l7.25 48.65z"
    class="coloraec6d3 svgShape"></path>
  <rect width="391.74" height="39.93" x="542.69" y="1793.56" fill="#cedbee" rx="11.33"
    class="colorcedbee svgShape"></rect>
  <path fill="#7394bc"
    d="M774.11 1837.49H554a15.34 15.34 0 0 1-15.33-15.33 4 4 0 0 1 8 0 7.34 7.34 0 0 0 7.34 7.33h220.1a4 4 0 0 1 0 8Z"
    class="color7394bc svgShape"></path>
  <path fill="#92b1dd"
    d="M798.1 1793.56c-18 0 18-41 78.42-21.59 42.54 13.68 74.11 91.38 76.26 126.63s-7.94 37.44-24.49 2.91c0 0 12.26 52.49-4.28 58.24S901 1902.92 901 1902.92s1.47 75.54-20.11 76.26-18-84.18-18-84.18-19.42 84.18-38.85 76.26c-17.94-7.31 2.16-86.33 2.16-86.33s-25.9 52.25-44.61 39.08 58.96-130.45 16.51-130.45Z"
    class="color92b1dd svgShape"></path>
  <path fill="#7394bc"
    d="M943.51 1860.45a4 4 0 0 1-3.75-2.6c-12.55-33.69-36.08-72.94-64.46-82.07-34.38-11-57.31-1.21-65.57 3.54a4 4 0 1 1-4-6.94c9.18-5.27 34.58-16.24 72-4.21 31.1 10 56.3 51.44 69.51 86.88a4 4 0 0 1-2.35 5.15 3.94 3.94 0 0 1-1.4.25Z"
    class="color7394bc svgShape"></path>
  <path fill="#3e9a83" d="M1828.14 1998.77h38.35v98.18h-38.35zM2399.84 1998.77h38.35v98.18h-38.35z"
    class="color3e9a83 svgShape"></path>
  <path fill="#6cc58d"
    d="M2340.24 1375.93H1926.1a114.35 114.35 0 0 0-114.33 114.34v368.39h642.81v-368.39a114.34 114.34 0 0 0-114.34-114.34Z"
    class="color6cc58d svgShape"></path>
  <path fill="#3e9a83"
    d="M2455.58 1603.66a5 5 0 0 1-5-5l-1-108.39a109.48 109.48 0 0 0-109.34-109.38H1927.1a5 5 0 0 1 0-10h413.14a119.47 119.47 0 0 1 119.34 119.34l1 108.34a5 5 0 0 1-5 5Z"
    class="color3e9a83 svgShape"></path>
  <path fill="#6cc58d" d="M1868.2 1798.66h530.45v177.27H1868.2z" class="color6cc58d svgShape"></path>
  <path fill="#3e9a83" d="M1821.84 1756.38h585v59.72h-585z" class="color3e9a83 svgShape"></path>
  <path fill="#abdda8"
    d="M2446.82 1651.37a66.82 66.82 0 0 0-66.82 66.81v207.29h-493.66V1718.2a66.81 66.81 0 0 0-66.81-66.81 66.82 66.82 0 0 0-66.82 66.81v297.27h760.94V1718.2a66.82 66.82 0 0 0-66.81-66.83Z"
    class="colorabdda8 svgShape"></path>
  <path fill="#3e9a83"
    d="M2301 1930.47h-419.63l-1-152.23a5 5 0 0 1 5-5 5 5 0 0 1 5 5l1 142.3H2301a5 5 0 0 1 0 10Z"
    class="color3e9a83 svgShape"></path>
  <path fill="#6cc58d" d="M2518.64 2020.47h-631.3a5 5 0 0 1 0-10h621.3V1768.2a5 5 0 0 1 10 0Z"
    class="color6cc58d svgShape"></path>
  <path fill="#3e9a83"
    d="M2186.06 1602.81q-2.62-6.8-5.43-12.89c-12.15-31.19-26.45-49.67-42.63-59.47 3.15-10.23 1.49-19.69-4.37-22.28-6.24-2.76-15.06 3.28-20.46 13.67-13.67-1.79-28.35.33-43.93 4.56-14.78 2.67-30.14 7.54-45.84 13.61-15.28 5.92-29.52 12.47-42 20.17-21.7 10.85-38.88 23.74-47.25 42.77-9.6-2.52-18.23-.76-20.69 4.79-2.89 6.54 3.87 15.88 15.15 21.18-.4 15 3.12 32.9 11.52 54.62q2.64 6.81 5.44 12.89c12.14 31.19 26.44 49.67 42.62 59.47-3.14 10.23-1.49 19.69 4.37 22.28 6.25 2.76 15.07-3.28 20.47-13.67 13.66 1.79 28.35-.33 43.92-4.56 14.78-2.67 30.15-7.54 45.85-13.61 15.28-5.92 29.51-12.48 42-20.17 21.71-10.85 38.88-23.74 47.25-42.77 9.6 2.52 18.24.76 20.69-4.79 2.89-6.54-3.86-15.88-15.14-21.18.4-15-3.13-32.9-11.54-54.62Z"
    class="color3e9a83 svgShape"></path>
  <path fill="#abdda8"
    d="M2327.7 1721.21c.58-4.82 1-9.45 1.26-13.93 3.93-33.23 0-56.27-9.7-72.52 7.59-7.55 10.57-16.68 6.61-21.72-4.21-5.38-14.84-4.18-24.48 2.45-11.23-8-25.18-13-40.92-16.61-14.31-4.58-30.15-7.5-46.87-9.52-16.27-2-31.91-2.85-46.55-1.93-24.25-.61-45.47 2.7-61.8 15.57-7.29-6.73-15.74-9.24-20.52-5.49-5.62 4.41-4 15.83 3.43 25.81-7.4 13.06-12.71 30.51-15.49 53.63q-.87 7.23-1.26 13.94c-3.93 33.23 0 56.26 9.69 72.52-7.58 7.55-10.56 16.68-6.61 21.72 4.22 5.37 14.84 4.18 24.49-2.45 11.23 8 25.18 13 40.92 16.6 14.3 4.59 30.15 7.51 46.87 9.52 16.26 2 31.91 2.86 46.54 1.93 24.26.61 45.48-2.7 61.81-15.56 7.29 6.73 15.74 9.24 20.51 5.49 5.63-4.41 4-15.83-3.42-25.82 7.41-13.05 12.71-30.47 15.49-53.63Z"
    class="colorabdda8 svgShape"></path>
  <path fill="#aec6d3"
    d="M2249.48 505.6s41.81 40.17 42.1 90-31.88 72.61-31.88 72.61-43.47-29.66-43-67.5 23.06-45.51 32.78-95.11Z"
    class="coloraec6d3 svgShape"></path>
  <path fill="#7394bc"
    d="M2252.7 683.7c1.15-6.19 2.46-12.37 3.49-18.6s2.06-12.46 2.71-18.74l1.13-9.42.82-9.44.41-4.73.26-4.74c.16-3.16.38-6.32.5-9.49.44-12.66.33-25.35-.4-38a272.05 272.05 0 0 0-4.62-37.84 273.31 273.31 0 0 1 7.1 37.61c1.58 12.69 2.53 25.47 2.93 38.28.09 3.2.09 6.41.13 9.62l.06 4.81-.1 4.81-.2 9.63-.51 9.62c-.25 6.42-1 12.81-1.51 19.22s-1.54 12.78-2.29 19.18Z"
    class="color7394bc svgShape"></path>
  <path fill="#cedbee"
    d="M2288.7 676.9s3.07-96.13 56.76-121.19 90 9.2 124.26-19.43c0 0-17.39 98.69-77.73 116.59s-91.49-2.05-103.29 24.03Z"
    class="colorcedbee svgShape"></path>
  <path fill="#7394bc"
    d="M2349.8 662.72a2 2 0 0 1-.16-4 201.63 201.63 0 0 0 41.83-7.77c34-10.1 54.53-46.83 65.72-75.87a2 2 0 0 1 3.73 1.44c-11.51 29.88-32.71 67.7-68.32 78.26a205.37 205.37 0 0 1-42.64 7.93ZM2277.61 699.13a113.43 113.43 0 0 1 4-27.89 117.77 117.77 0 0 1 10.3-25.82 105.4 105.4 0 0 1 37.59-39.6 122.61 122.61 0 0 1 24.55-11.36c8.38-2.8 16.66-5.43 24.94-8.33s16.5-5.82 24.68-9 16.31-6.39 24.2-10.21c-7.58 4.41-15.49 8.26-23.41 12s-16 7.36-24 10.86-16.24 6.84-24.26 10.22a116.05 116.05 0 0 0-22.2 12.42 95.54 95.54 0 0 0-31.28 38.4 104.25 104.25 0 0 0-7.36 23.58 97.19 97.19 0 0 0-1.59 24.25Z"
    class="color7394bc svgShape"></path>
  <path fill="#cedbee"
    d="M2178.91 556.22s5.11 13.3 40.91 45.51c26.61 23.95 4.09 75.17 4.09 75.17s-91.53-19.9-45-120.68Z"
    class="colorcedbee svgShape"></path>
  <path fill="#7394bc"
    d="M2232.62 648h-.21a2 2 0 0 1-1.78-2.19c2-19.14-2-33.46-12.15-42.55a330.26 330.26 0 0 1-25.7-25.47 2 2 0 0 1 3-2.66 320.48 320.48 0 0 0 25.39 25.15c11.11 10 15.63 25.46 13.45 46a2 2 0 0 1-2 1.72ZM2229.7 689.37c-7.74-6.88-13.27-15.13-17.92-23.58a187.06 187.06 0 0 1-11.53-26.22c-3.2-8.94-5.91-18-8.24-27.13s-4.35-18.33-5.9-27.59c2.37 9.08 5.2 18 8.31 26.86s6.59 17.51 10.49 25.95a180.47 180.47 0 0 0 13.34 24.22c5.06 7.55 10.92 14.59 17.75 19.62Z"
    class="color7394bc svgShape"></path>
  <path fill="#92b1dd"
    d="M2321.35 785.79h-108a9.12 9.12 0 0 1-9-7.55l-16.95-96.3a9.14 9.14 0 0 1 7.4-10.58 9.52 9.52 0 0 1 1.6-.14h141.87a9.15 9.15 0 0 1 9.14 9.15 9.26 9.26 0 0 1-.14 1.57l-17 96.3a9.12 9.12 0 0 1-8.92 7.55Z"
    class="color92b1dd svgShape"></path>
  <path fill="#7394bc"
    d="M2199.26 748.37a3 3 0 0 1-2.94-2.45l-11.82-63.4a12.14 12.14 0 0 1 9.8-14.08 12.8 12.8 0 0 1 2.14-.19h112.87a3 3 0 0 1 0 6h-112.87a6.12 6.12 0 0 0-6.09 6.17 5.89 5.89 0 0 0 .09 1l11.81 63.37a3 3 0 0 1-2.4 3.5 2.88 2.88 0 0 1-.59.08Z"
    class="color7394bc svgShape"></path>
  <path fill="#7394bc" d="M2188.46 687.73h157.83l-9.78 55.52-144.55-35.65-3.5-19.87z"
    class="color7394bc svgShape"></path>
  <path fill="#aec6d3"
    d="M1896.21 551.62s35.7 35.28 46.62 103.63l-31.36 7.5s-23.02-66.13-15.26-111.13ZM1972.15 508.66s25.23 38.19 21.14 120.68l-23.19 23.19-27.27-28.64s-1.36-87.27 29.32-115.23ZM2058.7 542.07s10.23 36.29-6.14 91-47 52.41-47 52.41V642.3s9.54-79.77 53.14-100.23Z"
    class="coloraec6d3 svgShape"></path>
  <path fill="#cedbee" d="M2017.15 676.9s29.32-87.44 77.73-120.68c0 0-4.09 82-38.87 125.62Z"
    class="colorcedbee svgShape"></path>
  <path fill="#7394bc"
    d="M2070.1 662.28a2 2 0 0 1-1.81-2.86c11.4-23.94 18.06-53.95 21.64-74.9a2 2 0 1 1 4 .51v.16c-3.62 21.21-10.37 51.59-22 75.95a2 2 0 0 1-1.83 1.14Z"
    class="color7394bc svgShape"></path>
  <path fill="#cedbee" d="M1967.38 681.84s.68-95.17 57.27-149.17c0 0 13 97.36-11.59 149.17Z"
    class="colorcedbee svgShape"></path>
  <path fill="#dfe9f4" d="M1924.34 549.06s54.54 31.36 65.45 130.91h-59.32s-21.13-72.97-6.13-130.91Z"
    class="colordfe9f4 svgShape"></path>
  <path fill="#7394bc"
    d="M1984.7 648a2 2 0 0 1-1.93-1.51c-9.74-38.55-26.91-63.8-39.6-78.19a2 2 0 0 1 2.89-2.77l.11.13c13 14.72 30.54 40.52 40.48 79.85a2 2 0 0 1-1.45 2.43 2.07 2.07 0 0 1-.5.06Z"
    class="color7394bc svgShape"></path>
  <path fill="#cedbee" d="M1883.51 578s43.64 35.8 52.16 95l-8.82 46.83s-48.15-58.46-43.34-141.83Z"
    class="colorcedbee svgShape"></path>
  <path fill="#92b1dd"
    d="M2042.32 785.79h-118.7a9.86 9.86 0 0 1-9.89-7.55l-18.64-96.3c-1.08-5.59 3.65-10.72 9.89-10.72h156c6.25 0 11 5.13 9.9 10.72l-18.64 96.3c-.87 4.37-5.04 7.55-9.92 7.55Z"
    class="color92b1dd svgShape"></path>
  <path fill="#7394bc"
    d="M1907.56 746.12a3 3 0 0 1-2.93-2.4l-12.48-61.18a11.55 11.55 0 0 1 2.48-9.57 13.33 13.33 0 0 1 10.35-4.75h117a3 3 0 0 1 0 6H1905a7.33 7.33 0 0 0-5.72 2.57 5.52 5.52 0 0 0-1.23 4.58l12.48 61.15a3 3 0 0 1-2.34 3.54 3.15 3.15 0 0 1-.63.06Z"
    class="color7394bc svgShape"></path>
  <path fill="#7394bc" d="M1896.21 687.73h173.53l-10.75 55.52-158.93-35.65-3.85-19.87z"
    class="color7394bc svgShape"></path>
  <rect width="568.63" height="45" x="1853.15" y="783.46" fill="#7394bc" rx="9.12"
    class="color7394bc svgShape"></rect>
  <path fill="#3e9a83"
    d="M1911.55 1126.65a51.6 51.6 0 0 1-30.89 3.49 1 1 0 0 0-.59.07c-2.38 1.07-17.59 8.35 4.29 9.59 17.85 1 25.61-7.67 28.33-12a.86.86 0 0 0-1.14-1.15Z"
    class="color3e9a83 svgShape"></path>
  <path fill="#6cc58d"
    d="M1942.7 1220.84c-2.09-6.13-4.56-13.24-7-20.07-3.14-8.79-6.25-17.1-8.43-22.17-.7-1.65-1.33-2.94-1.81-3.81-5-8.69-17-5.63-28.3-10.73s-4.6-30-8.7-33.58-19.26-1-16.35-7.32 25-9.38 30.49-11.6 1.56-13.82-6.63-11.6c-22.23 6-50.53 6-49.94 11.6 1 9.72 2 18.92 16.35 42.44s-6 26.78-2 57.78c.18 1.4.36 2.77.6 4.12a173.16 173.16 0 0 0 4.84 21.62c1.1 3.83 2.26 7.41 3.41 10.68a27.66 27.66 0 0 0 31.83 18 85.59 85.59 0 0 0 31.45-13.59 27.83 27.83 0 0 0 10.19-31.77Z"
    class="color6cc58d svgShape"></path>
  <path fill="#abdda8"
    d="M1935.7 1200.77c-7.78 11.54-26.22 27.23-69.91 36.75a173.16 173.16 0 0 1-4.84-21.62c42.36-10.07 59.44-26.06 66.32-37.3 2.2 5.07 5.31 13.4 8.43 22.17Z"
    class="colorabdda8 svgShape"></path>
  <path fill="#ffb2a8"
    d="M1867.53 1189.8s-145.23 60.67-165 61.36-121.32-63.44-121.32-63.44l36.1-53.83 19.77 2.76s8.49 5.53 19.55 12.59c19 12.12 45.68 28.78 50 29.65 6.82 1.37 135.68-9.54 135.68-9.54l24 19.46Z"
    class="colorffb2a8 svgShape"></path>
  <path fill="#f27c85"
    d="M1867.53 1189.8s-145.23 60.67-165 61.36-121.32-63.44-121.32-63.44l36.1-53.83 19.77 2.76s4.14 2.74 15.19 9.8c2.4 11.28 3.45 22.39-.52 44.62-5.73 32 31.85 40.17 37.07 25.57 7.93-22.2 16.54-30.9 17.06-31.34-.44 1-14.74 30.68 0 45.4 15 15 155.09-42.27 155.09-42.27l5.33.38Z"
    class="colorf27c85 svgShape"></path>
  <path fill="#fccd89"
    d="M1646 1138.63s-2.1 37.11-30.08 59.62a69.41 69.41 0 0 1-13.59 8.59l-87.46-49.8-2.2-73.68-1.69-56.52s28 5.45 74.3 53.19 60.72 58.6 60.72 58.6Z"
    class="colorfccd89 svgShape"></path>
  <path fill="#f28c70"
    d="M1625.8 1122.66a2.48 2.48 0 0 1-1.71-.68c-11.49-10.75-25.16-24.28-40.64-40.21-45.06-46.4-71.75-52.42-72-52.48a2.5 2.5 0 1 1 1-4.9c1.13.23 28.25 6.15 74.61 53.9 15.42 15.87 29 29.34 40.47 40a2.51 2.51 0 0 1 .13 3.54 2.47 2.47 0 0 1-1.84.79ZM1615.88 1198.25a69.41 69.41 0 0 1-13.59 8.59l-87.46-49.8-2.2-73.68a312.67 312.67 0 0 1 19.59-25s25.25 100.54 83.66 139.89Z"
    class="colorf28c70 svgShape"></path>
  <path fill="#ffb2a8"
    d="M1837.43 1169.75s9.12-20.35 14.75-25.46 45.08-1.88 49.35-.86 5.62 10.39-.69 12.18-14.57.44-16.1 4 4.94 15.17.68 21.81-17.9 8.36-17.9 8.36l-30.09-6.31Z"
    class="colorffb2a8 svgShape"></path>
  <path fill="#273657"
    d="M1505.9 2046.16 1400.22 2097h145.23s3.75-24.89-2.73-50.79-36.82-.05-36.82-.05Z"
    class="color273657 svgShape"></path>
  <path fill="#2c4fa0"
    d="M1549.12 1761.83s15.39 35.47 14 96.83c-1 46.85-20.83 187.49-20.83 187.49h-36.41l-35.78-230-27.59-212-14.77-113.58 3.26-8.57.69-1.82 33.38-88.85 3.35-8.89 13.67-36.37 52.59 22.25 37.63 15.93s15.07 42.36 22.94 88.25a320.44 320.44 0 0 1 4.39 38.2c2.71 57.13-20.53 214.3-50.52 251.13Z"
    class="color2c4fa0 svgShape"></path>
  <path fill="#273657"
    d="M1551.59 1979.93h-.43a4 4 0 0 1-3.55-4.4l12.53-117.1c1.3-59.47-14.49-94.55-14.65-94.9l-1-2.26 1.58-1.94c29.37-36 53.24-193.17 50.61-248.54a4 4 0 0 1 3.8-4.19h.2a4 4 0 0 1 4 3.81c2.62 55.09-20.19 210.3-50.9 252 3.58 8.85 15.61 42.72 14.41 96.33v.33l-12.62 117.31a4 4 0 0 1-3.98 3.55Zm12.54-121.27ZM1495.93 1475.47l-25.82 340.64-42.36-325.63 3.23-8.61 64.95-6.4zM1148.89 2046.16 1043.21 2097h145.22s3.75-24.89-2.73-50.79-36.81-.05-36.81-.05Z"
    class="color273657 svgShape"></path>
  <path fill="#2c4fa0"
    d="M1536.83 1405.92c-10.61 28-21.58 54.32-32.71 79a1230.23 1230.23 0 0 1-61.6 119.17c-70.84 120.13-133 175-133 175 0 60.14-123.82 267-123.82 267h-36.83s58.41-254.61 80.46-329.64c19.58-66.6 73.6-188.9 104.2-256.21 13.13-28.82 21.94-47.56 21.94-47.56l37.92-14.48 37-14.14 15 3.07 19.61 4Z"
    class="color2c4fa0 svgShape"></path>
  <path fill="#273657"
    d="M1174.43 1943.12a3.49 3.49 0 0 1-.91-.11 4 4 0 0 1-3-4.79c18.1-77.92 42.33-179.83 55-222.83 10.8-36.73 34-95.72 68.93-175.33a4 4 0 0 1 7.33 3.22c-34.81 79.3-57.88 138-68.59 174.37-12.58 42.82-36.77 144.57-54.85 222.38a4 4 0 0 1-3.91 3.09ZM1534.4 1468.93a97.15 97.15 0 0 1-10.93 18.76l-3.29 4.36c-1.12 1.44-2.32 2.8-3.48 4.2s-2.34 2.81-3.59 4.13l-3.79 3.93c-1.29 1.29-2.5 2.67-3.84 3.89l-4.06 3.67-4.08 3.64-4.27 3.42c-5.64 4.66-11.8 8.57-17.84 12.66-6.34 3.59-12.54 7.45-19.18 10.45-3.31 1.5-6.53 3.2-9.92 4.53s-6.76 2.66-10.16 3.92c-1.71.62-3.38 1.32-5.11 1.87s-3.46 1.07-5.21 1.56l-10.44 3c-7 1.64-14.16 3-21.27 4.08 6.67-2.87 13.43-5.18 20-7.85l9.84-4.18c1.64-.71 3.29-1.36 4.93-2s3.21-1.51 4.82-2.26c3.19-1.55 6.39-3.07 9.62-4.53s6.25-3.29 9.39-4.92c6.35-3.1 12.3-6.9 18.38-10.47 5.9-3.83 11.88-7.58 17.47-11.87l4.3-3.08 4.12-3.31c2.74-2.22 5.54-4.38 8.15-6.74 10.67-9.34 20.79-19.34 29.44-30.86Z"
    class="color273657 svgShape"></path>
  <path fill="#273657"
    d="M1595.23 1472.37c-28.3 9-59.85 12.42-91.11 12.52a550.34 550.34 0 0 1-72.45-4.84 723.7 723.7 0 0 1-98.13-19.75c13.13-28.82 21.94-47.56 21.94-47.56l37.92-14.48 52-11.07 23-4.88 66.26-14.12 37.63 15.93s15.07 42.36 22.94 88.25Z"
    class="color273657 svgShape"></path>
  <path fill="#fccd89"
    d="M1602.29 1415.49a108.36 108.36 0 0 1-11.36 6c-24.73 11.74-90.42 36-202.55 30.66-17.14-.81-35.38-2.32-54.72-4.68 0 0-.63-2.08-1.68-6-8-29.15-40.58-160.44-18-283.18.45-2.36.89-4.72 1.37-7.06s1-4.7 1.5-7 1-4.69 1.61-7q.75-3.06 1.53-6.12l24.55-69.54 36.43-19.1v-41.6l40.14-9.54 31.16 19.49s46.35 9.16 58.64 16 29 36.47 40.28 107a315.88 315.88 0 0 1 3.73 50.28c-.08 49.36-9.85 90.16-7.79 106.62 2.75 21.86 55.16 124.77 55.16 124.77Z"
    class="colorfccd89 svgShape"></path>
  <path fill="#f28c70"
    d="M1495.93 1421.54s-34 19.16-105 21.68c-1.83.06-2.5 3.63-2.54 9-17.14-.81-35.38-2.32-54.72-4.68 0 0-.63-2.08-1.68-6-8-29.15-40.58-160.44-18-283.18.45-2.36.89-4.72 1.37-7.06s1-4.7 1.5-7 1-4.69 1.61-7l24.37-4.06v40.35s-33.41 119.78-.35 248c.02-.05 46.42 24.41 153.44-.05ZM1602.29 1415.49a108.36 108.36 0 0 1-11.36 6l-71.48-48 20.8-148.47c-50.8 11.42-98.2-1.39-98.2-1.39l15.35-34.92 78.16-19.93s9.4 7.4 19.39 15.33c-.08 49.36-9.85 90.16-7.79 106.62 2.72 21.85 55.13 124.76 55.13 124.76Z"
    class="colorf28c70 svgShape"></path>
  <path fill="#92b1dd"
    d="M1144.8 763.66c19.51-3.25 58.63 65.46 81.81 70.91s-.68 44.36 15 67.86-212.72 149-230.45 153-52.5-3.71-56.59-12.77-52.5-68.37-48.41-80 10.91-29.89-10.91-45.28 233.18-151.01 249.55-153.72Z"
    class="color92b1dd svgShape"></path>
  <path fill="#7394bc"
    d="M1077.76 844.59s7.93 24.14 47.17 5.66c0 0-11.32 17 0 32.82s37 14 37 14-46.7 8.72-44.52 47.19c0 0-65.28-17.76-70.56 33.18 0 0 17-70.58-50.18-67 0 0 34.32-3.33 18.87-43.2 0 0 34.71 20.38 36.6-33.2-.03-.04 9.4 21.87 25.62 10.55Z"
    class="color7394bc svgShape"></path>
  <path fill="#ffb2a8"
    d="M1248.16 1159.44c-5.49-1-11.58-2.28-18.3-3.93-43.39-10.69-71.56-27.19-88.53-44.35-10.46-10.61-16.66-21.49-19.5-31.37-7.87-27.35 9.82-47.3 33.1-34.11 19.48 11 44.6 20.82 63.64 27.51 6.57 2.32 12.44 4.26 17.08 5.75 6.86 2.22 11 3.45 11 3.45s104.72 95.43 1.51 77.05Z"
    class="colorffb2a8 svgShape"></path>
  <path fill="#ffb2a8"
    d="M1161.28 1115.61c-3.69 3-10 2.32-20-4.45-1-.67-2-1.4-3-2.16-24.47-18.26-41.37-56.36-52.32-92a.65.65 0 0 0-.08-.22c-9.87-32.15-14.91-62.29-16.26-74.07-.22-1.89-.34-3.31-.38-4.19-.51-12.49 25.69-36.73 31.08-6.46 8.17 46 54.56 113.62 54.56 113.62.51 1.37 19.53 59.16 6.4 69.93Z"
    class="colorffb2a8 svgShape"></path>
  <path fill="#ffb2a8"
    d="M1069.29 938.51s-16.71-28-19.41-46.89c-3.61-25.29 11.48-37.79 26.56-32.67s15.09 30.17 15.09 30.17 9.54-8.49 15.85-4.09c5.88 4.09-4.21 30.4-6 52s-32.09 1.48-32.09 1.48Z"
    class="colorffb2a8 svgShape"></path>
  <path fill="#f27c85"
    d="M1218.59 1073.21c-7.22 6-17.61 16.83-26.06 34.09s-21.3 19.59-31.25 8.31a37.44 37.44 0 0 1-4.21-5.93c-8.52-14.66-24.45-17.34-35.24-29.89-11-12.83-24.91-33.16-35.82-62.79 11 35.64 27.85 73.74 52.32 92 1 .76 2 1.49 3 2.16 17 17.16 45.15 33.66 88.53 44.35 6.72 1.65 12.81 2.94 18.3 3.93l4.35-56.51-16.84-24Z"
    class="colorf27c85 svgShape"></path>
  <path fill="#fccd89"
    d="M1381 1032.28s-50.75 34.11-153 43.65c0 0-22.5 29.32-15.68 80.46 0 0 82.5 18.48 137.72 17.12s52.75-136.41 52.75-136.41Z"
    class="colorfccd89 svgShape"></path>
  <path fill="#f28c70"
    d="M1248.17 1076.27a2.51 2.51 0 0 1-.33-5c52.11-6.92 89.91-20.5 112.45-30.67a2.5 2.5 0 0 1 2.27 4.46 1.89 1.89 0 0 1-.21.09c-22.85 10.31-61.14 24.07-113.85 31.07a1.26 1.26 0 0 1-.33.05Z"
    class="colorf28c70 svgShape"></path>
  <path fill="#ffb2a8"
    d="M1417.53 1020.53s-49.6 18.68-67.25 16.38-12.79-13.82-22.51-21c-6-4.42-5.19-9.48-4.64-12.65a3.71 3.71 0 0 1 .12-.68 4.85 4.85 0 0 0-.65-4 2.93 2.93 0 0 0-.44-.56 6.21 6.21 0 0 1-.52-.63c-3.67-4.57-4.64-13.45-4.64-13.45s-11 1.27-14.06-5.12 18.19-34.78 11-50.87c-8.39-18.66-13-32-13-32l-.22-22.67 51.88-30.68s75.17 15.85 75.68 21.48 28.13 86.41 32.73 99.2-43.48 57.25-43.48 57.25Z"
    class="colorffb2a8 svgShape"></path>
  <path fill="#f27c85"
    d="M1371.59 936c-1.88-6.72 8.86-16.66 14.52-15.7s11.06 16.62 5.19 26.44-15.59 12.65-17.11 7.36 7.15-5.89 6.57-9.13c-.97-5.3-7.34-2.37-9.17-8.97Z"
    class="colorf27c85 svgShape"></path>
  <ellipse cx="1331.43" cy="934.99" fill="#9b4b4b" rx="5.94" ry="8.48"
    transform="rotate(-2.09 1331.478 934.916)" class="color9b4b4b svgShape"></ellipse>
  <ellipse cx="1334.91" cy="929.82" fill="#ffffff" rx="3.1" ry="2.87" class="colorfff svgShape"></ellipse>
  <path fill="#9b4b4b"
    d="M1324.2 908.29c2.38-6.5 27.1-.08 32 12a234.27 234.27 0 0 0-22.93-5.59c-11.37-2.06-9.07-6.41-9.07-6.41Z"
    class="color9b4b4b svgShape"></path>
  <path fill="#f27c85"
    d="M1323.13 1003.28a3.71 3.71 0 0 1 .12-.68 4.85 4.85 0 0 0-.65-4 2.93 2.93 0 0 0-.44-.56 6.21 6.21 0 0 1-.52-.63s10.49 2.12 22.59-6c11.7-7.91-6.53 14.11-21.1 11.87Z"
    class="colorf27c85 svgShape"></path>
  <path fill="#9b4b4b"
    d="M1345 880.46s-12.36 29.61-51.23 32.69c0 0-45.51-85.91 44.49-82.84 0 0 14.83-46.53 91.53-30.17s64.44 102.27 64.44 193.29 45 142.16 61.36 164.66-14.32 64.43-65.45 66.48-121.43 2-117.62-81.82c2.56-56.25 19.21-87.44-3.8-178.46 0 0 30.24 2.75 32.25-24.45s-20.49-40.5-36.86-6.24c0 0 21.29-45.99-19.11-53.14Z"
    class="color9b4b4b svgShape"></path>
  <path fill="#7394bc"
    d="M2699.59 2108.72c0 6.52-2.6 11.76-5.78 11.76H362c-1.59 0-3-1.31-4.09-3.44a19.21 19.21 0 0 1-1.7-8.32c0-6.51 2.6-11.76 5.79-11.76h2331.81c1.59 0 3 1.31 4.09 3.44a19.26 19.26 0 0 1 1.69 8.32Z"
    class="color7394bc svgShape"></path>
</svg>