<svg xmlns="http://www.w3.org/2000/svg" data-name="Layer 1" viewBox="186.437 355.7 2627.088 1788.6"
  width="550" height="550">
  <path fill="#f5f5f7"
    d="M2560.22 2030.52q-9 11.42-17.55 21.33H637.43q-14.43-10.2-29.43-21.33c-183.78-136.94-333.7-376.21-296.42-699.19C372.45 804 1137.47 587.79 1460.85 655.47c438.88 91.87 304 331 547.22 507.62 246.16 178.74 469.65-30.29 627.4 279.78 131.73 258.89 12.6 476.44-75.25 587.65Z"
    class="colorf5f5f7 svgShape"></path>
  <path fill="#92b1dd" d="M692.44 556.42h810.07v518.26H692.44z" class="color92b1dd svgShape"></path>
  <path fill="#7394bc"
    d="M1503.51 662.18a7.48 7.48 0 0 1-7.5-7.41l-.94-90.86h-261.63a7.5 7.5 0 0 1 0-15h276.49L1511 654.6a7.49 7.49 0 0 1-7.41 7.57h-.09ZM1203.51 1082.18H684.93l1-445.78a7.5 7.5 0 0 1 7.5-7.48 7.51 7.51 0 0 1 7.48 7.52l-1 430.73h503.55a7.5 7.5 0 0 1 0 15Z"
    class="color7394bc svgShape"></path>
  <path fill="#dfe9f4" d="M725.72 584.52h743.51v462.07H725.72z" class="colordfe9f4 svgShape"></path>
  <path fill="#f5f5f7"
    d="m1206.82 584.52-475.67 462.09h-5.43V913.07l338.23-328.55h142.87zM1469.23 584.52v91.63l-381.37 370.46H852.92l475.68-462.09h140.63z"
    class="colorf5f5f7 svgShape"></path>
  <rect width="68.51" height="169.69" x="2396.83" y="1865.4" fill="#3e9a83" rx="23.44"
    class="color3e9a83 svgShape"></rect>
  <rect width="68.51" height="169.69" x="1988.84" y="1865.4" fill="#3e9a83" rx="23.44"
    class="color3e9a83 svgShape"></rect>
  <path fill="#6cc58d"
    d="m2001.37 1360.35 51 588.46a29.84 29.84 0 0 0 29.73 27.28H2369a29.85 29.85 0 0 0 29.74-27.28l51-588.47Z"
    class="color6cc58d svgShape"></path>
  <path fill="#3e9a83"
    d="M2041.47 1824.46a4 4 0 0 1-4-3.66l-25.86-304.22a4 4 0 1 1 8-.68l25.86 304.22a4 4 0 0 1-3.64 4.32h-.36Z"
    class="color3e9a83 svgShape"></path>
  <path fill="#cedbee"
    d="M2163.16 1600.61s-14.64 29.71-16.75 36.36c-1.63 5.18 30 19.25 32.7 14.44s25.1-55.35 25.1-55.35l-20.28-8.6Z"
    class="colorcedbee svgShape"></path>
  <path fill="#ffffff"
    d="M2163.16 1600.61s10.45-27.24 29-32.74 59.82 22 59.82 22l13.06-21.32 28.2 64-67.73 14.45 11.69-22.35s-34.85-32.97-74.04-24.04Z"
    class="colorfff svgShape"></path>
  <path fill="#cedbee"
    d="M2348.46 1704.91s-10.66-31.36-13.87-37.55c-2.51-4.82-34.79 7.57-33.33 12.91s21.39 56.89 21.39 56.89l20.42-8.25Z"
    class="colorcedbee svgShape"></path>
  <path fill="#ffffff"
    d="M2348.46 1704.91s11.87 26.67 2.63 43.69-57.86 26.74-57.86 26.74l5.84 24.31-65.18-25.31 37.71-58.08 7.53 24.07s47.94-1.42 69.33-35.42Z"
    class="colorfff svgShape"></path>
  <path fill="#cedbee"
    d="M2167 1781.45s33-2.78 39.78-4.4c5.29-1.27 1.05-35.59-4.49-35.46s-60.37 7-60.37 7l3.1 21.81Z"
    class="colorcedbee svgShape"></path>
  <path fill="#ffffff"
    d="M2166 1781.45s-28.73 5.1-43-8-12-62.6-12-62.6l-25-.2 40.29-57.15 47.26 50.6-25.17 1.51s-10.31 46.87 17.62 75.84Z"
    class="colorfff svgShape"></path>
  <path fill="#3e9a83" d="m2011.86 1481.53 416.1 129.08 21.68-250.26h-448.27l10.49 121.18z"
    class="color3e9a83 svgShape"></path>
  <rect width="521.28" height="63.55" x="1964.86" y="1352.1" fill="#abdda8" rx="11.92"
    class="colorabdda8 svgShape"></rect>
  <path fill="#3e9a83"
    d="M2486.15 1387.73a4 4 0 0 1-4-4V1364a7.92 7.92 0 0 0-7.92-7.91h-456.45a4 4 0 0 1 0-8h456.45a15.93 15.93 0 0 1 15.92 15.91v19.72a4 4 0 0 1-4 4.01Z"
    class="color3e9a83 svgShape"></path>
  <path fill="#92b1dd"
    d="m1053.69 1746.4-9.63 52.17-43.7 236.53h-247.6l-43.71-236.53-9.62-52.17h354.26z"
    class="color92b1dd svgShape"></path>
  <path fill="#7394bc" d="m714.76 1829.45 307.99 84.43 25.82-136.66-344.25-4.28 10.44 56.51z"
    class="color7394bc svgShape"></path>
  <path fill="#cedbee" d="m1053.69 1746.4-9.63 52.17H709.05l-9.62-52.17h354.26z"
    class="colorcedbee svgShape"></path>
  <path fill="#7394bc"
    d="M744.19 1993.77a5 5 0 0 1-4.91-4.1l-45.86-248.27h231.27a5 5 0 0 1 0 10H705.44l43.68 236.45a5 5 0 0 1-4 5.82 4.9 4.9 0 0 1-.93.1Z"
    class="color7394bc svgShape"></path>
  <path fill="#92b1dd" d="M2067.82 448.51h79.32v253.74h-79.32z"
    transform="rotate(-25.13 2107.473 575.382)" class="color92b1dd svgShape"></path>
  <path fill="#7394bc"
    d="M2177.92 637.12a5 5 0 0 1-4.53-2.88l-86.32-183.92-27.15 12.92a5 5 0 1 1-5-8.69 5.51 5.51 0 0 1 .65-.31l36.29-17.24 90.54 193a5 5 0 0 1-4.52 7.12Z"
    class="color7394bc svgShape"></path>
  <path fill="#f5f5f7"
    d="M2081.68 520.36c-5.85 2.75-8.59 9.26-6.12 14.55l59.72 127.3c2.48 5.29 9.24 7.34 15.1 4.6s8.6-9.27 6.12-14.55L2096.78 525c-2.48-5.33-9.24-7.39-15.1-4.64Z"
    class="colorf5f5f7 svgShape"></path>
  <path fill="#f5f5f7" d="M2038.37 471.62h55.89v31.99h-55.89z"
    transform="rotate(-25.13 2066.308 487.606)" class="colorf5f5f7 svgShape"></path>
  <path fill="#cedbee" d="M1956.7 453.32h79.32v253.74h-79.32z" class="colorcedbee svgShape"></path>
  <path fill="#f5f5f7"
    d="M1996.36 519.45c-6.47 0-11.72 4.73-11.72 10.57v140.61c0 5.84 5.25 10.57 11.72 10.57s11.72-4.73 11.72-10.57V530c-.01-5.82-5.25-10.55-11.72-10.55ZM1968.41 467.23h55.89v31.99h-55.89z"
    class="colorf5f5f7 svgShape"></path>
  <path fill="#aec6d3" d="M2226.23 453.32h79.32v253.74h-79.32z" class="coloraec6d3 svgShape"></path>
  <path fill="#dfe9f4"
    d="M2265.9 519.45c-6.48 0-11.72 4.73-11.72 10.57v140.61c0 5.84 5.24 10.57 11.72 10.57s11.71-4.73 11.71-10.57V530c0-5.82-5.24-10.55-11.71-10.55ZM2237.95 467.23h55.89v31.99h-55.89z"
    class="colordfe9f4 svgShape"></path>
  <path fill="#92b1dd"
    d="M2350.34 696.29h-432.67a18.93 18.93 0 0 0 0 37.86h432.71a18.93 18.93 0 0 0 0-37.86Z"
    class="color92b1dd svgShape"></path>
  <path fill="#7394bc"
    d="M2369.27 720.22a5 5 0 0 1-5-5 14 14 0 0 0-13.93-13.93h-401.67a5 5 0 0 1 0-10h401.67a24 24 0 0 1 23.93 23.93 5 5 0 0 1-5 5Z"
    class="color7394bc svgShape"></path>
  <path fill="#92b1dd"
    d="M1737.38 1944.72v-115.27h-181.81v-154.46h-181.82v360.11h545.45v-90.38h-181.82z"
    class="color92b1dd svgShape"></path>
  <path fill="#7394bc"
    d="M1374.75 2000.09a5 5 0 0 1-5-5l-1-325.11h47.83a5 5 0 0 1 0 10h-37.8l1 315.08a5 5 0 0 1-5 5ZM1900.2 1949.73h-167.89l1.07-70.35a5 5 0 0 1 5-4.92h.08a5 5 0 0 1 4.92 5.07l-.92 60.19h157.74a5 5 0 1 1 0 10ZM2635.47 2046.76c0 9-4.77 16.24-10.66 16.24H511.48c-5.86 0-10.66-7.27-10.66-16.24s4.8-16.24 10.66-16.24h2113.33c5.89 0 10.66 7.26 10.66 16.24Z"
    class="color7394bc svgShape"></path>
  <path fill="#ffb2a8"
    d="M1225.81 837.18c-10.37 9.89-9.33 19.72-9.33 19.72s16.6 19.18-13.22 20.22c-15.73.55-27-9.33-31.89-20.31-4.45-9.84-3.81-20.55 3.16-25.58a20 20 0 0 1 6.71-3.25h.09c12.52-3.46 24 6.38 24 6.38 9.59-10.36 30.84-7.01 20.48 2.82Z"
    class="colorffb2a8 svgShape"></path>
  <path fill="#f27c85"
    d="M1206.07 866.17c-.59 2.24-1.72 6.66-2.86 11-15.73.56-27-9.32-31.89-20.31 1.9-10.24 9.6-28.21 9.87-28.83h.09c1.45 0 19 .07 22 12.19 3.02 12.54 4.19 20.69 2.79 25.95Z"
    class="colorf27c85 svgShape"></path>
  <path fill="#ffb2a8"
    d="M1395.32 947.11v62.2s-55.48-20.22-99-43.56c-30.15-16.13-72-63.73-87.26-81.67-3.31-3.93-5.37-6.41-5.73-6.87v-.06l13.22-20.22s55.21 42.76 94.1 59.08c21.84 9.2 44.41 14.2 60 16.8 12.15 2.06 20.06 2.64 20.06 2.64Z"
    class="colorffb2a8 svgShape"></path>
  <path fill="#f27c85"
    d="M1342.78 928.7a2.74 2.74 0 0 1-.5-.07 240.44 240.44 0 0 1-32.47-10.8c-24.78-10.4-55.39-31.11-76.71-46.67a2 2 0 1 1 2.18-3.35l.17.12c17.32 12.62 50.2 35.43 75.91 46.2a234.2 234.2 0 0 0 31.92 10.62 2 2 0 0 1 1.45 2.43 2 2 0 0 1-2 1.51Z"
    class="colorf27c85 svgShape"></path>
  <path fill="#f27c85"
    d="M1395.32 947.11v62.2s-55.48-20.22-99-43.56c-30.15-16.13-72-63.73-87.26-81.67 22.27 23.19 79.09 70.67 90.23 69.58 7.58-.74 10.32 7.37 17.8 11.66 16.07 9.22 35.36 17.36 40-1.16 3.8-15 9.29-25.27 13.46-31.38 12.15 2.06 20.06 2.64 20.06 2.64Z"
    class="colorf27c85 svgShape"></path>
  <path fill="#7394bc"
    d="m1210.78 923.07-50.07-191.16a6.81 6.81 0 0 0-13.18 3.45l50.08 191.21a6.81 6.81 0 0 0 13.27-3.08c0-.12-.06-.25-.1-.37Z"
    class="color7394bc svgShape"></path>
  <path fill="#7394bc" d="M1076.54 722.95h165.86v30.04h-165.86z"
    transform="rotate(-15 1159.874 738.167)" class="color7394bc svgShape"></path>
  <path fill="#92b1dd" d="M1070.82 717.58h165.16V735h-165.16z"
    transform="rotate(-15.12 1153.408 726.3)" class="color92b1dd svgShape"></path>
  <path fill="#ffb2a8"
    d="M1161.79 836.68c3.37-9.47 31.1-7.52 35.25-1.3s6.65 31.36 1.51 40.19-22.93 7.68-25.87 4.92c-4.41-4.13-14.55-33.49-10.89-43.81Z"
    class="colorffb2a8 svgShape"></path>
  <path fill="#fccd89"
    d="m1479.3 940.91-2.67 22.8-8.22 70.51-57.81-14.57-31.62-8c-7.76-42.79 4.69-83.21 4.69-83.21l54.69 6.22Z"
    class="colorfccd89 svgShape"></path>
  <path fill="#f28c70"
    d="m1476.63 963.67-8.22 70.51-57.81-14.56c13-.76 26.71-4.48 27.2-16.59 1-23.19 6.69-65.3 6.69-65.3s16.93 12.44 32.14 25.94Z"
    class="colorf28c70 svgShape"></path>
  <path fill="#273657"
    d="M1496.32 1635.46s-59.1 7.52-66.09 40.18h101.08s7-28.77 0-52.1-34.99 11.92-34.99 11.92Z"
    class="color273657 svgShape"></path>
  <path fill="#2c4fa0"
    d="M1606.74 1292.27c-3 8.59-9.36 19.14-17.67 30.49-33.07 45.15-96.64 103.24-96.64 103.24 33.67 52 38.89 197.52 38.89 197.52-5.06 9.35-35 11.94-35 11.94s-3.46-8.07-9-21.19c-22.67-53.83-80-192.89-74.87-212.06 5-18.66 59-121.41 82.47-165.5 6.57-12.36 10.74-20.12 10.74-20.12l76.21-50.27a387.42 387.42 0 0 1 16.32 41.73 276.66 276.66 0 0 1 9 34.32c3.41 18.08 4.33 36.11-.45 49.9Z"
    class="color2c4fa0 svgShape"></path>
  <path fill="#273657"
    d="M1463.52 1557.62a3 3 0 0 1-2.78-1.87c-55.84-136.84-52.35-150-51.2-154.32 4-15 38.77-81.43 64.59-130.13a3 3 0 0 1 5.35 2.71.54.54 0 0 1 0 .11c-14.8 27.91-59.82 112.83-64.09 128.86-1.54 5.8 3 33.06 51 150.52a3 3 0 0 1-1.65 3.9 2.93 2.93 0 0 1-1.13.23Z"
    class="color273657 svgShape"></path>
  <path fill="#273657"
    d="M1492.43 1426c33.67 52 38.89 197.52 38.89 197.52-5.06 9.35-35 11.94-35 11.94s-3.46-8.07-9-21.19c11-8.41 22.2-25.09 23.77-58.37 3.15-67.23-45.86-161.73-45.86-161.73s21.78 9.33 27.21 10.09 82.41-99.52 83.73-112-17.42-35.76-17.42-35.76 30.12 15.55 48 35.76C1592 1335.07 1492.43 1426 1492.43 1426ZM1648.51 1789.29s-57.42 7.52-64.22 40.17h98.21s6.8-28.78 0-52.1-33.99 11.93-33.99 11.93Z"
    class="color273657 svgShape"></path>
  <path fill="#2c4fa0"
    d="M1707.07 1618.1c0 46.65-23.59 171.72-23.59 171.72a30.7 30.7 0 0 1-14.75 4.08 39.7 39.7 0 0 1-18.92-4.08l-60.74-467.06-10.24-78.85-2.67-20.57 22-15.32 51.07-35.51 14.69.21 19.5.31s10 11.17 16.57 45.48c3.28 17 5.73 39.78 5.73 69.7 0 90.11-16.59 247.68-16.59 247.68s17.94 35.56 17.94 82.21Z"
    class="color2c4fa0 svgShape"></path>
  <path fill="#273657"
    d="M1639.61 1714.66a3 3 0 0 1-3-2.62l-43.07-331.34a3 3 0 1 1 6-.79l43.07 331.36a3 3 0 0 1-2.59 3.36ZM1707.07 1618.1c0 46.65-23.59 171.72-23.59 171.72a30.7 30.7 0 0 1-14.75 4.08c15.37-24.23 17.42-87.16 24-148.29 9-83.67-33.37-143.08-39.38-151 2 2.33 8.22 8.59 17.08 9.2 10.89.8 11.23-14.75 17.18-145.41 2.79-61.25-4.7-102.78-13.5-129.58-9.94-30.43-21.47-42-21.47-42l11.32-14.08 19.5.31s10 11.16 16.57 45.48c3.28 17 5.73 39.78 5.73 69.69 0 90.11-16.59 247.69-16.59 247.69s17.9 35.54 17.9 82.19Z"
    class="color273657 svgShape"></path>
  <path fill="#273657"
    d="M1700 1218.54a230 230 0 0 1-25.92 10.25 301.13 301.13 0 0 1-66.89 13.58c-9.79.92-19.29 1.41-28.37 1.57-48 .83-83.92-7.24-83.92-7.24 6.57-12.36 10.74-20.12 10.74-20.12l76.21-50.27a388.4 388.4 0 0 1 16.32 41.74l51.07-35.51 14.69.21 19.5.31s9.98 11.17 16.57 45.48Z"
    class="color273657 svgShape"></path>
  <path fill="#fccd89"
    d="M1695.38 1182.38s-77.75 60.15-205.28 45.64c0 0-17.73-109-31.1-193.47-8-51-14.48-93-14.51-96.82s10.4-10 22.48-15.8c4.36-2.08 9-4.14 13.34-6l3.87-1.61c10.7-4.48 19.38-7.68 19.38-7.68l41-10.89s7.3.8 16.28 1.72c.77.09 1.51.15 2.27.25l14.48 1.47c6.41.61 12 1.1 14.78 1.23 3.41.15 19.08 40.91 37.24 91.36 29.57 82.33 65.77 190.6 65.77 190.6Z"
    class="colorfccd89 svgShape"></path>
  <path fill="#f28c70"
    d="M1560.82 897.46s-2.94 20.72-33.58 26.87c-28.8 5.72-43.06-10-43.06-10 10.7-4.48 19.38-7.68 19.38-7.68l41-10.89Z"
    class="colorf28c70 svgShape"></path>
  <path fill="#c66161"
    d="M1695.38 1182.38s-21.5 16.66-60.46 30.3c-35.08 12.31-84.37 22.21-144.82 15.34 0 0-.56-3.34-1.51-9.29-1.44-8.93-3.86-23.77-6.84-42.11-6.34-39.29-15.24-94.56-22.75-142.07 9.11-6.07 18.58-14.23 19.38-22.18 1.35-13.52-8.74-74.71-11.41-90.44 4.36-2.09 9-4.14 13.34-6 0 0 13.28 79.81 18.34 82.29s73.49-12.66 74.26-18.49-9.82-82-9.82-82l14.48 1.47s11.47 87.9 16.72 92.19a7.56 7.56 0 0 0 3.19 1.23h.21c7.33 1.35 22.94.06 31.9-.86 1.19 3.32 2.39 6.66 3.59 10.06 28.89 80.82 62.2 180.56 62.2 180.56Z"
    class="colorc66161 svgShape"></path>
  <path fill="#fccd89"
    d="m1499.85 1053.54 73.49-15.93s21.22 72.23-21.38 80.48c-50.15 9.71-52.11-64.55-52.11-64.55Z"
    class="colorfccd89 svgShape"></path>
  <path fill="#9b4b4b"
    d="M1543.25 1121.47a35.21 35.21 0 0 1-22.66-7.82c-21.87-17.56-23.19-58.31-23.24-60v-2.07l55.63-11.91a2.51 2.51 0 0 1 1 4.9l-51.52 11c.57 8.41 3.85 40.23 21.27 54.21 7.49 6 16.83 8 27.75 5.87a2.51 2.51 0 0 1 1 4.92 49.89 49.89 0 0 1-9.23.9Z"
    class="color9b4b4b svgShape"></path>
  <path fill="#9b4b4b"
    d="M1695.38 1182.38s-21.5 16.66-60.46 30.3a63.68 63.68 0 0 0-36.74-4.63c-31.28 5.66-91.06 9.57-109.59 10.69-1.44-8.94 88-84.07 95.6-92.84 9.23-10.77 13.19-131 13.29-133.3l.21.06 35.49 9.2c28.89 80.78 62.2 180.52 62.2 180.52Z"
    class="color9b4b4b svgShape"></path>
  <path fill="#7394bc"
    d="M1388.39 1189.45s-36.25 13.72-34.55 53.81a5.76 5.76 0 0 0 11.49.12c.75-9.79 5.77-31.3 34.53-39.93 37.79-11.36-11.47-14-11.47-14Z"
    class="color7394bc svgShape"></path>
  <path fill="#92b1dd"
    d="M1458.69 1318.21c.55 7.56-53 30.11-72.93 20.78-12-5.64-17.35-27.36-14.41-47.74 2-13.47 7.49-26.34 17.18-33.63a32.41 32.41 0 0 0 4.57-4.19c17.34-19 1.83-49.63-7.48-58.23-10-9.24-48.44 8.2-50.85.72s-3.83-14-1.94-19.66 36.27-12.13 56-26.68c27.44-20.2 43 75.49 49.76 93.76 2.34 6.41 5.45 16.6 8.52 27.45 4.11 14.72 8.19 30.66 10.23 40.08q.86 3.63 1.35 7.34Z"
    class="color92b1dd svgShape"></path>
  <path fill="#7394bc"
    d="m1457.37 1310.91-.44 1.18c-55.86 8.76-78.63-12-85.58-20.81 2-13.46 7.49-26.33 17.18-33.63a31.76 31.76 0 0 0 4.57-4.18c8.48 7.63 24.91 17.21 54 17.36 4.15 14.68 8.23 30.63 10.27 40.08Z"
    class="color7394bc svgShape"></path>
  <path fill="#ffb2a8"
    d="M1434 1200s-24.25-4.41-36.69 0-14.26 18.14-11.92 28.77 41 12.19 52.35-5.44S1434 1200 1434 1200Z"
    class="colorffb2a8 svgShape"></path>
  <path fill="#ffb2a8"
    d="M1683.44 1073.53s-2.36 66.46-34.19 99c-30.58 31.32-197.71 49.38-210.71 50.73l-.8.09L1434 1200s159.4-47.81 164.43-63.77a248.84 248.84 0 0 0 6.68-29c2.55-13.86 4.08-25.79 4.08-25.79Z"
    class="colorffb2a8 svgShape"></path>
  <path fill="#f27c85"
    d="M1465.22 1192.59a2 2 0 0 1-.61-3.92c118.85-38 131-50.18 131.91-53 1.24-3.89 2.85-9 4.34-14.54a2 2 0 0 1 3.94.7c0 .1 0 .2-.08.3-1.51 5.57-3.14 10.78-4.39 14.7-1.15 3.65-7.77 10.44-51.82 27.2-27.3 10.39-60 21.19-82.68 28.43a2.55 2.55 0 0 1-.61.13Z"
    class="colorf27c85 svgShape"></path>
  <path fill="#f27c85"
    d="M1683.44 1073.53s-2.36 66.46-34.19 99c-30.58 31.32-197.71 49.38-210.71 50.73 132.65-16.63 188.41-47.11 191.45-59.54 2.94-12-18.35-20.15-19.85-20.7 1.66.44 28.5 7.31 37 9.82 8.8 2.57 29.28-49.41 8.3-47.08-14.81 1.66-39.06 3.65-50.35 1.53 2.55-13.86 4.08-25.79 4.08-25.79Z"
    class="colorf27c85 svgShape"></path>
  <path fill="#fccd89"
    d="M1689.15 1081.33c-24 11.17-52.48 14-70.18 14.59-10.27.34-16.89-.08-16.89-.08L1599 972.45l-3.71-40.68-2.89-31.37c74.21 9.84 96.75 180.93 96.75 180.93Z"
    class="colorfccd89 svgShape"></path>
  <path fill="#f28c70"
    d="M1682.59 1045.91a2.49 2.49 0 0 1-2.43-1.93c-11.76-49.93-38.72-134.65-87.13-141.07a2.52 2.52 0 1 1 .65-5c51.39 6.82 79.29 93.69 91.34 144.87a2.49 2.49 0 0 1-1.85 3 2.35 2.35 0 0 1-.58.13ZM1619 1095.91c-10.27.34-16.89-.08-16.89-.08l-3.11-123.4-3.71-40.67Z"
    class="colorf28c70 svgShape"></path>
  <path fill="#ffb2a8"
    d="M1549.75 896.33s-4.63 10.08-24.26 14.56c-20.24 4.61-30.33-1-30.33-1l-.06-.3-5.77-28.84 54.16-11.16 3.16 13.53Z"
    class="colorffb2a8 svgShape"></path>
  <path fill="#f27c85" d="M1546.65 883.08c-5 8.77-18.09 22.14-51.55 26.46l-5.77-28.83 54.16-11.17Z"
    class="colorf27c85 svgShape"></path>
  <path fill="#ffb2a8"
    d="M1543.61 807.91s27.38 75.56-37.41 88.88-92.13-51.88-89.42-102.09 70.49-40.79 70.49-40.79l29.2 7.49 24 35.13Z"
    class="colorffb2a8 svgShape"></path>
  <path fill="#f27c85"
    d="M1489.64 900.57a62.38 62.38 0 0 1-35.78-10.73c-18.27-12.43-31.11-35.07-36.16-63.77a2 2 0 1 1 3.94-.7c4.86 27.63 17.1 49.35 34.47 61.16 13.89 9.44 30.61 12.24 49.69 8.32 23.79-4.9 37.66-18.92 41.23-41.68a2 2 0 0 1 4 .62c-3.8 24.23-19.14 39.79-44.38 45a84.62 84.62 0 0 1-17.01 1.78Z"
    class="colorf27c85 svgShape"></path>
  <ellipse cx="1498.55" cy="833.72" fill="#273657" rx="5.41" ry="8.33"
    transform="rotate(-2.02 1498.562 833.833)" class="color273657 svgShape"></ellipse>
  <circle cx="1501.78" cy="828.53" r="2.82" fill="#ffffff" class="colorfff svgShape"></circle>
  <ellipse cx="1444.39" cy="838.67" fill="#273657" rx="5.41" ry="8.33"
    transform="rotate(-2.02 1444.292 838.55)" class="color273657 svgShape"></ellipse>
  <circle cx="1447.61" cy="833.48" r="2.82" fill="#ffffff" class="colorfff svgShape"></circle>
  <path fill="#273657"
    d="M1490.91 803.45c.06-1.82 8.52-3.17 15.4-1.1s7.7 11 7.7 11a17.16 17.16 0 0 0-8.88-4.07c-5.66-.86-11.51.67-12.33-.44a12.45 12.45 0 0 1-1.89-5.39ZM1442.9 812.45c-.84-1.61-9 .83-14.36 5.68s-2.19 13.22-2.19 13.22a17.06 17.06 0 0 1 6.25-7.5c4.73-3.23 10.66-4.39 10.92-5.75a12.46 12.46 0 0 0-.62-5.65Z"
    class="color273657 svgShape"></path>
  <path fill="#f27c85"
    d="M1467.85 866.09a15.76 15.76 0 0 1-6.12-.94c-3.9-1.76-2.86-5.65-1.54-10.56.56-2.08 1.19-4.44 1.7-7.22a51.5 51.5 0 0 0 0-18.28 1.54 1.54 0 0 1 3-.67 54.1 54.1 0 0 1 0 19.49c-.54 2.92-1.22 5.44-1.76 7.47-1.35 5-1.54 6.36-.16 7 2.84 1.28 10.52.35 13.24-.12a1.55 1.55 0 0 1 1.57 1.51 1.53 1.53 0 0 1-1 1.49 58.77 58.77 0 0 1-8.93.83ZM1475.85 882.43a1.55 1.55 0 1 1 .81-3c14.39 2.89 18.43-9.31 18.59-9.82a1.53 1.53 0 0 1 1.92-1 1.47 1.47 0 0 1 1 1.8s0 .08 0 .12-5 15.34-22.12 11.92Z"
    class="colorf27c85 svgShape"></path>
  <path fill="#273657"
    d="M1509.39 788.3s-23.92 24.19-70.81 20.08-63.32-55.18-63.32-55.18 19.16 4.08 47-8.7 99.92-48.36 123.64 5.94c0 0 25.78-2.74 32 32.39s-12.88 73.5-28.62 61.61c0 0-.1-17-3.27-28.11.06.01-32.51-5.21-36.62-28.03Z"
    class="color273657 svgShape"></path>
  <path fill="#ffb2a8"
    d="M1546.07 816.34s8.74-10.23 17-4.31 5.25 32.67-13.68 32.42-3.32-28.11-3.32-28.11Z"
    class="colorffb2a8 svgShape"></path>
  <path fill="#f27c85"
    d="M1551.25 817.85c1-2.25 9.36-4.45 10.73.68s.68 16-5.37 18.71.46-6.28-2-7.87a9.46 9.46 0 0 1-3.36-11.52Z"
    class="colorf27c85 svgShape"></path>
</svg>