<svg xmlns="http://www.w3.org/2000/svg" enable-background="new 0 0 1920 1080"
  viewBox="0 0 1920 1080" width="550" height="350">
  <path fill="#ede6db"
    d="M730.49,936.27l-299.3,1.76c0,0-99.47-62.38-142.06-138.08c-34.36-61.06-45.14-127.2-38.95-196.67
  c6.19-69.47,78.34-190.03,137.11-229.32c78.86-52.72,126.4-14.37,146.67-8.21c61.37,18.67,126.42-10.29,182.63-40.82
  c123.04-66.82,245.7-146.86,385.82-158.88c63.03-5.41,136.1,9.14,167.75,62.85c16.57,28.11,22.04,66.4,51.73,80.79
  c12.71,6.16,27.44,6.35,41.6,7.14c60.64,3.43,121.31,21.02,170.41,56.08c49.1,35.06,86.23,90.41,102.57,147.77
  c12.34,43.3,37.06,159.45-4.48,255.67c-31.99,74.12-116.49,159.91-116.49,159.91H730.49z"
    class="colorede6db svgShape"></path>
  <path fill="#ede6db"
    d="M1315.51,278.73c20.24,19.31,47.3,31.32,75.19,33.4c9.42,0.7,19.94-0.12,26.53-6.88
c7.99-8.2,6.64-22.36-0.22-31.53c-6.86-9.16-17.76-14.31-28.51-18.23c-10.75-3.92-22.01-7.08-31.4-13.61
c-19.91-13.85-28.6-40.85-50.17-51.93c-25.47-13.08-30.44,12.87-25.3,31.09C1287.81,242.93,1298.96,262.94,1315.51,278.73z"
    class="colorede6db svgShape"></path>
  <circle cx="442.22" cy="333.98" r="63.47" fill="#ffffff" stroke="#c9c3bc" stroke-miterlimit="10"
    stroke-width="7" transform="rotate(-45.001 442.218 333.99)"
    class="colorfff svgShape colorStrokec9c3bc svgStroke"></circle>
  <circle cx="442.22" cy="333.98" r="42.3" fill="#ede6db" class="colorede6db svgShape"></circle>
  <line x1="428.05" x2="443.19" y1="351.29" y2="336.14" fill="none" stroke="#e1ccaf"
    stroke-linecap="round" stroke-linejoin="round" stroke-width=".458"
    class="colorStrokee1ccaf svgStroke"></line>
  <rect width=".91" height=".91" x="427.61" y="350.82" fill="#e1ccaf"
    transform="rotate(-45.001 428.043 351.274)" class="colore1ccaf svgShape"></rect>
  <line x1="443.19" x2="443.19" y1="336.14" y2="308.77" fill="none" stroke="#2c2c2c"
    stroke-linecap="round" stroke-linejoin="round" stroke-width=".458"
    class="colorStroke2c2c2c svgStroke"></line>
  <rect width=".91" height=".91" x="442.74" y="308.34" fill="#2c2c2c" class="color2c2c2c svgShape"></rect>
  <line x1="455.63" x2="443.19" y1="348.57" y2="336.14" fill="none" stroke="#2c2c2c"
    stroke-linecap="round" stroke-linejoin="round" stroke-width=".458"
    class="colorStroke2c2c2c svgStroke"></line>
  <rect width=".89" height=".14" x="455.18" y="348.5" fill="#2c2c2c"
    transform="rotate(-44.992 455.615 348.575)" class="color2c2c2c svgShape"></rect>
  <path fill="#2c2c2c"
    d="M445.2,336.14c0,1.11-0.9,2-2,2c-1.11,0-2-0.9-2-2c0-1.11,0.9-2,2-2C444.3,334.13,445.2,335.03,445.2,336.14z
"
    class="color2c2c2c svgShape"></path>
  <path fill="#ffffff"
    d="M1545.71,612.75c0,0-12.67-27.32,19.11-104.91c0,0,6.34,38.93-2.83,67.96
  C1552.82,604.84,1545.71,612.75,1545.71,612.75z"
    class="colorfff svgShape"></path>
  <path fill="none" stroke="#0e1a2b" stroke-linecap="round" stroke-linejoin="round"
    stroke-miterlimit="10"
    d="M1542.7,609.68c0,0-12.67-27.32,19.11-104.91c0,0,6.34,38.93-2.83,67.96
  C1549.81,601.76,1542.7,609.68,1542.7,609.68z"
    class="colorStroke0e1a2b svgStroke"></path>
  <path fill="#ffffff"
    d="M1559.75,713.1c0,0-3.88-45.18-20.9-66.32c-17.02-21.14-35.13-55.49-34.28-67.86c0,0-7.43,35.34,3.42,63.3
  C1518.85,670.18,1554.71,688.08,1559.75,713.1z"
    class="colorfff svgShape"></path>
  <path fill="none" stroke="#0e1a2b" stroke-linecap="round" stroke-linejoin="round"
    stroke-miterlimit="10"
    d="M1556.74,710.02c0,0-3.88-45.18-20.89-66.32c-17.02-21.14-35.13-55.49-34.28-67.86c0,0-7.43,35.34,3.42,63.3
  C1515.83,667.11,1551.7,685.01,1556.74,710.02z"
    class="colorStroke0e1a2b svgStroke"></path>
  <path fill="#ffffff"
    d="M1552.55,675.72c0,0,5.9-14.97,22.07-40.58c16.17-25.61,20.35-32.99,17.77-78.42c0,0-8.73,26.25-19.65,40.25
  C1561.82,610.98,1547.26,648.65,1552.55,675.72z"
    class="colorfff svgShape"></path>
  <path fill="none" stroke="#0e1a2b" stroke-linecap="round" stroke-linejoin="round"
    stroke-miterlimit="10"
    d="M1549.54,672.65c0,0,5.9-14.97,22.07-40.58c16.17-25.61,20.35-32.99,17.77-78.42c0,0-8.73,26.25-19.65,40.25
  C1558.81,607.91,1544.24,645.57,1549.54,672.65z"
    class="colorStroke0e1a2b svgStroke"></path>
  <path fill="#ffffff"
    d="M1564.73,766.81c0,0-12.73-79.31,54.84-132.58c0,0,2.03,44.79-13.23,72.59
  C1591.09,734.62,1569.47,753.91,1564.73,766.81z"
    class="colorfff svgShape"></path>
  <path fill="none" stroke="#0e1a2b" stroke-linecap="round" stroke-linejoin="round"
    stroke-miterlimit="10"
    d="M1561.72,763.73c0,0-12.73-79.31,54.84-132.58c0,0,2.03,44.79-13.23,72.59
  C1588.07,731.54,1566.46,750.84,1561.72,763.73z"
    class="colorStroke0e1a2b svgStroke"></path>
  <path fill="#ffffff"
    d="M1558.45,828.44c0,0,5.37-57.1-8.98-86.97c-14.35-29.87-50.12-53.13-50.12-53.13s11.72,59.41,25.75,83.81
  C1539.13,796.56,1553.58,815.68,1558.45,828.44z"
    class="colorfff svgShape"></path>
  <path fill="none" stroke="#0e1a2b" stroke-linecap="round" stroke-linejoin="round"
    stroke-miterlimit="10"
    d="M1555.44,825.37c0,0,5.37-57.1-8.98-86.97c-14.35-29.87-50.12-53.13-50.12-53.13s11.72,59.41,25.75,83.81
  C1536.12,793.48,1550.57,812.6,1555.44,825.37z"
    class="colorStroke0e1a2b svgStroke"></path>
  <path fill="#ffffff"
    d="M1628.55,758.21c0,0-53.41,25.91-76.55,95.19c0,0,46.69-21.93,59.65-43.91
  C1624.62,787.5,1628.55,758.21,1628.55,758.21z"
    class="colorfff svgShape"></path>
  <path fill="none" stroke="#0e1a2b" stroke-linecap="round" stroke-linejoin="round"
    stroke-miterlimit="10"
    d="M1625.53,755.13c0,0-53.41,25.91-76.55,95.19c0,0,46.69-21.93,59.65-43.91S1625.53,755.13,1625.53,755.13z"
    class="colorStroke0e1a2b svgStroke"></path>
  <path fill="#ffffff"
    d="M1527.87,899.95c0,0,14.54-23.38,0.23-63.1c-14.31-39.72-22.68-45.23-22.68-45.23
  S1493.66,865.98,1527.87,899.95z"
    class="colorfff svgShape"></path>
  <path fill="none" stroke="#0e1a2b" stroke-linecap="round" stroke-linejoin="round"
    stroke-miterlimit="10"
    d="M1524.86,896.88c0,0,14.54-23.38,0.23-63.1c-14.31-39.72-22.68-45.23-22.68-45.23
  S1490.65,862.9,1524.86,896.88z"
    class="colorStroke0e1a2b svgStroke"></path>
  <path fill="#ffffff"
    d="M1518.63,906.25c-0.67,0.85-1.33,1.68-1.98,2.51c-0.65,0.83-1.27,1.65-1.94,2.42
    c-1.3,1.57-2.56,3.09-3.78,4.57c-1.26,1.43-2.39,2.75-3.4,3.96c-0.5,0.61-0.98,1.18-1.44,1.7c-0.45,0.53-0.88,1.04-1.28,1.51
    c-1.55,1.88-2.21,2.98-1.95,3.27c0.25,0.28,0.77,0.19,1.58-0.28c0.81-0.47,1.8-1.19,3.01-2.18c1.24-0.98,2.58-2.3,4.15-3.87
    c0.77-0.79,1.63-1.6,2.48-2.54c0.85-0.94,1.76-1.93,2.72-2.99c2.07-2.32,7.06-7.85,13.77-17.43c0.82-1.21,1.64-2.47,2.5-3.76
    c0.43-0.64,0.86-1.3,1.3-1.96c0.43-0.67,0.83-1.36,1.26-2.06c0.84-1.4,1.73-2.81,2.59-4.29c0.83-1.5,1.69-3.03,2.56-4.6
    c3.39-6.33,6.75-13.44,9.78-21.41c3.03-7.96,5.6-16.6,7.59-25.85c1.94-9.26,3.23-19.07,4.41-29.3
    c1.18-10.24,2.19-20.59,2.64-31.06c0.45-10.47,0.37-21.07-0.65-31.67c-1.98-21.2-6.74-41.21-10.79-60.54
    c-2.05-9.66-3.85-18.8-5.21-27.45c-1.36-8.65-2.24-16.82-2.68-24.46c-0.86-15.28,0.23-27.61,1.97-36.76
    c0.21-1.15,0.41-2.22,0.6-3.22c0.23-0.99,0.44-1.92,0.63-2.77c0.19-0.85,0.36-1.64,0.52-2.35c0.18-0.71,0.34-1.34,0.49-1.91
    c0.57-2.27,0.77-3.43,0.61-3.49c-0.11-0.04-0.56,1.01-1.35,3.16c-0.19,0.54-0.41,1.14-0.66,1.82c-0.2,0.69-0.43,1.44-0.68,2.26
    c-0.24,0.83-0.5,1.72-0.78,2.68c-0.26,0.97-0.49,2.02-0.75,3.14c-0.57,2.23-0.97,4.67-1.47,7.29c-0.38,2.64-0.84,5.45-1.1,8.48
    c-0.6,6.04-0.87,12.87-0.65,20.43c0.22,7.57,0.92,15.64,2.07,24.18c1.13,8.54,2.79,17.53,4.66,27
    c1.88,9.47,3.93,19.02,5.78,28.72c0.94,4.85,1.8,9.74,2.6,14.66c0.77,4.93,1.47,9.9,2.01,14.91c2.28,20.05,1.12,39.9-0.96,59.25
    c-1.07,9.68-2.16,18.89-3.6,27.5c-0.73,4.3-1.51,8.47-2.51,12.47c-0.92,4.01-2.02,7.85-3.14,11.56
    c-4.63,14.8-10.36,26.29-15.31,35.01c-1.25,2.17-2.44,4.06-3.45,5.75c-1.04,1.67-2,3.05-2.77,4.24
    c-1.53,2.38-2.6,3.75-2.96,4.28c-1.04,1.44-2.08,2.99-3.29,4.55c-0.59,0.79-1.19,1.6-1.81,2.43c-0.31,0.42-0.62,0.84-0.93,1.26
    C1519.3,905.4,1518.97,905.82,1518.63,906.25z"
    class="colorfff svgShape"></path>
  <path fill="none" stroke="#0e1a2b" stroke-linecap="round" stroke-linejoin="round"
    stroke-miterlimit="10"
    d="M1517,903.92c-0.67,0.85-1.33,1.68-1.98,2.51c-0.65,0.83-1.27,1.65-1.94,2.42
    c-1.3,1.57-2.56,3.09-3.78,4.57c-1.26,1.43-2.39,2.75-3.4,3.96c-0.5,0.61-0.98,1.18-1.44,1.7c-0.45,0.53-0.88,1.04-1.28,1.51
    c-1.55,1.88-2.21,2.98-1.95,3.27c0.25,0.28,0.77,0.19,1.58-0.28c0.81-0.47,1.8-1.19,3.01-2.18c1.24-0.98,2.58-2.3,4.15-3.87
    c0.77-0.79,1.63-1.6,2.48-2.54c0.85-0.94,1.76-1.93,2.72-2.99c2.07-2.32,7.06-7.85,13.77-17.43c0.82-1.21,1.64-2.47,2.5-3.76
    c0.43-0.64,0.86-1.3,1.3-1.96c0.43-0.67,0.83-1.36,1.26-2.06c0.84-1.4,1.73-2.81,2.59-4.29c0.83-1.5,1.69-3.03,2.56-4.6
    c3.39-6.33,6.75-13.44,9.78-21.41c3.03-7.96,5.6-16.6,7.59-25.85c1.94-9.26,3.23-19.07,4.41-29.3
    c1.18-10.24,2.19-20.59,2.64-31.07c0.45-10.47,0.37-21.07-0.65-31.67c-1.98-21.2-6.74-41.21-10.79-60.54
    c-2.05-9.66-3.85-18.8-5.21-27.45c-1.36-8.65-2.25-16.82-2.68-24.46c-0.86-15.28,0.23-27.61,1.97-36.76
    c0.21-1.15,0.41-2.22,0.6-3.22c0.23-0.99,0.44-1.92,0.63-2.77c0.19-0.85,0.36-1.64,0.52-2.35c0.18-0.71,0.34-1.34,0.49-1.91
    c0.57-2.27,0.77-3.43,0.61-3.49c-0.11-0.04-0.56,1.01-1.35,3.16c-0.19,0.54-0.41,1.14-0.66,1.82c-0.2,0.69-0.43,1.44-0.68,2.26
    c-0.24,0.83-0.5,1.72-0.78,2.68c-0.26,0.97-0.49,2.02-0.75,3.14c-0.57,2.23-0.97,4.67-1.47,7.29c-0.38,2.64-0.84,5.45-1.1,8.48
    c-0.6,6.04-0.87,12.87-0.65,20.43c0.22,7.57,0.92,15.64,2.07,24.18c1.13,8.54,2.79,17.53,4.66,27
    c1.88,9.47,3.93,19.02,5.78,28.72c0.94,4.85,1.8,9.74,2.6,14.66c0.77,4.93,1.47,9.9,2.01,14.91c2.28,20.05,1.12,39.9-0.96,59.25
    c-1.07,9.68-2.16,18.89-3.6,27.5c-0.73,4.3-1.51,8.47-2.51,12.47c-0.92,4.01-2.02,7.85-3.14,11.56
    c-4.63,14.8-10.36,26.29-15.31,35.01c-1.25,2.17-2.44,4.06-3.45,5.75c-1.04,1.66-2,3.05-2.77,4.24
    c-1.53,2.38-2.6,3.75-2.95,4.28c-1.04,1.44-2.08,2.99-3.29,4.55c-0.59,0.79-1.19,1.6-1.81,2.43c-0.31,0.42-0.62,0.84-0.93,1.26
    C1517.67,903.08,1517.34,903.5,1517,903.92z"
    class="colorStroke0e1a2b svgStroke"></path>
  <path fill="#ffffff"
    d="M421.66,597.12c0,0,14.99-27.61-12.98-110.45c0,0-9.16,40.11-1.53,70.93
  C414.78,588.41,421.66,597.12,421.66,597.12z"
    class="colorfff svgShape"></path>
  <path fill="none" stroke="#0e1a2b" stroke-linecap="round" stroke-linejoin="round"
    stroke-miterlimit="10"
    d="M425,594.11c0,0,14.99-27.61-12.98-110.45c0,0-9.16,40.11-1.53,70.93C418.12,585.4,425,594.11,425,594.11z"
    class="colorStroke0e1a2b svgStroke"></path>
  <path fill="#ffffff"
    d="M400.45,700.64c0,0,7.01-46.77,26.11-67.66c19.11-20.89,40.22-55.44,40.15-68.38c0,0,5.41,37.27-7.73,65.67
  C445.85,658.66,407.34,674.93,400.45,700.64z"
    class="colorfff svgShape"></path>
  <path fill="none" stroke="#0e1a2b" stroke-linecap="round" stroke-linejoin="round"
    stroke-miterlimit="10"
    d="M403.78,697.63c0,0,7.01-46.77,26.11-67.66c19.11-20.89,40.22-55.44,40.15-68.38c0,0,5.41,37.27-7.73,65.67
  C449.18,655.66,410.67,671.93,403.78,697.63z"
    class="colorStroke0e1a2b svgStroke"></path>
  <path fill="#ffffff"
    d="M410.4,662.21c0,0-5.15-15.97-20.3-43.69c-15.14-27.72-19.01-35.68-13.34-82.8c0,0,7.36,27.89,17.8,43.19
  C405.01,594.21,417.69,634.37,410.4,662.21z"
    class="colorfff svgShape"></path>
  <path fill="none" stroke="#0e1a2b" stroke-linecap="round" stroke-linejoin="round"
    stroke-miterlimit="10"
    d="M413.74,659.21c0,0-5.15-15.97-20.3-43.69c-15.14-27.72-19.01-35.68-13.34-82.8c0,0,7.35,27.89,17.8,43.19
  C408.34,591.21,421.03,631.37,413.74,659.21z"
    class="colorStroke0e1a2b svgStroke"></path>
  <path fill="#ffffff"
    d="M391.73,756.22c0,0,18.47-81.72-48.35-141.61c0,0-5.06,46.49,8.99,76.43
  C366.41,720.98,387.64,742.48,391.73,756.22z"
    class="colorfff svgShape"></path>
  <path fill="none" stroke="#0e1a2b" stroke-linecap="round" stroke-linejoin="round"
    stroke-miterlimit="10"
    d="M395.07,753.21c0,0,18.47-81.72-48.35-141.61c0,0-5.06,46.49,8.99,76.43
  C369.75,717.98,390.98,739.48,395.07,753.21z"
    class="colorStroke0e1a2b svgStroke"></path>
  <path fill="#ffffff"
    d="M394.2,820.78c0,0-1.83-59.79,15.08-89.94c16.9-30.15,55.66-52.01,55.66-52.01s-16.11,61.06-32.32,85.55
  C416.41,788.87,400.11,807.82,394.2,820.78z"
    class="colorfff svgShape"></path>
  <path fill="none" stroke="#0e1a2b" stroke-linecap="round" stroke-linejoin="round"
    stroke-miterlimit="10"
    d="M397.54,817.78c0,0-1.83-59.79,15.08-89.94c16.9-30.15,55.66-52.01,55.66-52.01s-16.11,61.06-32.32,85.55
  C419.75,785.86,403.45,804.81,397.54,817.78z"
    class="colorStroke0e1a2b svgStroke"></path>
  <path fill="#ffffff"
    d="M325.87,743.07c0,0,53.89,30.48,73.41,104.12c0,0-47.16-25.9-59.2-49.63
  C328.03,773.81,325.87,743.07,325.87,743.07z"
    class="colorfff svgShape"></path>
  <path fill="none" stroke="#0e1a2b" stroke-linecap="round" stroke-linejoin="round"
    stroke-miterlimit="10"
    d="M329.2,740.06c0,0,53.89,30.48,73.41,104.12c0,0-47.16-25.9-59.2-49.63
  C331.37,770.81,329.2,740.06,329.2,740.06z"
    class="colorStroke0e1a2b svgStroke"></path>
  <path fill="#ffffff"
    d="M421.33,897.23c0,0-13.59-25.3,3.92-65.7c17.51-40.4,26.59-45.58,26.59-45.58S459.18,864.12,421.33,897.23z"
    class="colorfff svgShape"></path>
  <path fill="none" stroke="#0e1a2b" stroke-linecap="round" stroke-linejoin="round"
    stroke-miterlimit="10"
    d="M424.67,894.23c0,0-13.59-25.3,3.92-65.7c17.51-40.4,26.59-45.58,26.59-45.58S462.51,861.11,424.67,894.23z"
    class="colorStroke0e1a2b svgStroke"></path>
  <path fill="#ffffff"
    d="M429.58,903.02c-0.3-0.46-0.6-0.92-0.89-1.38c-0.59-0.9-1.17-1.79-1.73-2.65c-1.16-1.7-2.14-3.39-3.13-4.95
    c-0.33-0.57-1.36-2.07-2.79-4.64c-0.72-1.29-1.63-2.79-2.6-4.6c-0.94-1.82-2.05-3.86-3.21-6.21
    c-4.58-9.4-9.79-21.74-13.63-37.45c-0.92-3.93-1.82-8.01-2.51-12.24c-0.77-4.22-1.31-8.61-1.79-13.14
    c-0.92-9.06-1.46-18.72-1.93-28.86c-0.89-20.28-0.79-41.02,2.9-61.74c0.89-5.18,1.94-10.31,3.07-15.39
    c1.16-5.07,2.37-10.11,3.67-15.09c2.57-9.97,5.33-19.78,7.91-29.51c2.57-9.73,4.89-18.98,6.63-27.8
    c1.76-8.81,3.02-17.17,3.75-25.03c0.73-7.85,0.9-14.97,0.67-21.3c-0.07-3.17-0.36-6.13-0.58-8.9c-0.34-2.76-0.6-5.33-1.05-7.69
    c-0.2-1.18-0.38-2.29-0.58-3.31c-0.23-1.02-0.44-1.97-0.64-2.84c-0.2-0.87-0.39-1.67-0.55-2.4c-0.21-0.72-0.4-1.36-0.56-1.94
    c-0.68-2.29-1.08-3.41-1.2-3.38c-0.17,0.05-0.04,1.28,0.4,3.67c0.11,0.6,0.24,1.27,0.38,2.02c0.12,0.75,0.24,1.58,0.38,2.48
    c0.15,0.9,0.3,1.87,0.47,2.92c0.13,1.06,0.27,2.19,0.41,3.39c1.21,9.63,1.53,22.54-0.37,38.39c-0.95,7.93-2.41,16.37-4.4,25.29
    c-1.99,8.91-4.46,18.31-7.23,28.23c-5.49,19.86-11.77,40.37-15.22,62.31c-1.75,10.97-2.54,22-2.76,32.93
    c-0.22,10.93,0.15,21.77,0.7,32.51c0.55,10.73,1.24,21.02,2.66,30.79c1.45,9.76,3.56,18.93,6.19,27.41
    c2.62,8.49,5.65,16.12,8.77,22.93c0.81,1.69,1.59,3.34,2.36,4.96c0.8,1.6,1.63,3.13,2.41,4.64c0.4,0.75,0.78,1.5,1.18,2.22
    c0.41,0.72,0.82,1.43,1.22,2.13c0.81,1.4,1.58,2.77,2.35,4.08c6.35,10.41,11.18,16.5,13.18,19.05c0.93,1.16,1.81,2.26,2.64,3.29
    c0.83,1.03,1.67,1.94,2.41,2.81c1.53,1.74,2.83,3.2,4.06,4.3c1.19,1.11,2.18,1.92,2.99,2.46c0.81,0.54,1.35,0.67,1.62,0.4
    c0.3-0.29-0.31-1.48-1.81-3.54c-0.38-0.51-0.8-1.07-1.23-1.65c-0.45-0.57-0.92-1.19-1.39-1.86c-0.97-1.32-2.06-2.77-3.27-4.34
    c-1.17-1.61-2.39-3.28-3.64-5c-0.64-0.84-1.24-1.75-1.86-2.65c-0.62-0.9-1.25-1.81-1.89-2.74
    C430.21,903.93,429.89,903.47,429.58,903.02z"
    class="colorfff svgShape"></path>
  <path fill="none" stroke="#0e1a2b" stroke-linecap="round" stroke-linejoin="round"
    stroke-miterlimit="10"
    d="M431.42,900.7c-0.3-0.46-0.6-0.92-0.89-1.38c-0.59-0.9-1.17-1.79-1.73-2.65c-1.16-1.7-2.14-3.39-3.13-4.95
    c-0.33-0.57-1.36-2.07-2.79-4.64c-0.72-1.29-1.63-2.79-2.6-4.6c-0.94-1.82-2.05-3.86-3.21-6.21
    c-4.58-9.4-9.79-21.74-13.63-37.45c-0.92-3.93-1.82-8.01-2.51-12.24c-0.77-4.22-1.31-8.61-1.79-13.14
    c-0.92-9.06-1.46-18.72-1.93-28.86c-0.89-20.28-0.79-41.02,2.9-61.74c0.89-5.18,1.94-10.31,3.07-15.39
    c1.16-5.08,2.37-10.11,3.67-15.09c2.57-9.97,5.33-19.78,7.91-29.51c2.57-9.73,4.89-18.98,6.63-27.8
    c1.76-8.81,3.02-17.17,3.75-25.03c0.73-7.85,0.9-14.97,0.67-21.3c-0.07-3.17-0.36-6.13-0.58-8.9c-0.34-2.76-0.6-5.33-1.05-7.69
    c-0.2-1.18-0.38-2.29-0.58-3.31c-0.23-1.02-0.44-1.97-0.64-2.84c-0.2-0.87-0.39-1.67-0.55-2.4c-0.21-0.72-0.4-1.36-0.56-1.94
    c-0.68-2.29-1.08-3.41-1.2-3.38c-0.17,0.05-0.04,1.28,0.4,3.67c0.11,0.6,0.24,1.27,0.38,2.02c0.12,0.75,0.24,1.58,0.38,2.48
    c0.15,0.9,0.3,1.87,0.47,2.92c0.13,1.06,0.27,2.19,0.41,3.39c1.21,9.63,1.53,22.54-0.37,38.39c-0.95,7.93-2.41,16.37-4.4,25.29
    c-1.99,8.91-4.46,18.31-7.23,28.23c-5.49,19.86-11.77,40.37-15.22,62.31c-1.75,10.97-2.54,22-2.76,32.93
    c-0.22,10.93,0.15,21.77,0.7,32.51c0.55,10.73,1.24,21.02,2.66,30.79c1.45,9.76,3.56,18.93,6.19,27.41
    c2.62,8.49,5.65,16.12,8.77,22.93c0.81,1.69,1.59,3.34,2.36,4.96c0.8,1.6,1.63,3.13,2.41,4.64c0.4,0.75,0.78,1.5,1.18,2.22
    c0.41,0.72,0.82,1.43,1.22,2.13c0.81,1.4,1.58,2.77,2.35,4.08c6.35,10.41,11.18,16.5,13.18,19.05c0.93,1.16,1.81,2.26,2.64,3.29
    c0.83,1.03,1.67,1.94,2.41,2.81c1.53,1.74,2.83,3.2,4.06,4.3c1.19,1.11,2.18,1.92,2.99,2.46c0.81,0.54,1.35,0.67,1.62,0.4
    c0.3-0.29-0.31-1.48-1.81-3.54c-0.38-0.51-0.8-1.07-1.23-1.65c-0.45-0.57-0.92-1.19-1.39-1.86c-0.97-1.32-2.06-2.77-3.27-4.34
    c-1.17-1.61-2.39-3.28-3.64-5c-0.64-0.85-1.24-1.75-1.86-2.65c-0.62-0.9-1.25-1.81-1.89-2.74
    C432.06,901.62,431.74,901.16,431.42,900.7z"
    class="colorStroke0e1a2b svgStroke"></path>
  <path fill="#d4dff4"
    d="M359.4,876.57c-16.48-18.77-35.87-38.97-60.28-39.26c-9.52-0.11-18.79,2.93-27.87,5.93
    c-26.35,8.73-52.69,17.46-79.04,26.19c27.19-20.99,55.92-39.83,85.85-56.29c9.66-5.31,19.64-10.44,30.42-12.22
    c31.69-5.22,61.05,19.63,78.77,47.5c17.73,27.87,28.9,60.41,50.43,85.2c-18.43,2.98-28.64,1.95-39.43-11.72
    C385.93,906.31,372.52,891.52,359.4,876.57z"
    class="colord4dff4 svgShape"></path>
  <path fill="none" stroke="#fff" stroke-miterlimit="10" stroke-width="1.5"
    d="M248.45,838.79c22.95-12.44,48.62-25.25,73.67-18.53c10.15,2.72,19.31,8.52,27.62,15.17
    c30.85,24.66,51.11,60.72,69.75,96.29"
    class="colorStrokefff svgStroke"></path>
  <path fill="none" stroke="#0e1a2b" stroke-linecap="round" stroke-linejoin="round"
    stroke-miterlimit="10"
    d="M360.84,869.07c-16.48-18.77-35.87-38.97-60.28-39.26c-9.52-0.11-18.79,2.93-27.87,5.93
  c-26.35,8.73-52.69,17.46-79.04,26.19c27.19-20.99,55.92-39.83,85.85-56.29c9.66-5.31,19.64-10.44,30.42-12.22
  c31.69-5.22,61.05,19.62,78.77,47.5c17.73,27.87,28.9,60.41,50.43,85.2c-18.43,2.98-28.64,1.95-39.43-11.72
  C387.37,898.81,373.96,884.02,360.84,869.07z"
    class="colorStroke0e1a2b svgStroke"></path>
  <path fill="#fffffd"
    d="M399.47,852.57c-16.53-20.79-39.31-35.16-57.08-54.81c-34.24-37.86-46.91-95.47-31.93-145.09
    c-1.06,29.32,10.17,58.89,30.19,79.52c13.08,13.47,29.39,23,43.46,35.34c26.7,23.42,44.62,56.67,53.16,91.94
    c5.81,23.98,10.99,55.99,4.72,80.08c-12.23-4.56-13.53-27.5-17.47-38.91C418.58,883.39,410.74,866.75,399.47,852.57z"
    class="colorfffffd svgShape"></path>
  <path fill="none" stroke="#9fb1ce" stroke-miterlimit="10"
    d="M316.26,698.02c0.34,29.55,18.29,56.01,38.63,77.44c20.34,21.43,43.95,40.13,60.36,64.7
    c17.6,26.35,25.93,58.76,23.2,90.33"
    class="colorStroke9fb1ce svgStroke"></path>
  <path fill="none" stroke="#0e1a2b" stroke-linecap="round" stroke-linejoin="round"
    stroke-miterlimit="10"
    d="M408.1,849.57c-16.53-20.79-39.31-35.16-57.08-54.81c-34.24-37.86-46.91-95.47-31.93-145.09
  c-1.06,29.32,10.17,58.89,30.19,79.52c13.08,13.47,29.39,23,43.46,35.34c26.7,23.42,44.62,56.67,53.16,91.94
  c5.81,23.98,9.01,49.49,2.74,73.58c-12.23-4.56-11.55-21-15.49-32.41C427.21,880.39,419.37,863.75,408.1,849.57z"
    class="colorStroke0e1a2b svgStroke"></path>
  <path fill="#d4dff4"
    d="M1527.43,876.03c13.34-18.24,28.89-34.73,46.57-47.69c12.48-9.15,27.24-15.17,42.56-17.37
  c5.32-0.76,11.46-0.8,15.19,3.06c3.26,3.38,3.78,8.96,7.57,11.74c4.78,3.51,11.64,0.45,15.91-3.66
  c4.27-4.11,7.88-9.43,13.53-11.23c5.04-1.61,11,0.29,14.18,4.52c3.58,4.76,3.46,11.34,5.98,16.75
  c3.25,6.96,11.25,11.38,18.87,10.42c-7.25,4.55-16.77,5.23-24.6,1.77c-4.14-1.83-8.65-4.8-12.8-2.98
  c-4.95,2.16-4.99,8.95-5.98,14.27c-2.02,10.88-10.8,19.13-19.64,25.8c-7.39,5.57-16.51,10.87-25.42,8.36
  c-5.92-1.67-11.6-6.69-17.39-4.63c-5.43,1.93-6.93,8.67-8.62,14.18c-4.06,13.3-13.89,24.58-26.17,31.09
  c-11.9,6.3-28.09,9.49-41.04,4.94c-5.81-2.04-8.96-3.95-15.61-3.24c-3.46,0.37-16.4,2.23-17.97,5.93
  C1501.59,916.8,1513.26,895.42,1527.43,876.03z"
    class="colord4dff4 svgShape"></path>
  <path fill="none" stroke="#fff" stroke-miterlimit="10" stroke-width="1.5"
    d="M1495.71,939.08c16.12-27.85,13.55-19.83,37.93-40.84c24.38-21.01,53.62-36.87,85.19-43.12
  c8.22-1.63,16.78-2.67,24.12-6.72c6.99-3.86,12.36-10.17,19.28-14.16s16.93-4.88,21.93,1.35"
    class="colorStrokefff svgStroke"></path>
  <path fill="none" stroke="#0e1a2b" stroke-linecap="round" stroke-linejoin="round"
    stroke-miterlimit="10"
    d="M1527.43,870.73c13.34-18.24,28.89-34.73,46.57-47.69c12.48-9.15,27.24-15.17,42.56-17.37
c5.32-0.76,11.46-0.8,15.19,3.06c3.26,3.38,3.78,8.96,7.57,11.74c4.78,3.51,11.64,0.45,15.91-3.66
c4.27-4.11,7.88-9.43,13.53-11.23c5.04-1.61,11,0.29,14.18,4.52c3.58,4.76,3.46,11.34,5.98,16.75
c3.25,6.96,11.25,11.38,18.87,10.42c-7.25,4.55-16.77,5.23-24.6,1.77c-4.14-1.83-8.65-4.8-12.8-2.98
c-4.95,2.16-4.99,8.95-5.98,14.27c-2.02,10.88-10.8,19.13-19.64,25.8c-7.39,5.57-16.51,10.87-25.42,8.36
c-5.92-1.67-11.6-6.69-17.39-4.63c-5.43,1.93-6.93,8.67-8.62,14.18c-4.06,13.3-13.89,24.58-26.17,31.09
c-11.9,6.3-28.09,9.49-41.04,4.94c-5.81-2.04-8.96-3.95-15.61-3.24c-3.46,0.37-16.4,2.23-17.97,5.93
C1501.59,911.5,1513.26,890.12,1527.43,870.73z"
    class="colorStroke0e1a2b svgStroke"></path>
  <line x1="337.16" x2="1625.65" y1="936.96" y2="936.96" fill="none" stroke="#647c4a"
    stroke-miterlimit="10" stroke-width="14" class="colorStroke81b4fd svgStroke"></line>
  <polygon fill="#b2a08a" stroke="#0e1a2b" stroke-miterlimit="10"
    points="593.11 864.04 588.98 931.33 605.51 931.33 635.81 864.04"
    class="colorb2a08a svgShape colorStroke0e1a2b svgStroke"></polygon>
  <polygon fill="#b2a08a" stroke="#0e1a2b" stroke-miterlimit="10"
    points="1389.22 864.04 1393.35 931.33 1376.82 931.33 1346.52 864.04"
    class="colorb2a08a svgShape colorStroke0e1a2b svgStroke"></polygon>
  <rect width="836.05" height="29.76" x="571.07" y="843.34" fill="#b2a08a" stroke="#0e1a2b"
    stroke-miterlimit="10" class="colorb2a08a svgShape colorStroke0e1a2b svgStroke"></rect>
  <path fill="#e2cbac" stroke="#0e1a2b" stroke-miterlimit="10"
    d="M657.85,695.81h652.86c0,0,12.4-11.65,26.17-24.59c10.11-9.5,38.77-21.79,53.3-27.65l-3.99-48.79
  c-3.02-36.9-36.88-65.9-76.66-65.9h-638.1c-39.78,0-73.64,29-76.66,65.9l-4.17,51c5.62,0.88,20.97,3.7,34.2,9.92
  C641.32,663.46,657.85,695.81,657.85,695.81z"
    class="colore2cbac svgShape colorStroke0e1a2b svgStroke"></path>
  <path fill="#bfa688" stroke="#0e1a2b" stroke-miterlimit="10"
    d="M1336.88,671.23c-13.77,12.94-26.17,24.59-26.17,24.59H657.85c0,0-16.53-32.35-33.06-40.12
  c-13.22-6.21-28.58-9.03-34.2-9.92l-7.8,95.32h815.36l-7.98-97.53C1375.65,649.44,1346.99,661.72,1336.88,671.23z"
    class="colorbfa688 svgShape colorStroke0e1a2b svgStroke"></path>
  <path fill="#e2cbac" stroke="#0e1a2b" stroke-miterlimit="10"
    d="M1451.47,627.07L1451.47,627.07c-43.96,0-91.36,32.04-105.85,71.57l-32.9,89.7H670.13l-32.73-89.24
c-14.5-39.53-61.89-71.57-105.85-71.57h0c-43.96,0-67.85,32.04-53.36,71.57L513.74,796c12.39,33.78,45.17,56.16,86.26,59.76v0.52
h11.78h83.28h645.96v-0.45h30.24c46.54,0,84.49-23.33,98.04-60.28l35.54-96.91C1519.32,659.11,1495.44,627.07,1451.47,627.07z"
    class="colore2cbac svgShape colorStroke0e1a2b svgStroke"></path>
  <path fill="#d8efe2" stroke="#0e1a2b" stroke-miterlimit="10"
    d="M571.61,615.83c0,0,17.11,49.78,25.72,66.63c8.61,16.85,23.15,35.46,23.15,35.46s76.68,2.23,89.54-0.72
c12.87-2.96,46.07-2.1,46.07-2.1s-28.84-69.38-40.67-90.22c-9.77-17.22-16.61-26.22-16.61-26.22S590.14,595.2,571.61,615.83z"
    class="colord8efe2 svgShape colorStroke0e1a2b svgStroke"></path>
  <path fill="#d8ddbc" stroke="#0e1a2b" stroke-miterlimit="10"
    d="M662.03 625.4c0 0 5.63 44.43 9.87 59.49 4.24 15.05 13.09 31.7 13.09 31.7s63.09 2.3 74.24-.28c11.16-2.58 42.02 2.49 42.02 2.49s-15.5-66.13-21.72-84.76c-5.14-15.38-9.26-23.44-9.26-23.44S680.91 607.08 662.03 625.4zM1206.36 711.49c0 0 8.77-43.96 16.09-65.95s14.62-37.1 14.62-37.1 51.18-6.87 102.36-2.75c29.18 2.35 57.03 15.11 57.03 15.11s-21.93 39.84-26.32 56.33c-4.39 16.49-10.24 38.47-10.24 38.47s-51.18 4.12-81.89 4.12C1247.31 719.74 1206.36 711.49 1206.36 711.49z"
    class="colord8ddbc svgShape colorStroke0e1a2b svgStroke"></path>
  <path fill="#bfa688"
    d="M1343.7,726.87l-373.67-3.64c-1.04-0.14-2.1-0.24-3.19-0.24l-9.71,0.11l-11.62-0.11
  c-1.48,0-2.92,0.12-4.33,0.3l-306.75,3.58c-31.68,1.29-35.12,40.56-35.12,40.56c0,11.55,9.96,20.91,22.25,20.91h323.95
  c0,0,0,0,0,0h413.61c14.72,0,26.66-9.36,26.66-20.91C1385.78,767.43,1381.65,728.16,1343.7,726.87z"
    class="colorbfa688 svgShape"></path>
  <path fill="#f2e4d3" stroke="#0e1a2b" stroke-miterlimit="10"
    d="M966.84 777.99H621.56c-12.29 0-22.25-9.36-22.25-20.91 0 0 3.44-39.27 35.12-40.56l332.41-3.88c12.29 0 22.25 9.36 22.25 20.91v23.53C989.1 768.62 979.13 777.99 966.84 777.99zM1018.24 777.99h345.28c12.29 0 22.25-9.36 22.25-20.91 0 0-3.44-39.27-35.12-40.56l-332.41-3.88c-12.29 0-22.25 9.36-22.25 20.91v23.53C995.98 768.62 1005.95 777.99 1018.24 777.99z"
    class="colorf2e4d3 svgShape colorStroke0e1a2b svgStroke"></path>
  <path fill="none" stroke="#0e1a2b" stroke-miterlimit="10"
    d="M984.45 558.82c0 4.48 0 8.96 0 13.43M977.29 578.52c-3.58 0-7.17 0-10.75 0M988.87 579.22c3.78-1.22 7.97-1.15 11.71.21M983.62 585.66c.95 2.25 1.23 4.78.8 7.18M984.45 625.94c0 4.48 0 8.96 0 13.43M977.29 645.65c-3.58 0-7.17 0-10.75 0M988.87 646.34c3.78-1.22 7.97-1.15 11.71.21M983.62 652.79c.95 2.25 1.23 4.78.8 7.18M1119.58 562.35c0 4.48 0 8.96 0 13.43M1112.42 582.05c-3.58 0-7.17 0-10.75 0M1124 582.75c3.78-1.22 7.97-1.15 11.71.21M1118.75 589.19c.95 2.25 1.23 4.78.8 7.18M1282.98 552.64c0 4.48 0 8.96 0 13.43M1275.81 572.34c-3.58 0-7.17 0-10.75 0M1287.39 573.03c3.78-1.22 7.97-1.15 11.71.21M1282.14 579.48c.95 2.25 1.23 4.78.8 7.18M1119.58 629.47c0 4.48 0 8.96 0 13.43M1112.42 649.18c-3.58 0-7.17 0-10.75 0M1124 649.87c3.78-1.22 7.97-1.15 11.71.21M1118.75 656.32c.95 2.25 1.23 4.78.8 7.18M874.05 559.7c0 4.48 0 8.96 0 13.43M866.89 579.41c-3.58 0-7.17 0-10.75 0M878.47 580.1c3.78-1.22 7.97-1.15 11.71.21M873.22 586.55c.95 2.25 1.23 4.78.8 7.18M874.05 626.82c0 4.48 0 8.96 0 13.43M866.89 646.53c-3.58 0-7.17 0-10.75 0M878.47 647.22c3.78-1.22 7.97-1.15 11.71.21M873.22 653.67c.95 2.25 1.23 4.78.8 7.18M736.28 557.93c0 4.48 0 8.96 0 13.43M729.11 577.64c-3.58 0-7.17 0-10.75 0M740.69 578.33c3.78-1.22 7.97-1.15 11.71.21M735.44 584.78c.95 2.25 1.23 4.78.8 7.18"
    class="colorStroke0e1a2b svgStroke"></path>
  <g>
    <rect width="645.69" height="240.35" x="720.75" y="216.23" fill="#ffffff" stroke="#c9c3bc"
      stroke-miterlimit="10" stroke-width="7" class="colorfff svgShape colorStrokec9c3bc svgStroke"></rect>
    <rect width="160.45" height="160.45" x="1127.1" y="254.23" fill="#f4e8d9"
      class="colorf4e8d9 svgShape"></rect>
    <circle cx="872.17" cy="334.45" r="72.53" fill="#e2cbac" class="colore2cbac svgShape"></circle>
    <polygon fill="#f4e8d9"
      points="968.26 246.12 1019.26 334.45 1070.25 422.78 968.26 422.78 866.27 422.78 917.27 334.45"
      class="colorf4e8d9 svgShape"></polygon>
    <circle cx="1078.27" cy="334.45" r="74.68" fill="#e2cbac" class="colore2cbac svgShape"></circle>
  </g>
  <g>
    <path fill="#35281f"
      d="M640.94,188.21c-19.26,16.7-9.07,31.62-20.76,54.48c-7.39,14.45-33.62,34.3-33.62,60.53
c0,9.69,7.22,17.08,14.9,22.78c7.68,5.7,20.22,8.28,29.48,10.44c23.32,5.42,48.62,7.96,71.57,1.09
c10.66-3.19,23.4-7.77,25.54-36.81c1.93-26.18-17.11-41.93-23.68-67.32c-2.13-8.24,10.02-35.1,5.81-42.47
C695.78,165.68,661.55,170.33,640.94,188.21z"
      class="color35281f svgShape"></path>
    <path fill="none" stroke="#696c70" stroke-linecap="round" stroke-linejoin="round"
      stroke-miterlimit="10"
      d="M700.74 260.4c.8 7.05 6.07 12.54 9.89 18.47 5.08 7.89 7.8 17.34 7.74 26.78-.05 6.42-1.51 13.12-5.68 17.92M629.57 228.06c-.56 10.88-8.69 21.35-14.83 30.27-6.14 8.92-14.73 16.15-18.79 26.23-4.06 10.08-8.49 19.08-2.32 27.98M614.36 273.63c-2.14 1.63-3.41 4.18-4.36 6.73-3.47 9.31-3.53 19.9-.16 29.25"
      class="colorStroke696c70 svgStroke"></path>
  </g>
  <g>
    <polygon fill="#f79d6b" points="667.73 252.08 660.7 301.29 694.33 304.39 691.43 257.86"
      class="colorf79d6b svgShape"></polygon>
    <polygon fill="#af4e2f" points="693.51 290.28 664.67 271.36 666.65 251.59 691.57 261.52"
      class="coloraf4e2f svgShape"></polygon>
  </g>
  <g>
    <path fill="#35281f"
      d="M712.99,208.85c0.34,24.54-16.15,44.65-42.04,45.02c-25.9,0.37-47.17-19.21-47.51-43.75
c-0.34-24.54,20.38-44.74,46.27-45.11C695.61,164.63,712.65,184.31,712.99,208.85z"
      class="color35281f svgShape"></path>
    <path fill="#f79d6b"
      d="M664.25,178.28c7.6-2.2,15.67-2.82,23.41-1.37c10.48,1.96,23.95,8.18,25.79,26.99
c3.07,31.35-2.03,54.93-17.71,62.34c-12.04,5.69-19.4,3.76-33.39-3.95c-5.2-2.87-13.81-13.46-13.99-19.72l-5.32-15.44
C643.03,227.13,627.96,188.79,664.25,178.28z"
      class="colorf79d6b svgShape"></path>
    <path fill="#35281f"
      d="M633.24,219.62c0,0,57.11-17.65,50.52-50.92c0,0-20.75-5.64-37.34,13.24
C629.85,200.81,633.24,219.62,633.24,219.62z"
      class="color35281f svgShape"></path>
    <polygon fill="#35281f" points="650.66 209.44 650.66 239.83 636.89 217.3"
      class="color35281f svgShape"></polygon>
    <path fill="#35281f"
      d="M683.36,180.89c0,0,7.91,2,14.99,6.7c9.22,6.12,11.99,12.7,17.06,19.29c0,0,5.53-37.64-29.97-38.58
l-13.36,7.83L683.36,180.89z"
      class="color35281f svgShape"></path>
    <path fill="#47392f"
      d="M676.63 177.44c.13 3.76-.58 7.54-2.05 10.99-1.28 3.01-3.12 5.73-5.19 8.24-2.65 3.21-5.79 6.15-9.61 7.71-3.05 1.24-9.04 2.13-11.13-.98 4.61-4.03 11.52-5.88 16.47-10.06C670.17 189.09 674.36 183.74 676.63 177.44zM702.24 182.75c2.35 2.31 4 5.23 5.62 8.12.1-3.56-1.42-6.98-3.46-9.86-1.07-1.5-2.32-2.92-3.94-3.77-3.09-1.61-7.2-.95-10.28.25C693.99 180.12 698.59 179.16 702.24 182.75z"
      class="color47392f svgShape"></path>
    <path fill="none" stroke="#161719" stroke-linecap="round" stroke-linejoin="round"
      stroke-miterlimit="10" stroke-width="1.5"
      d="M684.52,170.99c6.81-2.55,14.87-1.28,20.62,3.25c5.74,4.53,8.98,12.16,8.29,19.53"
      class="colorStroke161719 svgStroke"></path>
  </g>
  <g>
    <polyline fill="none" stroke="#000" stroke-linecap="round" stroke-linejoin="round"
      stroke-miterlimit="10" stroke-width=".809" points="694.83 239.04 698.59 235.92 693.9 227.22"></polyline>
  </g>
  <g>
    <path fill="#ffffff"
      d="M680.46,222.06c0,2.83-1.59,5.13-3.55,5.13c-1.96,0-3.55-2.3-3.55-5.13c0-2.83,1.59-5.13,3.55-5.13
        C678.87,216.93,680.46,219.23,680.46,222.06z"
      class="colorfff svgShape"></path>
    <path
      d="M680.09,221.41c0,1.74-0.91,3.16-2.03,3.16c-1.12,0-2.03-1.41-2.03-3.16c0-1.74,0.91-3.16,2.03-3.16
C679.18,218.26,680.09,219.67,680.09,221.41z"
      fill="#000000" class="color000 svgShape"></path>
  </g>
  <g>
    <path fill="#ffffff"
      d="M710.64,223.27c0,2.83-1.59,5.13-3.55,5.13c-1.96,0-3.55-2.3-3.55-5.13s1.59-5.13,3.55-5.13
    C709.05,218.14,710.64,220.43,710.64,223.27z"
      class="colorfff svgShape"></path>
    <path
      d="M710.56,222.84c0,1.74-0.96,3.16-2.14,3.16c-1.18,0-2.14-1.41-2.14-3.16c0-1.74,0.96-3.16,2.14-3.16
C709.6,219.68,710.56,221.09,710.56,222.84z"
      fill="#000000" class="color000 svgShape"></path>
  </g>
  <g>
    <path
      d="M702.9,206.32c0,0-0.91,3.39,2.63,4c2.69,0.47,5.85,0.71,7.35,1.45c0.86,0.42,1.85,0.04,2.35-0.89l0,0
c0.4-0.75,0.41-1.71-0.01-2.44c-0.84-1.49-4.1-3.79-7.36-4.41C703.67,203.24,702.9,206.32,702.9,206.32z"
      fill="#000000" class="color000 svgShape"></path>
  </g>
  <g>
    <path
      d="M683.64,203.66c0,0,1.23,3.43-3.82,4.16c-3.83,0.55-9.86,2.24-12.02,3.04c-1.23,0.45-2.63,0.1-3.32-0.84l0,0
c-0.56-0.76-0.55-1.73,0.06-2.49c1.23-1.54,7.43-5.33,12.09-6.05C682.61,200.53,683.64,203.66,683.64,203.66z"
      fill="#000000" class="color000 svgShape"></path>
  </g>
  <g>
    <path fill="#ffffff"
      d="M699.17,248.9l-18.03-1.83c0,0,3.13,8.15,8.32,8.89C695.64,256.85,699.17,248.9,699.17,248.9z"
      class="colorfff svgShape"></path>
  </g>
  <g>
    <path fill="#f79d6b"
      d="M633.15,228.81c-1.2,5.18,2.83,12.28,8.48,14.12c5.65,1.84,11.21-0.87,12.41-6.05
c1.2-5.18-2.65-13.23-8.3-15.07C640.1,219.97,634.36,223.63,633.15,228.81z"
      class="colorf79d6b svgShape"></path>
    <path fill="none" stroke="#000" stroke-linecap="round" stroke-linejoin="round"
      stroke-miterlimit="10" stroke-width=".961"
      d="M639.88,229.89c0,0,6.15-1.45,9.38,5.18c0,0-3.82-3.96-6.65-1.94"
      class="colorStroke000 svgStroke"></path>
  </g>
  <g>
    <path fill="#f79d6b"
      d="M561.78,424.72l28.75-49.52l-46.96-7.59c-6.71,14.38-19.38,39.52-23.69,45.57
C516.54,417.87,549.03,455.91,561.78,424.72z"
      class="colorf79d6b svgShape"></path>
    <path fill="#c4d85b"
      d="M540.47,365.65c0,0,27.75-53.32,43.78-63.58c16.03-10.26,35.57-0.43,40.65,15.63
c5.08,16.06-28.71,77.86-28.71,77.86L540.47,365.65z"
      class="colorffc022 svgShape"></path>
    <line x1="540.47" x2="596.18" y1="365.65" y2="395.57" fill="none" stroke="#273533"
      stroke-miterlimit="10" stroke-width="1.5" class="colorStroke273533 svgStroke"></line>
    <line x1="581.54" x2="560.72" y1="387.85" y2="427.48" fill="none" stroke="#273533"
      stroke-miterlimit="10" stroke-width="1.5" class="colorStroke273533 svgStroke"></line>
  </g>
  <g>
    <path fill="#f79d6b"
      d="M786.61,440.56c4.79-10.01,0.07-27.45,0.25-27.4l-7.13-23.43l-36.99,1.9c-0.29,15.37,7.31,34.29,10.31,41.86
c0.88,2.23,7.95,12.36,19.43,15.01C778.02,447.09,783.48,445.46,786.61,440.56z"
      class="colorf79d6b svgShape"></path>
    <path fill="#c4d85b"
      d="M786.05,399.84l-48.36,11.78c0,0-24.49-54.67-29.14-72.7c-5.64-21.88,0.5-38.36,3.1-38.44
  c7.3-0.24,20.89,3.15,28.51,9.77C766.49,333.14,786.05,399.84,786.05,399.84z"
      class="colorffc022 svgShape"></path>
    <path fill="none" stroke="#0a0909" stroke-miterlimit="10" stroke-width="1.5"
      d="M739.43,403.29c12.9-2.78,25.66-6.27,38.21-10.45" class="colorStroke0a0909 svgStroke"></path>
  </g>
  <g>
    <path fill="#f79d6b"
      d="M878.1,380.24c-1.67-1.49-3.38-2.6-5.16-3.43c-12.49,5.24-55.91,20.08-85.68,29.19
c-9.24,2.83-14.81,11.5-19.35,19.34c-5.81,10.02-3.31,20.43,4.57,24.04c23.21,8.39,100.13-46.46,104.44-47.32
c0.83-0.17,1.63-0.3,2.4-0.4C883.1,394.82,884.23,387.05,878.1,380.24z"
      class="colorf79d6b svgShape"></path>
    <path fill="none" stroke="#0a0909" stroke-miterlimit="10"
      d="M775.64,413.49c4.69-5.53,11.81-7.93,18.56-10.1c15.85-5.08,31.7-10.15,47.54-15.23"
      class="colorStroke0a0909 svgStroke"></path>
    <path fill="#c4d85b"
      d="M868.75,375.2l-53.88,17.66l11.48,47.69l59.17-42.39C885.53,398.16,891.71,374.32,868.75,375.2z"
      class="colorffc022 svgShape"></path>
    <polygon fill="#c4d85b" points="872.94 376.82 845.78 384.92 855.06 418.92 886.06 401.29"
      class="coloreaaa1b svgShape"></polygon>
  </g>
  <g>
    <path fill="#c4d85b"
      d="M666.61,288.58c0,0-64.03-2.54-76.71,11.32c-3.82,4.17-10.92,27.47-6.01,55.06
c4.91,27.59,21.82,59.47,20.02,90.1c-0.99,16.81-15.02,57.06-15.02,57.06s133.94,17.26,150.16,5.01
c4.38-3.31-5.99-25.22-6.01-55.06c-0.02-45.34,16.41-83.5,15.02-91.1c-2.31-12.6-23.42-58.03-28.03-63.07
C715.43,292.86,666.61,288.58,666.61,288.58z"
      class="colorffc022 svgShape"></path>
    <path fill="#f79d6b"
      d="M632.93,289.53c-4.49,8.52,22.29,32.98,45.18,31.63c16.81-0.99,34.53-24.49,35.04-27.03
c0,0-16.35-3.04-30.29-5.37C672.29,287.01,632.93,289.53,632.93,289.53z"
      class="colorf79d6b svgShape"></path>
    <polygon fill="#647c4a" points="714.03 295.9 728.05 361.97 748.07 360.97 730.05 300.91"
      class="color5c7ee0 svgShape"></polygon>
    <path fill="#647c4a"
      d="M617.45,290.3c0,0,28.51,72.67,24.51,73.67c-4,1-27.03,3-29.03,0c-2-3-16.02-72.08-16.02-72.08L617.45,290.3
z"
      class="color5c7ee0 svgShape"></path>
    <path fill="#647c4a"
      d="M624.94,342.95l104.11-4l19.02,22.02c0,0-7.39,52.21-11.81,82.24c-0.2,1.36-2.9,10.93-2.65,12.36
c3.67,20.8,16.94,50.04,9.45,71.58c-13.82,39.72-160.17-11.01-160.17-11.01l18.02-87.09L592.9,391L624.94,342.95z"
      class="color5c7ee0 svgShape"></path>
    <polyline fill="none" stroke="#0a0909" stroke-miterlimit="10" stroke-width="1.5"
      points="721.93 334.11 727.31 356.28 744.77 353.59 740.07 338.14"></polyline>
    <ellipse cx="734.94" cy="346.94" fill="none" stroke="#0a0909" stroke-miterlimit="10"
      stroke-width="1.5" rx="3.09" ry="2.65" class="colorStroke0a0909 svgStroke"></ellipse>
    <polyline fill="none" stroke="#0a0909" stroke-miterlimit="10" stroke-width="1.5"
      points="608.41 344.86 615.27 372.55 643.53 363.72 635.88 340.38"></polyline>
    <circle cx="626.31" cy="359.75" r="3.97" fill="none" stroke="#0a0909" stroke-miterlimit="10"
      stroke-width="1.5" class="colorStroke0a0909 svgStroke"></circle>
    <path fill="none" stroke="#0a0909" stroke-miterlimit="10" stroke-width="1.5"
      d="M746.94,366.36c-0.07,0.9-13.73,88.37-13.73,88.37l10.13,40.59"
      class="colorStroke0a0909 svgStroke"></path>
  </g>
  <g>
    <path fill="#647c4a"
      d="M744.07,499.12c-3.52-22.42-90.1,9.67-90.1,9.67l0.67,109.11l3.68,84.67c0,0-0.03,0.33-0.09,0.93
c12.06,19.76,27.64,21.56,40.37,18.67c28.31-3.94,39.17-32.57,39.18-32.61C743.55,659.9,755.08,569.2,744.07,499.12z"
      class="color5c7ee0 svgShape"></path>
  </g>
  <g>
    <path fill="#ffa476"
      d="M711.72,913.51c0.5,0,0.54-0.94,0.54-2.16c-0.23-0.22-0.45-0.45-0.68-0.67c-5.01-5.06-6.4-40.72-6.4-40.72
    l-34.84,1.09c0,0,8.5,30.14,6.53,39.19c0,0.01,0,0.02,0,0.03C687.24,917,699.92,922.35,711.72,913.51z"
      class="colorffa476 svgShape"></path>
    <path fill="#647c4a"
      d="M691.03,668.56c-12.73,2.89-36.26,1.79-35.26,29.93c-0.7,7.32-2.86,64.17-3.93,78.93
    c-1.15,15.97,3.93,97.06,3.93,97.06l59.32,3.95c0,0,15.97-152.93,21.75-182.92C736.87,667.09,704.17,665.06,691.03,668.56z"
      class="color5c7ee0 svgShape"></path>
    <path fill="#ffa476"
      d="M752.86,934.69c-5.01-3.35-9.06-5.56-25.08-12.59c-1.04-0.46-4.85-2.65-6.22-3.41
  c-3.22-1.79-6.45-4.52-9.3-7.33c-3.81-5.46-23.41-14.17-35.39-1.08c-1.05,4.87-0.44,17.34,2.25,21.9c2.69,4.56,5.77,5.7,5.77,5.7
  l69.74,1.02C758.43,938.95,755.92,936.73,752.86,934.69z"
      class="colorffa476 svgShape"></path>
    <path fill="#2e324c"
      d="M721.55,918.68c-18.44,4.3-38.13-0.2-45.76-2.99c-1.06,2.74-5.67,12.17-5.44,19.6
  c0.2,6.29,2.8,12.53,6.53,13.06c16.68,2.38,68.39-0.23,81.24-0.07c1.79,0.02,12.78-3.49,2.96-12.43
  C757.6,932.68,722.93,919.44,721.55,918.68z"
      class="color2e324c svgShape"></path>
  </g>
  <g>
    <path fill="#647c4a"
      d="M688.36,568.56l14.72-70.68l-94.16-17.78c0,0-18.67,7.65-25.92,35c-7.24,27.33-21.42,147.12-20.69,174.21
c-0.68,32.62,32.12,45.62,42.88,47.79c6.66,1.34,29.33,1.09,45.13-24.15c0,0,0.08-0.24,0.12-0.31
C658.8,693.67,687.46,573.58,688.36,568.56z"
      class="color5c7ee0 svgShape"></path>
    <path fill="none" stroke="#0a0909" stroke-miterlimit="10" stroke-width="1.5"
      d="M699.05,512.85c-0.05,0.98-4.39,33.03-11.1,64.15c-8.14,37.75-33.38,124.55-33.38,124.55"
      class="colorStroke0a0909 svgStroke"></path>
  </g>
  <g>
    <path fill="#ffa476"
      d="M542.99,841.22c0,0-6.6,41.32-7.74,42.41c0,0-0.01,0.01-0.01,0.01c2.39,16.3,25.08,19.56,27.88,9.45
    c1.95-6.21,20.41-36.65,20.41-36.65L542.99,841.22z"
      class="colorffa476 svgShape"></path>
    <path fill="#647c4a"
      d="M634.13,665.34c-15.8-9.79-52.35-16.15-70.24,13.11c-0.01,0.03,1.05-1.02,1.04-0.99
    c-7.06,19.4-18.12,69.73-22.94,94.8c-4.82,25.07-21.34,101.72-21.34,101.72l65.75,8.83l63.92-169.86
    C661.55,681.65,639.82,668.86,634.13,665.34z"
      class="color5c7ee0 svgShape"></path>
    <path fill="#ffa476"
      d="M535.23,883.64c-2.63,2.5-13.49,18-16.47,22.83c-4.64,7.52,0.08,19.88,2.87,26.04
  c1.43,3.17-0.28,3.16,3.31,4.18c10.64,3.02,24.85-4.53,29.95-13.91c2.85-5.24,5.92-20.71,8.12-29.36
  c0.02-0.09,0.07-0.21,0.1-0.32C558.12,884.12,546.58,881.48,535.23,883.64z"
      class="colorffa476 svgShape"></path>
    <path fill="#2e324c"
      d="M557.82,916.37c-16.91,2.77-27.64-13.04-33.08-19.69c-17.16,15.22-21.31,34.04-18.51,40.23
  c2.46,5.45,21.2,13.92,27.54,14.14c6.7,0.23,13.75-13.13,17.36-18.42C552.82,930.15,556.27,920.07,557.82,916.37z"
      class="color2e324c svgShape"></path>
  </g>
  <g>
    <path fill="#f79d6b"
      d="M556.98,417.6l38.21,51.77l-6.66,25.68c0,0-58.05-34.77-66.88-55.37c-3.13-7.3-9.64-17.48-1.77-25.61
  C527.75,405.93,556.98,417.6,556.98,417.6z"
      class="colorf79d6b svgShape"></path>
    <path fill="#c4d85b"
      d="M589.65,497.97c0,0,8.83-9.72,8.83-15.01s0.88-14.13,0.88-14.13l-22.96-34.44l-36.21,31.8L589.65,497.97z"
      class="colorffc022 svgShape"></path>
    <path fill="#c4d85b"
      d="M599.37,468.82l-10.96-15.59l-11.94,35.53l13.19,9.21c0,0,7.07-7.07,10.6-15.9
  C603.79,473.24,599.37,468.82,599.37,468.82z"
      class="colore89613 svgShape"></path>
    <line x1="556.98" x2="572.14" y1="417.6" y2="437.56" fill="none" stroke="#273533"
      stroke-miterlimit="10" stroke-width="1.5" class="colorStroke273533 svgStroke"></line>
    <path fill="#c4d85b"
      d="M586.91,468.82c1.69-5.8,3.92-12.26,9.39-14.83c3-1.41,6.46-1.35,9.76-1.05c7.16,0.66,14.22,2.34,20.9,4.99
  c1.05,0.42,2.16,0.91,2.79,1.85c1.13,1.68,0.17,4.13-1.51,5.27s-3.81,1.31-5.84,1.4c-4.05,0.17-8.12,0.15-12.17-0.07
  c6.13,3.23,11.77,7.38,16.68,12.26c1.08,1.07,2.18,2.31,2.31,3.82c0.21,2.43-2.32,4.4-4.76,4.51c-2.44,0.11-4.73-1.07-6.89-2.23
  c1.66,1.18,3.36,2.42,4.36,4.19c0.99,1.77,1.05,4.25-0.43,5.65c-1.18,1.12-2.97,1.27-4.6,1.13c-2.02-0.17-4.01-0.68-5.86-1.51
  c1.21,1.7,2.46,3.5,2.63,5.58c0.16,2.08-1.25,4.43-3.33,4.48c-0.76,0.02-1.5-0.26-2.21-0.54c-5.68-2.21-11.37-4.42-17.05-6.64
  c-1.91,4.68-2.32,4.61-5.1,8.83c-3.27-5.64-6.77-8-3.17-13.45c-1.11-3.15-0.62-6.6-0.11-9.9
  C583.45,477.72,585.54,473.53,586.91,468.82z"
      class="colorffc022 svgShape"></path>
    <path fill="none" stroke="#273533" stroke-miterlimit="10" stroke-width="1.5"
      d="M595.98 485.84c4.76 2 9.52 3.99 14.28 5.99M598.43 475.41c5.92 3.68 14.91 6.08 20.83 9.75"
      class="colorStroke273533 svgStroke"></path>
    <path fill="#ffa476" d="M598.14,462.35c3.72,1.9,15.08,2.6,19.2,3.28"
      class="colorffa476 svgShape"></path>
  </g>
  <g>
    <rect width="12.87" height="489.5" x="840.23" y="332.79" fill="#808ba0" stroke="#000"
      stroke-miterlimit="10" transform="rotate(-173.241 846.628 577.497)"
      class="color808ba0 svgShape colorStroke000 svgStroke"></rect>
    <rect width="17.16" height="30.2" x="866.42" y="323.34" fill="#e29037"
      transform="rotate(-173.241 874.956 338.405)" class="colore29037 svgShape"></rect>
    <rect width="21.45" height="150.98" x="801.07" y="796.39" fill="#e29037" stroke="#000"
      stroke-miterlimit="10" transform="rotate(-173.241 811.756 871.825)"
      class="colore29037 svgShape colorStroke000 svgStroke"></rect>
    <rect width="15.01" height="14.3" x="796.99" y="926.28" fill="#ffffff"
      transform="rotate(-173.241 804.465 933.372)" class="colorfff svgShape"></rect>
    <path fill="#617fbc"
      d="M794.48,276.83c-0.7,1.54-1.38,3.19-1.14,4.86c0.23,1.67,1.75,3.28,3.41,2.99c-1.97,1.25-4.1,2.71-4.67,4.97
c-0.57,2.26,1.71,5.11,3.81,4.08c-0.23,1.49-1.45,2.59-2.53,3.63c-1.09,1.04-2.19,2.33-2.09,3.83c0.1,1.5,2.23,2.67,3.16,1.48
c-2.02,3.99-4.04,7.98-6.06,11.97c1.85,2.58,6.55,2.07,7.8-0.85c1.08-2.53,0.45-6.59,3.16-7.08c-1.09,5.54-1.36,11.23-0.81,16.85
c1.74,0.88,3.75,1.22,5.69,0.97c0.12-5,0.69-9.99,1.69-14.89c0.82,0.35,1.64,0.69,2.46,1.04c-1.48,4.18-1.01,9,1.26,12.81
c1.1,1.63,3.81,1.25,5.09-0.24c1.28-1.49,1.52-3.59,1.68-5.55c0.15-1.96,0.32-4.05,1.5-5.61c2.99,1.62,1.1,6.2,1.78,9.54
c0.74,3.61,5.59,5.61,8.66,3.58c0.01-3.98,0.39-7.97,1.13-11.88c1.09-0.2,2.24-0.14,3.3,0.17c-0.81,3.39-1.05,6.91-0.7,10.38
c0.12,1.19,0.38,2.5,1.35,3.21c1.7,1.24,4.19-0.47,4.75-2.49c0.56-2.03-0.01-4.18,0-6.28c0.01-2.1,1.01-4.56,3.08-4.91
c-0.76,3.25-1.52,6.66-0.67,9.9c0.85,3.23,3.87,6.16,7.17,5.68c1.45-1.76,2.05-4.2,1.58-6.43c0.86,1.89,1.73,3.77,2.59,5.66
c1.77-4.73,2.76-9.76,2.92-14.81c0.83,0.07,1.67,0.13,2.5,0.2c-0.42,5.77-0.14,11.59,0.81,17.3c1.64-0.71,3.03-1.97,3.89-3.54
c1.42,2.31,3.87,4.96,6.32,3.82c3.24-1.51,1.11-6.81,3.05-9.82c-0.06,3.61,0.72,7.22,2.25,10.49c1.36-1.37,2.96-2.49,4.71-3.3
c0.29,1.21,0.6,2.49,1.46,3.39c0.86,0.91,2.44,1.26,3.34,0.4c0.74-0.71,0.74-1.86,0.75-2.89c0.04-4.73,1.41-9.44,3.92-13.45
c-0.61,4.16-1.22,8.32-1.83,12.48c-0.22,1.53-0.43,3.19,0.31,4.55c1.48,2.71,5.85,2.28,7.88-0.05c2.02-2.33,2.34-5.63,2.57-8.71
c2.06,3.33,2.64,7.55,1.55,11.31c3.05-0.53,5.52-3.41,5.58-6.51c2.73,1.35-1.26,6.91,1.48,8.25c1.49,0.73,2.98-0.97,3.76-2.43
c0.28,1.17,0.55,2.33,0.83,3.5c3.05-3.87,5.48-8.24,7.15-12.88c-0.12,3.49-0.23,6.98-0.35,10.47c-0.06,1.78,0.58,4.24,2.34,4.03
c1.1-0.13,1.7-1.32,2.1-2.35c1.76-4.47,3.51-8.94,5.27-13.41c-0.08,3.73-0.15,7.46-0.23,11.2c-0.03,1.57,0.21,3.56,1.71,4.04
c2.1,0.67,3.32-2.25,3.98-4.36c1.09-3.48,3.52-6.53,6.67-8.37c0.23,4.43,0.47,8.86,0.7,13.3c1.72,0.52,3.76-0.63,4.2-2.37
c0.66,1.08,1.36,2.21,2.44,2.87c1.08,0.66,2.67,0.68,3.47-0.3c0.4-0.49,0.54-1.15,0.65-1.78c0.48-2.87,0.46-5.83-0.07-8.7
c-0.39-2.14-0.17-5.39,1.99-5.22c-0.01,5.72,0.98,11.44,2.93,16.82c1.06,0.4,2.26-0.41,2.7-1.46c0.44-1.04,0.31-2.23,0.18-3.35
c-0.45-3.8-0.89-7.59-1.34-11.39c4.83,0.56,3.4,9.78,8.06,11.18c0.8-1.95,0.5-4.16,0.23-6.25c-0.27-2.09-0.46-4.34,0.53-6.2
c0.99-1.86,3.63-2.98,5.29-1.67c-0.25-4.41-1.46-8.75-3.53-12.65c2.26-0.8,4.52-1.59,6.77-2.39c-4.48-9.94-8.11-20.27-10.83-30.82
c-0.39-1.5-0.97-3.23-2.45-3.68c-0.73-0.22-1.52-0.06-2.28,0.08c-8.37,1.48-16.83-1.22-25.26-2.35
c-11.2-1.5-22.57-0.22-33.86-0.69c-13.3-0.56-26.35-3.56-39.52-5.49c-12.74-1.87-25.63-2.74-38.51-2.61
c-3.16,0.03-6.32,0.12-9.47,0.28c-2.42,0.12-7.08-0.47-9.19,0.79C798.85,264.76,796.13,273.2,794.48,276.83z"
      class="color617fbc svgShape"></path>
    <path fill="#3d4f72" stroke="#000" stroke-miterlimit="10"
      d="M951.77,301.81c-0.97,2.95-2.21,5.9-4.37,8.12c-4.55,4.69-11.85,5.03-18.37,4.89
c-36.53-0.79-72.75-7.21-108.19-16.12c-3.4-0.86-7.04-1.89-9.24-4.62c-2.31-2.88-2.43-6.92-2.02-10.58
c0.55-4.96,1.87-9.81,3.53-14.52c43.32-0.96,86.55,4.23,129.28,11.38c3.44,0.58,11.17,0.9,12.37,4.54
C956.19,289.22,953.12,297.67,951.77,301.81z"
      class="color3d4f72 svgShape colorStroke000 svgStroke"></path>
    <path fill="#617fbc"
      d="M956.09,278.94c-0.06,3.08-0.14,6.28-1.56,9.02c-1.42,2.73-4.59,4.82-7.55,3.96
c-2.22-0.65-3.75-2.8-4.32-5.05c-0.57-2.25-0.34-4.61-0.11-6.92c-0.79,3.1-1.58,6.19-2.37,9.29c-3.01,1.61-7.03,0.21-9-2.58
c-1.97-2.78-2.15-6.54-1.21-9.81c-0.6,2.2-1.2,4.4-1.81,6.6c-0.44,1.61-1.09,3.46-2.68,3.99c-0.7,0.24-1.46,0.16-2.19,0.08
c-4.05-0.43-8.1-0.87-12.15-1.3c-0.58-0.06-1.19-0.14-1.64-0.51c-0.48-0.41-0.65-1.06-0.76-1.68c-0.53-2.76-0.6-5.61-0.21-8.39
c-0.65-0.61-1.52-1-2.41-1.06c-0.65,3.44-1.29,6.88-1.94,10.33c-0.11,0.56-0.24,1.17-0.67,1.54c-0.34,0.29-0.8,0.37-1.24,0.43
c-2.17,0.3-4.47,0.19-6.43-0.78s-3.51-2.96-3.54-5.15c-0.03-2.9,2.27-6.39,0.08-8.3c-1.85,1.5-2.1,4.16-2.49,6.51
c-0.39,2.35-1.48,5.05-3.81,5.51c-1.81,0.36-3.64-0.92-4.49-2.56c-0.85-1.64-0.95-3.56-0.96-5.41c-2.71,1.31-4.9,3.63-6.06,6.41
c-0.32,0.76-0.7,1.69-1.52,1.8c-0.41,0.06-0.81-0.12-1.19-0.29c-1.53-0.69-3.09-1.41-4.28-2.59c-1.19-1.18-1.94-2.96-1.46-4.56
c0.36-1.22,1.39-2.34,1.1-3.58c-0.39-1.65-2.94-1.82-4.13-0.61c-1.19,1.21-1.36,3.07-1.43,4.77c-0.07,1.7-0.18,3.54-1.3,4.82
c-1.57,1.8-4.36,1.67-6.74,1.39c-2.19-0.26-4.72-0.74-5.73-2.7c-1.02-1.98,0.08-4.32,0.44-6.51c0.37-2.19-1.04-5.2-3.17-4.58
c-0.39,3.87-1.12,7.7-2.19,11.43c-3.49,0.74-6.8-1.18-8.97-4c-2.17-2.83-2.56-6.92-0.95-10.1c-0.71-1.18-2.62-1-3.57,0
c-0.95,1-1.18,2.46-1.38,3.83c-0.47,3.31-0.94,6.61-1.41,9.92c-2.82-0.1-6.25-0.6-7.29-3.22c-0.3-0.74-0.34-1.56-0.36-2.36
c-0.07-2.83,0.08-5.67,0.47-8.48c-1.9,0.1-3.26,1.98-3.68,3.84c-0.42,1.86-0.21,3.81-0.53,5.69c-0.1,0.61-0.33,1.28-0.89,1.54
c-0.46,0.21-1,0.06-1.48-0.09c-4.22-1.31-8.39-2.79-12.49-4.43c-0.82-0.33-1.67-0.7-2.17-1.42c-0.53-0.77-0.53-1.77-0.48-2.71
c0.42-7.41,3.25-14.66,7.96-20.39c0.7-0.85,1.5-1.71,2.55-2.05c0.85-0.27,1.76-0.18,2.64-0.09
c51.65,5.59,103.45,11.19,154.09,22.8c0.95,0.22,1.93,0.46,2.68,1.08c0.93,0.77,1.32,2,1.63,3.17c1.65,6.2,2.25,12.67,1.77,19.07
c-0.11,1.52-0.54,3.35-2,3.77c-0.76,0.22-1.57-0.04-2.33-0.3c-2.43-0.84-4.86-1.68-7.3-2.52c0.6-3.7,0.71-7.49,0.32-11.22
c-0.21,3.2-1.14,6.35-2.69,9.16c-2.15-1.23-2.37-4.25-1.94-6.69C955.59,283.24,957.14,281.19,956.09,278.94z"
      class="color617fbc svgShape"></path>
    <path fill="#c4d85b"
      d="M862.82,400.75c-3.17-0.68-6.75-1.63-8.51-4.43c-2.27-3.62,0.98-8.69,5.09-7.95
  c-3.35-0.83-6.85-1.73-9.58-3.97c-2.74-2.24-4.39-6.26-2.77-9.05c1.83-3.13,6.39-3.07,10.2-2.68c-4.37-0.73-8.5-4.82-8.4-9.14
  c0.1-4.32,5.37-7.42,9.22-4.98c-1.54,1.16-3.92-1.56-3.23-3.39c0.68-1.83,2.81-2.53,4.72-3.05c3.68-1,7.36-1.99,11.03-2.99
  c4.76-1.29,13.44-0.76,17.12,3.05c2.66,2.75,0.12,5.29,0.89,8.91c0.73,3.44,2.29,4.84,2.2,8.27c-0.1,3.43-1.47,5.51-4.96,5.32
  c2.2,0.97,5,4.93,4.99,7.23c-0.01,2.3-4.15,6.72-3.73,8.98C890.3,407.87,877.35,403.85,862.82,400.75z"
      class="colorffc022 svgShape"></path>
    <path fill="none" stroke="#000" stroke-miterlimit="10" stroke-width="1.5"
      d="M857.3 387.37c7.57.42 15.1 1.51 22.48 3.26M853.94 371.49c9 1.31 18 2.62 27.01 3.93M857.22 358.39c7.81-.51 15.64-.65 23.46-.43"
      class="colorStroke000 svgStroke"></path>
  </g>
  <g>
    <path fill="#647c4a"
      d="M1108.98,735.55c-0.2-27.91-1.12-55.83-1.85-83.73c-0.75-28.69-9.77-66.39,16.19-86.09
c13.54-10.27,30.78-15.9,47.71-14.37c3.09,0.28,6.26,0.82,8.92,2.42c12.44,7.47,9.35,35.13,10.07,47.89
c1.38,24.4,1.78,48.94,0.14,73.35c-1.07,15.86,0.93,29.03-1.8,58.63c-6.72,24.19-38.48,27.08-46.61,26.12
C1124.1,757.69,1109.24,756.75,1108.98,735.55z"
      class="color5c7ee0 svgShape"></path>
  </g>
  <g>
    <path fill="#2e324c"
      d="M1136.76,900.53l-25.63-0.23c-0.93-0.01-1.64,0.69-1.7,1.68l-3.47,29.45c-0.15,2.28,1.81,4.46,3.96,4.44
  c8.92-0.09,14.5-0.52,25.77-0.42c6.93,0.06,35.36-0.64,44.94-0.56c9.36,0.08,11.17-16,7.12-16.97
  c-18.16-4.33-40.67-10.29-47.07-15.84C1139.52,901.09,1138.13,900.54,1136.76,900.53z"
      class="color2e324c svgShape"></path>
    <path fill="#647c4a"
      d="M1149.6,694.04c8.19,0,25.21-2.79,37.84,34.2c-6.76,73.09-34.63,176.33-34.63,176.33l-53.77-0.43
  c0,0,11.33-106.52,10.82-178.31C1115.17,710.76,1139.2,694.69,1149.6,694.04z"
      class="color5c7ee0 svgShape"></path>
    <polygon fill="#5b6eb2" points="1099.99 904.57 1157.04 904.57 1160.2 891.64 1097.24 893.66"
      class="color5b6eb2 svgShape"></polygon>
  </g>
  <g>
    <polygon fill="#d66c43" points="1129.22 250.29 1137.71 332.07 1097.07 337.22 1100.57 259.9"
      class="colord66c43 svgShape"></polygon>
    <polygon fill="#af4e2f" points="1099.02 310 1133.06 285.21 1129.79 252.2 1100.41 265.97"
      class="coloraf4e2f svgShape"></polygon>
  </g>
  <g>
    <path fill="#263256"
      d="M1080.24,222.4c-1.17,23.81,14.48,43.91,40.12,45.17c25.64,1.26,39.37-18.89,40.54-42.7
c1.17-23.81-14.29-44.04-39.93-45.3C1095.33,178.31,1081.41,198.59,1080.24,222.4z"
      class="color263256 svgShape"></path>
    <path fill="#d66c43"
      d="M1129.56,194.42c-7.45-2.4-15.43-3.28-23.14-2.14c-10.45,1.54-25.53-1.54-28,16.66
c-4.11,30.33-4.12,71.38,11.16,79.13c11.73,5.94,29.63,7,42.72-1.77c7.94-5.31,10.42-22.83,10.81-28.91l5.8-14.81
C1148.92,242.58,1165.16,205.88,1129.56,194.42z"
      class="colord66c43 svgShape"></path>
    <polygon fill="#263256" points="1146.41 202.43 1138.99 252.05 1154.65 244.05"
      class="color263256 svgShape"></polygon>
    <path fill="#263256"
      d="M1139.53,207.94c0.97,8.43,1.94,16.85,2.9,25.28c0.09,0.78,0.2,1.61,0.72,2.19
c0.58,0.65,1.52,0.82,2.38,0.89c5.68,0.5,11.8-1.87,14.75-6.74c2.27-3.75,2.43-8.41,1.84-12.74c-1.43-10.41-7-20.2-15.23-26.74
c-8.23-6.54-19.03-9.75-29.49-8.78c-5.32,0.49-10.5,2.02-15.51,3.88c-5.45,2.03-10.76,4.49-15.56,7.77
c-2.5,1.71-4.88,3.66-7.69,4.8c-2.79,1.14-5.96,1.31-8.61-0.28c3.98,11.39,16.49,13.18,27.21,14.21
C1100.98,212.04,1139.98,211.81,1139.53,207.94z"
      class="color263256 svgShape"></path>
  </g>
  <g>
    <polyline fill="none" stroke="#000" stroke-linecap="round" stroke-linejoin="round"
      stroke-miterlimit="10" stroke-width=".809"
      points="1097.96 258.28 1094.33 255.13 1099.28 246.84"></polyline>
  </g>
  <g>
    <path fill="#ffffff"
      d="M1079.87,242.69c-0.3,2.9,1.11,5.42,3.15,5.64c2.05,0.21,3.95-1.96,4.25-4.86c0.3-2.9-1.11-5.42-3.15-5.64
  C1082.07,237.62,1080.17,239.79,1079.87,242.69z"
      class="colorfff svgShape"></path>
    <path fill="#263256"
      d="M1079.88,243.35c-0.19,1.78,0.75,3.34,2.09,3.48c1.34,0.14,2.58-1.19,2.77-2.97
c0.19-1.78-0.75-3.34-2.09-3.48S1080.07,241.57,1079.88,243.35z"
      class="color263256 svgShape"></path>
  </g>
  <g>
    <path fill="#ffffff"
      d="M1110.52,243.84c-0.29,3.33,1.38,6.19,3.73,6.39c2.35,0.2,4.49-2.33,4.78-5.65
    c0.29-3.33-1.38-6.19-3.73-6.39C1112.95,237.98,1110.81,240.51,1110.52,243.84z"
      class="colorfff svgShape"></path>
    <path fill="#263256"
      d="M1110.2,244.31c-0.18,2.05,0.93,3.81,2.46,3.95s2.93-1.42,3.11-3.46c0.18-2.05-0.92-3.81-2.46-3.95
C1111.77,240.71,1110.37,242.26,1110.2,244.31z"
      class="color263256 svgShape"></path>
  </g>
  <g>
    <path fill="#263256"
      d="M1091.07,226.24c0,0,0.79,3.32-2.74,3.79c-2.68,0.36-5.81,0.49-7.33,1.16c-0.86,0.38-1.83-0.02-2.29-0.94l0,0
c-0.37-0.74-0.35-1.67,0.09-2.37c0.89-1.41,4.19-3.53,7.44-4.02C1090.42,223.22,1091.07,226.24,1091.07,226.24z"
      class="color263256 svgShape"></path>
  </g>
  <g>
    <path fill="#263256"
      d="M1110.24,224.32c0,0-1.33,3.29,3.65,4.17c3.78,0.67,9.69,2.52,11.81,3.37c1.2,0.48,2.6,0.18,3.32-0.7l0,0
c0.58-0.71,0.6-1.66,0.02-2.42c-1.17-1.54-7.18-5.43-11.77-6.3C1111.37,221.32,1110.24,224.32,1110.24,224.32z"
      class="color263256 svgShape"></path>
  </g>
  <g>
    <path fill="#ffffff"
      d="M1092.96,266.91l16.86-1.57c0,0-3.19,11.08-8.4,10.28C1096.2,274.82,1092.96,266.91,1092.96,266.91z"
      class="colorfff svgShape"></path>
  </g>
  <g>
    <path fill="#d66c43"
      d="M1161.6,246.55c1.16,5.92-3.7,13.81-10.18,15.67c-6.48,1.86-12.67-1.43-13.83-7.35
c-1.16-5.92,3.53-14.89,10-16.75S1160.44,240.63,1161.6,246.55z"
      class="colord66c43 svgShape"></path>
    <path fill="none" stroke="#000" stroke-linecap="round" stroke-linejoin="round"
      stroke-miterlimit="10" stroke-width=".961"
      d="M1153.92,247.51c0,0-6.92-1.89-10.84,5.5c0,0,4.49-4.33,7.61-1.94"
      class="colorStroke000 svgStroke"></path>
  </g>
  <g>
    <path fill="#c15a3a"
      d="M1173.45,464.4c0,0,80.14-46.54,86.04-47.48c5.91-0.94,10.23,24.52,10.23,24.52s-57.06,62.72-67.12,62.71
c-4.67-0.01-20.65,0.73-29.15-15.9C1168.62,478.8,1173.45,464.4,1173.45,464.4z"
      class="colorc15a3a svgShape"></path>
    <path fill="#cbdd71"
      d="M1257.59,414.08l-33.8,21.18l26.5,34.44c0,0,19.23-19.68,30.91-38.86c11.45-18.79,15.35-37.08,15.9-37.98
C1298.21,391.06,1257.59,414.08,1257.59,414.08z"
      class="colorf4b019 svgShape"></path>
    <line x1="1223.79" x2="1206.7" y1="435.26" y2="446.07" fill="none" stroke="#0a0909"
      stroke-miterlimit="10" stroke-width="1.5" class="colorStroke0a0909 svgStroke"></line>
  </g>
  <g>
    <path fill="#c15a3a"
      d="M1209.66,388.45c0,0,8.65,63.11,8.13,67.03s-0.81,24.62-11.67,28.36c-12.55,4.32-29.3-3.66-33.56-10.6
c-4.26-6.94-4.78-76.2-6.28-85.96C1165.72,383.57,1209.66,388.45,1209.66,388.45z"
      class="colorc15a3a svgShape"></path>
    <path fill="#c4d85b"
      d="M1184.05,319.56c6.86,1.27,14.22,5.95,23.3,26.54c9.08,20.59,16.98,65.17,16.98,65.17l-61.89,9.18
c0,0-8.27-54.39-4.89-72.63S1172.76,317.47,1184.05,319.56z"
      class="colorffc022 svgShape"></path>
    <line x1="1224.32" x2="1162.44" y1="411.27" y2="420.45" fill="none" stroke="#0a0909"
      stroke-miterlimit="10" stroke-width="1.5" class="colorStroke0a0909 svgStroke"></line>
    <line x1="1212.52" x2="1217.45" y1="412.48" y2="451.89" fill="none" stroke="#0a0909"
      stroke-miterlimit="10" stroke-width="1.5" class="colorStroke0a0909 svgStroke"></line>
  </g>
  <g>
    <path fill="#d66c43"
      d="M1081.6,304.55c0,0,26.5,0.88,40.63,0.88c14.13,0,30.91,4.42,30.91,4.42s-7.07,26.5-38.86,24.73
C1096.52,333.59,1081.6,304.55,1081.6,304.55z"
      class="colord66c43 svgShape"></path>
    <path fill="#c4d85b"
      d="M1081.6,304.55c0,0,18.31,22.8,42.39,23.85c20.31,0.88,27.13-19.28,27.13-19.28s27.04,7.67,34.7,10.45
c9.72,3.53,9.88,19.23,10.6,37.09c0.88,22.08-12.36,152.79-12.36,152.79l-147.49,14.13c0,0,12.19-86.18-0.88-125.41
c-3.53-10.6-21.31-66.24-15.01-81.25C1028.65,297.84,1081.6,304.55,1081.6,304.55z"
      class="colorffc022 svgShape"></path>
    <path fill="#647c4a"
      d="M1074.53 301.9c0 0 7.07 95.39 2.65 98.04-4.42 2.65-22.96 2.65-22.96 2.65s-2.65-95.39 1.77-97.15C1060.4 303.66 1074.53 301.9 1074.53 301.9zM1154.9 308.08c0 0-5.3 89.2-1.77 90.97 3.53 1.77 16.78 1.77 17.66 0 .88-1.77 2.65-85.67 0-86.55C1168.15 311.61 1154.9 308.08 1154.9 308.08z"
      class="color5c7ee0 svgShape"></path>
    <path fill="#647c4a"
      d="M1061.28,351.36c0,0,38.86,9.72,54.76,8.83c15.9-0.88,54.76-4.42,54.76-4.42s9.98,25.04,15.9,36.21
c7.95,15.01,9.72,20.31,9.72,20.31l-11.48,110.4l-148.38-0.88c0,0-2.65-112.17,0-121
C1037.36,398.14,1061.28,351.36,1061.28,351.36z"
      class="color5c7ee0 svgShape"></path>
    <polyline fill="none" stroke="#0a0909" stroke-miterlimit="10" stroke-width="1.5"
      points="1153.85 336.13 1152.51 369.71 1172.66 371.06 1171.99 347.55"></polyline>
    <polyline fill="none" stroke="#0a0909" stroke-miterlimit="10" stroke-width="1.5"
      points="1053.24 346.35 1054.44 375.97 1079.83 373.44 1077.13 342.47"></polyline>
    <circle cx="1163.73" cy="360.19" r="3.53" fill="none" stroke="#0a0909" stroke-miterlimit="10"
      stroke-width="1.5" class="colorStroke0a0909 svgStroke"></circle>
    <circle cx="1065.7" cy="363.72" r="3.53" fill="none" stroke="#0a0909" stroke-miterlimit="10"
      stroke-width="1.5" class="colorStroke0a0909 svgStroke"></circle>
    <line x1="1195.95" x2="1193.71" y1="372.18" y2="405.32" fill="none" stroke="#0a0909"
      stroke-miterlimit="10" stroke-width="1.5" class="colorStroke0a0909 svgStroke"></line>
  </g>
  <g>
    <path fill="#647c4a"
      d="M1187.58,496.2l2.65,92.74c0,0-75,44.58-82.1,42.6c-7.1-1.98-88-48.36-88-48.36
c-2.12-16.32,16.42-79.91,16.42-79.91L1187.58,496.2z"
      class="color5c7ee0 svgShape"></path>
  </g>
  <g>
    <path fill="#2e324c"
      d="M983.96,895.99c0,0-27.77,42.89-22.84,50.88s45.76,3.55,50.3,0.89c4.54-2.66,14.46-45.24,11.09-48.79
S983.96,895.99,983.96,895.99z"
      class="color2e324c svgShape"></path>
    <path fill="#647c4a"
      d="M996.63,694.96c-9.64,69.86-24.51,199.26-24.57,199.79c0,0,50.81,8.87,50.81,8.87c0,0,0.52,8.05,0.52,8.04
  c0.14-0.52,45.34-141.23,55.32-196.31c0.03-66.1-33.29-68.86-55.74-55C1004.84,671.55,996.66,694.77,996.63,694.96z"
      class="color5c7ee0 svgShape"></path>
    <polygon fill="#5b6eb2" points="1026.83 913.38 967.06 907.17 968.52 893.11 1029.16 901.64"
      class="color5b6eb2 svgShape"></polygon>
  </g>
  <g>
    <path fill="#647c4a"
      d="M1109.44,586.32c-1.36-12.56-10.16-25.62-19.48-33.22c-11.44-9.32-27.42-13.3-41.55-9.07
c-28.36,8.49-29.03,41.73-34.08,65.93c-6.23,29.91-12.49,59.81-18.92,89.67c-3.52,49.17,50.05,59.4,72.16,39.89
c10.37-14.19,11.83-24.19,11.93-24.49c9.92-30.42,17.32-61.67,23.7-93.01c1.98-9.74,5.88-21.1,6.4-30.94
C1109.67,589.51,1109.62,587.92,1109.44,586.32z"
      class="color5c7ee0 svgShape"></path>
    <polyline fill="none" stroke="#0a0909" stroke-miterlimit="10" stroke-width="1.5"
      points="1108.85 593.4 1094.4 662.68 1077.95 720.36"></polyline>
  </g>
  <g>
    <path fill="#d66c43"
      d="M1030.91,386.89c0,0-10.49,69.59-12.39,73.4c-1.91,3.81-5.72,19.06-18.11,19.06
c-14.33,0-23.77-5.49-25.68-14.07c-1.91-8.58,13.29-82.21,15.19-92.69C990.65,368.61,1030.91,386.89,1030.91,386.89z"
      class="colord66c43 svgShape"></path>
    <path fill="#c4d85b"
      d="M1022.42,312.49c0,0-5.3-0.88-21.2,22.08c-15.9,22.96-28.26,76.84-28.26,76.84s67.88,11.85,68.89,8.83
c1.77-5.3,8.83-61.82,8.83-61.82S1049.1,314.38,1022.42,312.49z"
      class="colorffc022 svgShape"></path>
    <polyline fill="none" stroke="#0a0909" stroke-miterlimit="10" stroke-width="1.5"
      points="972.96 411.41 1040.97 422.01 1049.51 373.52"></polyline>
    <line x1="1025.78" x2="1019.06" y1="419.65" y2="458.16" fill="none" stroke="#0a0909"
      stroke-miterlimit="10" stroke-width="1.5" class="colorStroke0a0909 svgStroke"></line>
  </g>
  <g>
    <path fill="none" stroke="#161616" stroke-miterlimit="10" stroke-width="21"
      d="M1079.83,549.19c0,0-99.33,75.07-102.45,163.68c-6.62,188.28,139.1,189.16,256.57,190.93"
      class="colorStroke161616 svgStroke"></path>
  </g>
  <g>
    <path fill="#445193"
      d="M1363.18,361.46l13.4,4.6c0,0-10,31.22-15.36,32.66c-5.37,1.44-13.75-10.03-13.75-10.03L1363.18,361.46z"
      class="color445193 svgShape"></path>
    <path fill="#3a3d44"
      d="M1066.45,547.28c0,0,243.88-177.72,248.95-180.66c5.08-2.94,47.56-21.27,49.29-9.41
  c1.73,11.86-3.19,15.89-6.08,26.22c-2.9,10.34-9.21,12.36-9.21,12.36l-22.09-15.5c0,0-240.8,176.17-242.8,177.56
  C1082.52,559.25,1067.6,570.24,1066.45,547.28z"
      class="color3a3d44 svgShape"></path>
    <path fill="#c4d85b"
      d="M1274.11,399.46c-1.13-2.69-2.27-5.82-1.1-8.56c1.5-3.53,6.92-3.74,8.48-0.32
  c-1.11-2.9-2.24-5.94-1.99-9.11c0.25-3.17,2.37-6.46,5.26-6.69c3.25-0.26,5.55,3.13,7.22,6.15c-1.7-3.6-0.81-8.75,2.43-10.89
  c3.24-2.14,8.23,0.16,8.41,4.25c-1.65-0.54-0.86-3.69,0.84-4.13c1.7-0.44,3.31,0.77,4.67,1.91c2.62,2.2,5.25,4.4,7.87,6.61
  c3.4,2.85,7.46,9.53,6.54,14.2c-0.67,3.37-3.84,2.81-6.12,5.23c-2.16,2.3-2.4,4.18-4.98,5.87c-2.58,1.69-4.82,1.74-6.47-0.92
  c0.41,2.13-1.07,6.22-2.77,7.4c-1.7,1.18-7.09,0.39-8.54,1.86C1282.96,423.39,1279.29,411.77,1274.11,399.46z"
      class="colorffc022 svgShape"></path>
    <path fill="none" stroke="#000" stroke-miterlimit="10" stroke-width="1.5"
      d="M1281.15 388.52c3.58 5.8 6.64 11.92 9.13 18.26M1291.14 377.88c3.66 7.31 7.31 14.63 10.97 21.94M1302.5 373.57c4.38 5.5 8.51 11.21 12.36 17.09"
      class="colorStroke000 svgStroke"></path>
  </g>
  <g>
    <path fill="#d66c43"
      d="M1014.31,447.75c0,0,103.68,40.49,108.14,45.72c4.46,5.23-6.66,24.79-6.66,24.79
  s-130.16-21.03-136.13-30.88c-2.77-4.57-9.45-23.02-1.39-30.04C987.56,449.24,1014.31,447.75,1014.31,447.75z"
      class="colord66c43 svgShape"></path>
    <polygon fill="#c4d85b" points="1112.73 488.22 1060.95 464.13 1043.42 507.48 1102.85 518.02"
      class="colorffc022 svgShape"></polygon>
    <line x1="1056.68" x2="1015.03" y1="464.88" y2="449.2" fill="none" stroke="#0a0909"
      stroke-miterlimit="10" stroke-width="1.5" class="colorStroke0a0909 svgStroke"></line>
    <path fill="#c4d85b"
      d="M1103.68,486.48c0,0,31.11-4.08,33.21-3.7c2.1,0.38,32.32,6.98,28.22,11.65c-4.1,4.67-7.25,4.09-10.59,4.57
  c-3.34,0.47-12.58-2.3-12.58-2.3l12.1,10.88c0,0,3.04,13.31,0.27,16.31c-0.74,0.81-4.39,0.28-4.39,0.28s-2.01,5.05-6.2,4.29
  c-4.19-0.77-4.19-0.77-4.19-0.77s-1.81,4-4.96,3.43s-5.91-3.25-5.91-3.25s0.09,5.43-3.05,4.86c-3.15-0.57-5.05-2.01-5.05-2.01
  l-5.14-7.44c0,0-13.82-1.44-14.58-9.16C1100.07,506.41,1099.96,489.06,1103.68,486.48z"
      class="colorffc022 svgShape"></path>
    <path fill="none" stroke="#0a0909" stroke-miterlimit="10" stroke-width="1.5"
      d="M1124.27 520.88c1.91 1.92 3.46 4.19 4.55 6.67M1134.12 518.63c1.52 2.22 3.03 4.45 4.55 6.67M1142.55 512.03c3.32 2.8 5.85 6.52 7.25 10.63"
      class="colorStroke0a0909 svgStroke"></path>
  </g>
  <g>
    <path fill="none"
      d="M1364.26,811.41h-0.68v0.62c0.32,0.02,0.63,0.03,0.96,0.04l-0.03-0.87L1364.26,811.41z"></path>
    <path fill="#b3b9c6"
      d="M1490.78,837.8c0.03,0.04,0.06,0.07,0.1,0.11v-38.78c0-6.45-5.23-11.68-11.68-11.68h-32.07
    c3.44,1.98,6.65,4.25,9.54,6.84C1473.56,809.51,1484.71,826.79,1490.78,837.8z"
      class="colorb3b9c6 svgShape"></path>
    <path fill="#ffffff"
      d="M1490.88,837.98v-0.07c-0.03-0.04-0.06-0.07-0.1-0.11C1490.81,837.86,1490.85,837.92,1490.88,837.98z"
      class="colorfff svgShape"></path>
    <path fill="#2b323a"
      d="M1273.92,786.77c-10.95,5.48-10.95,15.06-10.95,15.06h-4.11l-4.11,20.53h2.74l2.74-10.95l2.05-0.05v-2.01
    h56.98l2.56-29.43C1321.83,779.92,1284.87,781.29,1273.92,786.77z"
      class="color2b323a svgShape"></path>
    <path fill="#ffffff"
      d="M1493.25 842.47c2.09 4.1 3.1 6.58 3.1 6.58S1495.57 846.32 1493.25 842.47zM1493.25 842.47c-.68-1.33-1.47-2.84-2.37-4.49v.96C1491.8 840.18 1492.59 841.37 1493.25 842.47z"
      class="colorfff svgShape"></path>
    <path fill="#b5c5e2" stroke="#000" stroke-miterlimit="10"
      d="M1344.41,809.35v2.05v53.35c0,4.17-3.38,7.56-7.56,7.56h-8.15c-4.17,0-7.56-3.38-7.56-7.56v-53.35v-2.05
    h-0.65l-0.03,0.68l-1.25,0.03l0.06-0.71h-56.98v2.01v68.49h49.28v-3.42h39.52h12.5v-64.4v-0.62v-2.05H1344.41z"
      class="colorb5c5e2 svgShape colorStroke000 svgStroke"></path>
    <polygon fill="#989dd8" points="1320.49 809.35 1319.27 809.35 1319.21 810.06 1320.46 810.04"
      class="color989dd8 svgShape"></polygon>
    <rect width="6.84" height="4.11" x="1254.07" y="888.74" fill="#282f37"
      class="color282f37 svgShape"></rect>
    <path fill="#282f37"
      d="M1381.37,905.17v1.18l-2.84,5.02l-5.02,8.86h-44.16h-6.74l-8.78-15.06l-0.8-1.37h-41.18h-8.21h-2.74v-9.58
    v-1.37h-6.84h-26.01v26.01h26.01v4.11h6.84v5.48l19.13,5.48h39.62c3.84,0,7.15-2.24,8.71-5.48h88.58v-12.42v-10.85H1381.37z"
      class="color282f37 svgShape"></path>
    <rect width="49.28" height="3.42" x="1262.28" y="879.85" fill="#ffffff"
      class="colorfff svgShape"></rect>
    <rect width="5.48" height="3.42" x="1311.56" y="879.85" fill="#ffffff" class="colorfff svgShape"></rect>
    <path fill="#c4d85b" stroke="#000" stroke-miterlimit="10"
      d="M1495.39,845.4c-9.02-23-29.94-43.19-38.73-51.1c-2.88-2.6-6.1-4.86-9.54-6.84c0,0-1.72-0.96-2.36-1.3
    c-27.14-14.25-66.25-12.13-71.66-11.75c-0.36,0.02-1.62,0.2-2.21,0.24c-3.68,0.29-12.68-0.05-14.84-9.78
    c-2.45-11.04-3.81-27.57-4.06-30.89c-0.03-0.34-0.3-0.61-0.64-0.63l-20.69-1.29c-0.35-0.02-0.66,0.22-0.72,0.57l-8.1,47.26
    c0,0.03-0.01,0.06-0.01,0.08l0-0.04l-2.56,29.43h1.22h0.65v2.05h0.68c-0.38,0-0.68,0.31-0.68,0.68v51.98
    c0,4.55,3.69,8.24,8.24,8.24h6.78c4.55,0,8.24-3.69,8.24-8.24v-51.98c0-0.38,0-0.68,0-0.68s0.31-2.05,0.68-2.05h17.79
    c0.38,0,0.68,0.31,0.68,0.68v1.37h0.68l0.25-0.2l0-0.06c0,0.03,0,0.06,0,0.06l0.03,0.87c-0.33-0.01-0.65-0.03-0.96-0.04v63.71
    c0,0.38,0.31,0.68,0.68,0.68c-0.38,0-0.68,0.31-0.68,0.68v-0.68h-12.5c-0.03,0.82-0.06,1.63-0.1,2.44
    c0.02-0.57,0.05-1.14,0.07-1.72c0.02-0.39-0.29-0.72-0.68-0.72h-38.12c-0.38,0-0.68,0.31-0.68,0.68v2.05
    c0,0.38,0.31,0.68,0.68,0.68h4.11c0.38,0,0.68,0.31,0.68,0.68v2.05c0,0.38,0.31,0.68,0.68,0.68c-0.38,0-0.68,0.31-0.68,0.68
    v-0.68h-5.48v0.68c0-0.38-0.31-0.68-0.68-0.68h-47.91c-0.38,0-0.68-0.31-0.68-0.68v-2.05c0-0.38-0.31-0.68-0.68-0.68
    c-0.38,0-0.68,0.31-0.68,0.68v7.53c0,0.38,0.31,0.68,0.68,0.68h-0.68v4.11v1.37v9.58h2.74v-0.68c0,0.38,0.31,0.68,0.68,0.68
    h6.84c0.38,0,0.68-0.31,0.68-0.68c0,0.38,0.31,0.68,0.68,0.68h40.49l0.8,1.37c0,0,0.33,0.57,0.6,1.03c0,0,8.33,14.03,8.57,14.03
    h50.1c0.25,0,0.47-0.13,0.6-0.35c0,0,7.97-14.71,8.35-14.71h34.22c0.38,0,0.68,0.31,0.68,0.68v9.55c0,0.35,0.26,0.64,0.6,0.68
    l56.53,6.83c0.23,0.03,0.45-0.06,0.6-0.23l25.61-29.65c0.1-0.12,0.16-0.27,0.17-0.43
    C1500.49,891.02,1503.71,866.64,1495.39,845.4z M1350.79,883.93c0,0.02,0,0.04,0,0.05c0.02-0.39-0.3-0.72-0.68-0.72h0.05
    c0.37,0,0.67-0.28,0.68-0.65c0.02-0.61,0.05-1.24,0.07-1.86c-0.03,0.85-0.07,1.69-0.1,2.51h0.66
    C1351.1,883.27,1350.8,883.56,1350.79,883.93z"
      class="colorffc022 svgShape colorStroke000 svgStroke"></path>
    <circle cx="1434.76" cy="892.17" r="52.7" fill="#2e324c" class="color2e324c svgShape"></circle>
    <circle cx="1434.76" cy="893.53" r="30.8" fill="#c6cde8" transform="rotate(-22.5 1434.69 893.5)"
      class="colorc6cde8 svgShape"></circle>
    <circle cx="1434.76" cy="892.85" r="13.69" fill="#2e324c"
      transform="rotate(-80.781 1434.773 892.827)" class="color2e324c svgShape"></circle>
    <rect width="99.92" height="7.88" x="1261.6" y="876.08" fill="#282f37"
      class="color282f37 svgShape"></rect>
  </g>
</svg>