<svg xmlns="http://www.w3.org/2000/svg" enable-background="new 0 0 1625.529 1450"
  viewBox="0 0 1625.529 1450" width="550" height="550">
  <path fill="#fdefde"
    d="M1285.52,1353.187c0,0,129.448-417.193,48.73-729.716c-16.94-65.588-87.962-248.362-248.362-346.672		c-138.016-84.59-821.665-66.23-902.383,204.899c-80.718,271.129,112.798,603.313,76.578,626.08
  c-36.219,22.767-84.857,7.244-100.38,43.463c-19.635,45.815,44.071,203.864,44.071,203.864L1285.52,1353.187z"
    class="colorfdefde svgShape"></path>
  <polygon fill="#ecd6bc" points="829.344 912.811 269.342 927.719 270.274 228.882 824.685 229.813"
    class="colorecd6bc svgShape"></polygon>
  <rect width="438.87" height="655.044" x="328.044" y="261.494" fill="#cde5ec"
    class="colorcde5ec svgShape"></rect>
  <path fill="#b4d9e2"
    d="M765.347,686.726c-2.007-0.004-4.018,0.072-5.983,0.064c-5.579-0.023-11.157-0.045-16.736-0.068
      c-10.83-0.044-21.659-0.088-32.489-0.132c-21.659-0.088-43.318-0.139-64.977-0.203c-3.798-0.011-6.743,3.156-6.863,6.862
      c-1.198,37.054-0.702,74.125,1.378,111.12c-0.248,22.8-0.623,45.674,0.416,68.382c0.054,1.17,0.338,2.176,0.785,3.025
      c-0.505,3.226,1.437,6.83,5.839,7.137c23.625,1.65,47.596,0.701,71.27,0.774c15.777,0.049,31.571,0.175,47.359,0.131V686.726z"
    class="colorb4d9e2 svgShape"></path>
  <path fill="#b4d9e2"
    d="M707.211 680.766c-.609-15.285-1.219-61.318-1.828-76.603-.011-17.991.043-36.001-.61-53.98-.061-1.678-.697-2.956-1.631-3.845-.792-1.898-2.575-3.426-5.358-3.657-11.352-.94-23.08-.147-34.474-.147h-19.467c-9.339-.431-18.682-.763-28.029-.978-12.982-.298-25.969-.388-38.954-.271-5.01.045-10.898-.643-15.373 2.017-.422.074-.846.14-1.266.23-3.082.66-4.305 3.866-3.693 6.569-.717 2.817-.616 5.943-.469 8.933.175 3.572.405 7.142.67 10.711-.953 64.785-.578 129.594-.562 194.384.005 19.917-.215 39.848.281 59.759.19 7.632 11.673 7.645 11.864 0 .639-25.619.497-51.277.377-76.922.6 20.193 1.077 40.39 1.543 60.586.083 3.617 2.8 5.873 6.22 6.22 13.673 1.387 27.345 2.775 41.018 4.162 5.571.565 13.155 2.742 18.548.85 1.961-.688 3.517-1.897 4.549-3.368 2.613-.144 4.948-1.898 4.656-5.336-3.802-44.804-5.568-59.037-4.782-103.998 8.629-.306 17.257-.613 25.886-.919 11.453.031 22.967.097 34.354-.836 2.453-.201 4.032-1.547 4.742-3.222C709.758 696.312 707.44 686.515 707.211 680.766zM520.729 695.749c-.031-25.094.188-50.223-.625-75.305-.102-3.153-2.245-4.904-4.617-5.257-.468-.323-1-.589-1.613-.763-6.558-1.866-14.181-.892-20.949-.901-7.382-.009-14.764-.036-22.146-.027-7.087.009-14.174.077-21.261.119-5.799.034-11.71-.078-17.51.507-.102-6.13-.268-12.25-.269-18.297-.003-15.93-.007-31.86-.01-47.79-.003-15.93-.025-31.86-.084-47.79-.059-15.901.311-31.915-.703-47.79-.219-3.432-2.744-5.172-5.303-5.225-.826-.485-1.827-.798-3.012-.853-17.556-.811-35.284-.106-52.859-.07-14.91.031-30.164-.623-45.124.344v259.735c17.901-.478 35.803-.956 53.704-1.433-.872 8.959-1.706 17.922-2.496 26.888-.285 3.23 3.084 6.396 6.225 6.225l126.268-6.886c-.035 13.293-.038 26.585.091 39.875.077 7.916 12.226 7.929 12.303 0C520.983 745.956 520.76 720.848 520.729 695.749z"
    class="colorb4d9e2 svgShape"></path>
  <rect width="23.211" height="16.069" x="662.009" y="560.309" fill="#cde5ec"
    class="colorcde5ec svgShape"></rect>
  <rect width="23.211" height="16.069" x="612.016" y="594.233" fill="#cde5ec"
    class="colorcde5ec svgShape"></rect>
  <rect width="23.211" height="16.069" x="647.725" y="612.087" fill="#cde5ec"
    class="colorcde5ec svgShape"></rect>
  <rect width="23.211" height="16.069" x="600.41" y="680.828" fill="#cde5ec"
    class="colorcde5ec svgShape"></rect>
  <rect width="25.815" height="17.872" x="659.353" y="716.853" fill="#cde5ec"
    class="colorcde5ec svgShape"></rect>
  <rect width="23.211" height="16.069" x="389.725" y="466.773" fill="#cde5ec"
    class="colorcde5ec svgShape"></rect>
  <rect width="23.211" height="16.069" x="469.179" y="635.499" fill="#cde5ec"
    class="colorcde5ec svgShape"></rect>
  <rect width="23.211" height="16.069" x="359.372" y="506.053" fill="#cde5ec"
    class="colorcde5ec svgShape"></rect>
  <rect width="25.815" height="17.872" x="727.861" y="700.967" fill="#cde5ec"
    class="colorcde5ec svgShape"></rect>
  <rect width="25.815" height="17.872" x="711.975" y="782.382" fill="#cde5ec"
    class="colorcde5ec svgShape"></rect>
  <path fill="#ffffff"
    d="M781.823,252.176c-2.795-4.659-464.96-3.727-468.687,0c-3.727,3.727,1.864,667.157,1.864,667.157
    l468.212-8.172C783.212,911.161,784.619,256.835,781.823,252.176z M534.435,872.278c-2.329,2.33-191.947,0.932-191.947,0.932
    l-1.863-191.016c0,0-7.569-404.541-2.795-408.121c3.727-2.795,196.606-1.864,198.47-0.932
    C540.025,275.005,538.191,868.522,534.435,872.278z M753.404,872.278c-2.795,3.727-171.448,0.932-171.448,0.932l-1.864-191.016
    c0,0-0.917-49.024-1.912-113.085c9.495-8.496,18.655-17.548,27.436-26.609c5.607-5.786-2.86-14.116-8.792-8.792
    c-6.359,5.707-12.721,11.589-18.916,17.636c-1.785-118.529-3.573-275.05-0.612-277.271c3.727-2.795,176.107-1.864,177.971-0.932
    C758.995,275.005,757.357,867.007,753.404,872.278z"
    class="colorfff svgShape"></path>
  <path fill="#e3e3e3"
    d="M554.158,632.317c0.006-80.355,0.014-160.711,0.014-241.066V255.266c0-1.194-1.856-1.196-1.856,0
    c0,80.355-0.004,160.71,0.003,241.066c0.007,80.355,0.013,160.71,0.02,241.066c0.004,45.326-0.194,90.66,0.127,135.986
    c0.007,1.002,1.551,1.004,1.558,0C554.59,793.034,554.151,712.668,554.158,632.317z"
    class="colore3e3e3 svgShape"></path>
  <path fill="#f1b257"
    d="M751.324,486.53c-13.199-12.629-23.526-21.188-26.375-19.757c-2.849,1.43-0.706,7.484-4.448,21.016
  c-3.742,13.532-16.561,16.737-19.41,22.434c-2.849,5.698-1.068,13.532,4.985,27.776c6.054,14.244-3.206,31.337,1.958,43.444
  c5.164,12.107,11.93,27.817,14.422,30.645c2.493,2.828,7.478-8.923,16.024-16.045c8.546-7.122,12.107-7.999,14.6-7.026
  c2.493,0.973,5.547-39.266,5.266-52.798C758.066,522.686,751.324,486.53,751.324,486.53z"
    class="colorf1b257 svgShape"></path>
  <path fill="#ead2b5"
    d="M1356.114 710.556c.301-2.619-16.38-53.625 2.402-55.443 18.782-1.818 10.135 50.253 10.135 50.253s74.348-104.207 90.012-90.464c15.665 13.743-74.15 90.963-74.15 90.963s118.073-46.108 131.373-23.35c13.3 22.757-114.248 35.935-114.248 35.935s165.989 56.253 127.878 87.686c-38.111 31.432-135.932-75.347-135.932-75.347s130.562 145.041 101.362 168.213c-29.2 23.172-123.667-158.84-123.667-158.84s45.966 153.876 16.71 154.488c-29.257.612-27.787-150.457-27.787-150.457s-11.247 120.757-36.981 113.815 24.34-119.25 24.34-119.25-60.417 40.805-67.17 18.801c-6.754-22.004 67.669-34.663 67.669-34.663s-38.676-9.759-31.376-15.552C1323.984 701.551 1356.114 710.556 1356.114 710.556zM1186.206 794.298c0 0 50.241-46.765 40.996-55.519-9.246-8.754-46.01 43.407-46.01 43.407s7.126-95.304-13.504-105.369c-20.63-10.065.609 94.913.609 94.913s-48.193-115.77-78.842-116.735c-30.649-.965 63.517 116.252 63.517 116.252s-119.41-98.335-159.249-86.259 130.548 90.645 130.548 90.645-126.49-14.56-120.547 11.757c5.942 26.317 129.602 9.792 129.602 9.792s-80.699 33.005-57.73 56.156c22.968 23.15 92.756-59.814 92.756-59.814s-35.545 63.836-15.206 76.431C1173.484 882.55 1186.206 794.298 1186.206 794.298z"
    class="coloread2b5 svgShape"></path>
  <path fill="#ead2b5"
    d="M1217.27,1210.659c0.488-3.496,52.689-372.213,140.747-470.103l-4.9-4.407
        c-37.599,41.798-72.51,130.634-103.759,264.041c-9.667,41.269-17.459,80.621-23.27,112.561
        c1.69-29.234,3.073-64.232,3.035-100.134c-0.133-122.57-16.014-196.86-47.203-220.806l-4.014,5.228
        c70.855,54.398,33.184,409.45,32.824,412.813L1217.27,1210.659z"
    class="coloread2b5 svgShape"></path>
  <path fill="#ead2b5"
    d="M1217.916,1210.277c0.307-1.526,34.198-174.466,86.748-199.016l-2.79-5.97
        c-23.512,10.984-45.406,45.101-65.074,101.401c-14.499,41.501-25.266,101.898-25.345,102.287L1217.916,1210.277z"
    class="coloread2b5 svgShape"></path>
  <path fill="#ead2b5"
    d="M1295.145,998.894c0,0,47.273-70.534,56.294-52.916c9.021,17.618-43.01,53.526-43.01,53.526
        s92.096-11.949,87.868,8.747c-4.228,20.696-77.45,0.743-77.45,0.743s110.492,60.167,90.902,94.289
        c-19.59,34.121-95.917-78.75-95.917-78.75s33.043,60.911,14.744,75.84c-18.299,14.929-29.496-75.698-29.496-75.698
        s-9.605,75.336-26.683,63.697c-17.078-11.639,16.3-69.499,16.3-69.499s-40.463,11.454-36.164-1.866
        C1256.831,1003.688,1295.145,998.894,1295.145,998.894z"
    class="coloread2b5 svgShape"></path>
  <polygon fill="#ecd6bc"
    points="1126.147 1221.861 1335.483 1232.989 1339.907 1185.818 1127.538 1176.011"
    class="colorecd6bc svgShape"></polygon>
  <path fill="#ead2b5"
    d="M1319.474,1214.36c0,0-19.488,147.678-28.721,151.067c-9.232,3.389-129.226-1.696-132.821-7.06
      c-3.594-5.364-12.544-153.26-12.544-153.26L1319.474,1214.36z"
    class="coloread2b5 svgShape"></path>
  <path fill="#ecd6bc"
    d="M1003.427 373.884c-3.06-4.668-6.5-9.921-9.308-20.059.059-.004.119-.006.178-.01 5.204-.324 5.214-7.772 0-8.096-.825-.051-1.665-.093-2.499-.138-.05-.274-.109-.537-.155-.816-3.821-22.929-.7-33.665-12.792-35.399.258-41.094.113-82.193.115-123.287.002-43.476 1.031-87.097-.06-130.558-.065-2.594-3.966-2.598-4.032 0-1.091 43.461-.062 87.082-.06 130.558.002 41.007-.143 82.018.113 123.025-.022 0-.043-.001-.066-.001v.022c-15.495.464-11.59 11.034-15.691 35.64-.056.336-.125.652-.186.98-.783.062-1.573.115-2.348.188-4.925.464-4.935 7.205 0 7.67.43.04.87.067 1.302.104-2.899 8.159-6.538 13.387-9.769 18.021-4.537 6.506-8.455 12.125-7.976 22.654 1.082 23.785 23.144 30.432 34.651 30.624 0 0 .188.004.504.004.048 0 .101 0 .155 0 .159 0 .313-.001.464-.01l.001.004c4.964-.081 19.742-2.384 28.387-11.937 4.844-5.352 6.966-12.067 6.308-19.959C1009.878 383.727 1006.888 379.165 1003.427 373.884zM981.383 376.081c-.038-1.086-1.464-1.213-1.826-.247-.564 1.505-.705 3.206-.376 4.797-.122.33-.27.633-.477.863-.151.702-.645.787-1.482.255-.277.077-.504.097-.702.085.639-2.158.644-4.434-.42-5.433-.395-.37-1.19-.376-1.447.186-.655 1.431-1.027 3.928-.435 5.794-.484 1.275-1.49 3.105-3.045 1-.102-.138-.169-.302-.244-.459.985-2.089 1.118-4.967.785-6.763-.138-.743-1.294-.874-1.628-.213-1.045 2.075-1.45 4.281-1.016 6.569-.032.081-.063.161-.095.241-.859-.119-1.718-.239-2.576-.358.068.066-.192-1.565-.295-2.188.361-4.248 1.39-8.106 2.856-12.278 1.548-4.407 1.824-8.516 1.451-13.047l9.597-.309c-2.455 9.703 4.255 18.836 3.361 28.591-.761.771-1.821-1.788-2.283-3.061C981.371 378.597 981.417 377.063 981.383 376.081zM1001.244 410.249c-7.604 8.403-21.188 10.492-25.357 10.561l-.481.003c-.077 0-.148 0-.208-.001l-.276-.004c-.916-.015-9.176-.272-17.1-4.615-8.464-4.639-12.985-12.042-13.438-22.003-.414-9.107 2.791-13.703 7.227-20.064 3.38-4.848 7.189-10.31 10.268-18.966l6.819-.22c.166 2.157.294 4.335.043 6.481-.305 2.604-1.23 5.079-2.115 7.529-1.631 4.518-2.852 9.222-2.449 14.071.057.683.692.959 1.188.816.597 1.393 1.637 2.3 3.605 1.296.274-.14.52-.324.75-.53.555 1.186 1.454 2.198 2.858 2.061 1.118-.109 2.137-1.098 2.916-2.428.409.286.899.485 1.506.541 1.45.134 2.432-.633 3.096-1.781.188.302.401.592.639.865.943 1.077 2.74 1.735 3.743.855.281-.074.522-.259.588-.594 1.999-10.15-5.92-19.495-3.371-29.602l8.194-.264c3.022 11.233 6.893 17.138 10.03 21.926 3.278 5.002 5.867 8.953 6.562 17.272C1007.037 400.143 1005.276 405.793 1001.244 410.249zM1119.746 546.246c-.783-9.38-3.773-13.941-7.234-19.223-3.06-4.668-6.5-9.921-9.307-20.059.059-.004.119-.006.178-.01 5.204-.324 5.214-7.772 0-8.096-.825-.051-1.665-.093-2.499-.138-.05-.274-.109-.537-.155-.816-3.821-22.929-.7-33.665-12.792-35.399.258-41.094.113-82.193.115-123.287.002-43.476 1.031-190.938-.061-234.399-.065-2.594-3.966-2.598-4.032 0-1.091 43.461-.062 190.923-.06 234.399.001 41.007-.143 82.018.113 123.025-.022 0-.043-.001-.066-.001v.022c-15.494.464-11.59 11.034-15.691 35.64-.056.336-.125.652-.186.98-.783.063-1.573.115-2.348.188-4.925.464-4.935 7.205 0 7.67.43.04.87.067 1.302.104-2.899 8.159-6.538 13.387-9.769 18.021-4.537 6.506-8.455 12.125-7.976 22.654 1.082 23.785 23.144 30.432 34.651 30.623 0 0 .187.004.504.004.048 0 .101 0 .155 0 .159 0 .313-.001.464-.01l.001.004c4.964-.081 19.742-2.384 28.387-11.937C1118.282 560.854 1120.405 554.138 1119.746 546.246zM1090.296 529.054c-.037-1.058-1.426-1.182-1.779-.241-.55 1.466-.687 3.122-.366 4.672-.119.322-.263.617-.464.841-.147.684-.628.767-1.443.248-.27.075-.491.095-.684.083.622-2.101.627-4.319-.41-5.292-.384-.361-1.159-.366-1.409.182-.638 1.394-1 3.826-.423 5.644-.471 1.242-1.452 3.024-2.966.974-.1-.135-.165-.294-.237-.448.959-2.034 1.089-4.838.764-6.587-.134-.724-1.261-.852-1.585-.207-1.018 2.021-1.412 4.17-.99 6.398-.031.078-.062.157-.092.235-.836-.116-1.673-.232-2.509-.349.066.064-.187-1.524-.287-2.131.351-4.138 1.354-7.895 2.781-11.959 1.552-4.417 1.789-8.528 1.377-13.096l9.477-.306c-2.679 9.598 4.062 18.606 3.179 28.239-.742.751-1.773-1.742-2.224-2.981C1090.284 531.505 1090.329 530.01 1090.296 529.054zM1110.329 563.388c-7.603 8.403-21.188 10.491-25.357 10.561l-.481.003c-.077 0-.147 0-.208-.001l-.276-.004c-.916-.015-9.176-.272-17.1-4.615-8.464-4.639-12.985-12.042-13.438-22.003-.414-9.107 2.791-13.703 7.226-20.064 3.38-4.848 7.189-10.31 10.268-18.966l6.946-.224c.175 2.227.331 4.481.072 6.701-.297 2.537-1.198 4.947-2.06 7.333-1.589 4.401-2.778 8.982-2.386 13.705.055.665.674.934 1.157.795.582 1.357 1.594 2.24 3.511 1.262.267-.136.506-.316.73-.516.541 1.155 1.417 2.141 2.784 2.008 1.089-.106 2.082-1.069 2.84-2.364.398.278.876.472 1.466.527 1.412.131 2.369-.616 3.015-1.735.183.294.39.576.623.842.918 1.049 2.669 1.69 3.646.833.274-.072.509-.252.573-.578 1.962-9.958-5.884-19.119-3.233-29.045.017-.064.009-.119.012-.178l8.312-.268c3.022 11.233 6.893 17.138 10.03 21.926 3.278 5.002 5.867 8.953 6.562 17.272C1116.123 553.282 1114.361 558.932 1110.329 563.388z"
    class="colorecd6bc svgShape"></path>
  <path fill="#606172"
    d="M841.091,1361.796c-0.11,8.497-96.77,8.867-196.545,8.867s-196.545-1.21-196.545-8.128
    c0-13.382,113.764-9.135,213.539-9.135C832.963,1353.401,841.182,1354.739,841.091,1361.796z"
    class="color606172 svgShape"></path>
  <path fill="#857796"
    d="M1015.297,1366.683c0.361,6.219-53.885,6.794-121.278,6.794s-122.351,0.906-122.776-6.794
    c-0.328-5.95,54.883-6.794,122.276-6.794S1014.798,1358.078,1015.297,1366.683z"
    class="color857796 svgShape"></path>
  <path fill="#eb8f64"
    d="M853.771,1259.9c-0.008,0.032-0.016,0.064-0.024,0.096l0.025-0.072
    C853.773,1259.924,853.772,1259.915,853.771,1259.9z"
    class="coloreb8f64 svgShape"></path>
  <path fill="#e89067"
    d="M921.486,1169.051c-0.526,20.926-10.14,52.875-19.267,81.19c-1.013,3.119-2.006,6.187-2.989,9.197
    c-7.022,21.541-13.08,39.825-13.497,47.661c-0.993,18.87,12.911,53.63,9.932,59.589c-2.979,5.959-120.171,6.952-121.164,0
    c-0.993-6.952,8.938-12.911,19.863-18.87c10.925-5.959,45.685-37.74,48.664-45.685c1.708-4.559,3.416-42.427,4.559-73.9
    c0.854-23.408,1.4-43.291,1.4-43.291s1.152-0.874,3.168-2.324C866.218,1172.517,922.351,1134.301,921.486,1169.051z"
    class="colore89067 svgShape"></path>
  <path fill="#d87e51"
    d="M911.24,1220.953c5.55-19.298,9.897-38.025,10.246-51.902c0.813-32.678-48.773-0.834-66.384,11.479
    C872.772,1195.358,892.397,1207.634,911.24,1220.953z"
    class="colord87e51 svgShape"></path>
  <path fill="#eb414c"
    d="M863.387,1341.362c-16.764,0.986-30.429-26.08-30.622-26.464
    c-11.963,12.389-30.86,28.806-38.401,32.919c-10.925,5.959-20.856,11.918-19.863,18.87c0.993,6.952,118.184,5.959,121.164,0
    c2.095-4.191-4.156-22.624-7.707-39.759C875.11,1322.649,880.208,1340.373,863.387,1341.362z"
    class="coloreb414c svgShape"></path>
  <g>
    <path fill="#fff1e0"
      d="M625.615,571.404c-2.172-6.792-3.157-9.423-4.411-9.762c-1.254-0.339-7.725-0.618-8.407-1.435
    s0.915-10.19,2.126-11.895c1.21-1.704,41.001-2.36,41.396-2.551c0.395-0.191,1.263,8.649,0.841,9.14
    c-0.422,0.491-7.013,2.392-7.013,2.392s11.562,21.811,10.99,22.288c-0.572,0.477-3.841,0.713-4.74,0.632
    c-0.899-0.081-13.266-20.531-13.266-20.531l0.04,34.904l-25.113-0.322L625.615,571.404z"
      class="colorfff1e0 svgShape"></path>
    <path fill="#e54854"
      d="M623.813 566.024c.51 1.4 1.088 3.146 1.802 5.38l-6.844 23.451 24.4-.272-.041-34.904.003 2.224L623.813 566.024zM656.32 545.761c-.114.054-3.509.149-8.301.295l1.08 10.311-6.306 2.077.339 1.236c0 0 12.367 20.451 13.266 20.532.899.081 4.168-.155 4.74-.633.571-.477-10.991-22.288-10.991-22.288s6.591-1.901 7.013-2.391S656.715 545.57 656.32 545.761zM623.621 598.179c-15.783 17.617-15.838 48.971-14.52 57.852 1.317 8.88 3.046 19.913 4.74 24.597 1.694 4.684 17.445 7.61 25.265 8.01 7.82.4 21.465-3.51 22.608-4.465 1.143-.955 7.484-32.865 5.266-43.488-2.218-10.623-17.847-26.681-22.617-29.073C639.592 609.218 623.621 598.179 623.621 598.179z"
      class="colore54854 svgShape"></path>
  </g>
  <g>
    <path fill="#d87e51"
      d="M791.844,598.302c3.391-1.962,7.418,5.679,10.809,3.717c-0.323,0.194-2.692-5.484-2.835-5.825
    c-1.474-3.524-2.054-7.327-3.606-10.728c-4.084-8.949-8.421-17.791-12.629-26.682c-1.832-3.872-3.677-7.775-4.711-11.932
    c-0.662-2.66-0.975-5.394-1.657-8.048c-0.62-2.413-2.125-4.281-2.751-6.609c-0.45-1.672-0.536-3.652-1.425-5.165
    c-1.178-2.005-3.772-2.813-5.023-4.773c-1.096-1.717-0.978-4.042-2.224-5.653c-1.122-1.451-3.101-1.99-4.329-3.352
    c-1.861-2.063-1.467-5.168-1.995-7.696c-0.664-3.177-1.248-6.368-1.818-9.563c-0.54-3.145-1.11-6.51-3.954-8.507
    c-0.168-0.118-2.33-1.202-2.37-0.957c-0.036,0.22-0.081,0.44-0.097,0.662c-0.198,2.821,0.07,5.739,0.017,8.573
    c-0.048,2.561-0.141,5.121-0.236,7.681c-0.198,5.385-0.346,10.768-0.216,16.157c0.063,2.622,0.371,5.248,0.088,7.868
    c-0.106,0.982-0.23,2.386-1.025,3.095c-1.462,1.304-3.258-0.641-3.741-1.97c-0.682-1.877-1.036-3.855-1.616-5.765
    c-0.58-1.91-1.425-3.807-2.886-5.168c-1.461-1.361-3.645-2.082-5.516-1.386c-0.292,0.109-0.59,0.266-0.738,0.541
    c-0.136,0.253-0.119,0.557-0.099,0.844c0.214,2.987,1.031,5.876,1.371,8.879c0.36,3.172,0.525,6.366,0.493,9.558
    c-0.02,2.077-0.122,4.173,0.263,6.213c0.603,3.199,2.704,5.875,4.36,8.613c2.223,3.676,4.693,7.256,6.816,10.958
    c2.1,3.662,3.645,7.605,5.182,11.526c4.356,11.114,8.098,22.776,13.163,33.581c2.315,4.939,5.495,2.568,9.316,0.351
    C781.427,604.322,786.637,601.315,791.844,598.302z"
      class="colord87e51 svgShape"></path>
  </g>
  <g>
    <path fill="#e89067"
      d="M747.507,611.21c-13.276,16.34-35.232,69.954-43.402,67.912c-8.17-2.042-41.87-58.209-41.871-58.21
    c-3.049-5.081-5.318-11.247-6.899-16.952c-1.161-4.189-1.645-8.403-1.403-12.74c0.088-1.585,0.321-3.2,0.273-4.788
    c-0.112-3.669-2.182-8.038-4.43-10.902c-3.337-4.249-6.091-8.779-9.146-13.232c-0.439-0.64-0.953-1.307-1.699-1.523
    c-3.348-0.969-3.805,5.359-3.621,7.253c0.316,3.246,6.928,11.982,1.534,13.684c-2.387,0.753-4.811-1.525-5.76-3.473
    c-0.147-0.301-0.275-0.607-0.39-0.916c-0.2-0.222-0.363-0.5-0.473-0.838c-1.597-4.901-2.56-6.255-2.574-11.332
    c0,0-7.196-3.643-7.457-3.103c-0.805,1.662-1.048,3.649-1.943,5.248c-0.676,1.207-1.596,2.284-1.871,3.674
    c-0.298,1.504,0.568,2.717,0.496,4.146c-0.045,0.875-0.669,1.604-0.936,2.438c-0.637,1.993,0.844,4.056,0.805,6.148
    c-0.035,1.878-1.297,3.662-0.951,5.509c0.186,0.993,0.817,1.842,1.149,2.797c0.703,2.023,0.001,4.259,0.263,6.385
    c0.38,3.072,2.578,4.735,4.213,7.109c1.37,1.988,2.703,4.477,3.546,6.731c0,0,46.977,123.569,74.55,126.633
    c27.573,3.064,74.55-47.998,74.55-47.998S760.783,594.87,747.507,611.21z"
      class="colore89067 svgShape"></path>
    <path fill="#eee3d9"
      d="M717.821,654.172c-6.887,10.884-12.658,21.759-21.271,31.509c-1.539,1.743,0.963,4.297,2.573,2.573
    c8.727-9.349,17.498-20.618,21.309-32.982C720.92,653.687,718.668,652.833,717.821,654.172z"
      class="coloreee3d9 svgShape"></path>
  </g>
  <g>
    <path fill="#c3d85c"
      d="M900.66,703.794c-1.154,3.748-2.298,5.076-1.532,7.302c0.623,1.818,1.164,3.544,1.614,5.177
      c2.288,8.221,2.482,14.256,1.767,18.638c-1.368,8.395-6.086,10.743-6.086,10.743l-117.819,24.459
      c0.051-22.763-4.412-67.636-5.004-77.767c-0.02-0.368-0.041-0.694-0.051-0.97l-6.127,6.127
      c-37.785-14.297-40.339-51.572-40.339-51.572s16.34-30.637,21.446-36.764c5.638-6.766,12.122-15.043,23.029-24.04
      c0.531-0.439,1.082-0.878,1.654-1.328c2.941-2.308,6.271-4.595,10.09-6.852c0.98-0.582,2.012-1.164,3.064-1.736
      c1.532-0.837,3.329-1.889,5.188-3.002c3.625-2.145,7.486-4.514,10.08-5.933c2.042-1.123,10.417-6.127,12.255-7.149
      c11.356-6.26,5.668-6.546,6.138-6.812c0,0,23.836-12.919,42.708,3.973c0.47,0.419,3.838-5.766,4.258-5.331
      c9.286,9.606,19.09,15.787,30.04,22.991c11.113,7.311,20.803,17.316,24.905,30.226c4.606,14.499,0.873,31.141-4.904,44.821
      c-9.702,22.978-14.409,42.013-14.808,46.466C901.886,699.219,901.273,701.834,900.66,703.794z"
      class="colorea4450 svgShape"></path>
    <path fill="#4d6b30"
      d="M785.323 680.122c-.899-.623-2.145-.408-2.767.49-1.961 2.808-5.004 6.444-9.069 10.846l.766-.766c0 0 .112 2.175.245 5.504l11.305-13.307C786.436 681.991 786.221 680.756 785.323 680.122zM793.697 643.276c-.051.511-.49.899-.991.899-.031 0-.061 0-.102-.01-.541-.051-.939-.541-.888-1.083.051-.47 4.432-47.324-19.792-57.679-.143-.061-.265-.153-.367-.276.531-.439 1.082-.878 1.654-1.328 10.356 4.698 17.167 16.411 19.73 33.925C794.881 631.022 793.707 643.154 793.697 643.276z"
      class="colorbd2328 svgShape"></path>
  </g>
  <g>
    <path fill="#7196c6"
      d="M903.285,740.263c0.991,6.444,1.899,10.856,1.991,11.326c0.01,0.031,0.01,0.041,0.01,0.041
    s-28.594,40.849-28.594,67.401c0,26.552-26.552,58.21-29.616,75.571c-0.95,5.392-5.3,19.209-10.846,35.998
    c-12.306,37.265-31.535,91.257-31.535,98.293c0,0,22.549,29.524,38.807,50.04c7.128,9.007,17.361,25.531,17.361,25.531
    c6.23,16.289,0.551,43.351-8.293,67.299c-10.008,27.104-24.019,49.908-29.493,49.121c-7.149-1.021-108.25-149.1-116.42-206.289
    c-2.145-14.992,1.195-37.99,7.332-64.133c0.255-1.093,0.521-2.185,0.776-3.278c2.461-10.182,5.321-20.813,8.425-31.587
    c0.327-1.113,0.654-2.237,0.97-3.35c16.411-56.178,39.082-115.869,46.507-139.888c1.266-4.095,2.094-7.159,2.369-8.987
    L903.285,740.263z"
      class="color7196c6 svgShape"></path>
    <path fill="#7196c6"
      d="M936.434,1174.929c0,0-17.514,8.752-83.864-3.166c-1.624-0.296-3.288-0.602-4.983-0.919
    c0,0,1.818-33.19,1.011-81.668c-0.756-44.577-3.727-102.062-12.367-158.577c0,0,0,0,0-0.01c-0.612-4.003-1.246-7.996-1.92-11.989
    c-17.882-106.422-3.666-150.969,0.153-160.405c0.541-1.338,0.868-1.971,0.868-1.971l12.831-10.698c0,0,60.729,2.243,61.862,5.837
    c1.409,4.483,28.451,45.71,29.473,117.196C940.098,910.538,941.54,1151.441,936.434,1174.929z"
      class="color7196c6 svgShape"></path>
    <path fill="#346a8e"
      d="M804.726 1028.28c-5.219-.204-15.798.214-26.48 5.566-1.011.5-1.419 1.726-.909 2.737.357.715 1.072 1.134 1.828 1.134.306 0 .613-.071.909-.214 13.49-6.75 27.206-4.943 27.389-4.912.02 0 .041 0 .061 0L804.726 1028.28zM824.967 968.567c-.182 0-.369-.025-.553-.077-1.086-.305-1.719-1.433-1.414-2.519 7.947-28.254 11.364-40.691 16.234-65.044.009-.046.02-.092.032-.137.455-1.667 4.586-16.389 9.945-21.425 1.026-1.09 23.117-24.897 26.984-53.32.498-3.66.822-7.536.961-11.522.04-1.127.971-2.011 2.113-1.969 1.127.039 2.009.985 1.97 2.113-.146 4.121-.481 8.134-.997 11.929-4.121 30.296-27.138 54.613-28.116 55.633-.028.029-.057.058-.087.085-3.822 3.541-7.638 15.197-8.814 19.485-4.891 24.454-8.325 36.945-16.292 65.279C826.679 967.978 825.86 968.567 824.967 968.567z"
      class="color346a8e svgShape"></path>
    <path fill="#4a3333"
      d="M910.025,751.364c-0.797,0.031-2.42,0.112-4.749,0.225c-11.652,0.633-40.808,2.492-70.812,6.607
      c-23.029,3.146-46.568,7.628-63.081,13.899c-0.245,0.092-0.48,0.184-0.715,0.266c-1.716-4.902,0.327-11.029,2.931-13.858
      c12.316-4.218,38.643-12.091,73.375-16.064c16.983-1.951,35.968-2.972,56.311-2.175c1.246,0.041,2.502,0.102,3.758,0.164
      C910.903,742.949,911.925,747.034,910.025,751.364z"
      class="color4a3333 svgShape"></path>
    <path fill="#7196c6"
      d="M824.454 749.28c-.03-3.806-2.148-7.247-5.853-7.544-1.783-.143-3.584.627-4.913 1.946-.958 5.186-.736 10.691-.516 15.843.213 4.993 1.162 9.779 2.534 14.468 1.055.798 2.35 1.221 3.857 1.095 2.898-.243 6.237-2.926 6.143-6.489C825.536 762.124 824.504 755.769 824.454 749.28zM900.918 737.977c-2.89-.914-6.576 1.752-5.326 5.914 1.879 6.259 2.667 12.67 4.308 18.951 1.229 4.702 6.655 5.842 8.293 2.33C906.738 755.847 904.927 746.543 900.918 737.977z"
      class="color7196c6 svgShape"></path>
    <path fill="#ffffff"
      d="M861.743,1102.27c-0.727,0.082-1.474-0.231-1.916-0.877c-8.667-12.67-16.341-23.177-22.809-31.23
    c-0.706-0.879-0.566-2.165,0.312-2.871c0.88-0.706,2.164-0.566,2.872,0.313c6.534,8.134,14.271,18.726,22.996,31.481
    c0.637,0.931,0.399,2.202-0.532,2.839C862.38,1102.12,862.063,1102.233,861.743,1102.27z"
      class="colorfff svgShape"></path>
    <path fill="#527da5"
      d="M850.014 783.26c-.794-.911-2.123-2.433-30.588 2.274-8.526 1.41-27.768 4.872-29.405 5.975-.762.513-2.036 1.371-1.154 17.938.401 7.527 1.26 16.891 2.197 19.663.324.957 1.185 3.5 16.671 13.608 7.465 4.872 14.826 9.212 14.9 9.255.243.144.512.212.776.212.525 0 1.035-.27 1.321-.754.429-.729.185-1.668-.544-2.097-14.148-8.332-29.32-18.542-30.222-21.206-1.555-4.598-3.004-30.186-1.997-34.135 2.396-.737 13.961-3.109 27.422-5.348 18.348-3.052 26.693-3.632 28.434-3.2.52.876 1.623 4.156 2.785 11.748.999 6.517 1.28 11.287 1.114 12.023-.733 1.745-13.185 19.58-20.862 30.412-.49.69-.326 1.646.364 2.135.69.491 1.647.326 2.135-.364 4.796-6.767 20.503-29.013 21.247-31.149C855.515 807.646 852.758 786.409 850.014 783.26zM932.808 829.037c-2.251-1.869-9.17-4.906-15.862-7.842-4.824-2.116-10.828-4.751-11.622-5.538-1.658-2.354-6.277-27.505-5.808-31.365 3.154-2.444 14.079-3.147 20.436-3.005.011 0 .023 0 .035 0 .83 0 1.512-.664 1.531-1.498.018-.846-.652-1.546-1.498-1.565-1.856-.04-18.287-.28-22.869 4.066-.611.58-1.635 1.552 1.262 17.696.851 4.741 3.005 15.956 4.628 17.709 1.05 1.135 4.669 2.793 12.677 6.306 5.888 2.583 13.216 5.798 15.136 7.392.285.238.632.354.977.354.44 0 .877-.189 1.18-.553C933.549 830.544 933.459 829.578 932.808 829.037zM760.783 927.791c-1.869 6.066-7.077 14.338-9.191 20.425-2.226 6.413-2.737 12.755-4.085 19.403-1.124 5.545-2.298 10.978-4.085 16.34-1.021 3.064-9.007 3.472-13.276 4.085-7.149 1.021-14.409 2.073-21.446 2.043-1.726-.01-.97-1.787.797-2.104 5.811-1.062 11.714-1.511 17.555-2.39 2.931-.449 5.841-.94 8.752-1.481 3.309-.623 4.881-.837 6.056-4.381 1.542-4.626 1.828-10.049 2.798-14.849 1.001-4.922 2.124-9.824 3.544-14.634 1.379-4.657 3.033-9.222 5.096-13.613.991-2.124 2.318-4.115 3.278-6.25 1.287-2.87 1.593-5.096.603-6.955-.092.102-.184.204-.306.296-9.068 6.914-17.616 14.461-25.592 22.61-2.553 2.604-5.515 5.494-9.14 6.475-3.054.817-5.852-.419-8.149-2.349.255-1.093.521-2.185.776-3.278 1.266 1.031 2.604 1.869 4.167 2.42.97.347 2.012.582 3.033.46 1.43-.164 2.696-.98 3.809-1.889 1.838-1.501 3.421-3.298 5.025-5.055 6.536-7.128 13.735-13.664 21.466-19.475 1.573-1.174 3.574-2.236 1.195-3.482-8.905-4.657-20.343-5.392-30.269-4.565.327-1.113.654-2.237.97-3.35 10.784-1.011 24.867-.225 33.557 6.25C761.048 920.98 762.049 923.686 760.783 927.791z"
      class="color527da5 svgShape"></path>
  </g>
  <g>
    <path fill="#59485a"
      d="M819.897,426.619c0,0-26.815,0-33.767,21.849s7.449,44.195,7.449,49.161
      c0,4.966-15.89,25.822-7.945,41.712c5.565,11.13,20.432,24.892,20.432,24.892s-5.931,16.536,1.021,23.488
      c6.952,6.952,15.29,3.317,14.297,12.255c-0.993,8.938-3.064,30.637,19.37,41.162c22.692,10.647,39.726-9.932,39.726-9.932
      s27.808,1.986,31.781-22.842c3.972-24.829-0.993-30.788,2.979-42.705c3.973-11.918,10.925-27.808,1.986-42.705
      s-27.808-22.842-27.808-22.842s9.931-9.931,4.966-21.849c-4.966-11.918-22.842-23.836-22.842-24.829s-9.932-23.836-19.863-28.801
      C841.746,419.667,819.897,426.619,819.897,426.619z"
      class="color59485a svgShape"></path>
    <path fill="#59485a"
      d="M777.69 457.449c-.072 0-.146-.005-.218-.015-.838-.12-1.42-.896-1.3-1.733 1.411-9.875 5.678-17.526 12.683-22.741 13.729-10.221 32.944-7.48 33.753-7.359.836.126 1.412.905 1.287 1.741-.126.836-.892 1.418-1.741 1.288-.185-.027-18.793-2.664-31.484 6.797-6.318 4.71-10.175 11.677-11.465 20.706C779.095 456.898 778.44 457.449 777.69 457.449zM927.373 559.084c-.185 0-.374-.034-.557-.106-.788-.308-1.177-1.196-.87-1.984 2.675-6.845 4.813-17.336-.187-28.445-8.652-19.226-38.623-26.739-39.437-26.91-.792-.059-1.416-.721-1.416-1.527 0-.846.686-1.532 1.532-1.532 1.912 0 32.976 8.402 42.116 28.711 5.435 12.079 3.134 23.426.246 30.818C928.564 558.714 927.985 559.084 927.373 559.084z"
      class="color59485a svgShape"></path>
  </g>
  <g>
    <path fill="#4a3333"
      d="M849.63,1176.972c-5.304,17.708-20.425,46.977-26.552,43.913
    c-5.194-5.75,6.424-47.831,6.424-47.831L849.63,1176.972z"
      class="color4a3333 svgShape"></path>
    <path fill="#e89067"
      d="M907.721,1282.453c3.843,17.737,4.769,37.213,4.658,42.266c-0.065,2.855,1.663,12.291,4.89,22.996
    c4.608-2.908,9.444-5.476,14.208-8.136c6.607-3.69,13.347-7.126,20.181-10.363c0.476-18.128,2.128-38.247,7.914-56.827
    c9.817-31.524,10.207-29.333-15.759-39.57c-2.495-0.981-4.659-2.059-6.552-3.208c-7.93-4.846-18.406-15.719-23.223-21.33
    c-5.959-6.952-52.637-102.294-52.637-102.294c-14.897-12.911-32.774,70.513-32.774,70.513s62.01,64.151,70.376,83.487
    C901.574,1265.929,906.016,1274.585,907.721,1282.453z"
      class="colore89067 svgShape"></path>
    <path fill="#eb414c"
      d="M941.055,1365.387c-8.687,1.189-17.412,2.132-26.163,1.877c-0.456-0.013-0.912,0.005-1.367,0.034
    c-2.611,0.165-5.207,0.626-7.789,1.029c-1.359,0.212-2.725,0.437-4.074,0.661c-1.554,0.257-3.257,0.174-4.828,0.175
    c-0.369,0-0.743-0.004-1.096-0.109c-0.708-0.211-1.405-0.763-1.56-1.491c-1.657-7.79,9.694-17.28,13.978-24.71
    c3.66-6.347,4.297-13.327,3.936-20.425c-0.448-8.783-0.81-17.588-2.014-26.307c-0.249-1.805-3.265-12.625-2.358-13.667
    c2.591-2.975,8.14-9.951,13.743-18.821c6.087-9.631,5.428-34.973,15.797-34.021c1.892,1.149,4.057,2.226,6.552,3.208
    c25.966,10.237,26.85,7.367,25.006,40.358c-6.035,16.245-9.214,33.399-11.539,50.535c-1.061,7.816-1.931,15.656-2.891,23.485
    c-0.648,5.288,0.274,16.241-6.548,17.227C945.581,1364.75,943.32,1365.077,941.055,1365.387z"
      class="coloreb414c svgShape"></path>
    <path fill="#1a1a1a"
      d="M966.058,1298.308c-0.346,1.177-0.697,2.363-1.051,3.565c-2.622,8.91-4.519,18.066-5.128,27.347
    c-0.535,8.151-0.134,17.148-3.156,24.851c-2.425,6.18-6.971,13.073-14.163,13.872c-9.191,1.021-39.051,2.058-45.881,1.303
    c5.19-1.106,12.377-1.377,16.962-3.906c4.505-2.485,7.619-8.788,9.12-13.444c3.362-10.427,2.027-22.189,2.223-32.973
    c0.22-12.095,1.484-24.228,4.894-35.87c3.861-13.179,9.54-32.085,22.274-39.518c3.383-1.975,7.24-2.669,11.008-1.434
    c7.046,2.31,7.99,12.907,8.284,18.98c0.308,6.353-0.233,12.743-1.115,19.031C969.438,1286.49,967.827,1292.281,966.058,1298.308z"
      class="color1a1a1a svgShape"></path>
    <path fill="#d87e51"
      d="M891.444,1248.446c-0.552,0-1.103-0.222-1.506-0.662l-39.531-43.081
    c-0.763-0.831-0.707-2.123,0.124-2.885c0.834-0.764,2.124-0.707,2.886,0.124l39.531,43.081c0.763,0.831,0.707,2.123-0.124,2.886
    C892.431,1248.269,891.937,1248.446,891.444,1248.446z"
      class="colord87e51 svgShape"></path>
  </g>
  <g>
    <path fill="#857796"
      d="M516.351,1368.726c0.361,6.219-53.885,6.794-121.278,6.794s-122.351,0.906-122.776-6.794
      c-0.328-5.95,54.883-6.794,122.276-6.794S515.852,1360.12,516.351,1368.726z"
      class="color857796 svgShape"></path>
    <path fill="#804537"
      d="M379.247,1221.141c0,2.042-6.127,141.951-2.043,143.994c4.085,2.042,15.319,1.021,15.319,1.021
      l12.255-143.993L379.247,1221.141z"
      class="color804537 svgShape"></path>
    <path fill="#a6644c"
      d="M291.421,1199.695c0,0,190.97-2.042,193.013,1.021c2.042,3.064,2.042,20.425,1.021,23.488
      c-1.021,3.064-193.013,4.085-194.034,1.021C290.4,1222.162,291.421,1199.695,291.421,1199.695z"
      class="colora6644c svgShape"></path>
    <path fill="#a6644c"
      d="M316.952 1221.141c0 2.042-28.594 146.036-24.509 148.078 4.085 2.042 15.318 1.021 15.318 1.021l34.722-148.078L316.952 1221.141zM455.44 1223.183c0 2.042 28.594 143.994 24.509 146.036-4.085 2.042-15.318 1.021-15.318 1.021l-34.722-146.036L455.44 1223.183z"
      class="colora6644c svgShape"></path>
    <path fill="#804537"
      d="M447.299,1222.313c-41.726,2.097-83.374,2.914-125.151,2.467c-2.397-0.026-2.39,3.65,0,3.718
      c41.664,1.176,83.552,0.443,125.151-2.179C449.854,1226.157,449.885,1222.183,447.299,1222.313z"
      class="color804537 svgShape"></path>
    <path fill="#7399c6"
      d="M443.055,1201.28h-116.33c-4.769,0-8.81-3.513-9.474-8.236l-25.913-184.43
      c-0.809-5.756,3.661-10.898,9.474-10.898h168.155c5.813,0,10.282,5.141,9.474,10.898l-25.913,184.43
      C451.865,1197.767,447.824,1201.28,443.055,1201.28z"
      class="color7399c6 svgShape"></path>
    <path fill="#7399c6"
      d="M482.95,1008.495H286.829c-2.808,0-5.085-2.277-5.085-5.085v-11.387
      c0-2.808,2.277-5.085,5.085-5.085H482.95c2.808,0,5.085,2.277,5.085,5.085v11.387
      C488.035,1006.218,485.759,1008.495,482.95,1008.495z"
      class="color7399c6 svgShape"></path>
    <path fill="#376b8e"
      d="M479.972,1011.98H289.807c-0.987,0-1.787-0.8-1.787-1.788c0-0.988,0.8-1.788,1.787-1.788h190.166
      c0.987,0,1.787,0.8,1.787,1.788C481.76,1011.179,480.96,1011.98,479.972,1011.98z"
      class="color376b8e svgShape"></path>
  </g>
</svg>