<svg xmlns="http://www.w3.org/2000/svg" xmlns:xlink="http://www.w3.org/1999/xlink"
  enable-background="new 0 0 1920 1080" viewBox="0 0 1920 1080" width="550" height="350">
  <path fill="#ede6db"
    d="M1693.33,701.63c13.17-56.85,3.82-177.12-6.75-234.51c-8.41-45.68-19.95-100.47-46.74-139.29
  c-43.54-63.09-96.43-111.2-168.87-142.34c-83.37-35.85-194.7-28.44-282.36-1.99c-26.6,8.03-52.54,18.67-80.13,22.69
  c-30.98,4.51-55.39-0.85-77.82-20.03c-24.08-20.59-53.62-26.72-86.15-28.16c-82.08-3.64-165.24,24.43-226.35,76.4
  c-28.32,24.08-47.67,57.15-83.1,73.23c-47.04,21.36-102.43,7.87-154.55,9.55c-64.16,2.07-127.04,29.06-171.03,73.41
  c-46.94,47.33-71.3,112.01-77.2,176.75s5.47,129.89,22.52,192.83c5.85,21.59,12.57,43.36,22.15,63.66
  c0.22,0.82,0.44,1.63,0.66,2.45h1390.32C1680.07,773.1,1687.83,725.38,1693.33,701.63z"
    class="colorede6db svgShape"></path>
  <path fill="#b4c6a5"
    d="M1628.26,957.33c16.91-40.62,29.74-87.65,39.66-131.05H277.6c12.15,45.69,27.36,91.46,45.33,131.05H1628.26z
    "
    class="colorc6b6a5 svgShape"></path>
  <rect width="631.43" height="669.61" x="335.55" y="156.15" fill="#e5f7d7"
    class="colord7e2f7 svgShape"></rect>
  <polygon fill="#ffffff" points="487.11 156.15 335.55 367.89 335.55 550.61 626.6 156.15"
    opacity=".15" class="colorfff svgShape"></polygon>
  <polygon fill="#ffffff" points="769.16 156.15 453.13 826.78 495.29 826.78 812.59 156.15"
    opacity=".15" class="colorfff svgShape"></polygon>
  <polygon fill="#ffffff" points="966.97 156.15 691.34 826.78 966.97 825.76" opacity=".15"
    class="colorfff svgShape"></polygon>
  <line x1="655.81" x2="655.81" y1="156.15" y2="826.78" fill="none" stroke="#ffffff"
    stroke-miterlimit="10" stroke-width="1.958" class="colorStrokefff svgStroke"></line>
  <defs>
    <polygon id="a"
      points="812.59 156.15 769.16 156.15 626.6 156.15 487.11 156.15 335.55 156.15 335.55 367.89 335.55 550.61 335.55 825.76 453.61 825.76 453.13 826.78 495.29 826.78 495.77 825.76 691.76 825.76 691.34 826.78 966.97 825.76 966.97 156.15"></polygon>
  </defs>
  <clipPath id="b">
    <use overflow="visible" xlink:href="#a"></use>
  </clipPath>
  <path fill="#89c2ce"
    d="M602.8,337.67v87.5h-20.83v17.33h20.83v123.04h-27.44V442.87h-26.05v115.98H534.4v54.3h-6.29V297.28H451.9
    v94.57h-36.72V383h-26.73v34.93h-6.95v18.3h-9.12v24.95h9.12v179.22h-0.45v42.82h-14.96V527.05h8.16v-20.58h-8.16v-15.09h-6.47
    v-28.82h-2.52V383h-10.34l3.33-24.33h-43.41V383h-7.01v59.5H295v-8.77h-14.47v8.77h-14.84v20.07h-6.07v39.86h-20.04v180.79h-7.04
    V561.08h-4.72v-95.76h-19.1v-59.03h-47.52v75.49h-21.46v9.34h-20.19v60.64h-15.87v112.15H50.49v89.82h-94.91v73.18h144.5v2.85
    h844.69v-1.66h123.76v1.34h105.53v-80.96h-83.03v-65.27h-7.46v-57.07h-39.65V314.68h-26.05v146.49H950.1v-45.01h-39.65v45.01
    h-6.47V406.2h-22.55v120.85h-13.74V283.97h-68.66V383h-21.15V171.34h-20.3v394.19h-6.18V380.86h-10.2V229.56h-45.15v108.11h-22.4
    v-49.72h-17.57v49.72H602.8z M656.98,254.94v-9.42 M115.39,705.89h-7.54V691.5h7.54V705.89z M115.73,679.35h-7.88v-14.38h7.88
    V679.35z M115.73,652.83h-7.88v-14.38h7.88V652.83z M115.73,626.3h-7.88v-14.38h7.88V626.3z M115.73,599.77h-7.88v-14.38h7.88
    V599.77z M115.73,573.24h-7.88v-14.38h7.88V573.24z M130.27,677.94h-5.89v-12.97h5.89V677.94z M130.27,645.79h-5.89v-7.34h5.89
    V645.79z M130.27,613.63h-5.89v-1.71h5.89V613.63z M130.27,599.77h-5.89v-3.57h5.89V599.77z M130.27,573.24h-5.89v-9.2h5.89
    V573.24z M133.48,549.31h-9.1v-17.43h9.1V549.31z M133.48,517.15h-9.1v-17.43h9.1V517.15z M149.95,608.05h-5.51v-10.06h5.51
    V608.05z M149.95,549.31h-5.51v-2.58h5.51V549.31z M149.95,505.54h-5.51v-5.82h5.51V505.54z M161.19,681.72h-4.47v-10.07h4.47
    V681.72z M161.19,630.47h-4.47V620.4h4.47V630.47z M161.19,579.21h-4.47v-10.06h4.47V579.21z M161.19,527.95h-4.47v-10.06h4.47
    V527.95z M173,550.37h-4v-3.21h4V550.37z M173,435.1h-6.37v-12.2H173V435.1z M187.18,524.39h-6.31v-12.2h6.31V524.39z
     M187.18,462.26h-6.37v-12.2h6.37V462.26z M201.37,675.82h-3.96v-12.2h3.96V675.82z M201.37,613.69h-3.96v-12.2h3.96V613.69z
     M201.37,551.56h-3.96v-12.2h3.96V551.56z M201.37,489.43H195v-12.2h6.37V489.43z M215.55,632.94h-4.95v-4.28h4.95V632.94z
     M215.55,578.73h-4.95v0L215.55,578.73L215.55,578.73z M215.55,516.6h-6.37v-12.2h6.37V516.6z M228.14,680.02h-0.32v-7.14h0.32
    V680.02z M228.14,664.33h-0.32v-7.14h0.32V664.33z M228.14,648.64h-0.32v-7.14h0.32V648.64z M228.14,632.94h-0.32v-7.14h0.32
    V632.94z M228.14,617.25h-0.32v-7.14h0.32V617.25z M228.14,601.56h-0.32v-7.14h0.32V601.56z M228.14,585.87h-0.32v-7.14h0.32
    V585.87z M243.05,665.61L243.05,665.61l0-8.65h0V665.61z M243.05,646.59L243.05,646.59l0-8.66h0V646.59z M243.05,627.57
    L243.05,627.57l0-8.66h0V627.57z M243.05,608.55L243.05,608.55l0-8.65h0V608.55z M243.05,589.53L243.05,589.53l0-8.66h0V589.53z
     M243.05,570.51L243.05,570.51l0-8.65h0V570.51z M243.05,551.48L243.05,551.48l0-8.66h0V551.48z M243.05,532.46L243.05,532.46
    l0-8.66h0V532.46z M253.8,672h-8.39v-8.65h8.39V672z M253.8,652.98h-8.39v-8.66h8.39V652.98z M253.8,633.96h-8.39v-8.65h8.39
    V633.96z M253.8,614.94h-8.39v-8.65h8.39V614.94z M253.8,595.91h-8.39v-8.66h8.39V595.91z M253.8,576.89h-8.39v-8.65h8.39V576.89
    z M253.8,557.87h-8.39v-8.66h8.39V557.87z M253.8,538.85h-8.39v-8.66h8.39V538.85z M275.25,581.96h-6.86V566.4h6.86V581.96z
     M275.25,495.48h-8.52v-15.55h8.52V495.48z M299.66,495.48H295v-15.55h4.66V495.48z M317.72,527.72h-8.37v-18.85h8.37V527.72z
     M317.72,422.9h-9.84v-18.85h9.84V422.9z M330.46,575.96h-5.66v-18.85h5.66V575.96z M339.57,462.56h-3.09v2.2h-6.75v-18.85h9.84
    V462.56z M349.41,422.9h-9.84v-18.85h9.84V422.9z M441.61,503.25h-8.52V487.7h8.52V503.25z M441.61,450.19h-8.52v-15.55h8.52
    V450.19z M462.54,339.73h9.84v18.85h-9.84V339.73z M462.54,455.33h9.84v18.85h-9.84V455.33z M475.76,632.67h-8.3v-18.85h8.3
    V632.67z M486.72,511.96h-9.84v-3.09h9.84V511.96z M509.87,432.32h-9.84v-18.85h9.84V432.32z M509.87,368.01h-9.84v-18.85h9.84
    V368.01z M534.4,681.17h-6.29v-21.86h6.29V681.17z M577.03,683.57h-1.09v-13.33h1.09V683.57z M615,511.03h-8.52v-15.55H615
    V511.03z M617.04,442.42H615v-15.55h2.03V442.42z M617.04,374.72h-6.29v-15.55h6.29V374.72z M696.05,511.03H683.7v-15.55h12.35
    V511.03z M705.22,257.67h9.84v18.85h-9.84V257.67z M719.98,358.58h-9.84v-18.85h9.84V358.58z M809.59,441.75h-20.1V422.9h20.1
    V441.75z M822.49,339.73h20.1v18.85h-20.1V339.73z M852.64,479.19h-20.1v-18.85h20.1V479.19z M875.24,565.54h-7.56v-23.62h7.56
    V565.54z M914.96,508.87h-10.99v-29.68h10.99V508.87z M961.86,665.2h-15.49v-29.68h15.49V665.2z M969.6,542.56h-15.49v-29.68
    h15.49V542.56z M1010.72,508.87h-15.49v-29.68h15.49V508.87z M1030.88,638.08h-15.49v-29.68h15.49V638.08z"
    clip-path="url(#b)" class="color89a8ce svgShape"></path>
  <path fill="#d3d3d3" d="M1130.63,492.13h218.46V250.79h-218.46V492.13z" opacity=".63"
    class="colord3d3d3 svgShape"></path>
  <rect width="226.54" height="250.2" x="1122.91" y="242.32" fill="#ffffff"
    class="colorfff svgShape"></rect>
  <path fill="#c2c9bc"
    d="M1356.45,499.92h-240.55V234.93h240.55V499.92z M1126.95,488.1h218.46V246.76h-218.46V488.1z"
    class="colorc9c3bc svgShape"></path>
  <rect width="163.03" height="183.59" x="1154.57" y="274.23" fill="#dbefcb"
    class="colorefdfcb svgShape"></rect>
  <circle cx="1198.76" cy="322.35" r="25.05" fill="#ecf4e6" class="colorf4ede6 svgShape"></circle>
  <circle cx="1258.74" cy="389.38" r="46.99" fill="#ecf4e6" class="colorf4ede6 svgShape"></circle>
  <path fill="#9b5854"
    d="M1577.28,444.41c0-12.33-10.39-20.26-23.22-20.26c-12.82,0-23.21,7.93-23.21,20.26
      c0,8.07,4.46,15.14,11.13,19.06h24.16C1572.82,459.55,1577.28,452.48,1577.28,444.41z"
    class="color9b7b54 svgShape"></path>
  <rect width="243.81" height="12.04" x="1373.33" y="463.27" fill="#c2c9bc"
    class="colorc9c3bc svgShape"></rect>
  <path fill="#c4e2ac"
    d="M1420.84 462.94h-13.31c-.48 0-.88-.39-.88-.88v-74.11c0-.48.39-.88.88-.88h13.31c.49 0 .88.39.88.88v74.11C1421.72 462.55 1421.32 462.94 1420.84 462.94zM1438.43 462.94h-13.31c-.49 0-.88-.39-.88-.88v-74.11c0-.48.39-.88.88-.88h13.31c.48 0 .88.39.88.88v74.11C1439.3 462.55 1438.91 462.94 1438.43 462.94z"
    class="colore2cbac svgShape"></path>
  <path fill="#9b5854"
    d="M1455.65,462.94h-13.31c-0.48,0-0.88-0.39-0.88-0.88v-74.11c0-0.48,0.39-0.88,0.88-0.88h13.31
    c0.48,0,0.88,0.39,0.88,0.88v74.11C1456.53,462.55,1456.14,462.94,1455.65,462.94z"
    class="color9b7b54 svgShape"></path>
  <path fill="#c4e2ac"
    d="M1504 454.94l-9.36 5.84c-1.02.63-2.32.26-2.91-.84l-33.01-61.72c-.59-1.1-.24-2.51.78-3.14l9.36-5.84c1.02-.63 2.32-.26 2.91.84l33.01 61.72C1505.36 452.9 1505.01 454.3 1504 454.94zM1524.88 454.94l-9.36 5.84c-1.02.63-2.32.26-2.91-.84l-33.01-61.72c-.59-1.1-.24-2.51.78-3.14l9.36-5.84c1.02-.63 2.32-.26 2.91.84l33.01 61.72C1526.25 452.9 1525.9 454.3 1524.88 454.94z"
    class="colore2cbac svgShape"></path>
  <rect width="10.06" height="10.82" x="1409.05" y="396.62" fill="#ffffff" class="colorfff svgShape"></rect>
  <rect width="10.06" height="2.78" x="1426.74" y="454.1" fill="#ffffff" class="colorfff svgShape"></rect>
  <rect width="10.06" height="2.78" x="1426.74" y="447.39" fill="#ffffff" class="colorfff svgShape"></rect>
  <circle cx="1478.88" cy="305" r="49.8" fill="#ffffff" stroke="#c2c9bc" stroke-miterlimit="10"
    stroke-width="7" transform="rotate(-35.783 1478.898 305.017)"
    class="colorfff svgShape colorStrokec9c3bc svgStroke"></circle>
  <circle cx="1478.88" cy="305" r="33.19" fill="#c4e2ac" class="colore2cbac svgShape"></circle>
  <line x1="1467.82" x2="1479.64" y1="318.51" y2="306.69" fill="none" stroke="#c5e1af"
    stroke-linecap="round" stroke-linejoin="round" stroke-width=".458"
    class="colorStrokee1ccaf svgStroke"></line>
  <rect width=".91" height=".91" x="1467.39" y="318.04" fill="#c5e1af"
    transform="rotate(-45.001 1467.842 318.516)" class="colore1ccaf svgShape"></rect>
  <line x1="1479.64" x2="1479.64" y1="306.69" y2="285.32" fill="none" stroke="#2c2c2c"
    stroke-linecap="round" stroke-linejoin="round" stroke-width=".458"
    class="colorStroke2c2c2c svgStroke"></line>
  <rect width=".91" height=".91" x="1479.19" y="284.88" fill="#2c2c2c" class="color2c2c2c svgShape"></rect>
  <line x1="1489.39" x2="1479.64" y1="316.44" y2="306.69" fill="none" stroke="#2c2c2c"
    stroke-linecap="round" stroke-linejoin="round" stroke-width=".458"
    class="colorStroke2c2c2c svgStroke"></line>
  <rect width=".89" height=".14" x="1488.94" y="316.37" fill="#2c2c2c"
    transform="rotate(-44.984 1489.33 316.467)" class="color2c2c2c svgShape"></rect>
  <path fill="#2c2c2c"
    d="M1481.22,306.69c0,0.87-0.7,1.57-1.57,1.57c-0.87,0-1.57-0.7-1.57-1.57c0-0.87,0.7-1.57,1.57-1.57
  C1480.51,305.12,1481.22,305.82,1481.22,306.69z"
    class="color2c2c2c svgShape"></path>
  <path fill="#ffffff"
    d="M801.92,156.15h-45.76H605.98H459.03H299.36v211.74v182.72v275.15h124.38l-0.51,1.03h44.42l0.51-1.03h206.47
  l-0.44,1.03l290.37-1.03V156.15H801.92z M676.86,511.71l-111.84-78L718.26,212l111.84,78L676.86,511.71z"
    opacity=".48" class="colorfff svgShape"></path>
  <path fill="#c3eaa4"
    d="M791.73,119.86c0.11,0.12-6.4,124.71,173.84,306.3c0,0-100.64,168.63-113.92,388.28h143.47V119.86
      L791.73,119.86z"
    class="colore6eaa4 svgShape"></path>
  <path fill="#f79d6b"
    d="M995.12,451.19h-33.95c-6.65,0-12.04-5.87-12.04-13.11l0,0c0-7.24,5.39-13.11,12.04-13.11h33.95V451.19z"
    class="colorf79d6b svgShape"></path>
  <path fill="none" stroke="#000000" stroke-miterlimit="10"
    d="M789.87,129.59c0.11,0.12-6.4,124.71,173.84,306.3c0,0-100.64,168.63-113.92,388.28h143.47V129.59
      L789.87,129.59z"
    class="colorStroke000 svgStroke"></path>
  <path fill="#c3eaa4"
    d="M493.22,119.86c-0.11,0.12,6.4,124.71-173.84,306.3c0,0,100.64,168.63,113.92,388.28H289.82V119.86
      L493.22,119.86z"
    class="colore6eaa4 svgShape"></path>
  <path fill="none" stroke="#000000" stroke-miterlimit="10"
    d="M485.76,126.94c-0.11,0.12,6.4,124.71-173.84,306.3c0,0,100.64,168.63,113.92,388.28H282.37V126.94
      L485.76,126.94z"
    class="colorStroke000 svgStroke"></path>
  <path fill="#f79d6b"
    d="M289.82,451.19h33.95c6.65,0,12.04-5.87,12.04-13.11l0,0c0-7.24-5.39-13.11-12.04-13.11h-33.95V451.19z"
    class="colorf79d6b svgShape"></path>
  <path fill="none" stroke="#000000" stroke-miterlimit="10"
    d="M436.73 147.67c-14.41 96.18-58.24 188.21-124.78 262.02M353.34 143.7c-2.61 79.9-17.44 159.43-43.89 235.32M318.53 490.51c21.59 92.81 37.9 186.74 48.84 281.22M306.64 525.6c3.96 79.28 4.97 158.7 3.04 238.05M831.07 143.59c25.74 87.62 69.83 170.35 128.95 241.94M915.16 162.57c8.79 60.25 25.39 119.48 49.31 175.91M959.72 474c-36.97 95.66-60.26 196.08-69.02 297.64M962.88 540.44c-11.32 65.93-19.51 132.35-24.55 198.98"
    class="colorStroke000 svgStroke"></path>
  <rect width="748.86" height="30.06" x="263.25" y="118.3" fill="#c4e2ac"
    class="colore2cbac svgShape"></rect>
  <polygon fill="#896260" points="871.47 818.78 868.11 873.34 881.52 873.34 906.09 818.78"
    class="color897560 svgShape"></polygon>
  <polygon fill="#896260" points="1517.02 818.78 1520.37 873.34 1506.97 873.34 1482.4 818.78"
    class="color897560 svgShape"></polygon>
  <rect width="677.95" height="24.13" x="853.6" y="801.99" fill="#896260"
    class="color897560 svgShape"></rect>
  <rect width="600.88" height="55.09" x="877.05" y="757.39" fill="#ffffff" class="colorfff svgShape"></rect>
  <path fill="#ffffff" stroke="#8e6976" stroke-miterlimit="10"
    d="M923.96,682.36h529.4c0,0,10.05-9.44,21.22-19.94c8.2-7.71,31.44-17.67,43.22-22.42l-3.24-39.57
    c-2.45-29.92-29.9-53.44-62.16-53.44H934.97c-32.26,0-59.72,23.52-62.16,53.44l-3.38,41.35c4.55,0.71,17.01,3,27.73,8.04
    C910.56,656.13,923.96,682.36,923.96,682.36z"
    class="colorfff svgShape colorStroke697a8e svgStroke"></path>
  <path fill="#d0d8ca"
    d="M1474.58,662.42c-11.17,10.49-21.22,19.94-21.22,19.94h-529.4c0,0-13.4-26.23-26.81-32.53
    c-10.72-5.04-23.18-7.33-27.73-8.04l-6.32,77.3h661.17L1517.8,640C1506.02,644.76,1482.78,654.72,1474.58,662.42z"
    class="colord8d0ca svgShape"></path>
  <path fill="#ffffff"
    d="M1502.45 812.11h-67.53l46.75-127.46c11.76-32.05 50.18-58.03 85.83-58.03h0c35.65 0 55.02 25.98 43.27 58.03l-28.82 78.58C1570.96 793.2 1540.19 812.11 1502.45 812.11zM886.6 812.48h67.53l-46.75-127.46c-11.76-32.05-50.18-58.03-85.83-58.03h0c-35.65 0-55.02 25.98-43.27 58.03l28.82 78.58C818.09 793.56 848.86 812.48 886.6 812.48z"
    class="colorfff svgShape"></path>
  <path fill="#a4d67c" stroke="#8e6976" stroke-miterlimit="10"
    d="M875.25,613.08c0,0,13.87,40.36,20.86,54.03c6.99,13.66,18.78,28.76,18.78,28.76s62.18,1.81,72.61-0.59
  c10.43-2.4,37.36-1.7,37.36-1.7s-23.39-56.26-32.98-73.16c-7.92-13.96-13.47-21.26-13.47-21.26S890.28,596.35,875.25,613.08z"
    class="colord2d67c svgShape colorStroke697a8e svgStroke"></path>
  <path fill="#9ae45f" stroke="#8e6976" stroke-miterlimit="10"
    d="M1368.75,695.08c0,0,7.11-35.65,13.04-53.48c5.93-17.83,11.86-30.08,11.86-30.08s41.5-5.57,83.01-2.23
  c23.66,1.91,46.25,12.25,46.25,12.25s-17.79,32.31-21.34,45.68c-3.56,13.37-8.3,31.19-8.3,31.19s-41.5,3.34-66.4,3.34
  C1401.95,701.76,1368.75,695.08,1368.75,695.08z"
    class="colorbfbf64 svgShape colorStroke697a8e svgStroke"></path>
  <path fill="#cbddbc" stroke="#8e6976" stroke-miterlimit="10"
    d="M927.35,625.26c0,0,4.56,36.03,8,48.24c3.44,12.21,10.61,25.71,10.61,25.71s51.16,1.86,60.2-0.23
  c9.05-2.09,34.08,2.02,34.08,2.02s-12.57-53.63-17.62-68.73c-4.17-12.47-7.51-19.01-7.51-19.01S942.66,610.41,927.35,625.26z"
    class="colord8ddbc svgShape colorStroke697a8e svgStroke"></path>
  <path fill="#a4d67c" stroke="#8e6976" stroke-miterlimit="10"
    d="M1459.12,615.02c0,0-11.23,43.69-14.67,55.89c-3.44,12.21-10.61,25.71-10.61,25.71s-51.16,1.86-60.2-0.23
  c-9.05-2.09-34.08,2.02-34.08,2.02s12.57-53.63,17.62-68.73c4.17-12.47,7.51-19.01,7.51-19.01S1443.82,600.17,1459.12,615.02z"
    class="colord2d67c svgShape colorStroke697a8e svgStroke"></path>
  <path fill="#ffffff" stroke="#8e6976" stroke-miterlimit="10"
    d="M1567.5,626.62L1567.5,626.62c-35.65,0-74.08,25.98-85.83,58.03l-26.68,72.74H933.92l-26.54-72.37
  c-11.76-32.05-50.18-58.03-85.83-58.03h0c-35.65,0-55.02,25.98-43.27,58.03l28.82,78.58c10.05,27.39,36.63,45.54,69.95,48.45v0.42
  h9.55h67.53h523.8v-0.37h24.52c37.74,0,68.51-18.92,79.5-48.88l28.82-78.58C1622.52,652.6,1603.15,626.62,1567.5,626.62z"
    class="colorfff svgShape colorStroke697a8e svgStroke"></path>
  <path fill="#d45985"
    d="M1480.11,707.55l-303-2.95c-0.85-0.11-1.71-0.19-2.59-0.19l-7.87,0.09l-9.43-0.09
    c-1.2,0-2.36,0.1-3.51,0.24l-248.74,2.91c-25.69,1.05-28.48,32.89-28.48,32.89c0,9.36,8.08,16.95,18.05,16.95h262.69c0,0,0,0,0,0
    h335.39c11.94,0,21.62-7.59,21.62-16.95C1514.23,740.44,1510.89,708.6,1480.11,707.55z"
    class="colorbfa688 svgShape"></path>
  <path fill="#ffffff" stroke="#8e6976" stroke-miterlimit="10"
    d="M1174.52 749H894.54c-9.97 0-18.05-7.59-18.05-16.95 0 0 2.79-31.84 28.48-32.89l269.55-3.15c9.97 0 18.05 7.59 18.05 16.95v19.08C1192.57 741.4 1184.49 749 1174.52 749zM1216.2 749h279.99c9.97 0 18.05-7.59 18.05-16.95 0 0-2.79-31.84-28.48-32.89L1216.2 696c-9.97 0-18.05 7.59-18.05 16.95v19.08C1198.15 741.4 1206.23 749 1216.2 749z"
    class="colorfff svgShape colorStroke697a8e svgStroke"></path>
  <rect width="10.72" height="420.41" x="633.53" y="224.68" fill="#775662"
    transform="rotate(-144.992 638.869 434.885)" class="color566277 svgShape"></rect>
  <path fill="#e24137"
    d="M738.98,292.26L738.98,292.26c4.84,3.39,11.52,2.22,14.91-2.63l15.48-22.09l-17.53-12.28l-15.48,22.09
    C732.96,282.19,734.13,288.87,738.98,292.26z"
    class="colore29037 svgShape"></path>
  <rect width="11.85" height="129.67" x="485.88" y="577.82" fill="#e24137"
    transform="rotate(-144.992 491.786 642.655)" class="colore29037 svgShape"></rect>
  <rect width="8.29" height="12.28" x="457.12" y="680.12" fill="#ffffff"
    transform="rotate(-144.992 461.243 686.255)" class="colorfff svgShape"></rect>
  <path fill="#723d50"
    d="M787.41,293.62l-58.37-42.03c-15.23-10.97-18.69-32.21-7.72-47.44l3.89-5.4l113.54,81.74l-3.89,5.4
  C823.89,301.13,802.65,304.59,787.41,293.62z"
    class="color3d4f72 svgShape"></path>
  <path fill="#4d6b30"
    d="M539.22,632.83l16.55-45.84l-61.59-11.53c0,0-13.27,4.96-20.71,22.7c-7.44,17.72-33.98,92.29-36.04,109.85
  c-3.53,21.16,23.01,32.71,30.04,34.12c4.35,0.87,19.61,0.71,32.59-15.66c0,0,0.08-0.15,0.11-0.2
  C507.58,713.96,538.14,636.09,539.22,632.83z"
    class="color5c7ee0 svgShape"></path>
  <polygon fill="#395421" points="555.77 586.99 532.66 583.22 502.34 722.32"
    class="color4c70c9 svgShape"></polygon>
  <line x1="533.86" x2="502.34" y1="644.64" y2="722.32" fill="none" stroke="#000000"
    stroke-miterlimit="10" stroke-width="1.5" class="colorStroke000 svgStroke"></line>
  <path fill="#f79d6b"
    d="M460.39,508.24l32.18,42.7l-4.99,20.82c0,0-47.81-28.25-55.58-45.19c-2.77-6.04-8.41-14.5-2.19-21.28
  C436.05,498.49,460.39,508.24,460.39,508.24z"
    class="colorf79d6b svgShape"></path>
  <path fill="#c3d85c"
    d="M488.54,574.12c0,0,15.44-2.93,15.36-7.22c-0.08-4.3,4.8-8,4.8-8l-32.03-36.71l-28.19,23.98L488.54,574.12z"
    class="colorffc022 svgShape"></path>
  <line x1="463.54" x2="472.83" y1="512.76" y2="524.91" fill="none" stroke="#000000"
    stroke-miterlimit="10" stroke-width="1.5" class="colorStroke000 svgStroke"></line>
  <path fill="#e82013"
    d="M507.36,555.23c2.37-0.23,4.7,0.59,6.93,1.43c10.26,3.88,20.17,8.67,29.61,14.29
  c-10.02,2.99-44.49,12.69-53.59,5.1C481.87,569.03,498.87,556.04,507.36,555.23z"
    class="colore89613 svgShape"></path>
  <path fill="#f79d6b"
    d="M461.3,515.27l22.1-34.48l-37.57-10.41c-4.62,10.8-13.34,29.51-16.35,33.98
  C427.16,507.82,452.63,538.02,461.3,515.27z"
    class="colorf79d6b svgShape"></path>
  <path fill="#c3d85c"
    d="M443.48,468.9c0,0,19.55-40.7,31.41-48.64c11.91-7.98,26.73-0.33,30.7,12.09
  c3.94,12.33-20.41,58.96-20.41,58.96L443.48,468.9z"
    class="colorffc022 svgShape"></path>
  <line x1="478.1" x2="460.41" y1="487.86" y2="516.15" fill="none" stroke="#000000"
    stroke-miterlimit="10" stroke-width="1.5" class="colorStroke000 svgStroke"></line>
  <line x1="485.18" x2="443.48" y1="491.31" y2="468.9" fill="#d7e2ff" stroke="#000000"
    stroke-miterlimit="10" stroke-width="1.5" class="colorStroke000 svgStroke"></line>
  <path fill="#f79d6b"
    d="M414.72,817.62c0,0-8.2,21.69-10.05,26.51c0,0-6.71,10.01-8.8,14.18c-0.03,11.28,13.9,23.79,16.8,16.8
      c1.94-4.3,27.75-46.96,27.75-46.96L414.72,817.62z"
    class="colorffa476 svgShape"></path>
  <path fill="#4d6b30"
    d="M493.62,695.95c-9.63-6.77-30.62-20.56-45.58-0.31c-3.54,1.77-9.71,10.59-9.73,10.61
      c-6.69,13.42-16.35,45.43-22.1,62.77c-5.76,17.34-22.99,81.34-22.99,81.34l31.83,17.68l74.66-139.16
      C510.4,707.23,497.09,698.39,493.62,695.95z"
    class="color5c7ee0 svgShape"></path>
  <line x1="503.79" x2="447.43" y1="718.7" y2="828" fill="none" stroke="#000000"
    stroke-miterlimit="10" stroke-width="1.5" class="colorStroke000 svgStroke"></line>
  <polygon fill="#395421" points="386.15 849.47 393.22 837.98 430.35 868.04 423.28 873.34"
    class="color799cf2 svgShape"></polygon>
  <path fill="#4c302e"
    d="M402.06,860.96c2.26,5.95,5.45,9.95,7.97,15.76c2.52,5.81,7.03,11.05,13.45,11.82
    c1.62,0.19,3.35,0.11,4.78,0.77c1.43,0.66,2.45,2.42,1.65,4.02c-0.74,1.46-2.51,2.01-4.04,2.34c-8.88,1.87-17.84,2.37-26.47,1.49
    c-1.87-0.19-3.76-0.46-5.32-1.36c-4.31-2.48-4.69-8.63-7.25-12.94c-1.94-3.28-5.18-5.48-7.33-8.6
    c-2.16-3.12-2.95-7.99-0.06-11.27c1.19-1.35,2.8-2.19,4.37-2.97C390.92,856.48,398.57,851.78,402.06,860.96z"
    class="color2e324c svgShape"></path>
  <path fill="#6d535c"
    d="M387.61,871.28c1.45,5.27,2.91,10.55,4.36,15.82c0.6,2.17,1.24,4.41,2.75,5.95
    c3.28,3.35,9.11,2.2,14.14,1.46c5.87-0.88,11.74-0.94,17.4-0.18c-0.23,2.2-3.17,3.03-5.32,3.14
    c-10.41,0.54-27.47,1.08-37.88,1.62c-3.81,0.2-11.23-27.08-7.58-33.46C380.53,856.78,386.38,866.84,387.61,871.28z"
    class="color53576d svgShape"></path>
  <path fill="#4d6b30"
    d="M602.76,593.04c-2.37-14.81-69.4,7.7-69.4,7.7l-3.1,60.41l3.54,62.77c0,0,0,23.87,28.29,21.22
  c19.02-2.6,33.59-25.61,33.6-25.64C599.56,699.91,610.16,639.33,602.76,593.04z"
    class="color5c7ee0 svgShape"></path>
  <path fill="#f79d6b"
    d="M575.99,876.21c0.34,0,0.36-0.66,0.37-1.52c-0.15-0.16-0.41-0.26-0.45-0.47
    c-1.79-8.82-4.64-31.19-4.64-31.19l-26.37,0.68c0,0,5.7,22.38,7.69,30.2c0,0.01,0,0.01,0,0.02
    C559.55,878.67,568.07,882.44,575.99,876.21z"
    class="colorffa476 svgShape"></path>
  <path fill="#4d6b30"
    d="M562.1,703.61c-8.55,2.04-28.97,3.14-28.3,22.97c-0.47,5.16-2.65,40.67-2.65,53.93
    c0,11.28,10.61,88.41,10.61,88.41l42.44-1.77c0,0,8.49-126.52,12.38-147.65C596.59,699.46,570.92,701.14,562.1,703.61z"
    class="color5c7ee0 svgShape"></path>
  <polygon fill="#395421" points="534.68 856.54 535.57 869.81 588.61 868.04 588.61 856.54"
    class="color799cf2 svgShape"></polygon>
  <ellipse cx="566.07" cy="880.55" fill="#f79d6b" rx="14.46" ry="10.72" class="colorffa476 svgShape"></ellipse>
  <path fill="#4c302e"
    d="M552.1,877.1c0,0,18.47,7.88,27.05-4.79l33.42,18.47c1.81,1.19,1.96,10.86-0.25,10.86l-65.77,1.16
      L552.1,877.1z"
    class="color2e324c svgShape"></path>
  <g>
    <polygon fill="#f79d6b" points="563.88 384.13 566.51 416.04 533.93 415.35 539.7 379.23"
      class="colorffa476 svgShape"></polygon>
    <path fill="#c3d85c"
      d="M477.64,419.31c9.09-10.58,37.54-14.3,68.21-14.3c30.67,0,65.29,2.71,71.51,16.12
      c6.25,13.47-22.98,118.55-22.98,118.55s-73.48,8.79-78.95,5.26c-5.47-3.52-13.65-9.85-13.64-10.55
      C494.9,532.07,464.63,434.45,477.64,419.31z"
      class="colorffc022 svgShape"></path>
    <path fill="#acc148"
      d="M614.94,455l-14.52,6.65c0,0,2.42,45.36,2.42,46.57C602.85,509.43,614.94,455,614.94,455z"
      class="colore5a517 svgShape"></path>
    <path fill="#4d6b30"
      d="M550.59,491.27c11.18,0.67,36.13-3.79,42.43-5.84c3.17-1.03,5.8-2.21,7.99-3.47
      c10.91-6.24,10.91-14.26,10.91-14.26l-12.7,106.81l-114.94,1.77l-0.88-21.22l-0.88-72.5
      C482.52,482.56,487.57,487.49,550.59,491.27z"
      class="color5c7ee0 svgShape"></path>
    <path fill="none" stroke="#000000" stroke-miterlimit="10" stroke-width="1.5"
      d="M486.08,484.1c0,0,43.77,6.65,59.8,7.16c9.29,0.3,41.46-3.9,41.46-3.9s16.8-3.71,23.28-14.32"
      class="colorStroke000 svgStroke"></path>
    <path fill="#4d6b30"
      d="M504.86 406.61c0 0-3.02 23.59-1.81 45.97 1.07 19.77 4.37 44.87 4.37 44.87l15.61.69c0 0-4.29-53.12-4.26-61.89.02-8.74 1.21-32.06 1.21-32.06L504.86 406.61zM570.79 404.79c0 0-2.24 5.42-6.05 35.08-2.61 20.33-3.63 59.88-3.63 59.88l12.85-1.62c0 0 1.74-34.38 3.66-45.29 1.92-10.86 6.47-46.85 6.47-46.85L570.79 404.79z"
      class="color5c7ee0 svgShape"></path>
    <path fill="none" stroke="#000000" stroke-miterlimit="10" stroke-width="1.5"
      d="M570.79 404.79c0 0-7.42 30.31-8.52 57.51-1.09 27.2-.45 34.47-.45 34.47M584.33 406.56c0 0-7.42 30.31-8.52 57.51-1.09 27.2-.45 34.47-.45 34.47M505.46 406.56c0 0-3.6 30.19-1.25 57.28 2.34 27.09 3.9 34.33 3.9 34.33M519.98 404.75c0 0-2.34 33.53 0 60.62 2.34 27.09 2.94 31.19 2.94 31.19"
      class="colorStroke000 svgStroke"></path>
    <polygon fill="#395421" points="601.01 481.95 610.62 473.04 600.99 553.29"
      class="color476abf svgShape"></polygon>
    <line x1="482.95" x2="481.63" y1="535.54" y2="469.29" fill="none" stroke="#000000"
      stroke-miterlimit="10" stroke-width="1.5" class="colorStroke000 svgStroke"></line>
  </g>
  <g>
    <path fill="#f79d6b"
      d="M577.17,334.65c0,0,3.63,12.63,4.82,22.7c1.19,10.06,0.39,24.51-4.79,28.85
      c-5.18,4.34-14.74,2.95-18.67-0.21c-3.93-3.16-7.33-12.1-5.92-24.33C554,349.43,577.17,334.65,577.17,334.65z"
      class="colorffa476 svgShape"></path>
    <path fill="#d85b53"
      d="M515.88,337.4c0.97-2.11,2.2-4.1,3.72-5.89c6.18-7.29,17.58-11.78,27.03-12.37
      c9.01-0.56,14.95,9.38,23.47,10.06c5.03,0.4,9.81-1.45,13.35-1.64c3.54-0.19,4.08-1.57,4.08-1.57s-3.29,8.28-7.38,9.86
      c-4.08,1.57-4.08,1.57-4.08,1.57s-0.7,6.12-0.85,10.85c-0.15,4.74,2.13,12.04,2.13,12.04s-5.03-0.4-5.97-2.37
      c-0.94-1.97-6.92-4.35-7.07,0.39c-0.15,4.74-0.31,20.9-6.04,26.62c-11.56,11.53-20.5,8.55-30.67-2.69
      c-6.28-6.94-11.55-15.08-13.58-24.22C512.49,351.18,512.99,343.72,515.88,337.4z"
      class="colorba6a4a svgShape"></path>
    <path fill="#f79d6b"
      d="M571.37,358.75c-0.73-1.82-1.79-3.54-3.13-5.04c-0.66-0.74-1.57-1.49-2.53-1.33
      c-0.7,0.12-1.18,0.68-1.56,1.23c-1.55,2.27-2.33,5.26-1.14,7.85c1.19,2.59,4.81,4.29,7.26,2.89"
      class="colorffa476 svgShape"></path>
    <path fill="none" stroke="#2b100e" stroke-linecap="round" stroke-linejoin="round"
      stroke-miterlimit="10" stroke-width=".75"
      d="M520.36 342.17c1.53-7.01 7.5-12.51 14.29-14.8 6.8-2.3 14.27-1.76 21.21.06M521.9 361.46c1.11 11.21 9.86 21.25 20.81 23.9M528.13 357.53c3.74 6.49 11.24 10.62 18.72 10.3M533.95 347.15c9.92.11 19.86-2.05 28.84-6.27"
      class="colorStroke0e1a2b svgStroke"></path>
    <path fill="#f79d6b"
      d="M580.51,356c0,0,4.41,8.83,3.78,10.09c-0.63,1.26-3.15,1.26-3.15,1.26L580.51,356z"
      class="colorffa476 svgShape"></path>
    <path fill="#4d6b30"
      d="M518.06,368.33c0,0,2.96,0.69,11.07-1.71c8.11-2.4,13.98-4.35,13.98-4.35l0.75,3.76
      c0,0-10.37,2.85-15.63,3.9c-5.26,1.05-8.8,1.3-8.8,1.3L518.06,368.33z"
      class="color5c7ee0 svgShape"></path>
    <path fill="#4d6b30"
      d="M580.85,336.05c0,0-6.6-21.34-27.04-21.95c-20.43-0.61-33.66,7.5-37.57,19.22s-3.79,25.29-2.14,29.64
      c1.65,4.36,4.71,10.01,4.71,10.01l3.4-1.53c0,0-6.73-14.53-4.48-18.88c2.26-4.36,10.67-5.25,14.28-2.85
      c3.6,2.41,6.01,6.61,7.21,8.72c1.2,2.1,2.54,8.07,2.54,8.07s19.04-4.15,24.13-7.65C580.32,348.93,580.85,336.05,580.85,336.05z"
      class="color5c7ee0 svgShape"></path>
    <path fill="#4d6b30"
      d="M573.49,330.49c0,0,13.68-5.85,16.08-5.55c2.4,0.3,8.41,3.01,8.71,8.42c0.3,5.41-3.31,6.91-9.02,9.61
      c-5.71,2.7-13.22,4.2-16.38,4.05C569.72,346.86,573.49,330.49,573.49,330.49z"
      class="color5c7ee0 svgShape"></path>
    <g>
      <path fill="#f79d6b"
        d="M557.03,355.6c-1.2,4.44,1.52,10.85,5.74,12.79c4.21,1.93,8.61-0.08,9.82-4.5
      c1.22-4.43-1.28-11.69-5.51-13.64C562.84,348.29,558.23,351.14,557.03,355.6z"
        class="colorffa476 svgShape"></path>
      <path fill="none" stroke="#000000" stroke-linecap="round" stroke-linejoin="round"
        stroke-miterlimit="10" stroke-width=".961"
        d="M562.13,356.95c0,0,4.8-0.9,6.9,5.08c0,0-2.71-3.67-4.98-2.09"
        class="colorStroke000 svgStroke"></path>
    </g>
  </g>
  <g>
    <path fill="#4d6b30"
      d="M496.38,524.57c0,0-14.66,34.49-17.05,68.01c-1.16,16.21,3.18,30.06,50.07,35.23
  c74.75,8.24,72.34-17.94,73.57-29.43c1.23-11.44-6.78-65.36-6.78-65.36L496.38,524.57z"
      class="color5c7ee0 svgShape"></path>
    <path fill="none" stroke="#000000" stroke-miterlimit="10" stroke-width="1.5"
      d="M489.74 614.67c9.27 10.28 38.94 12.73 43.19 6.67M535.36 590.71c-1.19 5.58-1.79 11.28-1.77 16.98.02 5.84-.23 13.78 4.05 17.76 3.72 3.46 9.17 3.01 14.22 3.54"
      class="colorStroke000 svgStroke"></path>
    <path fill="none" stroke="#4da2b5" stroke-miterlimit="10"
      d="M586.43 573.08c-10.33 2.73-19.59 2.73-30.25 1.98l.42 30.22 18.47 9 12.31-9.94L586.43 573.08zM494.65 563.81c8.72 3.78 17.98 6.31 27.41 7.5l-6.58 29.93-19.02 2.44-8.29-13.66L494.65 563.81z"
      opacity=".59" class="colorStroke4d6ab5 svgStroke"></path>
  </g>
  <g>
    <path fill="#f79d6b"
      d="M668.81,392.67c-8.56-2.21-8.4-1.92-14.79,1.22l-23.89,9.62l5.35,40.15c12.09-2.17,37.13-18.57,43.32-22.99
  c1.6-1.14,2.81-5.48,3.54-15.03C680.53,401.45,673.09,394.37,668.81,392.67z"
      class="colorf79d6b svgShape"></path>
    <path fill="#c3d85c"
      d="M593.55,409.35l47.24-10.66c0,0,3.95,12.14,6.27,25.69c2.3,13.45,3.76,23.81,3.76,23.81l-48.25,18.8
  C602.56,466.99,579.66,442.25,593.55,409.35z"
      class="colorffc022 svgShape"></path>
    <path fill="none" stroke="#000000" stroke-miterlimit="10" stroke-width="1.5"
      d="M605.81,465.24l45.01-17.05c0,0-7.08-44-9.58-48.54l9.58-4.1"
      class="colorStroke000 svgStroke"></path>
  </g>
  <g>
    <path fill="#f79d6b"
      d="M655.59,396.4l50.78-68.45c0,0,13.98,8.83,14.72,11.78c0.74,2.94-33.99,78.18-40.48,80.96
    c-15.46,6.62-25.76-2.94-27.97-10.3C650.44,403.03,655.59,396.4,655.59,396.4z"
      class="colorf79d6b svgShape"></path>
    <polygon fill="#c3d85c" points="706.37 327.95 677.49 365.3 701.62 385.66 722.29 338.9"
      class="colorffc022 svgShape"></polygon>
    <path fill="#c3d85c"
      d="M706.48,310.91c1.58-3.04,3.82-5.68,6.05-8.29c3.71-4.35,7.85-3.45,11.56-7.8
  c1.73,6.76-0.47,9.08-5.04,14.36c5.35,0.45,10.62,1.84,15.5,4.08c0.54,0.25,1.14,0.57,1.3,1.15c0.09,0.33,0.02,0.67-0.05,1
  c-1.48,6.98-2.96,13.95-4.44,20.93c-0.11,0.53-0.23,1.07-0.57,1.49c-0.39,0.49-1.01,0.74-1.6,0.96c-2.3,0.87-4.61,1.74-6.91,2.61
  C701.98,349.06,699.3,324.78,706.48,310.91z"
      class="colorffc022 svgShape"></path>
  </g>
  <g>
    <path fill="#f79d6b"
      d="M1283.36,511.9l-9.62,71.55c-1.17,11.02-7.97,18.85-18.96,17.38l0,0c-9.95-1.34-17.3-9.95-17.05-19.99
  l2.08-72.6L1283.36,511.9z"
      class="colorf79d6b svgShape"></path>
    <path fill="#c3d85c"
      d="M1289.1,551.5l12.09-62.11c1.63-15.02-8.64-28.73-23.51-31.4l0,0c-15.91-2.85-29.7,7.78-32.16,23.75
  l-14.04,62.81L1289.1,551.5z"
      class="colorffc022 svgShape"></path>
    <polyline fill="none" stroke="#000" stroke-miterlimit="10" stroke-width="1.5"
      points="1289.1 551.5 1231.49 544.56 1240.23 501.44"></polyline>
    <line x1="1277.61" x2="1273.01" y1="549.8" y2="585.98" fill="none" stroke="#000000"
      stroke-miterlimit="10" stroke-width="1.5" class="colorStroke000 svgStroke"></line>
  </g>
  <g>
    <path fill="#f79d6b"
      d="M1258.1,567.09L1258.1,567.09c-11.7-1.05-21.37,9.99-19.7,21.62l24.63,82.72l25.54-2.89l-14.82-84.45
    C1273.56,574.81,1267.34,567.92,1258.1,567.09z"
      class="colorf79d6b svgShape"></path>
    <line x1="1271.44" x2="1284.37" y1="576.65" y2="641.38" fill="none" stroke="#000000"
      stroke-miterlimit="10" stroke-width="1.5" class="colorStroke000 svgStroke"></line>
    <polygon fill="#c3d85c" points="1264.22 678.46 1247.15 632.3 1283.83 620.96 1293.56 681.6"
      class="colorffc022 svgShape"></polygon>
  </g>
  <g>
    <path fill="#35201f"
      d="M1230.98,341.94c-7.81,3.35-10.8,13.78-18.73,16.84c-5.12,1.98-10.95,0.32-16.34,1.36
    c-6.79,1.31-12.38,7.34-13.19,14.2c-0.68,5.82,1.67,12.18-1.11,17.33c-3.21,5.94-11.67,7.19-15.33,12.86
    c-5.81,9.02,4.29,20.09,4.61,30.82c0.09,3-0.61,6.01-0.23,8.99c0.89,6.83,8.39,12.01,15.09,10.43c2.88-0.68,5.53-2.4,8.49-2.52
    c4.77-0.18,8.57,3.71,12.86,5.81c5.92,2.9,13.43,2.2,18.71-1.74c5.28-3.94,8.09-10.94,7-17.44c-0.68-4.01-2.71-8.01-1.69-11.95
    c2.27-8.82,15.8-7.86,22.15-14.39c5.53-5.68,3.6-14.04,3.49-21.12c-0.07-4.09-0.4-8.41,1.26-12.28
    c2.29-5.33,7.05-6.01,10.25-9.96c7.63-9.4-3.51-13.07-10.76-17.87C1249.91,346.29,1240.9,337.69,1230.98,341.94z"
      class="color35281f svgShape"></path>
    <path fill="none" stroke="#2b100e" stroke-linecap="round" stroke-linejoin="round"
      stroke-miterlimit="10" stroke-width=".75"
      d="M1183.49,439.97c5.99,0.46,10.72-5.55,11.7-11.47c0.98-5.92-0.56-11.94-0.82-17.94
    c-0.26-6,1.27-12.79,6.4-15.91c3.69-2.24,8.28-2.03,12.57-2.48c4.29-0.45,9.1-2.16,10.55-6.23c0.98-2.76,0.1-5.81,0.21-8.74
    c0.27-7.63,7.41-13.59,14.89-15.14c7.47-1.55,17.2,1.58,24.62,3.38"
      class="colorStroke0e1a2b svgStroke"></path>
    <path fill="none" stroke="#2b100e" stroke-linecap="round" stroke-linejoin="round"
      stroke-miterlimit="10" stroke-width=".75"
      d="M1175.42 413.33c-1.46-4.56.46-9.56 3.2-13.49 3.16-4.54 7.47-8.28 12.4-10.79 2.71-1.37 5.94-2.75 6.74-5.68.93-3.38-2-6.9-1.18-10.3.36-1.48 1.39-2.71 2.53-3.72 2.73-2.41 6.3-3.85 9.94-4 1.37-.06 2.77.05 4.09-.3 5.24-1.39 6.14-8.45 9.77-12.47 3.43-3.79 9.26-4.56 14.21-3.27 4.95 1.29 9.25 4.27 13.51 7.09 4.26 2.82 8.75 5.61 13.8 6.4M1261.39 368.39c-8.49.45-19.86 13.08-17.46 21.24.91 3.09 2.88 5.99 2.69 9.2-.32 5.41-6.24 8.38-11.16 10.64-7.9 3.63-16.14 9.32-17.39 17.92-.56 3.84.4 7.79-.29 11.61-.68 3.82-4.13 7.72-7.87 6.68"
      class="colorStroke0e1a2b svgStroke"></path>
    <path fill="#684543"
      d="M1248.41,380.01c-1.27,2.92-1.01,6.29-0.22,9.37c0.78,3.09,2.06,6.03,2.79,9.13
    c1.06,4.5,0.93,9.28-0.37,13.72c2.87-2.67,3.88-6.85,3.78-10.78c-0.1-3.92-1.15-7.75-1.74-11.63c-0.59-3.88-0.69-8.01,0.99-11.55
    c1.7-3.57,4.89-5.76,7.76-8.27C1256.91,371.91,1250.42,375.39,1248.41,380.01z"
      class="color685243 svgShape"></path>
    <path fill="#993d37"
      d="M1177.7,451.09c2.26,0.99,4.87,0.83,7.27,0.23c7.07-1.77,12.9-7.19,16.19-13.69
    c3.29-6.5,4.24-14,3.84-21.27c-1.26,4.95-2.94,9.8-5.02,14.47c-2.37,5.31-5.42,10.59-10.24,13.83c-5.7,3.83-9.86,1.23-15.44,1.51
    C1173.94,448.33,1175.76,450.24,1177.7,451.09z"
      class="color995037 svgShape"></path>
    <path fill="#684543"
      d="M1240.27,340.92c-7.55-1.16-15.6,0.88-21.47,5.76c-3.27,2.72-5.82,6.21-9.02,9.01
    c-3.2,2.79-7.46,4.92-11.62,4.03c3.47,2.82,8.74,2.32,12.62,0.11c3.89-2.21,6.88-3.56,9.83-6.92c2.96-3.36,6.16-8.92,10.41-10.29
    c6.89-2.22,14.24,1.19,20.45,4.89c4.93,2.94,9.71,6.13,14.31,9.56C1257.36,350.83,1251.41,342.64,1240.27,340.92z"
      class="color685243 svgShape"></path>
    <path fill="#ffffff"
      d="M1265.77,356.44c-1.06,3.54,1.51,8.02-0.68,11.17c-3.67,5.28,6.67,9.95,8.14,3.43
      c0.9-4.01,1.54-8.65-1.07-12.23c-1.01-1.38-2.77-2.8-4.56-2.92C1267.19,355.87,1265.93,355.89,1265.77,356.44L1265.77,356.44z"
      class="colorfff svgShape"></path>
  </g>
  <g>
    <polygon fill="#f79d6b"
      points="1169.39 914.86 1162.69 859.81 1197.47 852.3 1205.04 920.95 1178.8 927.27"
      class="colorf79d6b svgShape"></polygon>
    <path fill="#4d6b30"
      d="M1213.58,746.54c-0.19-11.7-2.32-24.08-2.86-27c-2.85-15.58-14.22-24.8-29.65-27.46
    c-15.43-2.66-39.37,10.52-44.2,25.59c-11.08,34.57,20.63,173.81,22.16,173.75c0,0,48-2.1,48.01-2.1
    C1212.36,889.08,1214.34,792.77,1213.58,746.54z"
      class="color5c7ee0 svgShape"></path>
    <path fill="#4c302e"
      d="M1166.9,914.87c0,0,26.2,12.06,38.37-7.33l43.65,30.95c2.57,1.82,2.78,10.9-0.36,10.9l-89.55-0.93
      L1166.9,914.87z"
      class="color2e324c svgShape"></path>
  </g>
  <g>
    <path fill="#4d6b30"
      d="M1207.95,746.64c2.06-1.45,3.86-3.04,5.46-4.75c-0.4-6.23-0.98-12.11-1.76-17.53
  c-5.82-40.04-13.34-79.83-21.95-119.35c-3.55-16.28-6.65-61.82-26.78-67c-7.53-1.94-15.44,0.04-22.96,2.02
  c-3.94,1.03-7.88,2.07-11.81,3.1c-12.46,3.27-26.45,7.77-31.87,19.46c-3.3,7.13-2.56,15.42-1.2,23.16
  c4.41,25.08,14.93,48.78,20.63,73.72c3.03,13.26,5.96,26.55,9.01,39.81c2.22,9.64,3.6,35.79,10.31,42.69
  C1154.67,762.19,1182.34,763.45,1207.95,746.64z"
      class="color5c7ee0 svgShape"></path>
    <line x1="1109.37" x2="1134.54" y1="627.55" y2="737.05" fill="none" stroke="#000000"
      stroke-miterlimit="10" stroke-width="1.5" class="colorStroke000 svgStroke"></line>
  </g>
  <g>
    <polygon fill="#f79d6b"
      points="940.57 866.16 968.09 820.28 1000.19 835.58 963.38 897.96 940.21 882.56"
      class="colorf79d6b svgShape"></polygon>
    <path fill="#4d6b30"
      d="M1077.79,740.62c6.89-11.13,14.9-25.52,15.69-38.83c0.6-10.12-3.37-17.69-8.83-26.18
    c-5.47-8.49-14.53-14.81-24.49-15.81c-4.78-0.48-21.14-1.39-25.76-0.05c-39.97,11.55-77.99,164.43-89.62,190.11l38.77,26.29
    C1016.21,827.49,1073.74,747.15,1077.79,740.62z"
      class="color5c7ee0 svgShape"></path>
    <path fill="#4c302e"
      d="M938.72,864.27c0,0,12.29,28.99,32.74,23.95l12.01,48.12c1.31,5.23-9.12,12.39-12.85,8.53L913.39,886
      L938.72,864.27z"
      class="color2e324c svgShape"></path>
  </g>
  <g>
    <path fill="#4d6b30"
      d="M1168.88,560.23c2.17-7.79,2.49-15.47-0.19-22.67c-2.9-7.81-8.33-14.44-14.39-20.16
  c-8.78-8.3-19.49-15.15-31.46-16.77c-44.37-5.99-75.08,62.27-85.98,95.27c-4.04,12.23-7.4,24.67-10.59,37.14
  c-4.21,16.46-10.14,32.52-15.07,48.84c-0.7,2.32-1.4,4.69-1.45,7.12c-0.07,3.16,0.96,6.22,1.97,9.21
  c1.32,3.9,2.66,7.83,4.58,11.47c4.81,9.1,13.27,16.03,22.91,19.4c7.72,2.7,15.81,2.98,23.83,1.72c6.98-1.1,18.03-5.63,24.91-8.45
  c28.79-56.25,44.31-101.85,44.31-101.85C1142.36,604.61,1162.82,581.96,1168.88,560.23z"
      class="color5c7ee0 svgShape"></path>
    <line x1="1089.78" x2="1141.48" y1="715.8" y2="608.35" fill="none" stroke="#000000"
      stroke-miterlimit="10" stroke-width="1.5" class="colorStroke000 svgStroke"></line>
  </g>
  <g>
    <path fill="#c3d85c"
      d="M1157.1,384.87c7.09-12.52,24.8-15.35,38.23-10.42c22.73,8.34,39.67,28.22,39.67,28.22l48.62,48.62
    l10.49,13.35c0,0,6,6.4,6.62,11.97c1.03,9.38-11.91,32-26.86,41.69c-11.48,7.44-27.96,16.21-49.59,22.93l-42.65,17.78
    c0,0-94.15,22.95-97.11-51.29L1157.1,384.87z"
      class="colorffc022 svgShape"></path>
    <path fill="#f79d6b"
      d="M1270.15,432.77c0,0,2.98,4.22,13,17.77c0,0-44.9,7.55-50.06-49.78
    C1233.08,400.76,1240.8,405.09,1270.15,432.77z"
      class="colorf79d6b svgShape"></path>
    <polygon fill="#4d6b30" points="1274.83 440.57 1226.07 503.78 1240.17 514.21 1285.28 452.07"
      class="color5c7ee0 svgShape"></polygon>
    <path fill="#4d6b30"
      d="M1216.32,381.3c0,0-12.69,29.96-17.55,38.53c-5.45,9.6-23.69,34.17-23.69,34.17l12.85,10.94
    c0,0,19.44-28.07,25.14-38.43c4.46-8.12,15.5-35.46,15.5-35.46L1216.32,381.3z"
      class="color5c7ee0 svgShape"></path>
    <path fill="#4d6b30"
      d="M1183.51,429.36l71.5,67.69l-17.16,43.85l-41.95,18.11l-16.21,27.65c0,0-32.93-2.69-55.67-16.24
    s-57.78-34.28-57.78-34.28l58.15-100.1c0,0,17.19,5.13,30.62,2C1168.46,434.9,1183.51,429.36,1183.51,429.36z"
      class="color5c7ee0 svgShape"></path>
    <polyline fill="none" stroke="#000" stroke-miterlimit="10" stroke-width="1.5"
      points="1241.68 483.31 1233.14 493.17 1244.64 503.78 1252.89 495.42"></polyline>
    <polyline fill="none" stroke="#000" stroke-miterlimit="10" stroke-width="1.5"
      points="1188.34 434.45 1180.98 444.54 1193.36 454.26 1200.89 446.11"></polyline>
    <circle cx="1192.92" cy="443.21" r="3.09" fill="none" stroke="#000000" stroke-miterlimit="10"
      stroke-width="1.5" class="colorStroke000 svgStroke"></circle>
    <circle cx="1244.64" cy="491.4" r="3.54" fill="none" stroke="#000000" stroke-miterlimit="10"
      stroke-width="1.5" class="colorStroke000 svgStroke"></circle>
  </g>
  <g>
    <path fill="none" stroke="#82606c" stroke-miterlimit="10" stroke-width="10"
      d="M1058.4,483.4c0,0-82.2-64.85-137.55,3.69c-40.67,50.36-27.24,136.07-9.23,204.02
c18.73,70.68,43,189.67-62.41,226.47"
      class="colorStroke606d82 svgStroke"></path>
  </g>
  <g>
    <path fill="none"
      d="M737.58,835.11h0.61v0.55c-0.28,0.01-0.56,0.03-0.86,0.04l0.03-0.77L737.58,835.11z"></path>
    <path fill="#723d50"
      d="M625.16,858.57c-0.03,0.03-0.06,0.06-0.09,0.1v-34.46c0-5.73,4.65-10.38,10.38-10.38h28.5
      c-3.05,1.76-5.91,3.77-8.47,6.08C640.46,833.42,630.55,848.78,625.16,858.57z"
      class="color3d4f72 svgShape"></path>
    <path fill="#ffffff"
      d="M625.07,858.72v-0.06c0.03-0.03,0.06-0.06,0.09-0.1C625.13,858.62,625.1,858.67,625.07,858.72z"
      class="colorfff svgShape"></path>
    <path fill="#723d50"
      d="M817.86,813.22c9.73,4.87,9.73,13.38,9.73,13.38h3.65l3.65,18.25h-2.43l-2.43-9.73l-1.82-0.04v-1.78
      h-50.64l-2.27-26.15C775.29,807.13,808.13,808.35,817.86,813.22z"
      class="color3d4f72 svgShape"></path>
    <path fill="#ffffff"
      d="M622.96 862.71c-1.85 3.65-2.76 5.85-2.76 5.85S620.9 866.13 622.96 862.71zM622.96 862.71c.6-1.18 1.3-2.52 2.11-3.99v.85C624.25 860.68 623.55 861.74 622.96 862.71z"
      class="colorfff svgShape"></path>
    <path fill="#c5f5ff" stroke="#352726" stroke-miterlimit="10"
      d="M755.22,833.28v1.82v47.41c0,3.71,3.01,6.72,6.72,6.72h7.24c3.71,0,6.72-3.01,6.72-6.72v-47.41v-1.82h0.58
      l0.03,0.61l1.11,0.03l-0.05-0.63h50.64v1.78v60.86h-43.79v-3.04h-35.12h-11.1v-57.22v-0.55v-1.82H755.22z"
      opacity=".93" class="colorc5dbff svgShape colorStroke262e35 svgStroke"></path>
    <polygon fill="#d898af" points="776.48 833.28 777.56 833.28 777.62 833.92 776.5 833.89"
      class="color989dd8 svgShape"></polygon>
    <rect width="6.08" height="3.65" x="829.42" y="903.83" fill="#372928"
      class="color282f37 svgShape"></rect>
    <path fill="#723d50"
      d="M722.38,918.43v1.05l2.53,4.46l4.46,7.87h39.24h5.99l7.8-13.38l0.71-1.22h36.59h7.3h2.43v-8.51v-1.22h6.08
      h23.11v23.11H835.5v3.65h-6.08v4.87l-17,4.87h-35.21c-3.41,0-6.35-1.99-7.74-4.87h-78.71v-11.04v-9.64H722.38z"
      class="color3d4f72 svgShape"></path>
    <rect width="43.79" height="3.04" x="784.41" y="895.93" fill="#ffffff" class="colorfff svgShape"></rect>
    <rect width="4.87" height="3.04" x="779.55" y="895.93" fill="#ffffff" class="colorfff svgShape"></rect>
    <path fill="#c3d85c" stroke="#352726" stroke-miterlimit="10"
      d="M616.55,907.26c0,0.14,0.05,0.28,0.15,0.39L639.45,934c0.13,0.15,0.33,0.23,0.53,0.21l50.23-6.07
      c0.31-0.04,0.54-0.3,0.54-0.6v-8.49c0-0.34,0.27-0.61,0.61-0.61h30.41c0.34,0,7.42,13.07,7.42,13.07
      c0.11,0.19,0.31,0.31,0.53,0.31h44.52c0.22,0,7.61-12.47,7.61-12.47c0.24-0.41,0.53-0.91,0.53-0.91l0.71-1.22h35.98
      c0.34,0,0.61-0.27,0.61-0.61c0,0.34,0.27,0.61,0.61,0.61h6.08c0.34,0,0.61-0.27,0.61-0.61v0.61h2.43v-8.51v-1.22v-3.65h-0.61
      c0.34,0,0.61-0.27,0.61-0.61v-6.69c0-0.34-0.27-0.61-0.61-0.61c-0.34,0-0.61,0.27-0.61,0.61v1.82c0,0.34-0.27,0.61-0.61,0.61
      h-42.57c-0.34,0-0.61,0.27-0.61,0.61v-0.61h-4.87v0.61c0-0.34-0.27-0.61-0.61-0.61c0.34,0,0.61-0.27,0.61-0.61v-1.82
      c0-0.34,0.27-0.61,0.61-0.61h3.65c0.34,0,0.61-0.27,0.61-0.61v-1.82c0-0.34-0.27-0.61-0.61-0.61h-33.88
      c-0.35,0-0.62,0.29-0.61,0.64c0.07,1.66,0.13,3.29,0.19,4.87c0.01,0.33,0.28,0.58,0.61,0.58h0.05c-0.35,0-0.62,0.29-0.61,0.64
      c0-0.02,0-0.03,0-0.05c-0.01-0.33-0.28-0.59-0.61-0.59h0.58c-0.08-1.96-0.16-3.99-0.24-6.08h-11.1v0.61
      c0-0.34-0.27-0.61-0.61-0.61c0.34,0,0.61-0.27,0.61-0.61v-56.61c-0.28,0.01-0.56,0.03-0.86,0.04l0.03-0.77
      c0,0,0.03-0.73,0.05-1.24l0.77-20.86l-0.82,22.1l0.22,0.18h0.61v-1.22c0-0.34,0.27-0.61,0.61-0.61h15.81
      c0.34,0,0.61,1.82,0.61,1.82s0,0.27,0,0.61v46.19c0,4.05,3.28,7.33,7.32,7.33h6.03c4.05,0,7.32-3.28,7.32-7.33v-46.19
      c0-0.34-0.27-0.61-0.61-0.61h0.61v-1.82h0.58h1.09l-2.27-26.15l0,0.04c0-0.03,0-0.05-0.01-0.07l-7.2-42
      c-0.05-0.31-0.33-0.52-0.64-0.5l-18.39,1.15c-0.3,0.02-0.55,0.26-0.57,0.56c-0.23,2.95-1.43,17.64-3.61,27.45
      c-1.92,8.65-9.92,8.95-13.19,8.69c-0.52-0.04-0.85,0.56-0.53,0.98l6.89,9.01l-6.68-8.74c-0.35-0.46-1.09-0.21-1.09,0.37v-1.23
      c0-0.32-0.24-0.58-0.56-0.61c-4.81-0.33-39.56-2.22-63.68,10.44c-0.56,0.3-2.1,1.15-2.1,1.15c-3.05,1.76-5.91,3.77-8.47,6.08
      c-7.81,7.03-26.4,24.98-34.42,45.41C613.66,884.19,616.52,905.86,616.55,907.26z"
      class="colorffc022 svgShape colorStroke262e35 svgStroke"></path>
    <circle cx="674.94" cy="906.87" r="46.83" fill="#4c302e" class="color2e324c svgShape"></circle>
    <circle cx="674.94" cy="908.09" r="27.37" fill="#d5e8c6"
      transform="rotate(-54.718 674.98 908.132)" class="colorc6cde8 svgShape"></circle>
    <circle cx="674.94" cy="907.48" r="12.16" fill="#4c302e" class="color2e324c svgShape"></circle>
    <rect width="88.79" height="7" x="740.01" y="892.58" fill="#372928"
      transform="rotate(-180 784.41 896.077)" class="color282f37 svgShape"></rect>
  </g>
  <g>
    <path fill="#f79d6b"
      d="M1275.28,388.47c-5.48,3.83-10.95,7.66-16.43,11.48c-3.5,2.45-6.94,5.1-10.56,7.38
  c-4.87,3.06-8.24,4.92-6.55,11.85c0.87,3.59,3.2,6.72,6.06,9.06c2.23,1.82,4.84,3.24,7.66,3.77c8.81,1.65,13.89-6.86,19.09-12.47
  c3.89-4.2,7.78-8.4,11.67-12.59L1275.28,388.47z"
      class="colorf79d6b svgShape"></path>
    <polygon fill="#af372f" points="1267.09 428.19 1261.26 398.4 1274.92 387.48 1284 409.28"
      class="coloraf4e2f svgShape"></polygon>
  </g>
  <g>
    <path fill="#35201f"
      d="M1325.21,393.71c-14.93,15.01-37.47,16.75-53.63,0.68c-16.16-16.07-17.95-45.2-3.02-60.21
  c14.93-15.01,39.9-16.05,56.07,0.03C1340.78,350.28,1340.13,378.71,1325.21,393.71z"
      class="color35281f svgShape"></path>
    <path fill="#f79d6b"
      d="M1314.08,344.61c6.03,3.45,11.38,8.16,15.24,13.91c5.23,7.78,9.68,20.01-0.79,32.51
  c-17.45,20.83-35.13,31.84-49.35,26.44c-10.92-4.14-14.26-9.95-18.1-23.4c-1.43-5-0.2-16.8,3.56-20.7l6.25-12.66
  C1270.9,360.71,1285.27,328.1,1314.08,344.61z"
      class="colorf79d6b svgShape"></path>
    <path fill="#35201f"
      d="M1269.51,350.02c0,0,46.01,25.3,62.49,1.1c0,0-9.28-16.46-31.13-15.52
  C1279.01,336.54,1269.51,350.02,1269.51,350.02z"
      class="color35281f svgShape"></path>
    <polygon fill="#35201f" points="1286.5 354.84 1267.76 373.16 1273.18 350.92"
      class="color35281f svgShape"></polygon>
    <path fill="#35201f"
      d="M1324.23,358.21c0,0,3.63,6.19,5.09,13.47c1.9,9.49-0.46,15.2-1.4,22.37c0,0,26.62-19.21,5.36-42.12
  l-13.05-3.69L1324.23,358.21z"
      class="color35281f svgShape"></path>
    <path fill="#47302f"
      d="M1322.21 351.89c-2.24 2.35-5.01 4.18-8.04 5.34-2.64 1.01-5.46 1.49-8.28 1.7-3.61.27-7.35.07-10.66-1.4-2.64-1.17-6.87-4.41-6.24-7.59 5.32.47 10.71 3.7 16.34 4.3C1311.05 354.85 1316.93 354.27 1322.21 351.89zM1334.69 371.22c.02 2.87-.77 5.67-1.55 8.43 2.26-2.08 3.43-5.1 3.95-8.13.27-1.58.38-3.22-.1-4.75-.91-2.91-3.84-5.1-6.48-6.32C1331.24 364.44 1334.66 366.75 1334.69 371.22z"
      class="color47392f svgShape"></path>
    <path fill="none" stroke="#191616" stroke-linecap="round" stroke-linejoin="round"
      stroke-miterlimit="10" stroke-width="1.5"
      d="M1331.05,352.97c5.76,2.75,9.94,8.59,10.68,14.93c0.74,6.34-1.97,12.99-6.95,16.99"
      class="colorStroke161719 svgStroke"></path>
  </g>
  <g>
    <polyline fill="none" stroke="#000" stroke-linecap="round" stroke-linejoin="round"
      stroke-miterlimit="10" stroke-width=".809"
      points="1295.41 400.49 1299.65 400.98 1302.13 392.78"></polyline>
  </g>
  <g>
    <path fill="#ffffff"
      d="M1297.04,381.21c-1.75,1.71-4.14,2.09-5.35,0.86c-1.21-1.23-0.77-3.62,0.98-5.33
      c1.75-1.71,4.14-2.09,5.35-0.86C1299.23,377.11,1298.79,379.5,1297.04,381.21z"
      class="colorfff svgShape"></path>
    <path
      d="M1297.22,380.58c-1.08,1.05-2.51,1.33-3.19,0.63c-0.69-0.7-0.38-2.13,0.7-3.18c1.08-1.05,2.51-1.33,3.19-0.63
  C1298.61,378.11,1298.3,379.53,1297.22,380.58z"
      fill="#000000" class="color000 svgShape"></path>
  </g>
  <g>
    <path fill="#ffffff"
      d="M1314.87,400.93c-1.75,1.71-4.14,2.09-5.35,0.86c-1.21-1.23-0.77-3.62,0.98-5.33
    c1.75-1.71,4.14-2.09,5.35-0.86C1317.05,396.83,1316.61,399.22,1314.87,400.93z"
      class="colorfff svgShape"></path>
    <path
      d="M1315.08,400.62c-1.08,1.05-2.54,1.3-3.26,0.56c-0.73-0.74-0.44-2.2,0.63-3.25c1.08-1.05,2.54-1.3,3.26-0.56
  C1316.44,398.12,1316.16,399.57,1315.08,400.62z"
      fill="#000000" class="color000 svgShape"></path>
  </g>
  <g>
    <path
      d="M1320.56,385.84c0,0-2.65,1.47-0.85,4.07c1.37,1.97,3.16,4.11,3.63,5.5c0.27,0.79,1.11,1.19,1.99,0.94l0,0
c0.71-0.2,1.31-0.77,1.5-1.48c0.4-1.43-0.18-4.86-1.81-7.29C1322.93,384.47,1320.56,385.84,1320.56,385.84z"
      fill="#000000" class="color000 svgShape"></path>
  </g>
  <g>
    <path
      d="M1310.35,372.11c0,0-1.36,2.84-4.92,0.1c-2.7-2.08-7.45-4.86-9.27-5.74c-1.03-0.5-1.68-1.6-1.52-2.6l0,0
c0.12-0.81,0.73-1.39,1.58-1.46c1.71-0.15,7.86,1.47,11.17,3.96C1311.65,369.58,1310.35,372.11,1310.35,372.11z"
      fill="#000000" class="color000 svgShape"></path>
  </g>
  <g>
    <path fill="#ffffff"
      d="M1293.17,408.03l-9.94-12.47c0,0-3.2,6.98-0.48,10.7C1285.99,410.69,1293.17,408.03,1293.17,408.03z"
      class="colorfff svgShape"></path>
  </g>
  <g>
    <path fill="#f79d6b"
      d="M1265.2,354.11c-4,2.43-5.99,9.34-3.67,14.03c2.32,4.69,7.44,6.52,11.44,4.09c4-2.43,6.7-9.81,4.38-14.5
  C1275.04,353.05,1269.2,351.68,1265.2,354.11z"
      class="colorf79d6b svgShape"></path>
    <path fill="none" stroke="#000000" stroke-linecap="round" stroke-linejoin="round"
      stroke-miterlimit="10" stroke-width=".961"
      d="M1268.66,359.02c0,0,4.7,2.98,2.51,9.1c0,0,0.14-4.84-2.87-5.38"
      class="colorStroke000 svgStroke"></path>
  </g>
  <g>
    <path fill="#4d6b30"
      d="M1259.92,346.25c0,0,28.47-11.2,48.3,0.89c13.28,8.09,31.03,37.97,31.03,37.97s4.78-15.61,2.61-39.68
  c-0.86-9.49-35.55-36.14-56.05-25.9C1284.08,320.39,1267.52,323.5,1259.92,346.25z"
      class="color5c7ee0 svgShape"></path>
    <path fill="#4a6637"
      d="M1310.06,347.29c0,0,50.04,27.7,49.14,38.48c-0.9,10.78-23.83,2.01-23.83,2.01s-2.34-10.79-8.51-20.16
  C1320.69,358.25,1310.06,347.29,1310.06,347.29z"
      class="color4367bf svgShape"></path>
  </g>
  <g>
    <path fill="#c3d85c"
      d="M1258.54,687.14c1.09-12.08,11.77-20.98,23.85-19.88c12.08,1.09,17.19,13.56,16.1,25.63
    c-1.09,12.08-7.98,19.19-20.06,18.1C1266.35,709.89,1257.45,699.21,1258.54,687.14z"
      class="colorffc022 svgShape"></path>
    <rect width="12.38" height="656.91" x="1277.02" y="378.93" fill="#775662"
      transform="rotate(-45.219 1283.084 707.382)" class="color566277 svgShape"></rect>
    <path fill="#c3d85c"
      d="M1287.58,703.03c0,0,8.8,4.07,11.13-6.84c2.34-10.91-0.68-26.29-21.59-30.8L1287.58,703.03z"
      class="colorffc022 svgShape"></path>
    <path fill="#c3d85c"
      d="M1292.92,714c0,0,8.46,3.07,9.76-7.21c1.3-10.28-2.7-24.28-22.41-26.8L1292.92,714z"
      class="colorffc022 svgShape"></path>
    <path fill="none" stroke="#000000" stroke-miterlimit="10" stroke-width="1.5"
      d="M1287.58,697.26c1.45,6.61,3.19,13.15,5.21,19.61c5.05-1.62,8.99-6.3,9.72-11.55"
      class="colorStroke000 svgStroke"></path>
    <path fill="#c3d85c"
      d="M1258.72,687.16c1.51-0.47,3.23-0.89,5.4-0.49c2.17,0.41,4.82,1.97,4.97,3.28
    c0.04,0.35-0.08,0.67,0.23,1.05c0.52,0.63,1.75,0.88,2.72,1.17c2.92,0.86,5.37,3.45,4.56,4.82c-0.26,0.44-0.67,1.02,0.16,1.53
    c0.31,0.19,0.69,0.28,1.04,0.39c1.79,0.58,3.12,1.89,3.93,3.05c2.84,4.05,1.93,7.95-2.2,9.41c-1.65,0.58-3.91,0.78-6.4,0.05
    c-1.21-0.36-2.4-0.91-3.54-1.5c-6.63-3.39-12.12-8.06-15.14-12.62C1250.38,691.18,1252.51,689.1,1258.72,687.16z"
      class="colorffc022 svgShape"></path>
    <path fill="none" stroke="#000000" stroke-miterlimit="10" stroke-width="1.5"
      d="M1255.57 694.38c2.63-1.39 5.65-2.5 8.99-3.33M1265.06 701.44c1.81-1.5 4.2-2.67 7.04-3.43M1273.53 707.19c1.58-.97 3.16-1.95 4.74-2.92"
      class="colorStroke000 svgStroke"></path>
  </g>
  <g>
    <path fill="#723d50"
      d="M1497.72,934.71h-50.77c-8.59,0-15.56,6.96-15.56,15.56l0,0h79.4l0,0
  C1510.79,941.67,1506.31,934.71,1497.72,934.71z"
      class="color3d4f72 svgShape"></path>
    <path fill="#723d50"
      d="M1562.4,934.71h-74.72c-8.59,0-15.56,6.96-15.56,15.56l0,0h105.84l0,0
  C1577.95,941.67,1570.99,934.71,1562.4,934.71z"
      class="color3d4f72 svgShape"></path>
  </g>
  <g>
    <path fill="#f79d6b"
      d="M1140.09,428.5l-71.1-3.53c-10.96-0.16-19.19-9.75-18.19-21.21l0,0c0.9-10.38,9.12-18.77,19.07-19.47
  l71.98-4.75L1140.09,428.5z"
      class="colorf79d6b svgShape"></path>
    <path fill="#c3d85c"
      d="M1118.89,433.95l50.56-2.18c26.5-15.95,27.3-26.49,29.45-41.53c0,0-3.07-16.17-19.21-18.07l-60.35,4.85
    L1118.89,433.95z"
      class="colorffc022 svgShape"></path>
    <polyline fill="none" stroke="#000" stroke-miterlimit="10" stroke-width="1.5"
      points="1160.82 431.99 1118.89 433.95 1119.34 377.02"></polyline>
    <line x1="1116.68" x2="1083.84" y1="427.28" y2="425.76" fill="none" stroke="#000000"
      stroke-miterlimit="10" stroke-width="1.5" class="colorStroke000 svgStroke"></line>
  </g>
  <g>
    <path fill="#f79d6b"
      d="M1059.85,387.95c-7.96,1.77-15.77,16.17-11.49,26.52l28.99,88.34l23.25-5.27l-13.34-94.56
    C1084.95,394.42,1068.93,385.94,1059.85,387.95z"
      class="colorf79d6b svgShape"></path>
    <polygon fill="#c3d85c" points="1076.65 503.78 1062.51 464.87 1096.99 455.15 1102.29 500.24"
      class="colorffc022 svgShape"></polygon>
    <line x1="1094.34" x2="1089.92" y1="456.03" y2="418.9" fill="none" stroke="#000000"
      stroke-miterlimit="10" stroke-width="1.5" class="colorStroke000 svgStroke"></line>
    <path fill="#c3d85c"
      d="M1075.77,524.11c-7.93-9.25-4.83-19.48,4.42-27.41c9.25-7.93,22.1,0,22.99,0.88
    c8.62,8.62-0.22,26.75-8.84,35.37C1092.57,534.72,1083.7,533.36,1075.77,524.11z"
      class="colorffc022 svgShape"></path>
    <path fill="#c3d85c"
      d="M1110.25,526.76c0,0,9.49-7.45,2.65-16.8c-6.84-9.34-10.35-22.81-28.29-9.73L1110.25,526.76z"
      class="colorffc022 svgShape"></path>
    <path fill="none" stroke="#000000" stroke-miterlimit="10" stroke-width="1.5"
      d="M1102.29 517.04c2.35 4.78 3.65 2.68 5.61 7.64M1088.72 530.15c.2-2.66 1.2-5.25 2.83-7.35M1080.1 525.46c.26-2.64 1.18-5.21 2.66-7.41M1074.04 518.06c.33-2.21 1.24-4.33 2.62-6.09"
      class="colorStroke000 svgStroke"></path>
  </g>
  <g>
    <path fill="#ffffff"
      d="M355.48,746.6c0,0,11.72-16.42,0.39-71.42c0,0-8.98,24.84-6.54,45.09
    C351.78,740.51,355.48,746.6,355.48,746.6z"
      class="colorfff svgShape"></path>
    <path fill="none" stroke="#2b100e" stroke-linecap="round" stroke-linejoin="round"
      stroke-miterlimit="10"
      d="M357.85,744.95c0,0,11.72-16.42,0.39-71.42c0,0-8.98,24.84-6.54,45.09
    C354.15,738.86,357.85,744.95,357.85,744.95z"
      class="colorStroke0e1a2b svgStroke"></path>
    <path fill="#ffffff"
      d="M333.84,810.92c0,0,8.14-29.26,21.95-41.07c13.82-11.81,29.99-32.18,30.96-40.44c0,0,0.53,24.18-10.08,41.25
    C366.07,787.73,340.25,795.08,333.84,810.92z"
      class="colorfff svgShape"></path>
    <path fill="none" stroke="#2b100e" stroke-linecap="round" stroke-linejoin="round"
      stroke-miterlimit="10"
      d="M336.2,809.27c0,0,8.14-29.26,21.95-41.07c13.82-11.81,29.99-32.18,30.96-40.44c0,0,0.53,24.18-10.08,41.25
    C368.43,786.07,342.61,793.43,336.2,809.27z"
      class="colorStroke0e1a2b svgStroke"></path>
    <path fill="#ffffff"
      d="M343.2,787.21c0,0-2.03-10.58-9.51-29.44c-7.48-18.86-9.32-24.23-2-53.82c0,0,2.5,18.36,7.96,28.93
    C345.1,743.44,350.03,770.04,343.2,787.21z"
      class="colorfff svgShape"></path>
    <path fill="none" stroke="#2b100e" stroke-linecap="round" stroke-linejoin="round"
      stroke-miterlimit="10"
      d="M345.56,785.56c0,0-2.03-10.58-9.51-29.44c-7.48-18.86-9.32-24.23-2-53.82c0,0,2.5,18.36,7.96,28.93
    C347.46,741.79,352.39,768.38,345.56,785.56z"
      class="colorStroke0e1a2b svgStroke"></path>
    <path fill="#ffffff"
      d="M323.92,845.66c0,0,18.18-50.64-19.71-94.05c0,0-6.87,29.23-0.27,49.42
    C310.55,821.21,322.39,836.59,323.92,845.66z"
      class="colorfff svgShape"></path>
    <path fill="none" stroke="#2b100e" stroke-linecap="round" stroke-linejoin="round"
      stroke-miterlimit="10"
      d="M326.29,844.01c0,0,18.18-50.64-19.71-94.05c0,0-6.87,29.23-0.27,49.42
    C312.91,819.56,324.76,834.94,326.29,844.01z"
      class="colorStroke0e1a2b svgStroke"></path>
    <path fill="#ffffff"
      d="M320.44,887.01c0,0,3.53-38.25,16.67-56.14c13.14-17.89,39.56-28.78,39.56-28.78s-15.06,37.66-27.31,51.99
    C337.1,868.41,325.22,879.21,320.44,887.01z"
      class="colorfff svgShape"></path>
    <path fill="none" stroke="#2b100e" stroke-linecap="round" stroke-linejoin="round"
      stroke-miterlimit="10"
      d="M322.8,885.36c0,0,3.53-38.25,16.67-56.14c13.14-17.89,39.56-28.78,39.56-28.78s-15.06,37.66-27.31,51.99
    C339.46,866.75,327.58,877.56,322.8,885.36z"
      class="colorStroke0e1a2b svgStroke"></path>
    <path fill="#ffffff"
      d="M282.97,832.11c0,0,31.96,23.66,38.62,72.12c0,0-28.03-20.21-33.84-36.28
    C281.94,851.88,282.97,832.11,282.97,832.11z"
      class="colorfff svgShape"></path>
    <path fill="none" stroke="#2b100e" stroke-linecap="round" stroke-linejoin="round"
      stroke-miterlimit="10"
      d="M285.34,830.46c0,0,31.96,23.66,38.62,72.12c0,0-28.03-20.21-33.84-36.28
    C284.31,850.23,285.34,830.46,285.34,830.46z"
      class="colorStroke0e1a2b svgStroke"></path>
    <g>
      <path fill="#ffffff"
        d="M331.73,937.86c0,0-6.68-17.19,7.65-41.57c14.33-24.38,20.52-26.97,20.52-26.97S358.45,919.73,331.73,937.86
    z"
        class="colorfff svgShape"></path>
      <path fill="none" stroke="#2b100e" stroke-linecap="round" stroke-linejoin="round"
        stroke-miterlimit="10"
        d="M334.09,936.21c0,0-6.68-17.19,7.65-41.57c14.33-24.38,20.52-26.97,20.52-26.97
    S360.81,918.07,334.09,936.21z"
        class="colorStroke0e1a2b svgStroke"></path>
    </g>
    <g>
      <path fill="#ffffff"
        d="M336.53,942.2c-0.15-0.32-0.31-0.63-0.46-0.95c-0.3-0.62-0.6-1.23-0.89-1.82c-0.6-1.17-1.1-2.33-1.6-3.4
      c-0.17-0.39-0.71-1.42-1.42-3.18c-0.36-0.88-0.82-1.91-1.3-3.13c-0.45-1.23-1.01-2.62-1.56-4.21
      c-2.18-6.35-4.54-14.63-5.75-24.94c-0.28-2.58-0.53-5.25-0.64-8c-0.16-2.75-0.16-5.59-0.11-8.52
      c0.12-5.85,0.54-12.05,1.03-18.55c1.02-13,2.71-26.21,6.69-39.12c0.97-3.23,2.05-6.42,3.16-9.57c1.14-3.14,2.31-6.26,3.53-9.33
      c2.42-6.16,4.95-12.19,7.36-18.19c2.4-6,4.6-11.71,6.4-17.2c1.81-5.48,3.27-10.71,4.35-15.66c1.08-4.95,1.75-9.47,2.1-13.53
      c0.2-2.02,0.25-3.94,0.33-5.72c0-1.79,0.04-3.45-0.07-4.98c-0.04-0.77-0.06-1.49-0.11-2.16c-0.07-0.67-0.13-1.29-0.18-1.86
      c-0.06-0.57-0.11-1.1-0.16-1.57c-0.08-0.47-0.15-0.9-0.21-1.28c-0.25-1.51-0.42-2.26-0.5-2.25c-0.11,0.02-0.12,0.81-0.03,2.37
      c0.03,0.39,0.05,0.83,0.09,1.32c0.02,0.49,0.03,1.03,0.05,1.61c0.02,0.58,0.05,1.22,0.07,1.9c0,0.68,0,1.41,0,2.19
      c0.02,6.23-0.8,14.49-3.25,24.44c-1.23,4.98-2.82,10.25-4.79,15.77c-1.97,5.53-4.28,11.32-6.82,17.43
      c-5.06,12.23-10.67,24.81-14.59,38.52c-1.98,6.85-3.35,13.82-4.34,20.77c-1,6.95-1.62,13.89-2.1,20.78
      c-0.49,6.88-0.86,13.5-0.72,19.83c0.16,6.34,0.79,12.34,1.8,17.96c1,5.62,2.34,10.72,3.79,15.3c0.38,1.14,0.75,2.26,1.12,3.34
      c0.38,1.08,0.79,2.12,1.17,3.15c0.19,0.51,0.38,1.02,0.58,1.51c0.21,0.49,0.41,0.97,0.61,1.45c0.4,0.95,0.79,1.89,1.18,2.78
      c3.23,7.14,5.83,11.39,6.91,13.18c0.5,0.81,0.98,1.58,1.42,2.31c0.45,0.72,0.91,1.37,1.32,1.98c0.84,1.23,1.56,2.26,2.25,3.06
      c0.67,0.8,1.24,1.4,1.71,1.81c0.47,0.41,0.81,0.53,1,0.38c0.21-0.16-0.08-0.97-0.88-2.4c-0.2-0.36-0.42-0.74-0.66-1.15
      c-0.24-0.4-0.49-0.83-0.74-1.3c-0.51-0.92-1.09-1.93-1.75-3.03c-0.62-1.12-1.26-2.28-1.93-3.47c-0.34-0.59-0.65-1.21-0.98-1.83
      c-0.33-0.62-0.66-1.25-0.99-1.9C336.86,942.83,336.69,942.51,336.53,942.2z"
        class="colorfff svgShape"></path>
      <path fill="none" stroke="#2b100e" stroke-linecap="round" stroke-linejoin="round"
        stroke-miterlimit="10"
        d="M337.89,940.87c-0.15-0.32-0.31-0.63-0.46-0.95c-0.3-0.62-0.6-1.23-0.89-1.82c-0.6-1.17-1.1-2.33-1.6-3.4
      c-0.17-0.39-0.71-1.42-1.42-3.18c-0.36-0.88-0.82-1.91-1.3-3.13c-0.45-1.23-1.01-2.62-1.56-4.21
      c-2.18-6.35-4.54-14.63-5.75-24.94c-0.28-2.58-0.53-5.25-0.64-8c-0.16-2.75-0.16-5.59-0.11-8.52
      c0.12-5.85,0.54-12.05,1.03-18.55c1.02-13,2.71-26.21,6.69-39.12c0.97-3.23,2.05-6.42,3.16-9.57c1.14-3.14,2.31-6.26,3.53-9.33
      c2.42-6.16,4.95-12.19,7.36-18.19c2.4-6,4.6-11.71,6.4-17.2c1.81-5.48,3.27-10.71,4.35-15.66c1.08-4.95,1.75-9.47,2.1-13.53
      c0.2-2.02,0.25-3.94,0.33-5.72c0-1.79,0.04-3.45-0.07-4.98c-0.04-0.77-0.06-1.49-0.11-2.16c-0.07-0.67-0.13-1.29-0.18-1.86
      c-0.06-0.57-0.11-1.1-0.16-1.57c-0.08-0.47-0.15-0.9-0.21-1.28c-0.25-1.51-0.42-2.26-0.5-2.25c-0.11,0.02-0.12,0.81-0.03,2.37
      c0.03,0.39,0.05,0.83,0.09,1.32c0.02,0.49,0.03,1.03,0.05,1.61c0.02,0.58,0.05,1.22,0.07,1.9c0,0.68,0,1.41,0,2.19
      c0.02,6.23-0.8,14.49-3.25,24.44c-1.23,4.98-2.82,10.25-4.79,15.77c-1.97,5.53-4.28,11.32-6.82,17.43
      c-5.06,12.23-10.67,24.81-14.59,38.52c-1.98,6.85-3.35,13.82-4.34,20.77c-1,6.95-1.62,13.89-2.1,20.78
      c-0.49,6.88-0.86,13.5-0.72,19.83c0.16,6.34,0.79,12.34,1.8,17.96c1,5.62,2.34,10.72,3.79,15.3c0.38,1.14,0.75,2.26,1.12,3.34
      c0.38,1.08,0.79,2.12,1.17,3.15c0.19,0.51,0.38,1.02,0.58,1.51c0.21,0.49,0.41,0.97,0.61,1.45c0.4,0.95,0.79,1.89,1.18,2.78
      c3.23,7.14,5.83,11.39,6.91,13.18c0.5,0.81,0.98,1.58,1.42,2.31c0.45,0.72,0.91,1.37,1.32,1.98c0.84,1.23,1.56,2.26,2.25,3.06
      c0.67,0.8,1.24,1.4,1.71,1.81c0.47,0.41,0.81,0.53,1,0.38c0.21-0.16-0.08-0.97-0.88-2.4c-0.2-0.36-0.42-0.74-0.66-1.15
      c-0.24-0.4-0.49-0.83-0.74-1.3c-0.51-0.92-1.09-1.93-1.75-3.03c-0.62-1.12-1.26-2.28-1.93-3.47c-0.34-0.59-0.65-1.21-0.98-1.83
      c-0.33-0.62-0.66-1.25-0.99-1.9C338.22,941.5,338.05,941.18,337.89,940.87z"
        class="colorStroke0e1a2b svgStroke"></path>
    </g>
  </g>
  <g>
    <path fill="#e2f4d4"
      d="M287.47,912.08c-12.73-14.5-27.7-30.1-46.55-30.32c-7.36-0.09-14.51,2.26-21.52,4.58
    c-20.35,6.74-40.69,13.49-61.04,20.23c21-16.21,43.18-30.76,66.3-43.47c7.46-4.1,15.16-8.07,23.49-9.44
    c24.47-4.03,47.14,15.16,60.83,36.68c13.69,21.53,22.32,46.65,38.95,65.8c-14.23,2.3-22.12,1.5-30.45-9.05
    C307.97,935.05,297.61,923.63,287.47,912.08z"
      class="colord4dff4 svgShape"></path>
    <path fill="none" stroke="#ffffff" stroke-miterlimit="10" stroke-width="1.5"
      d="M201.79,882.91c17.73-9.61,37.54-19.5,56.89-14.31c7.84,2.1,14.91,6.58,21.33,11.72
    c23.83,19.04,39.47,46.89,53.87,74.36"
      class="colorStrokefff svgStroke"></path>
    <path fill="none" stroke="#2b100e" stroke-linecap="round" stroke-linejoin="round"
      stroke-miterlimit="10"
      d="M288.58,906.29c-12.73-14.5-27.7-30.1-46.55-30.32c-7.36-0.09-14.51,2.26-21.52,4.58
  c-20.35,6.74-40.69,13.49-61.04,20.23c21-16.21,43.18-30.76,66.3-43.47c7.46-4.1,15.16-8.07,23.49-9.44
  c24.47-4.03,47.14,15.16,60.83,36.68c13.69,21.53,22.32,46.65,38.95,65.8c-14.23,2.3-22.12,1.5-30.45-9.05
  C309.08,929.26,298.72,917.84,288.58,906.29z"
      class="colorStroke0e1a2b svgStroke"></path>
  </g>
  <g>
    <path fill="#ffffff"
      d="M1619.04,761.59c0,0-8.11-17.47,12.22-67.09c0,0,4.05,24.9-1.81,43.46
    C1623.59,756.53,1619.04,761.59,1619.04,761.59z"
      class="colorfff svgShape"></path>
    <path fill="none" stroke="#2b100e" stroke-linecap="round" stroke-linejoin="round"
      stroke-miterlimit="10"
      d="M1617.12,759.63c0,0-8.11-17.47,12.22-67.09c0,0,4.05,24.9-1.81,43.46
    C1621.66,754.56,1617.12,759.63,1617.12,759.63z"
      class="colorStroke0e1a2b svgStroke"></path>
    <path fill="#ffffff"
      d="M1628.02,825.77c0,0-2.48-28.89-13.36-42.41c-10.88-13.52-22.47-35.49-21.92-43.4c0,0-4.75,22.6,2.19,40.48
    C1601.86,798.32,1624.8,809.77,1628.02,825.77z"
      class="colorfff svgShape"></path>
    <path fill="none" stroke="#2b100e" stroke-linecap="round" stroke-linejoin="round"
      stroke-miterlimit="10"
      d="M1626.09,823.8c0,0-2.48-28.89-13.36-42.41c-10.88-13.52-22.47-35.49-21.92-43.4c0,0-4.75,22.6,2.19,40.48
    C1599.93,796.35,1622.87,807.8,1626.09,823.8z"
      class="colorStroke0e1a2b svgStroke"></path>
    <path fill="#ffffff"
      d="M1623.42,801.87c0,0,3.77-9.57,14.11-25.95c10.34-16.38,13.02-21.1,11.37-50.15c0,0-5.58,16.78-12.56,25.74
    C1629.35,760.46,1620.03,784.55,1623.42,801.87z"
      class="colorfff svgShape"></path>
    <path fill="none" stroke="#2b100e" stroke-linecap="round" stroke-linejoin="round"
      stroke-miterlimit="10"
      d="M1621.49,799.9c0,0,3.77-9.57,14.11-25.95c10.34-16.38,13.02-21.1,11.37-50.15c0,0-5.58,16.78-12.56,25.74
    C1627.42,758.49,1618.1,782.58,1621.49,799.9z"
      class="colorStroke0e1a2b svgStroke"></path>
    <path fill="#ffffff"
      d="M1631.2,860.12c0,0-8.14-50.72,35.07-84.79c0,0,1.3,28.65-8.46,46.43
    C1648.06,839.53,1634.24,851.87,1631.2,860.12z"
      class="colorfff svgShape"></path>
    <path fill="none" stroke="#2b100e" stroke-linecap="round" stroke-linejoin="round"
      stroke-miterlimit="10"
      d="M1629.28,858.15c0,0-8.14-50.72,35.07-84.79c0,0,1.3,28.65-8.46,46.43
    C1646.13,837.56,1632.31,849.9,1629.28,858.15z"
      class="colorStroke0e1a2b svgStroke"></path>
    <path fill="#ffffff"
      d="M1627.19,899.53c0,0,3.43-36.52-5.75-55.62c-9.18-19.1-32.05-33.98-32.05-33.98s7.5,37.99,16.47,53.6
    C1614.83,879.14,1624.07,891.37,1627.19,899.53z"
      class="colorfff svgShape"></path>
    <path fill="none" stroke="#2b100e" stroke-linecap="round" stroke-linejoin="round"
      stroke-miterlimit="10"
      d="M1625.26,897.57c0,0,3.43-36.52-5.75-55.62c-9.18-19.1-32.05-33.98-32.05-33.98s7.5,37.99,16.47,53.6
    C1612.91,877.17,1622.15,889.4,1625.26,897.57z"
      class="colorStroke0e1a2b svgStroke"></path>
    <path fill="#ffffff"
      d="M1672.02,854.62c0,0-34.16,16.57-48.95,60.88c0,0,29.86-14.03,38.15-28.08
    C1669.5,873.35,1672.02,854.62,1672.02,854.62z"
      class="colorfff svgShape"></path>
    <path fill="none" stroke="#2b100e" stroke-linecap="round" stroke-linejoin="round"
      stroke-miterlimit="10"
      d="M1670.09,852.65c0,0-34.16,16.57-48.95,60.88c0,0,29.86-14.03,38.15-28.08
    C1667.58,871.38,1670.09,852.65,1670.09,852.65z"
      class="colorStroke0e1a2b svgStroke"></path>
    <g>
      <path fill="#ffffff"
        d="M1607.63,945.27c0,0,9.3-14.95,0.15-40.36c-9.15-25.4-14.51-28.92-14.51-28.92
    S1585.75,923.54,1607.63,945.27z"
        class="colorfff svgShape"></path>
      <path fill="none" stroke="#2b100e" stroke-linecap="round" stroke-linejoin="round"
        stroke-miterlimit="10"
        d="M1605.7,943.3c0,0,9.3-14.95,0.15-40.36c-9.15-25.4-14.51-28.92-14.51-28.92S1583.83,921.57,1605.7,943.3z"
        class="colorStroke0e1a2b svgStroke"></path>
    </g>
    <g>
      <path fill="#ffffff"
        d="M1601.72,949.29c-0.43,0.54-0.85,1.08-1.27,1.6c-0.42,0.53-0.81,1.06-1.24,1.55
      c-0.83,1-1.64,1.98-2.42,2.92c-0.8,0.92-1.53,1.76-2.17,2.53c-0.32,0.39-0.63,0.75-0.92,1.09c-0.29,0.34-0.56,0.66-0.82,0.96
      c-0.99,1.2-1.41,1.91-1.24,2.09c0.16,0.18,0.49,0.12,1.01-0.18c0.52-0.3,1.15-0.76,1.93-1.39c0.79-0.63,1.65-1.47,2.65-2.47
      c0.49-0.5,1.04-1.03,1.59-1.63c0.55-0.6,1.13-1.24,1.74-1.91c1.33-1.48,4.51-5.02,8.81-11.15c0.53-0.77,1.05-1.58,1.6-2.4
      c0.27-0.41,0.55-0.83,0.83-1.25c0.27-0.43,0.53-0.87,0.81-1.32c0.54-0.89,1.1-1.8,1.66-2.75c0.53-0.96,1.08-1.94,1.64-2.94
      c2.17-4.05,4.32-8.6,6.25-13.69c1.94-5.09,3.58-10.62,4.85-16.53c1.24-5.92,2.06-12.2,2.82-18.74
      c0.76-6.55,1.4-13.17,1.69-19.87c0.29-6.69,0.23-13.48-0.41-20.26c-1.26-13.56-4.31-26.35-6.9-38.72
      c-1.31-6.18-2.46-12.03-3.33-17.56c-0.87-5.53-1.44-10.75-1.71-15.64c-0.55-9.77,0.15-17.66,1.26-23.51
      c0.14-0.73,0.26-1.42,0.38-2.06c0.14-0.64,0.28-1.23,0.4-1.77c0.12-0.55,0.23-1.05,0.33-1.5c0.12-0.45,0.22-0.86,0.31-1.22
      c0.36-1.45,0.49-2.2,0.39-2.23c-0.07-0.03-0.36,0.65-0.87,2.02c-0.12,0.34-0.26,0.73-0.42,1.16c-0.13,0.44-0.27,0.92-0.43,1.45
      c-0.15,0.53-0.32,1.1-0.5,1.72c-0.16,0.62-0.31,1.29-0.48,2c-0.37,1.42-0.62,2.99-0.94,4.66c-0.25,1.69-0.54,3.49-0.7,5.42
      c-0.38,3.86-0.56,8.23-0.41,13.06c0.14,4.84,0.59,10,1.33,15.46c0.72,5.46,1.78,11.21,2.98,17.27c1.2,6.06,2.51,12.16,3.7,18.37
      c0.6,3.1,1.15,6.23,1.66,9.38c0.49,3.15,0.94,6.33,1.28,9.54c1.46,12.82,0.72,25.52-0.61,37.9c-0.68,6.19-1.38,12.08-2.3,17.59
      c-0.47,2.75-0.97,5.42-1.6,7.97c-0.59,2.56-1.29,5.02-2.01,7.39c-2.96,9.46-6.62,16.82-9.79,22.39c-0.8,1.39-1.56,2.6-2.21,3.67
      c-0.66,1.06-1.28,1.95-1.77,2.71c-0.98,1.52-1.66,2.4-1.89,2.73c-0.67,0.92-1.33,1.91-2.1,2.91c-0.38,0.5-0.76,1.02-1.16,1.55
      c-0.2,0.27-0.4,0.54-0.6,0.81C1602.15,948.75,1601.94,949.02,1601.72,949.29z"
        class="colorfff svgShape"></path>
      <path fill="none" stroke="#2b100e" stroke-linecap="round" stroke-linejoin="round"
        stroke-miterlimit="10"
        d="M1600.68,947.81c-0.43,0.54-0.85,1.08-1.27,1.6c-0.41,0.53-0.81,1.06-1.24,1.55
      c-0.83,1-1.64,1.98-2.42,2.92c-0.8,0.92-1.53,1.76-2.17,2.53c-0.32,0.39-0.63,0.75-0.92,1.09c-0.29,0.34-0.56,0.66-0.82,0.96
      c-0.99,1.2-1.41,1.91-1.24,2.09c0.16,0.18,0.49,0.12,1.01-0.18c0.52-0.3,1.15-0.76,1.93-1.39c0.79-0.63,1.65-1.47,2.65-2.47
      c0.49-0.5,1.04-1.03,1.59-1.62c0.55-0.6,1.13-1.24,1.74-1.91c1.33-1.48,4.51-5.02,8.81-11.15c0.53-0.77,1.05-1.58,1.6-2.4
      c0.27-0.41,0.55-0.83,0.83-1.25c0.27-0.43,0.53-0.87,0.81-1.32c0.54-0.89,1.1-1.8,1.66-2.75c0.53-0.96,1.08-1.94,1.64-2.94
      c2.17-4.05,4.32-8.6,6.25-13.69c1.94-5.09,3.58-10.62,4.85-16.53c1.24-5.92,2.06-12.2,2.82-18.74
      c0.76-6.55,1.4-13.17,1.69-19.87c0.29-6.69,0.23-13.48-0.41-20.26c-1.26-13.56-4.31-26.35-6.9-38.72
      c-1.31-6.18-2.46-12.03-3.33-17.56c-0.87-5.53-1.44-10.76-1.71-15.64c-0.55-9.77,0.15-17.66,1.26-23.51
      c0.14-0.73,0.26-1.42,0.38-2.06c0.14-0.64,0.28-1.23,0.4-1.77c0.12-0.55,0.23-1.05,0.33-1.5c0.12-0.45,0.22-0.86,0.31-1.22
      c0.36-1.45,0.49-2.2,0.39-2.23c-0.07-0.03-0.36,0.65-0.87,2.02c-0.12,0.34-0.26,0.73-0.42,1.16c-0.13,0.44-0.27,0.92-0.43,1.45
      c-0.15,0.53-0.32,1.1-0.5,1.72c-0.16,0.62-0.31,1.29-0.48,2.01c-0.37,1.42-0.62,2.99-0.94,4.66c-0.25,1.69-0.54,3.49-0.7,5.42
      c-0.38,3.86-0.56,8.23-0.41,13.06c0.14,4.84,0.59,10,1.33,15.46c0.72,5.46,1.78,11.21,2.98,17.27c1.2,6.06,2.51,12.16,3.7,18.37
      c0.6,3.1,1.15,6.23,1.66,9.38c0.49,3.15,0.94,6.33,1.28,9.54c1.46,12.82,0.72,25.52-0.61,37.9c-0.68,6.19-1.38,12.08-2.3,17.59
      c-0.47,2.75-0.97,5.42-1.6,7.97c-0.59,2.56-1.29,5.02-2.01,7.39c-2.96,9.46-6.62,16.82-9.79,22.39c-0.8,1.39-1.56,2.6-2.21,3.67
      c-0.66,1.06-1.28,1.95-1.77,2.71c-0.98,1.52-1.66,2.4-1.89,2.73c-0.67,0.92-1.33,1.91-2.11,2.91c-0.38,0.5-0.76,1.02-1.16,1.55
      c-0.2,0.27-0.4,0.54-0.6,0.81C1601.11,947.27,1600.9,947.54,1600.68,947.81z"
        class="colorStroke0e1a2b svgStroke"></path>
    </g>
  </g>
  <g>
    <path fill="#e2f4d4"
      d="M1625.45,908.87c11.13-13.52,24.12-25.74,38.88-35.34c10.42-6.78,22.74-11.25,35.53-12.88
    c4.44-0.57,9.56-0.59,12.68,2.27c2.72,2.51,3.16,6.64,6.32,8.7c3.99,2.6,9.72,0.33,13.28-2.71c3.57-3.04,6.58-6.99,11.29-8.32
    c4.21-1.19,9.18,0.21,11.83,3.35c2.99,3.53,2.89,8.41,4.99,12.41c2.71,5.16,9.39,8.44,15.76,7.73c-6.05,3.37-14,3.88-20.53,1.31
    c-3.46-1.36-7.22-3.55-10.68-2.21c-4.13,1.6-4.17,6.63-4.99,10.57c-1.69,8.07-9.02,14.18-16.39,19.12
    c-6.17,4.13-13.78,8.06-21.22,6.2c-4.94-1.24-9.68-4.96-14.52-3.43c-4.53,1.43-5.79,6.43-7.19,10.51
    c-3.39,9.85-11.59,18.22-21.85,23.04c-9.93,4.67-23.45,7.03-34.26,3.66c-4.85-1.51-7.48-2.93-13.03-2.4
    c-2.89,0.28-13.69,1.65-15,4.4C1603.87,939.09,1613.61,923.24,1625.45,908.87z"
      class="colord4dff4 svgShape"></path>
    <path fill="none" stroke="#ffffff" stroke-miterlimit="10" stroke-width="1.5"
      d="M1598.97,955.6c13.46-20.64,11.31-14.7,31.66-30.27s44.76-27.33,71.11-31.96c6.87-1.21,14-1.98,20.13-4.98
    c5.84-2.86,10.32-7.54,16.09-10.5c5.77-2.96,14.13-3.61,18.31,1"
      class="colorStrokefff svgStroke"></path>
    <path fill="none" stroke="#2b100e" stroke-linecap="round" stroke-linejoin="round"
      stroke-miterlimit="10"
      d="M1625.47,907.26c10.85-13.7,23.58-26.13,38.14-35.97c10.28-6.95,22.5-11.61,35.25-13.45
  c4.43-0.64,9.55-0.75,12.72,2.06c2.77,2.46,3.3,6.58,6.5,8.59c4.04,2.53,9.72,0.17,13.22-2.93c3.5-3.1,6.43-7.09,11.12-8.51
  c4.18-1.26,9.18,0.06,11.9,3.15c3.06,3.48,3.06,8.36,5.25,12.33c2.82,5.12,9.56,8.28,15.91,7.47c-5.98,3.47-13.92,4.11-20.5,1.65
  c-3.49-1.3-7.29-3.44-10.73-2.04c-4.1,1.67-4.03,6.7-4.77,10.65c-1.52,8.09-8.72,14.33-16,19.38c-6.08,4.23-13.61,8.28-21.08,6.54
  c-4.96-1.16-9.78-4.8-14.59-3.19c-4.5,1.5-5.65,6.52-6.97,10.63c-3.19,9.91-11.21,18.4-21.37,23.39
  c-9.83,4.83-23.3,7.41-34.18,4.22c-4.88-1.43-7.54-2.81-13.08-2.19c-2.88,0.32-13.65,1.87-14.91,4.64
  C1604.53,937.82,1613.94,921.82,1625.47,907.26z"
      class="colorStroke0e1a2b svgStroke"></path>
  </g>
  <g>
    <line x1="270.57" x2="1680.51" y1="958.24" y2="958.24" fill="none" stroke="#4d6b30"
      stroke-miterlimit="10" stroke-width="16" class="colorStroke81b4fd svgStroke"></line>
  </g>
</svg>